<?xml version="1.0" encoding="UTF-8" standalone="no"?>
<svg
   xmlns:dc="http://purl.org/dc/elements/1.1/"
   xmlns:cc="http://creativecommons.org/ns#"
   xmlns:rdf="http://www.w3.org/1999/02/22-rdf-syntax-ns#"
   xmlns:svg="http://www.w3.org/2000/svg"
   xmlns="http://www.w3.org/2000/svg"
   xmlns:xlink="http://www.w3.org/1999/xlink"
   xmlns:sodipodi="http://sodipodi.sourceforge.net/DTD/sodipodi-0.dtd"
   xmlns:inkscape="http://www.inkscape.org/namespaces/inkscape"
   inkscape:export-ydpi="96"
   inkscape:export-xdpi="96"
   inkscape:export-filename="S:\Dev\Icons\Andrew\AndrewRaven9.png"
   sodipodi:docname="AndrewIconRavenAura5.svg"
   inkscape:version="1.0 (4035a4fb49, 2020-05-01)"
   id="svg1009"
   version="1.1"
   viewBox="0 0 270.93333 270.93334"
   height="1024"
   width="1024">
  <defs
     id="defs1003">
    <rect
       id="rect2139"
       height="71.211953"
       width="276.87632"
       y="-129.13809"
       x="-9.0343522" />
    <linearGradient
       id="linearGradient1067"
       inkscape:collect="always">
      <stop
         id="stop1063"
         offset="0"
         style="stop-color:#214468;stop-opacity:1" />
      <stop
         style="stop-color:#587693;stop-opacity:0.95294118"
         offset="0.32024845"
         id="stop1285" />
      <stop
         style="stop-color:#7ea8d1;stop-opacity:0.95294118"
         offset="0.38601628"
         id="stop1085" />
      <stop
         id="stop1095"
         offset="0.535061"
         style="stop-color:#62e9f4;stop-opacity:0.66666675" />
      <stop
         style="stop-color:#e610f9;stop-opacity:0.29411766"
         offset="0.65896732"
         id="stop1083" />
      <stop
         id="stop1093"
         offset="0.81506538"
         style="stop-color:#581274;stop-opacity:1" />
      <stop
         id="stop1065"
         offset="1"
         style="stop-color:#070111;stop-opacity:1" />
    </linearGradient>
    <inkscape:path-effect
       fuse_tolerance="0"
       hide_knot="false"
       vertical_pattern="false"
       prop_units="false"
       tang_offset="0"
       normal_offset="0"
       spacing="0"
       scale_y_rel="false"
       prop_scale="1"
       copytype="single_stretched"
       pattern="m -22.645423,-27.003986 h 1.164054"
       lpeversion="1"
       is_visible="true"
       id="path-effect2418"
       effect="skeletal" />
    <inkscape:path-effect
       fuse_tolerance="0"
       hide_knot="false"
       vertical_pattern="false"
       prop_units="false"
       tang_offset="0"
       normal_offset="0"
       spacing="0"
       scale_y_rel="false"
       prop_scale="1"
       copytype="single_stretched"
       pattern="m 3.181531,3.0124702 h 3.809584 c 0.9031111,0 1.6935821,0.1880097 2.3709162,0.5643099 0.6961478,0.3574799 1.2414798,0.87502 1.6365928,1.5523599 0.39511,0.6585101 0.592728,1.41107 0.592728,2.2577401 0,0.79022 -0.197618,1.4957801 -0.592728,2.1166701 C 10.603511,10.12443 10.058179,10.61368 9.3620312,10.97116 8.6846971,11.30982 7.8942261,11.47914 6.991115,11.47914 H 3.181531 Z M 82.237117,6.32958 c -1.467551,0 -2.793751,0.34823 -3.979082,1.04438 -1.166519,0.6773301 -2.098,1.6088101 -2.794148,2.79414 -0.67732,1.16652 -1.01595,2.50233 -1.01595,4.00751 0,1.48637 0.319918,2.82218 0.959628,4.00751 0.639702,1.18533 1.514581,2.11681 2.624651,2.79414 1.11007,0.67734 2.36148,1.01596 3.753771,1.01596 1.392298,0 2.624489,-0.1652 3.69693,-0.82372 0.630849,-0.40004 1.888768,-1.53065 1.888768,-1.53065 l 0.105431,-0.22893 v 1.16013 c 0,0 0.0385,0.72273 0.263541,0.97152 0.22974,0.25394 0.583348,0.3669 0.959638,0.3669 0.39511,0 0.715042,-0.12231 0.959631,-0.3669 0.244591,-0.26341 0.3669,-0.58333 0.3669,-0.95963 v -6.72207 h -5.29e-4 C 90.023307,12.38265 89.675906,11.34888 88.982436,10.1681 88.305106,8.9827701 87.383226,8.0512901 86.216707,7.37396 85.050185,6.67781 83.723475,6.32958 82.237106,6.32958 Z m 19.439123,0.60565 c -2.147023,-0.006 -3.750363,0.49392 -4.905645,1.3079302 l 0.01191,-0.022701 c 0,-0.4327398 0.0113,-0.5702498 -0.21445,-0.7772098 -0.20697,-0.2257801 -0.526889,-0.33849 -0.959631,-0.33849 -0.41393,0 -0.733348,0.1127099 -0.959119,0.33849 -0.22578,0.22577 -0.339,0.5456999 -0.339,0.95963 V 21.243949 c 0,0.43274 0.11322,0.76228 0.339,0.98806 0.225771,0.20696 0.545189,0.31005 0.959119,0.31005 0.432742,0 0.752661,-0.1127 0.959631,-0.33847 0.225772,-0.22578 0.339,-0.54571 0.339,-0.95964 0,0 -0.0011,-8.30107 0.003,-8.37726 0.0458,-0.83949 0.307549,-1.58988 0.787551,-2.12132 0.526809,-0.58326 1.241459,-0.99719 2.144569,-1.2417799 0.921929,-0.2446001 1.966119,-0.2729 3.132629,-0.0847 0.26341,0.0564 0.50803,0.0751 0.7338,0.0563 0.22579,-0.018801 0.41431,-0.0936 0.56483,-0.2253099 0.16933,-0.1317001 0.29108,-0.32932 0.36638,-0.5927302 0.11289,-0.4891899 -0.0938,-0.89403 -0.62063,-1.21388 -0.52682,-0.3386698 -1.30768,-0.5079799 -2.34249,-0.5079799 z m 11.98222,0.0253 c -1.46756,0 -2.79427,0.34823 -3.9796,1.04438 -1.16652,0.6773301 -2.09748,1.6082901 -2.79363,2.7936305 -0.67733,1.16651 -1.01647,2.50284 -1.01647,4.00802 0,1.48637 0.31992,2.82217 0.95963,4.00751 0.6397,1.18533 1.51457,2.11629 2.62464,2.79363 1.11008,0.67733 2.36149,1.01596 3.75378,1.01596 1.3923,0 2.71854,-0.32902 3.79098,-0.98754 0.63085,-0.40005 1.79524,-1.34307 1.79524,-1.34307 l 0.10491,-0.22841 V 21.201 c 0,0 0.0385,0.72273 0.26354,0.97152 0.22974,0.25394 0.58335,0.3669 0.95964,0.3669 0.39511,0 0.71504,-0.12231 0.95963,-0.3669 0.24459,-0.26341 0.3669,-0.58334 0.3669,-0.95963 v -6.72207 h -5.3e-4 c -0.003,-1.47722 -0.35039,-2.51151 -1.04386,-3.69228 -0.67733,-1.1853298 -1.59921,-2.1162998 -2.76572,-2.79363 -1.16653,-0.69615 -2.49272,-1.04438 -3.97909,-1.04438 z m -50.038805,0.003 c -1.241769,0 -2.486509,0.20941 -3.487639,0.7477598 -0.432531,0.2325801 -0.940771,0.5413801 -1.42317,0.8805601 V 8.4311397 c 0,-0.3951099 -0.12232,-0.7150399 -0.366911,-0.95963 -0.244589,-0.2445898 -0.564521,-0.3668998 -0.959628,-0.3668998 -0.39511,0 -0.715042,0.12231 -0.959631,0.3668998 -0.244591,0.2445901 -0.3669,0.5645201 -0.3669,0.95963 V 21.24379 c 0,0.3763 0.122309,0.69623 0.3669,0.95964 0.244589,0.24459 0.564521,0.3669 0.959631,0.3669 0.395107,0 0.715039,-0.12231 0.959628,-0.3669 0.244591,-0.26341 0.366911,-0.58334 0.366911,-0.95964 v -8.09976 c 0,-0.71496 0.19762,-1.35482 0.59273,-1.91926 0.39511,-0.56445 0.921739,-1.01577 1.580261,-1.3544398 0.677328,-0.3386701 1.4395,-0.5079802 2.286169,-0.5079802 0.884291,0 1.674238,0.17892 2.370389,0.5364002 0.71497,0.3386698 1.270431,0.8652998 1.665531,1.5802698 0.41393,0.69614 0.620641,1.58971 0.620641,2.68097 v 7.0838 c 0,0.3763 0.122309,0.69623 0.366898,0.95964 0.263411,0.24459 0.583332,0.3669 0.95963,0.3669 0.376291,0 0.68662,-0.12231 0.931212,-0.3669 0.263408,-0.26341 0.39533,-0.58334 0.39533,-0.95964 v -7.0838 c 0,-1.54281 -0.301242,-2.85032 -0.903312,-3.92276 -0.60207,-1.0724398 -1.420339,-1.88161 -2.45515,-2.4272399 -1.034799,-0.5644401 -2.201289,-0.84646 -3.49952,-0.84646 z m 101.313195,0 c -1.24177,0 -2.54729,0.0812 -3.54448,0.6268299 -0.43898,0.2319099 -0.92127,0.5288801 -1.3808,0.8666199 l 0.0145,-0.025799 c 0,-0.3951102 -0.12231,-0.7150401 -0.3669,-0.9596302 -0.24459,-0.2445999 -0.56452,-0.3669099 -0.95963,-0.3669099 -0.39511,0 -0.71453,0.12231 -0.95911,0.3669099 -0.2446,0.2445901 -0.36691,0.56452 -0.36691,0.9596302 V 21.24383 c 0,0.3763 0.12231,0.69623 0.36691,0.95963 0.24458,0.2446 0.564,0.3669 0.95911,0.3669 0.39511,0 0.71504,-0.1223 0.95963,-0.3669 0.24459,-0.2634 0.3669,-0.58333 0.3669,-0.95963 v -8.08271 c 0,-0.73185 0.19762,-1.37187 0.59273,-1.93631 0.39511,-0.56445 0.92175,-1.01578 1.58027,-1.3544399 C 162.8724,9.5317 163.63456,9.36239 164.48123,9.36239 c 0.88429,0 1.67477,0.17892 2.37092,0.5364001 0.71497,0.3386599 1.2699,0.8652999 1.66501,1.5802599 0.41393,0.69615 0.62063,1.58972 0.62063,2.68098 v 7.0838 c 0,0.3763 0.12232,0.69623 0.36691,0.95963 0.26341,0.2446 0.58333,0.3669 0.95963,0.3669 0.37629,10e-6 0.68662,-0.1223 0.93121,-0.3669 0.26341,-0.2634 0.39532,-0.58333 0.39532,-0.95963 v -7.0838 c 0,-1.54282 -0.30123,-2.85032 -0.9033,-3.92276 -0.60207,-1.0724399 -1.42034,-1.8816098 -2.45515,-2.4272399 -1.03481,-0.5644499 -2.2013,-0.84646 -3.49953,-0.84646 z m -140.021897,0.0279 c -1.467557,0 -2.793754,0.34823 -3.979085,1.04438 -1.166519,0.6773299 -2.097997,1.6088098 -2.794145,2.7941398 -0.677334,1.16652 -1.015958,2.50233 -1.015958,4.00751 0,1.48637 0.319926,2.82218 0.959631,4.00751 0.639701,1.18533 1.514572,2.11681 2.624645,2.79414 1.110073,0.67733 2.360964,1.01596 3.75326,1.01596 1.392293,0 2.625002,-0.16469 3.697448,-0.8232 0.843778,-0.48716 1.888773,-1.53118 1.888773,-1.53118 l 0.104902,-0.22789 v 1.1591 c 0,0 0.03899,0.72273 0.264068,0.97152 0.229732,0.25394 0.583335,0.3669 0.95963,0.3669 0.395113,0 0.715039,-0.12231 0.959634,-0.3669 0.244594,-0.26341 0.366387,-0.58334 0.366387,-0.95963 v -6.72207 h -5.3e-4 c -0.0028,-1.47694 -0.349959,-2.51113 -1.043347,-3.69177 -0.677333,-1.18533 -1.599205,-2.1168099 -2.765724,-2.7941398 -1.166516,-0.69615 -2.493231,-1.04438 -3.979599,-1.04438 z m 19.072214,0 c -1.505183,0 -2.850592,0.33914 -4.03592,1.0164699 -1.166522,0.6585201 -2.088394,1.5803901 -2.765727,2.7657299 -0.658519,1.16651 -0.987533,2.52102 -0.987533,4.06383 0,1.524 0.310316,2.8785 0.931209,4.06384 0.639701,1.16651 1.504963,2.08838 2.596221,2.76572 1.110073,0.65852 2.380184,0.98805 3.8101,0.98805 1.317035,0 2.40387,-0.26228 3.471082,-0.7767 1.040035,-0.50132 1.709672,-1.02904 2.229829,-2.00762 -5.29e-4,-1.07303 -0.0021,-4.36407 -0.004,-4.85604 -0.02381,0.99959 -0.246509,1.89165 -0.672827,2.67322 -0.451546,0.80904 -1.072714,1.4489 -1.862932,1.91927 -0.771403,0.47036 -1.674566,0.70538 -2.709373,0.70538 -1.015994,0 -1.918649,-0.23502 -2.708872,-0.70538 -0.790221,-0.47037 -1.411381,-1.11023 -1.862934,-1.91927 -0.451557,-0.82785 -0.677479,-1.77803 -0.677479,-2.85047 0,-1.07244 0.225922,-2.02262 0.677479,-2.85047 0.451553,-0.82785 1.072713,-1.4768 1.862934,-1.94717 0.790223,-0.47037 1.692878,-0.7059 2.708872,-0.7059 1.034807,0 1.93797,0.23553 2.709373,0.7059 0.790218,0.47037 1.411386,1.11932 1.862932,1.94717 0.425868,0.78076 0.648078,1.6718 0.672306,2.67012 0.0021,0.0602 0.005,0.11935 0.005,0.18035 0,0.01 -0.0011,0.0195 -0.0011,0.0295 0.009,0.79771 0.171908,2.78633 0.103347,4.80333 0.01241,-0.0258 -0.02098,0.0577 -0.0088,0.0313 l -0.0041,0.27775 c -0.0697,1.49099 -0.278969,2.93851 -0.795306,3.83284 -0.492506,0.85307 -1.101114,1.52403 -1.891337,1.975588 -0.790218,0.470371 -1.665092,0.705384 -2.624635,0.705384 -1.015997,0 -1.928257,-0.18801 -2.737292,-0.564309 -0.79022,-0.376295 -1.448776,-0.893843 -1.97559,-1.552363 -0.206963,-0.2634 -0.48898,-0.43272 -0.846461,-0.50797 -0.338664,-0.0753 -0.658593,-0.009 -0.95963,0.19791 -0.282221,0.20697 -0.45153,0.46068 -0.507979,0.76172 -0.05645,0.31985 0.03756,0.621077 0.282152,0.9033 0.771408,0.997186 1.730674,1.758834 2.878378,2.285649 1.166519,0.545629 2.446229,0.818555 3.838522,0.818555 1.523992,0 2.869393,-0.357323 4.035907,-1.072285 1.185322,-0.696148 2.107186,-1.655932 2.765705,-2.878899 0.658506,-1.20415 0.987536,-2.55865 0.987536,-4.06383 v -4.98679 -0.99632 c 0,-1.54282 -0.33863,-2.89732 -1.015958,-4.06383 C 50.097785,9.58835 49.18552,8.66648 48.019018,8.0079601 46.852504,7.33063 45.507103,6.99149 43.983111,6.99149 Z M 49.322344,19.97927 c 0.005,-0.10295 0.009,-0.20583 0.01291,-0.30903 -0.0335,0.0696 -0.0681,0.13512 -0.102838,0.20051 7.1e-5,0.17242 5.29e-4,0.7935 5.29e-4,0.78031 z m -0.0904,-5.11235 c -7.94e-4,-0.0631 -0.006,-0.16277 -0.004,-0.20981 1.72e-4,-0.006 2.62e-4,0.32137 5.29e-4,0.3576 0.0011,-0.0493 0.003,-0.0979 0.004,-0.14779 z m 92.837186,-2.90835 c 0.39854,-0.85402 1.00626,-1.50522 1.77767,-1.97559 0.79022,-0.48919 1.7217,-0.7332898 2.79415,-0.7332898 0.97837,0 1.81532,0.2253999 2.51147,0.67696 1.09562,0.7272098 1.90226,1.9302798 2.09651,3.6974498 l -9.67229,-0.01 c 0.0971,-0.55068 0.2691,-1.17709 0.49249,-1.65577 z m 10.41375,3.78176 c 0.35749,-0.001 0.64911,-0.10362 0.87488,-0.31058 0.22578,-0.22578 0.33848,-0.50831 0.33848,-0.84698 0,-1.48637 -0.28201,-2.79386 -0.84646,-3.92275 -0.56444,-1.1477099 -1.38322,-2.0412698 -2.45566,-2.6809799 -1.05364,-0.6585101 -2.30453,-0.9880499 -3.75326,-0.9880499 l 9e-5,-4.03e-5 c -1.46756,0 -2.77505,0.3391401 -3.92276,1.0164702 -1.12889,0.6585199 -2.01337,1.5803901 -2.65307,2.7657299 -0.63971,1.16651 -0.95963,2.52102 -0.95963,4.06383 0,1.524 0.33863,2.8785 1.01596,4.06384 0.67733,1.16651 1.61841,2.08838 2.82256,2.76572 1.20415,0.65852 2.57736,0.98805 4.12017,0.98805 0.86547,0 1.77825,-0.16022 2.73781,-0.48007 0.95955,-0.33867 1.74951,-0.76169 2.3704,-1.26969 0.30102,-0.22578 0.44203,-0.4891 0.42323,-0.79013 -0.0188,-0.31986 -0.17853,-0.61148 -0.47956,-0.87489 -0.22578,-0.18815 -0.48909,-0.27305 -0.79013,-0.25425 -0.30103,0 -0.58357,0.094 -0.84698,0.28216 -0.39511,0.30103 -0.91214,0.56435 -1.55184,0.79013 -0.62089,0.22578 -1.24204,0.339 -1.86293,0.339 -1.09127,0 -2.06014,-0.23553 -2.9068,-0.7059 -0.82785,-0.48919 -1.4864,-1.14722 -1.9756,-1.97508 -0.29407,-0.52934 -0.53167,-1.32278 -0.64184,-1.94044 z M 123.9152,7.14649 c -0.15052,0.009 -0.30113,0.0519 -0.45165,0.1271302 -0.33867,0.1505199 -0.56459,0.37592 -0.67748,0.67696 -0.11291,0.2822199 -0.10329,0.57384 0.0284,0.87488 l 6.09576,12.8410798 c 0.28222,0.56444 0.69615,0.84697 1.24178,0.84697 0.54563,0 0.95047,-0.28253 1.21388,-0.84697 l 6.03942,-12.8689799 c 0.1505,-0.2822299 0.16922,-0.57385 0.0563,-0.87489 -0.11289,-0.3010299 -0.32011,-0.5173501 -0.62115,-0.6490499 -0.33867,-0.1505201 -0.66769,-0.16974 -0.98754,-0.0568 -0.31985,0.0941 -0.55486,0.2916901 -0.70538,0.5927301 L 130.12356,18.33604 125.04377,7.8095501 c -0.15052,-0.30104 -0.37644,-0.4986599 -0.67748,-0.5927301 -0.15053,-0.0564 -0.30062,-0.0797 -0.45114,-0.0703 z M 82.237117,8.67147 c 1.016,0 1.91008,0.24462 2.681499,0.7338002 0.790221,0.4703699 1.410859,1.1198398 1.86241,1.9476798 0.469789,0.82684 0.706321,1.84981 0.705901,2.81844 l -0.01,0.001 v 0.31523 c -0.0459,0.86314 -0.276529,1.74308 -0.696079,2.4815 -0.451551,0.82785 -1.0722,1.4864 -1.86242,1.97559 -0.771409,0.47037 -1.665489,0.70538 -2.681489,0.70538 -0.978371,0 -1.87194,-0.23501 -2.680981,-0.70538 -0.79022,-0.48919 -1.420471,-1.14774 -1.890839,-1.97559 -0.451551,-0.82785 -0.677471,-1.75933 -0.677471,-2.79415 0,-1.05363 0.22592,-1.9942 0.677471,-2.82205 0.470368,-0.82785 1.100619,-1.4773102 1.890839,-1.9476804 0.809041,-0.48919 1.70261,-0.73381 2.680981,-0.73381 z m 31.421343,0.6309601 c 1.016,0 1.90957,0.24462 2.68098,0.7338099 0.79022,0.47037 1.41087,1.11932 1.86241,1.94717 0.46979,0.82683 0.70632,1.85032 0.7059,2.81895 l -0.01,0.001 v 0.315219 c -0.0459,0.863151 -0.27653,1.742571 -0.69608,2.480991 -0.45155,0.827849 -1.0722,1.486399 -1.86242,1.975589 -0.77141,0.470371 -1.66497,0.705901 -2.68097,0.705901 -0.97837,0 -1.87245,-0.23553 -2.68149,-0.705901 -0.79023,-0.48919 -1.42048,-1.14774 -1.89084,-1.975589 -0.45156,-0.82785 -0.67697,-1.75882 -0.67697,-2.793631 0,-1.05363 0.22541,-1.994719 0.67697,-2.822569 0.47036,-0.827851 1.10061,-1.476791 1.89084,-1.947161 0.80904,-0.4891895 1.70312,-0.7338095 2.68149,-0.7338095 z m -88.747513,0.031 c 1.015997,0 1.909567,0.24462 2.680972,0.73381 0.790221,0.47037 1.411381,1.11983 1.862937,1.94768 0.469789,0.82683 0.705996,1.84981 0.705382,2.81844 l -0.0098,0.001 v 0.31522 c -0.04594,0.86315 -0.27601,1.74309 -0.695563,2.4815 -0.451556,0.82786 -1.072716,1.48641 -1.862936,1.9756 -0.771406,0.47036 -1.664975,0.70538 -2.680973,0.70538 -0.97837,0 -1.871937,-0.23502 -2.680972,-0.70538 -0.790223,-0.48919 -1.420471,-1.14774 -1.890842,-1.9756 -0.451554,-0.82785 -0.677479,-1.75933 -0.677479,-2.79414 0,-1.05363 0.225925,-1.9942 0.677479,-2.82205 0.470371,-0.82785 1.100619,-1.47731 1.890842,-1.94768 0.809035,-0.4891903 1.702602,-0.7338103 2.680972,-0.7338103 z M 12.368802,22.00979 c 0.150519,0.22577 0.360932,0.27766 0.54908,0.39055 0.188148,0.0941 0.414073,0.14107 0.677479,0.14107 0.564444,0 0.959678,-0.21631 1.185458,-0.64905 0.225777,-0.43274 0.175761,-0.90089 -0.141076,-1.41077 l -4.404924,-7.08881 c 1.091258,-0.56444 2.419435,-1.59442 3.021508,-2.5916 0.620889,-0.9971898 0.931725,-2.1353699 0.931725,-3.4147798 0,-1.3546701 -0.310836,-2.5494602 -0.931725,-3.5842803 C 12.654254,2.7673102 11.807688,1.95814 10.71643,1.37488 9.625172,0.79162 8.3833711,0.50000001 6.9910751,0.50000001 H 1.854955 c -0.39511,0 -0.724646,0.13192 -0.98805199,0.39532001 C 0.622309,1.13991 0.50000001,1.45984 0.50000001,1.85495 v 19.33216 c 0,0.39511 0.12230899,0.72413 0.366903,0.98753 0.26340599,0.2446 0.59294199,0.36691 0.98805199,0.36691 0.395113,0 0.715039,-0.12231 0.959633,-0.36691 0.2445909,-0.2634 0.366903,-0.59242 0.366903,-0.98753 V 13.99065 H 7.5059 Z"
       lpeversion="1"
       is_visible="true"
       id="path-effect2365"
       effect="skeletal" />
    <inkscape:path-effect
       effect="skeletal"
       id="path-effect2354"
       is_visible="true"
       lpeversion="1"
       pattern="m -24.043793,-28.402356 h 1.174377"
       copytype="single_stretched"
       prop_scale="1"
       scale_y_rel="false"
       spacing="0"
       normal_offset="0"
       tang_offset="0"
       prop_units="false"
       vertical_pattern="false"
       hide_knot="false"
       fuse_tolerance="0" />
    <inkscape:path-effect
       fuse_tolerance="0"
       hide_knot="false"
       vertical_pattern="false"
       prop_units="false"
       tang_offset="0"
       normal_offset="0"
       spacing="0"
       scale_y_rel="false"
       prop_scale="1"
       copytype="single_stretched"
       pattern="m -1.7018946,-1.7019017 h 1.00866037"
       lpeversion="1"
       is_visible="true"
       id="path-effect2336"
       effect="skeletal" />
    <inkscape:path-effect
       fuse_tolerance="0"
       hide_knot="false"
       vertical_pattern="false"
       prop_units="false"
       tang_offset="0"
       normal_offset="0"
       spacing="0"
       scale_y_rel="false"
       prop_scale="1"
       copytype="single_stretched"
       pattern="M 0,0 H 1"
       lpeversion="1"
       is_visible="true"
       id="path-effect2290"
       effect="skeletal" />
    <rect
       x="55.239586"
       y="-50.730232"
       width="187.77321"
       height="39.456847"
       id="rect966" />
    <linearGradient
       inkscape:collect="always"
       id="linearGradient1362">
      <stop
         style="stop-color:#575757;stop-opacity:1"
         offset="0"
         id="stop1358" />
      <stop
         style="stop-color:#0f0f0f;stop-opacity:1"
         offset="1"
         id="stop1360" />
    </linearGradient>
    <linearGradient
       inkscape:collect="always"
       id="linearGradient1356">
      <stop
         style="stop-color:#050505;stop-opacity:1"
         offset="0"
         id="stop1348" />
      <stop
         id="stop1350"
         offset="0.34801045"
         style="stop-color:#ff05d6;stop-opacity:1" />
      <stop
         id="stop1352"
         offset="0.65782946"
         style="stop-color:#48bee3;stop-opacity:1" />
      <stop
         style="stop-color:#040404;stop-opacity:1"
         offset="1"
         id="stop1354" />
    </linearGradient>
    <linearGradient
       id="linearGradient1291"
       inkscape:collect="always">
      <stop
         id="stop1287"
         offset="0"
         style="stop-color:#000000;stop-opacity:0" />
      <stop
         style="stop-color:#403930;stop-opacity:0.68235294;"
         offset="0.43927687"
         id="stop1295" />
      <stop
         id="stop1289"
         offset="1"
         style="stop-color:#d0dd4c;stop-opacity:1" />
    </linearGradient>
    <linearGradient
       id="linearGradient1267"
       inkscape:collect="always">
      <stop
         id="stop1263"
         offset="0"
         style="stop-color:#1d1d1d;stop-opacity:1" />
      <stop
         id="stop1265"
         offset="1"
         style="stop-color:#181818;stop-opacity:1" />
    </linearGradient>
    <linearGradient
       inkscape:collect="always"
       id="linearGradient1261">
      <stop
         style="stop-color:#575757;stop-opacity:1"
         offset="0"
         id="stop1257" />
      <stop
         style="stop-color:#0f0f0f;stop-opacity:1"
         offset="1"
         id="stop1259" />
    </linearGradient>
    <linearGradient
       id="linearGradient1225"
       inkscape:collect="always">
      <stop
         id="stop1221"
         offset="0"
         style="stop-color:#0f0f0f;stop-opacity:1" />
      <stop
         id="stop1223"
         offset="1"
         style="stop-color:#323232;stop-opacity:1" />
    </linearGradient>
    <linearGradient
       id="linearGradient1215"
       inkscape:collect="always">
      <stop
         id="stop1211"
         offset="0"
         style="stop-color:#808080;stop-opacity:1" />
      <stop
         style="stop-color:#484846;stop-opacity:1;"
         offset="0.49575108"
         id="stop1388" />
      <stop
         id="stop1213"
         offset="1"
         style="stop-color:#2a2926;stop-opacity:1" />
    </linearGradient>
    <linearGradient
       id="linearGradient1167"
       inkscape:collect="always">
      <stop
         id="stop1163"
         offset="0"
         style="stop-color:#050505;stop-opacity:1" />
      <stop
         style="stop-color:#ff05d6;stop-opacity:1"
         offset="0.39385217"
         id="stop1175" />
      <stop
         style="stop-color:#48bee3;stop-opacity:1"
         offset="0.65782946"
         id="stop1173" />
      <stop
         id="stop1165"
         offset="1"
         style="stop-color:#040404;stop-opacity:1" />
    </linearGradient>
    <inkscape:path-effect
       lpeversion="1"
       is_visible="true"
       id="path-effect1105"
       effect="spiro" />
    <inkscape:path-effect
       lpeversion="1"
       is_visible="true"
       id="path-effect1101"
       effect="spiro" />
    <inkscape:path-effect
       lpeversion="1"
       is_visible="true"
       id="path-effect1081"
       effect="spiro" />
    <inkscape:path-effect
       lpeversion="1"
       is_visible="true"
       id="path-effect1073"
       effect="spiro" />
    <inkscape:path-effect
       lpeversion="1"
       is_visible="true"
       id="path-effect1065"
       effect="spiro" />
    <inkscape:path-effect
       lpeversion="1"
       is_visible="true"
       id="path-effect1061"
       effect="spiro" />
    <inkscape:path-effect
       lpeversion="1"
       is_visible="true"
       id="path-effect1057"
       effect="spiro" />
    <inkscape:path-effect
       lpeversion="1"
       is_visible="true"
       id="path-effect1053"
       effect="spiro" />
    <inkscape:path-effect
       lpeversion="1"
       is_visible="true"
       id="path-effect1049"
       effect="spiro" />
    <inkscape:path-effect
       lpeversion="1"
       is_visible="true"
       id="path-effect1045"
       effect="spiro" />
    <inkscape:path-effect
       lpeversion="1"
       is_visible="true"
       id="path-effect977"
       effect="spiro" />
    <inkscape:path-effect
       lpeversion="1"
       is_visible="true"
       id="path-effect973"
       effect="spiro" />
    <inkscape:path-effect
       lpeversion="1"
       is_visible="true"
       id="path-effect969"
       effect="spiro" />
    <inkscape:path-effect
       lpeversion="1"
       is_visible="true"
       id="path-effect965"
       effect="spiro" />
    <inkscape:path-effect
       lpeversion="1"
       is_visible="true"
       id="path-effect961"
       effect="spiro" />
    <inkscape:path-effect
       lpeversion="1"
       is_visible="true"
       id="path-effect957"
       effect="spiro" />
    <inkscape:path-effect
       lpeversion="1"
       is_visible="true"
       id="path-effect929"
       effect="spiro" />
    <inkscape:path-effect
       effect="spiro"
       id="path-effect998"
       is_visible="true"
       lpeversion="1" />
    <inkscape:path-effect
       effect="spiro"
       id="path-effect994"
       is_visible="true"
       lpeversion="1" />
    <inkscape:path-effect
       effect="spiro"
       id="path-effect990"
       is_visible="true"
       lpeversion="1" />
    <inkscape:path-effect
       effect="spiro"
       id="path-effect986"
       is_visible="true"
       lpeversion="1" />
    <inkscape:path-effect
       effect="spiro"
       id="path-effect982"
       is_visible="true"
       lpeversion="1" />
    <inkscape:path-effect
       effect="spiro"
       id="path-effect978"
       is_visible="true"
       lpeversion="1" />
    <inkscape:path-effect
       effect="spiro"
       id="path-effect974"
       is_visible="true"
       lpeversion="1" />
    <inkscape:path-effect
       effect="spiro"
       id="path-effect970"
       is_visible="true"
       lpeversion="1" />
    <inkscape:path-effect
       effect="spiro"
       id="path-effect966"
       is_visible="true"
       lpeversion="1" />
    <inkscape:path-effect
       effect="spiro"
       id="path-effect962"
       is_visible="true"
       lpeversion="1" />
    <inkscape:path-effect
       effect="spiro"
       id="path-effect958"
       is_visible="true"
       lpeversion="1" />
    <inkscape:path-effect
       effect="spiro"
       id="path-effect954"
       is_visible="true"
       lpeversion="1" />
    <inkscape:path-effect
       effect="spiro"
       id="path-effect950"
       is_visible="true"
       lpeversion="1" />
    <inkscape:path-effect
       effect="spiro"
       id="path-effect946"
       is_visible="true"
       lpeversion="1" />
    <inkscape:path-effect
       effect="spiro"
       id="path-effect942"
       is_visible="true"
       lpeversion="1" />
    <inkscape:path-effect
       effect="spiro"
       id="path-effect938"
       is_visible="true"
       lpeversion="1" />
    <inkscape:path-effect
       effect="spiro"
       id="path-effect934"
       is_visible="true"
       lpeversion="1" />
    <inkscape:path-effect
       effect="spiro"
       id="path-effect930"
       is_visible="true"
       lpeversion="1" />
    <inkscape:path-effect
       effect="spiro"
       id="path-effect926"
       is_visible="true"
       lpeversion="1" />
    <inkscape:path-effect
       effect="spiro"
       id="path-effect922"
       is_visible="true"
       lpeversion="1" />
    <inkscape:path-effect
       effect="spiro"
       id="path-effect918"
       is_visible="true"
       lpeversion="1" />
    <inkscape:path-effect
       effect="spiro"
       id="path-effect910"
       is_visible="true"
       lpeversion="1" />
    <inkscape:path-effect
       effect="spiro"
       id="path-effect906"
       is_visible="true"
       lpeversion="1" />
    <linearGradient
       gradientTransform="matrix(-0.98772156,0,0,0.98772156,263.3754,0.36034222)"
       y2="30.775099"
       x2="95.460594"
       y1="14.146854"
       x1="110.5142"
       gradientUnits="userSpaceOnUse"
       id="linearGradient1237"
       xlink:href="#linearGradient1225"
       inkscape:collect="always" />
    <radialGradient
       gradientTransform="matrix(3.918176,0.09434704,-0.04536992,1.8841855,119.69663,-242.77687)"
       gradientUnits="userSpaceOnUse"
       r="135.46666"
       fy="253.01071"
       fx="-36.666481"
       cy="253.01071"
       cx="-36.666481"
       id="radialGradient1087"
       xlink:href="#linearGradient1067"
       inkscape:collect="always" />
    <radialGradient
       r="135.46666"
       fy="253.01071"
       fx="-36.666481"
       cy="253.01071"
       cx="-36.666481"
       gradientTransform="matrix(3.918176,0.09434704,-0.04536992,1.8841855,119.69663,-242.77687)"
       gradientUnits="userSpaceOnUse"
       id="radialGradient1501"
       xlink:href="#linearGradient1067"
       inkscape:collect="always" />
    <filter
       height="1.0692554"
       y="-0.034627712"
       width="1.0692554"
       x="-0.034627712"
       id="filter1770"
       style="color-interpolation-filters:sRGB"
       inkscape:collect="always">
      <feGaussianBlur
         id="feGaussianBlur1772"
         stdDeviation="3.9090837"
         inkscape:collect="always" />
    </filter>
    <filter
       height="1.0020861"
       y="-0.0010430421"
       width="1.0020861"
       x="-0.0010430421"
       id="filter2086"
       style="color-interpolation-filters:sRGB"
       inkscape:collect="always">
      <feGaussianBlur
         id="feGaussianBlur2088"
         stdDeviation="0.11774786"
         inkscape:collect="always" />
    </filter>
    <clipPath
       id="clipPath2091"
       clipPathUnits="userSpaceOnUse">
      <rect
         transform="scale(1,-1)"
         inkscape:label="rect1051"
         y="-154.36029"
         x="24.558475"
         height="93.945984"
         width="229.30431"
         id="rect2093"
         style="display:inline;fill:#4e4e4e;fill-opacity:1;stroke:none;stroke-width:1.01538;stroke-linecap:round;stroke-linejoin:round;stroke-miterlimit:4;stroke-dasharray:none;stroke-opacity:1" />
    </clipPath>
    <clipPath
       id="clipPath2105"
       clipPathUnits="userSpaceOnUse">
      <g
         inkscape:label="Raven"
         transform="matrix(0.83965177,0,0,0.83965177,26.117106,36.353033)"
         id="g2121"
         style="display:inline">
        <path
           style="opacity:1;fill:url(#linearGradient2123);fill-opacity:1;stroke:none;stroke-width:595.485;stroke-linecap:butt;stroke-linejoin:miter;stroke-miterlimit:4;stroke-dasharray:none;stroke-opacity:1"
           d="m 162.79469,6.1502963 c 7.22451,-3.901132 12.23362,-7.8272443 26.19247,-10.4198226 15.7167,-5.1717497 24.9219,-8.9426897 32.61548,-7.4688377 -0.0929,0.680131 -1.55938,1.432558 -3.3068,2.1997696 18.57486,-3.6960126 27.62826,-3.9964886 33.72763,-3.2432006 -1.40132,4.281232 -8.26422,3.7009199 -13.20738,5.0842792 7.63301,-0.1883733 15.02686,-1.2855028 23.05644,0.033069 -2.72241,4.5368115 -10.71277,5.2271726 -18.86111,5.8021954 7.18682,-0.1484071 14.19073,-0.1246573 19.90185,1.11582712 -1.94296,5.93007758 -11.64955,4.52950658 -18.90222,5.48950658 7.02731,0.481954 13.07851,1.711374 18.4535,3.149934 -2.49704,4.9513047 -15.99519,2.1384587 -24.62648,2.5583247 5.46452,1.257902 10.75192,2.760669 15.3384,4.545397 -3.78644,3.758929 -10.56235,1.418202 -15.07043,2.651571 3.04733,1.840168 -4.75241,4.345455 -11.46496,4.818769 0.59092,0.108725 8.60085,2.890467 -5.82967,6.707598 0.31759,2.157819 -1.79157,3.212963 -6.80969,6.36322 -1.12973,4.590692 -7.26609,5.357312 -7.47738,4.369239 -0.13192,1.021161 -6.58135,6.162861 -8.09844,5.70489 0.76483,1.846125 -3.63076,4.797138 -7.13349,6.012964 0.71985,2.475469 -4.01967,5.549579 -6.08878,5.247764 -0.0586,1.859122 -3.52167,3.522273 -5.97339,3.9377 0.31129,3.619587 -4.58039,4.932263 -6.96333,4.723247 -0.78904,3.393067 -4.33389,4.169746 -7.43163,4.427058 -2.77376,2.175262 -4.89795,-0.162541 -6.6537,-0.509618 -0.14206,0.633284 -3.3441,2.872585 -4.19288,2.251837 -3.62533,-1.006204 -5.13395,-6.24913 -5.07294,-9.841887 0.77703,-17.219541 -5.78622,-32.335435 -9.24372,-37.745403 5.35402,0.610347 13.86074,-8.438579 23.12265,-17.9653907 z"
           id="path2107"
           sodipodi:nodetypes="ccccccccccccccccccccccccccccc" />
        <path
           sodipodi:nodetypes="ccccccccccccccccccccccccccccc"
           id="path2109"
           d="m 104.35191,6.4921508 c -7.314306,-3.949627 -12.385691,-7.9245451 -26.518056,-10.549352 -15.91208,-5.23604 -25.23171,-9.0538568 -33.02093,-7.5616828 0.09404,0.688586 1.57877,1.450366 3.34791,2.2271146 -18.80577,-3.7419576 -27.97171,-4.0461686 -34.1469,-3.2835166 1.41874,4.3344518 8.36695,3.7469258 13.37156,5.1474818 -7.72789,-0.190715 -15.213661,-1.301483 -23.3430517,0.03348 2.75625,4.593209 10.8459417,5.292152 19.0955717,5.874323 -7.27616,-0.150252 -14.3671317,-0.126207 -20.1492517,1.12969799 1.96711,6.00379501 11.7943717,4.58581301 19.1371917,5.55774701 -7.11466,0.487945 -13.2410917,1.732648 -18.6828917,3.189091 2.52808,5.0128552 16.1940317,2.1650422 24.9326117,2.5901282 -5.53245,1.273539 -10.88558,2.794987 -15.52907,4.601901 3.83351,3.805656 10.69365,1.435832 15.25777,2.684533 -3.085212,1.863043 4.811484,4.399473 11.607475,4.878671 -0.598265,0.110077 -8.707767,2.926399 5.902146,6.790981 -0.321544,2.184643 1.813839,3.252903 6.894339,6.442321 1.14377,4.64776 7.356416,5.42391 7.570331,4.423554 0.133557,1.033855 6.663159,6.239472 8.199111,5.775808 -0.774338,1.869074 3.675893,4.856771 7.222165,6.087711 -0.728795,2.506242 4.069639,5.618567 6.16447,5.313 0.05931,1.882233 3.565454,3.566058 6.047646,3.98665 -0.315154,3.664582 4.637333,4.993576 7.049895,4.781962 0.798845,3.435246 4.387763,4.22158 7.524008,4.482091 2.80824,2.202302 4.95883,-0.164562 6.73641,-0.515953 0.14382,0.641156 3.38567,2.908294 4.245,2.279829 3.6704,-1.018712 5.19777,-6.326813 5.136,-9.964232 -0.78669,-17.433598 5.85815,-32.737399 9.35863,-38.214619 -5.42057,0.617934 -14.03304,-8.543479 -23.41009,-18.1887202 z"
           style="opacity:1;fill:url(#linearGradient2125);fill-opacity:1;stroke:none;stroke-width:0.264583px;stroke-linecap:butt;stroke-linejoin:miter;stroke-opacity:1" />
        <path
           sodipodi:nodetypes="csccccccccccc"
           id="path2111"
           d="m 162.79469,6.1502963 c 7.18434,-4.0617973 12.17371,-7.9787485 26.19247,-10.4198226 8.01039,-1.3948423 -0.45224,14.3922183 -9.0273,15.4779623 0.1575,1.081877 -0.68369,10.029721 -6.54312,10.34556 1.04207,3.601622 -0.13837,4.391722 -1.98081,5.206913 2.14401,3.420662 -0.73934,4.197349 -2.62894,4.770534 0.48287,1.108561 0.90109,2.601114 -0.87924,2.702557 0.061,2.15583 1.26822,6.194562 -2.76025,6.612244 1.24105,9.12071 -3.80937,6.212626 -5.10889,5.174246 -0.18805,12.365437 -6.16569,3.384835 -6.2124,3.392173 0,0 -1.81165,-4.004784 -6.56789,-3.718822 -1.26439,-5.527827 -4.89111,-15.797021 -7.60628,-21.578154 5.35402,0.610347 13.86074,-8.438579 23.12265,-17.9653907 z"
           style="fill:url(#linearGradient2127);fill-opacity:1;stroke:none;stroke-width:0.261334px;stroke-linecap:butt;stroke-linejoin:miter;stroke-opacity:1" />
        <path
           style="fill:url(#linearGradient2129);fill-opacity:1;stroke:none;stroke-width:0.264583px;stroke-linecap:butt;stroke-linejoin:miter;stroke-opacity:1"
           d="M 104.35191,6.4921508 C 97.179181,2.1177925 92.140368,-1.7683839 77.833854,-4.0572012 69.70522,-5.3576548 78.291709,10.513928 86.973368,11.613169 c -0.159457,1.095326 0.692194,10.154401 6.624461,10.474167 -1.055027,3.646394 0.140085,4.446315 2.005436,5.27164 -2.170667,3.463185 0.748529,4.249527 2.661611,4.829837 -0.48887,1.122342 -0.912288,2.633449 0.890178,2.736153 -0.06176,2.182629 -1.283989,6.271567 2.794556,6.694441 -1.25648,9.23409 3.85672,6.289856 5.17239,5.238567 0.19039,12.519153 6.24234,3.426913 6.28963,3.434342 0,0 1.83417,-4.054568 6.64954,-3.765051 1.2801,-5.596544 4.95191,-15.993395 7.70083,-21.846394 -5.42057,0.617934 -14.03304,-8.543479 -23.41009,-18.1887202 z"
           id="path2113"
           sodipodi:nodetypes="csccccccccccc" />
        <path
           sodipodi:nodetypes="ccsccscccc"
           id="path2115"
           d="m 150.85457,70.816106 c -3.02052,-1.643958 -1.53112,-6.122737 -0.90008,-8.050167 0.42945,-12.863349 0.91703,-19.895558 -4.20047,-36.534307 -1.13578,-3.692817 -2.70586,-7.460358 -6.47973,-9.597381 -2.66158,-0.218701 -8.7284,-0.132139 -11.38998,0.182756 -3.76707,1.921798 -4.62136,4.303756 -5.96558,7.39416 -4.23178,9.729039 -6.77656,20.68199 -6.02895,38.110992 0.7847,4.01021 1.63677,8.451239 -1.57563,12.294469 -2.09754,9.781985 3.71007,21.665626 20.29472,28.436022 10.64537,-10.590674 17.47433,-15.882355 16.2457,-32.236544 z"
           style="display:inline;opacity:1;fill:url(#radialGradient2131);fill-opacity:1;stroke:none;stroke-width:0.264583px;stroke-linecap:butt;stroke-linejoin:miter;stroke-opacity:1" />
        <path
           style="fill:url(#linearGradient2133);fill-opacity:1;stroke:none;stroke-width:0.264583px;stroke-linecap:butt;stroke-linejoin:miter;stroke-opacity:1"
           d="m 133.85712,41.591588 c -3.81875,-3.882243 -5.86725,-10.120011 -8.23721,-15.743686 -1.14525,-11.708993 17.5241,-10.164 15.35318,-0.03696 -1.9643,5.808912 -4.01657,12.013943 -7.11597,15.780646 z"
           id="path2117"
           sodipodi:nodetypes="ccccc" />
        <path
           style="display:inline;opacity:1;fill:url(#radialGradient2135);fill-opacity:1;stroke:none;stroke-width:0.264583px;stroke-linecap:butt;stroke-linejoin:miter;stroke-opacity:1"
           d="m 150.8076,70.79262 c 11.33791,8.554948 21.84493,14.372349 26.31157,19.594239 1.62144,3.94665 -1.83513,5.03256 -4.25224,6.14211 1.47509,3.45745 0.36601,6.162021 -5.00817,8.362721 -0.38063,3.57208 -1.7659,6.46454 -6.40197,7.15793 -0.94867,5.83256 -7.28339,9.21843 -12.56772,6.33109 0.8691,5.47481 -2.57139,5.48115 -6.47284,4.72471 -2.28927,1.80302 -4.65794,3.05019 -7.6304,0.0709 -1.50751,2.32983 -3.02085,6.00604 -8.2446,2.03162 -3.18917,1.03968 -6.37834,2.77594 -9.56751,-0.77958 -5.40712,0.9283 -10.06368,0.84997 -10.18175,-5.31528 -2.97784,-0.99203 -7.869614,1.16657 -7.110684,-5.97676 -5.81888,-0.57443 -8.50009,-2.65185 -4.84283,-8.81156 -4.25896,-1.51316 -8.93638,-3.43744 -5.07905,-7.276051 l 24.742634,-22.80786 c -0.35971,2.734987 -0.6405,5.192501 3.47597,3.414719 -0.71926,2.251961 -1.14961,5.596237 0.86357,4.915751 -0.22316,2.485746 -0.92305,4.501277 1.48493,5.01971 0.95122,1.94464 -0.0823,5.883444 4.37694,4.526617 0.92052,3.967824 2.0445,8.029504 5.62298,6.602609 1.9604,4.099395 3.69239,4.674145 6.58386,0.458328 3.75036,0.391197 3.62417,-3.846952 3.51268,-8.073491 3.46557,1.167504 3.68502,-3.713018 3.04768,-7.115277 1.92618,0.173166 3.97667,0.62084 2.98125,-5.657867 4.08741,0.499852 4.47138,-3.217979 4.3557,-7.539328 z"
           id="path2119"
           sodipodi:nodetypes="ccccccccccccccccccccccccc" />
      </g>
    </clipPath>
    <linearGradient
       y2="-9.7700367"
       x2="122.8487"
       y1="-9.7700367"
       x1="1.5307407"
       gradientTransform="matrix(-0.98772156,0,0,0.98772156,263.3754,0.36034222)"
       gradientUnits="userSpaceOnUse"
       id="linearGradient2123"
       xlink:href="#linearGradient1356"
       inkscape:collect="always" />
    <linearGradient
       y2="-9.7700367"
       x2="125.24663"
       y1="-9.7700367"
       x1="1.5307407"
       gradientTransform="translate(2.5208864,0.63022159)"
       gradientUnits="userSpaceOnUse"
       id="linearGradient2125"
       xlink:href="#linearGradient1167"
       inkscape:collect="always" />
    <linearGradient
       y2="30.775099"
       x2="95.460594"
       y1="14.146854"
       x1="110.5142"
       gradientTransform="matrix(-0.98772156,0,0,0.98772156,263.3754,0.36034222)"
       gradientUnits="userSpaceOnUse"
       id="linearGradient2127"
       xlink:href="#linearGradient1362"
       inkscape:collect="always" />
    <linearGradient
       y2="30.775099"
       x2="95.460594"
       y1="14.146854"
       x1="110.5142"
       gradientTransform="translate(2.5208864,0.63022159)"
       gradientUnits="userSpaceOnUse"
       id="linearGradient2129"
       xlink:href="#linearGradient1261"
       inkscape:collect="always" />
    <radialGradient
       r="18.454615"
       fy="68.560455"
       fx="132.81143"
       cy="68.560455"
       cx="132.81143"
       gradientTransform="matrix(1,0,0,2.3356665,0,-79.56972)"
       gradientUnits="userSpaceOnUse"
       id="radialGradient2131"
       xlink:href="#linearGradient1267"
       inkscape:collect="always" />
    <linearGradient
       y2="36.616062"
       x2="135.48982"
       y1="16.372316"
       x1="135.48982"
       gradientTransform="translate(-1.5253058,0.1398569)"
       gradientUnits="userSpaceOnUse"
       id="linearGradient2133"
       xlink:href="#linearGradient1291"
       inkscape:collect="always" />
    <radialGradient
       r="44.606377"
       fy="54.149605"
       fx="133.1962"
       cy="54.149605"
       cx="133.1962"
       gradientTransform="matrix(-0.01094549,1.3255439,-1.2431561,-0.01026519,201.97051,-105.2872)"
       gradientUnits="userSpaceOnUse"
       id="radialGradient2135"
       xlink:href="#linearGradient1215"
       inkscape:collect="always" />
    <clipPath
       id="clipPath3062"
       clipPathUnits="userSpaceOnUse">
      <use
         id="use3064"
         xlink:href="#g3058"
         y="0"
         x="0" />
    </clipPath>
    <radialGradient
       r="135.46666"
       fy="253.01071"
       fx="-36.666481"
       cy="253.01071"
       cx="-36.666481"
       gradientTransform="matrix(3.918176,0.09434704,-0.04536992,1.8841855,119.69663,-242.77687)"
       gradientUnits="userSpaceOnUse"
       id="radialGradient3098"
       xlink:href="#linearGradient1067"
       inkscape:collect="always" />
    <clipPath
       id="clipPath3283"
       clipPathUnits="userSpaceOnUse">
      <ellipse
         ry="96.463493"
         rx="134.86676"
         cy="152.81534"
         cx="132.17186"
         id="circle3285"
         style="font-variation-settings:normal;display:inline;opacity:1;vector-effect:none;fill:none;fill-opacity:1;fill-rule:evenodd;stroke:#ffffff;stroke-width:18.4205;stroke-linecap:butt;stroke-linejoin:miter;stroke-miterlimit:4;stroke-dasharray:none;stroke-dashoffset:0;stroke-opacity:1;stop-color:#000000;stop-opacity:1" />
    </clipPath>
    <clipPath
       id="clipPath3301"
       clipPathUnits="userSpaceOnUse">
      <circle
         r="121.26947"
         cy="135.82585"
         cx="135.27191"
         id="circle3303"
         style="font-variation-settings:normal;display:inline;opacity:1;vector-effect:none;fill:none;fill-opacity:1;fill-rule:evenodd;stroke:#ffffff;stroke-width:19.5849;stroke-linecap:butt;stroke-linejoin:miter;stroke-miterlimit:4;stroke-dasharray:none;stroke-dashoffset:0;stroke-opacity:1;stop-color:#000000;stop-opacity:1" />
    </clipPath>
    <radialGradient
       inkscape:collect="always"
       xlink:href="#linearGradient1067"
       id="radialGradient4010"
       gradientUnits="userSpaceOnUse"
       gradientTransform="matrix(3.918176,0.09434704,-0.04536992,1.8841855,119.69663,-242.77687)"
       cx="-36.666481"
       cy="253.01071"
       fx="-36.666481"
       fy="253.01071"
       r="135.46666" />
    <clipPath
       id="clipPath975"
       clipPathUnits="userSpaceOnUse">
      <ellipse
         transform="rotate(1.280183)"
         ry="129.65605"
         rx="133.92137"
         style="font-variation-settings:normal;display:inline;opacity:1;vector-effect:none;fill:none;fill-opacity:1;fill-rule:evenodd;stroke:#ffffff;stroke-width:21.2809;stroke-linecap:butt;stroke-linejoin:miter;stroke-miterlimit:4;stroke-dasharray:none;stroke-dashoffset:0;stroke-opacity:1;stop-color:#000000;stop-opacity:1"
         id="circle977"
         cx="140.03976"
         cy="138.31113" />
    </clipPath>
  </defs>
  <sodipodi:namedview
     inkscape:snap-global="false"
     id="base"
     pagecolor="#949494"
     bordercolor="#666666"
     borderopacity="1.0"
     inkscape:pageopacity="0"
     inkscape:pageshadow="2"
     inkscape:zoom="0.4978682"
     inkscape:cx="400.95756"
     inkscape:cy="494.99733"
     inkscape:document-units="mm"
     inkscape:current-layer="layer1"
     inkscape:document-rotation="0"
     showgrid="false"
     units="px"
     inkscape:window-width="2560"
     inkscape:window-height="1017"
     inkscape:window-x="1912"
     inkscape:window-y="-8"
     inkscape:window-maximized="1"
     showguides="true"
     inkscape:guide-bbox="true">
    <sodipodi:guide
       position="135.46667,135.46667"
       orientation="-1,0"
       id="guide1681"
       inkscape:label=""
       inkscape:locked="false"
       inkscape:color="rgb(0,0,255)" />
    <sodipodi:guide
       position="135.46667,135.46667"
       orientation="0,1"
       id="guide1683"
       inkscape:label=""
       inkscape:locked="false"
       inkscape:color="rgb(0,0,255)" />
  </sodipodi:namedview>
  <metadata
     id="metadata1006">
    <rdf:RDF>
      <cc:Work
         rdf:about="">
        <dc:format>image/svg+xml</dc:format>
        <dc:type
           rdf:resource="http://purl.org/dc/dcmitype/StillImage" />
        <dc:title />
      </cc:Work>
    </rdf:RDF>
  </metadata>
  <g
     inkscape:label="Sky"
     id="layer4"
     inkscape:groupmode="layer">
    <rect
       transform="matrix(0.9363967,-0.02166179,0.02092578,0.969332,3.6449142,0.94545073)"
       y="0"
       x="0"
       height="270.93332"
       width="270.93332"
       id="rect4006"
       style="display:inline;fill:url(#radialGradient4010);fill-opacity:1;stroke:none;stroke-width:1;stroke-linecap:round;stroke-linejoin:round;stroke-miterlimit:4;stroke-dasharray:none;stroke-opacity:1;filter:url(#filter1770)"
       clip-path="url(#clipPath975)" />
    <rect
       clip-path="url(#clipPath3301)"
       style="display:inline;fill:url(#radialGradient3098);fill-opacity:1;stroke:none;stroke-width:1;stroke-linecap:round;stroke-linejoin:round;stroke-miterlimit:4;stroke-dasharray:none;stroke-opacity:1;filter:url(#filter1770)"
       id="rect1053"
       width="270.93332"
       height="270.93332"
       x="0"
       y="0"
       transform="matrix(1.0339287,0,0,1.0362062,-5.0510789,-5.6952568)" />
  </g>
  <g
     inkscape:label="Water"
     id="layer2"
     inkscape:groupmode="layer" />
  <g
     inkscape:label="Mountain"
     id="layer3"
     inkscape:groupmode="layer" />
  <g
     style="display:inline"
     inkscape:label="Raven"
     id="layer1"
     inkscape:groupmode="layer">
    <g
       transform="matrix(0.9341623,0,0,1.3060635,11.597398,-64.577648)"
       clip-path="url(#clipPath3283)"
       id="g3060">
      <g
         id="g3058"
         inkscape:label="Clip">
        <rect
           inkscape:label="rect1051"
           y="171.59241"
           x="-1.8825647"
           height="79.641769"
           width="270.93329"
           id="rect1541"
           style="display:inline;fill:#7e7e7e;fill-opacity:1;stroke:none;stroke-width:1.01621;stroke-linecap:round;stroke-linejoin:round;stroke-miterlimit:4;stroke-dasharray:none;stroke-opacity:1" />
        <rect
           transform="matrix(1.1815447,0,0,-0.84773995,-30.8995,302.44982)"
           y="0"
           x="0"
           height="270.93332"
           width="270.93332"
           id="rect1499"
           style="display:inline;opacity:0.842949;fill:url(#radialGradient1501);fill-opacity:1;stroke:none;stroke-width:1;stroke-linecap:round;stroke-linejoin:round;stroke-miterlimit:4;stroke-dasharray:none;stroke-opacity:1;filter:url(#filter2086)"
           clip-path="url(#clipPath2091)" />
        <path
           style="display:inline;fill:#232323;fill-opacity:1;stroke:none;stroke-width:0.270327px;stroke-linecap:butt;stroke-linejoin:miter;stroke-opacity:1"
           d="m 303.81125,205.01415 1.69537,-68.84012 c 0,0 -26.24686,7.80589 -35.47646,4.89108 -9.22954,-2.91479 -14.24213,9.66642 -22.96013,9.78801 -8.71801,0.12159 -11.7679,-7.61334 -20.01636,-6.14561 -8.2485,1.46772 -26.06708,-4.70849 -26.06708,-4.70849 0,0 -4.79255,5.13906 -6.05822,6.84756 -1.26566,1.7085 -4.98329,3.8738 -7.5819,4.58636 -2.59859,0.7126 -5.55579,-1.86676 -7.7353,-1.83636 -2.17949,0.0304 -4.63931,-2.1333 -7.22949,-1.08267 -2.59019,1.05063 -5.24076,-2.37853 -6.01171,1.69024 -0.77092,4.06877 -0.22412,2.37039 -7.59239,4.16399 -7.36829,1.79362 -2.27204,4.51225 -12.28936,4.99012 -10.01727,0.47789 -12.22201,-0.50587 -20.92319,0.29182 -8.70122,0.79769 -5.34011,-4.32173 -10.44489,0.82143 -5.10472,5.14371 -10.71015,4.20759 -10.71015,4.20759 0,0 -2.74888,-0.97608 -11.45008,-0.1784 -8.70119,0.79768 -6.01359,2.78894 -12.9964,2.54815 -6.98281,-0.24078 -9.17072,-0.54843 -13.97403,-0.81963 -4.803312,-0.27116 -8.09034,-1.4812 -12.812831,2.03862 -5.779577,4.30773 -7.034339,2.29629 -11.693651,3.20663 -13.928106,2.72124 -8.059959,0.28149 -13.718258,0.69856 -5.658297,0.41709 -7.380735,-5.3795 -10.076144,-1.88847 -8.2250347,10.65291 -49.083615,9.51108 -49.549182,11.08155 -0.403832,1.36223 42.961924,0.3908 52.211431,-0.46637 98.668925,-1.91603 195.541695,31.19387 283.460325,24.11383 z"
           id="path1049"
           sodipodi:nodetypes="ccssscssssssssscsssssssscc" />
      </g>
    </g>
    <rect
       style="display:none;opacity:1;fill:#7e7e7e;fill-opacity:1;stroke:none;stroke-width:1;stroke-linecap:round;stroke-linejoin:round;stroke-miterlimit:4;stroke-dasharray:none;stroke-opacity:1"
       id="rect3102"
       width="335.86533"
       height="159.16402"
       x="-16.474407"
       y="3.4543111"
       clip-path="url(#clipPath2105)"
       inkscape:export-xdpi="96"
       inkscape:export-ydpi="96"
       transform="matrix(0.64785009,0,0,0.64785009,46.022882,94.22049)"
       inkscape:label="rect2095" />
    <path
       sodipodi:nodetypes="scccccccccccccccccccccccccccccccccccccccccccccccccccccccccccccccccccccccccccccss"
       d="m 220.44034,113.52666 c -4.56396,0.0426 -10.99388,0.75108 -21.04773,2.7516 1.34515,-0.59058 2.47362,-1.16988 2.54515,-1.69345 -5.9225,-1.13456 -13.00828,1.76825 -25.10693,5.74945 -10.79156,1.87913 -14.63292,4.89453 -20.16341,8.02129 -5.2605,5.41097 -10.20308,10.61735 -14.08935,12.78895 -0.83562,-1.88009 -2.02871,-3.59328 -4.01621,-4.71875 -2.04887,-0.16834 -6.71909,-0.10121 -8.76797,0.14123 -2.52545,1.28838 -3.35001,2.84554 -4.20438,4.79749 -0.15336,-0.0912 -0.3078,-0.18527 -0.46424,-0.28522 -3.79908,-2.42726 -8.48387,-7.35576 -13.4465,-12.46036 -5.52154,-3.36736 -9.40015,-6.35882 -20.413237,-8.12074 -12.249023,-4.03068 -19.423081,-6.96971 -25.419167,-5.82105 0.07235,0.53008 1.214676,1.1162 2.576547,1.71413 -14.476555,-2.88052 -21.531932,-3.11471 -26.285582,-2.52763 1.092166,3.33664 6.440626,2.88437 10.293137,3.96251 -5.948894,-0.1468 -11.711182,-1.00177 -17.969133,0.0258 2.121742,3.53583 8.349081,4.07367 14.699602,4.52182 -5.601141,-0.11563 -11.060095,-0.0968 -15.511124,0.87 1.514282,4.62169 9.079336,3.53017 14.731822,4.27835 -5.476857,0.37563 -10.192684,1.33368 -14.381745,2.45486 1.946092,3.85886 12.466244,1.66655 19.193175,1.99379 -4.25886,0.98035 -8.379834,2.15146 -11.954368,3.54241 2.951026,2.92958 8.232089,1.10534 11.745522,2.0666 -2.374972,1.43416 3.703887,3.38635 8.935439,3.75524 -0.46055,0.0847 -6.703347,2.25338 4.543294,5.22831 -0.247547,1.68174 1.396129,2.50382 5.307072,4.95902 0.880466,3.57781 5.663139,4.17526 5.827811,3.40518 0.102807,0.79587 5.129183,4.80318 6.311536,4.44625 -0.596075,1.4388 2.82982,3.73853 5.559692,4.6861 -0.561023,1.9293 3.132422,4.32545 4.744975,4.09022 0.04561,1.44892 2.744721,2.74487 4.655495,3.06864 -0.24259,2.82098 3.570027,3.84377 5.427207,3.68087 0.61496,2.64442 3.37735,3.24999 5.7916,3.45053 2.16178,1.69532 3.81741,-0.12644 5.18575,-0.397 0.11078,0.49356 2.60645,2.23889 3.26796,1.7551 0.98792,-0.27421 1.7697,-0.95717 2.37248,-1.84263 -0.22639,1.04038 -0.66609,2.06134 -1.43803,3.03405 0.006,-0.0434 0.01,-0.0848 0.0158,-0.12852 l -19.04678,17.55741 c -2.96937,2.95494 0.63148,4.43622 3.90998,5.60106 -2.81532,4.74171 -0.75115,6.34114 3.72821,6.78333 -0.58422,5.49889 3.18144,3.83691 5.47376,4.60058 0.0908,4.74598 3.67515,4.80639 7.83751,4.09178 2.455,2.73703 4.91031,1.40065 7.36531,0.6003 4.02122,3.05948 5.18607,0.22931 6.34652,-1.56416 2.2882,2.29344 4.11169,1.33305 5.87397,-0.0548 3.00331,0.58231 5.65191,0.57737 4.98288,-3.63711 4.06785,2.22265 8.94387,-0.38319 9.67415,-4.87307 3.56882,-0.53378 4.63536,-2.7606 4.92837,-5.51036 4.13702,-1.6941 4.99102,-3.77611 3.85551,-6.43764 1.86068,-0.85413 4.52129,-1.68977 3.27312,-4.72788 -3.43356,-4.01414 -11.50412,-8.48603 -20.21791,-15.05643 -2.1e-4,-0.003 -6.3e-4,-0.006 -7.8e-4,-0.01 -1.58543,-0.86292 -1.55554,-2.73972 -1.22284,-4.31736 0.4842,2.2297 1.64214,4.44672 3.63552,4.99997 0.65339,0.47787 3.1188,-1.24572 3.22817,-1.73323 1.35156,0.26719 2.98649,2.06674 5.12171,0.39225 2.38462,-0.19807 5.11338,-0.79602 5.7208,-3.40798 1.83435,0.16088 5.6004,-0.84958 5.36078,-3.63591 1.88732,-0.31979 4.55268,-1.60012 4.59778,-3.03126 1.5928,0.23233 5.24146,-2.13409 4.68731,-4.03968 2.69639,-0.93594 6.07964,-3.20808 5.49086,-4.62923 1.16787,0.35254 6.13282,-3.60527 6.23438,-4.39134 0.16265,0.76062 4.88654,0.17047 5.7562,-3.36342 3.86292,-2.42506 5.48631,-3.23706 5.24185,-4.89814 11.10852,-2.93841 4.94249,-5.0798 4.4876,-5.16347 5.16728,-0.36435 11.17186,-2.29297 8.82604,-3.70951 3.47029,-0.94945 8.68633,0.85248 11.60112,-2.04112 -3.53066,-1.37388 -7.60063,-2.53115 -11.80718,-3.49947 6.64432,-0.32322 17.03466,1.84236 18.95688,-1.96913 -4.13764,-1.10739 -8.79593,-2.05399 -14.20553,-2.425 5.58307,-0.73901 13.05554,0.33948 14.55122,-4.22545 -4.39638,-0.95492 -9.7882,-0.97311 -15.32057,-0.85886 6.27255,-0.44265 12.42369,-0.97411 14.5194,-4.46653 -6.18113,-1.01503 -11.87291,-0.17089 -17.74877,-0.0258 3.80523,-1.0649 9.08832,-0.61751 10.16704,-3.91319 -1.17382,-0.14497 -2.49029,-0.23958 -4.02735,-0.25499 -0.28819,-0.003 -0.58402,-0.003 -0.88829,-4.1e-4 z"
       inkscape:label="rect2095"
       style="display:inline;opacity:1;fill:none;fill-opacity:1;stroke:#ffffff;stroke-width:3;stroke-linecap:round;stroke-linejoin:round;stroke-miterlimit:4;stroke-dasharray:none;stroke-opacity:1"
       clip-path="none"
       id="rect3110" />
  </g>
  <g
     inkscape:label="Text"
     id="layer5"
     inkscape:groupmode="layer">
    <path
       inkscape:label="TextBase"
       sodipodi:nodetypes="csccsscsccsccsssscccccscsccccssscccsssscscccsccscccsssccssssccccsscsccccsssscsssssscscssscsccsscssssscssscccssssscscssscsccsscssssscsccccssssccccsscscccccssccsccssccccsscsssscscsccccscscccccccsccscsccsccccccccccsccsccscccsccccccsccscccccccscccccccccsccsccccccccccccccccsccsccccccccccccsccsccccccccccccsccsccccccssccscsssssscscsccc"
       d="m 39.730826,78.109045 h 4.388454 c 1.040346,0 1.950929,0.216576 2.731186,0.650056 0.801925,0.411801 1.43012,1.007981 1.885281,1.788244 0.455141,0.758572 0.682787,1.625483 0.682787,2.600808 0,0.910295 -0.227646,1.723065 -0.682787,2.438302 -0.455161,0.715222 -1.083356,1.278816 -1.885281,1.690614 -0.780257,0.39012 -1.69084,0.585169 -2.731186,0.585169 h -4.388454 z m 91.068134,3.821149 c -1.69055,0 -3.21827,0.401145 -4.58369,1.203076 -1.34379,0.780251 -2.41681,1.853269 -3.21874,3.218712 -0.78024,1.343775 -1.17033,2.882565 -1.17033,4.616458 0,1.712227 0.36853,3.251015 1.10546,4.616459 0.73691,1.365435 1.74471,2.438461 3.02345,3.218704 1.27875,0.780282 2.7203,1.170352 4.32418,1.170352 1.60387,0 3.02326,-0.190325 4.25866,-0.948885 0.72673,-0.460836 2.17579,-1.763248 2.17579,-1.763248 l 0.12151,-0.263713 v 1.336417 c 0,0 0.0443,0.832553 0.3036,1.119136 0.26464,0.292538 0.67197,0.422649 1.10545,0.422649 0.45514,0 0.82368,-0.140906 1.10546,-0.422649 0.28173,-0.303434 0.42264,-0.671963 0.42264,-1.105444 v -7.743496 h -6.2e-4 c -0.003,-1.701686 -0.4036,-2.892538 -1.20246,-4.25274 -0.78028,-1.365443 -1.84221,-2.438461 -3.18599,-3.218712 -1.34378,-0.801931 -2.87208,-1.203076 -4.5843,-1.203076 z m 22.39292,0.697678 c -2.47327,-0.0069 -4.32025,0.568972 -5.65105,1.506674 l 0.0126,-0.02615 c 0,-0.498496 0.0126,-0.656901 -0.24706,-0.895309 -0.23842,-0.260086 -0.60695,-0.389924 -1.10545,-0.389924 -0.47682,0 -0.84477,0.129845 -1.10486,0.389924 -0.26008,0.260076 -0.39048,0.62862 -0.39048,1.105449 v 14.792301 c 0,0.498469 0.13048,0.878088 0.39048,1.138173 0.26009,0.2384 0.62804,0.35716 1.10486,0.35716 0.4985,0 0.86703,-0.12977 1.10545,-0.38988 0.26008,-0.260075 0.39051,-0.628625 0.39051,-1.105453 0,0 -0.001,-9.562442 0.003,-9.650211 0.0529,-0.967051 0.35429,-1.831464 0.90722,-2.443657 0.60688,-0.671887 1.43012,-1.148717 2.47043,-1.430473 1.06203,-0.281765 2.26489,-0.314366 3.60865,-0.09755 0.30343,0.06497 0.58522,0.08649 0.84529,0.06484 0.26009,-0.02165 0.47728,-0.107828 0.65068,-0.259547 0.19504,-0.151714 0.33528,-0.379361 0.42205,-0.682795 0.12992,-0.563523 -0.10806,-1.029881 -0.71495,-1.398334 -0.60689,-0.390129 -1.50638,-0.585167 -2.69842,-0.585167 z m 13.80292,0.02913 c -1.69053,0 -3.21886,0.401143 -4.58431,1.203074 -1.34375,0.780253 -2.41618,1.852673 -3.2181,3.218126 -0.78026,1.343763 -1.17092,2.883151 -1.17092,4.617048 0,1.712224 0.36852,3.251002 1.10544,4.616455 0.73689,1.36546 1.74471,2.437878 3.02345,3.21814 1.27877,0.780245 2.72033,1.170335 4.32415,1.170335 1.60389,0 3.13164,-0.37903 4.36705,-1.137605 0.72669,-0.460827 2.06804,-1.54714 2.06804,-1.54714 l 0.12081,-0.263124 v 1.309035 c 0,0 0.0443,0.832551 0.3036,1.119144 0.26465,0.29252 0.67198,0.42265 1.10545,0.42265 0.45515,0 0.82369,-0.1409 1.10544,-0.42265 0.28175,-0.303433 0.42265,-0.671973 0.42265,-1.105437 v -7.74353 h -6.2e-4 c -0.003,-1.701684 -0.40361,-2.893138 -1.20244,-4.253327 -0.78026,-1.365441 -1.84224,-2.437875 -3.18598,-3.218126 -1.34379,-0.801931 -2.8715,-1.203078 -4.58374,-1.203078 z m -57.64227,0.0033 c -1.43044,0 -2.86432,0.241232 -4.01757,0.861385 -0.49824,0.267918 -1.0837,0.623644 -1.6394,1.014362 v -0.185154 c 0,-0.455149 -0.14091,-0.823691 -0.42266,-1.105447 -0.28176,-0.281756 -0.65031,-0.422651 -1.10547,-0.422651 -0.45514,0 -0.82368,0.140902 -1.10544,0.422651 -0.28175,0.281756 -0.42266,0.650298 -0.42266,1.105447 v 14.759552 c 0,0.433484 0.14091,0.802034 0.42266,1.105463 0.28176,0.28174 0.6503,0.42265 1.10544,0.42265 0.45516,0 0.82371,-0.14091 1.10547,-0.42265 0.28174,-0.303429 0.42266,-0.671979 0.42266,-1.105463 v -9.33052 c 0,-0.8236 0.22763,-1.560686 0.68279,-2.210894 0.45514,-0.650218 1.06179,-1.170118 1.82038,-1.560249 0.78026,-0.390131 1.65822,-0.585169 2.63354,-0.585169 1.01865,0 1.92865,0.206109 2.73056,0.61791 0.82362,0.39013 1.46349,0.996782 1.91863,1.820392 0.47681,0.801919 0.71495,1.831268 0.71495,3.088348 v 8.160202 c 0,0.433464 0.1409,0.802014 0.42265,1.105453 0.30343,0.28175 0.67195,0.42264 1.10545,0.42264 0.43345,0 0.79094,-0.14091 1.07271,-0.42264 0.30343,-0.303439 0.4554,-0.671989 0.4554,-1.105453 v -8.160272 c 0,-1.777244 -0.34703,-3.283431 -1.04059,-4.518829 -0.69355,-1.2354 -1.63615,-2.167523 -2.8282,-2.796063 -1.19204,-0.650208 -2.53579,-0.975081 -4.0313,-0.975081 z m 116.70791,0 c -1.43047,0 -2.93436,0.09355 -4.08308,0.722078 -0.50569,0.26715 -1.06126,0.609243 -1.59062,0.998305 l 0.0167,-0.02971 c 0,-0.455149 -0.14089,-0.823692 -0.42264,-1.105448 -0.28176,-0.281768 -0.6503,-0.422663 -1.10543,-0.422663 -0.45517,0 -0.82312,0.140903 -1.10486,0.422663 -0.28178,0.281756 -0.42266,0.650299 -0.42266,1.105448 v 14.759571 c 0,0.433484 0.1409,0.802024 0.42266,1.105444 0.28174,0.28175 0.64969,0.42264 1.10486,0.42264 0.45513,0 0.82367,-0.1409 1.10543,-0.42264 0.28176,-0.30342 0.42264,-0.67196 0.42264,-1.105444 v -9.310942 c 0,-0.843053 0.22766,-1.580325 0.68282,-2.230534 0.45513,-0.650218 1.0618,-1.170128 1.82038,-1.560249 0.78027,-0.390131 1.65822,-0.585168 2.63356,-0.585168 1.01866,0 1.92925,0.206107 2.73117,0.617906 0.82359,0.390122 1.46286,0.996783 1.91802,1.820385 0.47683,0.801929 0.71494,1.831279 0.71494,3.088358 v 8.160203 c 0,0.433485 0.1409,0.802004 0.42263,1.105435 0.30348,0.28177 0.67201,0.42267 1.10547,0.42267 0.43347,1e-5 0.79096,-0.14091 1.07271,-0.42267 0.30345,-0.303431 0.45539,-0.67195 0.45539,-1.105435 v -8.160203 c 0,-1.777254 -0.347,-3.283431 -1.04056,-4.518832 -0.69356,-1.235397 -1.63616,-2.167521 -2.82822,-2.796063 -1.19205,-0.650216 -2.53578,-0.975079 -4.03127,-0.975079 z m -161.29837,0.03215 c -1.690559,0 -3.218269,0.401147 -4.583713,1.203077 -1.343772,0.780251 -2.416789,1.85327 -3.218724,3.218713 -0.780248,1.343775 -1.170326,2.882562 -1.170326,4.616458 0,1.712226 0.368533,3.251016 1.105444,4.616458 0.736905,1.365443 1.744717,2.438472 3.023462,3.218714 1.278752,0.780248 2.719714,1.170348 4.323575,1.170348 1.60386,0 3.023882,-0.18971 4.259279,-0.948284 0.971994,-0.5612 2.17577,-1.763847 2.17577,-1.763847 l 0.120862,-0.262534 v 1.335242 c 0,0 0.04487,0.83255 0.304189,1.119143 0.264644,0.29251 0.671982,0.42265 1.105445,0.42265 0.45516,0 0.823693,-0.1409 1.105455,-0.42265 0.281764,-0.303443 0.422065,-0.671973 0.422065,-1.105437 v -7.743545 h -6.05e-4 c -0.004,-1.701302 -0.403143,-2.892641 -1.201891,-4.252678 -0.780258,-1.365434 -1.842219,-2.438455 -3.185994,-3.218708 -1.343765,-0.80193 -2.87208,-1.203073 -4.584297,-1.203073 z m 21.970278,0 c -1.733892,0 -3.283745,0.390674 -4.649185,1.170925 -1.343786,0.758582 -2.405733,1.820533 -3.185992,3.185987 -0.758587,1.343763 -1.137593,2.904092 -1.137593,4.681336 0,1.755574 0.35748,3.315893 1.07272,4.681346 0.736895,1.343776 1.733627,2.405718 2.990717,3.185979 1.278748,0.758575 2.741842,1.138195 4.389041,1.138195 1.517149,0 2.769127,-0.30215 3.998486,-0.894732 1.198064,-0.577484 1.969441,-1.185393 2.568634,-2.312673 -6.02e-4,-1.236086 -0.0014,-5.027206 -0.0042,-5.593931 -0.02733,1.151478 -0.283949,2.179088 -0.775063,3.079418 -0.520136,0.931975 -1.235692,1.669069 -2.145981,2.210915 -0.888609,0.541831 -1.928995,0.812565 -3.121047,0.812565 -1.170359,0 -2.210178,-0.270734 -3.120478,-0.812565 -0.910283,-0.541846 -1.62583,-1.27894 -2.14601,-2.210915 -0.520161,-0.953641 -0.780438,-2.048204 -0.780438,-3.283602 0,-1.235399 0.260277,-2.32996 0.780438,-3.283605 0.52018,-0.953641 1.235727,-1.701201 2.14601,-2.243043 0.9103,-0.541845 1.950119,-0.813164 3.120478,-0.813164 1.192052,0 2.232438,0.271319 3.121047,0.813164 0.910289,0.541842 1.625845,1.289402 2.145981,2.243043 0.490581,0.899399 0.746558,1.925833 0.77446,3.075849 0.0014,0.06933 0.007,0.137497 0.007,0.207756 0,0.01135 -9.96e-4,0.02245 -9.96e-4,0.03398 0.01121,0.918922 0.19804,3.209717 0.118984,5.53321 0.01472,-0.02971 -0.02411,0.06643 -0.01121,0.03602 l -0.0056,0.319952 c -0.08017,1.717541 -0.321341,3.385008 -0.916132,4.415258 -0.567353,0.98268 -1.268418,1.75559 -2.178721,2.27577 -0.910275,0.54183 -1.918091,0.81254 -3.023421,0.81254 -1.170379,0 -2.221269,-0.21657 -3.153226,-0.65005 -0.9103,-0.43347 -1.668935,-1.02966 -2.275789,-1.78822 -0.238424,-0.30344 -0.563281,-0.49847 -0.975076,-0.58516 -0.390138,-0.0867 -0.758683,-0.0101 -1.105458,0.22799 -0.325118,0.23842 -0.520129,0.53068 -0.58515,0.87746 -0.0649,0.36844 0.04322,0.71544 0.325003,1.04055 0.888643,1.1487 1.993644,2.02607 3.315755,2.63293 1.343785,0.62854 2.817952,0.94293 4.421805,0.94293 1.755565,0 3.305367,-0.41162 4.649127,-1.2352 1.365412,-0.80193 2.427338,-1.90754 3.185933,-3.31633 0.758581,-1.38714 1.137592,-2.94746 1.137592,-4.681348 v -5.744509 -1.147712 c 0,-1.777254 -0.390082,-3.337573 -1.17033,-4.681335 -0.758538,-1.365455 -1.809422,-2.427405 -3.153154,-3.185987 -1.343759,-0.780254 -2.893562,-1.170924 -4.649154,-1.170924 z m 6.150424,14.961373 c 0.007,-0.118564 0.01121,-0.237099 0.01472,-0.355999 -0.03868,0.08017 -0.07848,0.155646 -0.118423,0.230989 8.4e-5,0.198614 6.16e-4,0.914073 6.16e-4,0.89888 z m -0.103988,-5.889207 c -9.39e-4,-0.07267 -0.007,-0.187504 -0.0056,-0.241692 2.25e-4,-0.0069 3.37e-4,0.370203 6.45e-4,0.411939 9.95e-4,-0.05679 0.0028,-0.11279 0.0042,-0.170247 z M 199.7227,88.414392 c 0.45909,-0.983788 1.15915,-1.73394 2.04777,-2.275784 0.91031,-0.563523 1.98331,-0.844715 3.21873,-0.844715 1.12704,0 2.09117,0.25965 2.89308,0.779826 1.26212,0.83771 2.19132,2.223589 2.41509,4.259281 l -11.14201,-0.01135 c 0.11184,-0.634356 0.30997,-1.355949 0.56734,-1.907367 z m 11.99613,4.356402 c 0.4118,-0.0012 0.74773,-0.119362 1.00781,-0.35777 0.2601,-0.260089 0.38992,-0.585551 0.38992,-0.975681 0,-1.712225 -0.32486,-3.218391 -0.9751,-4.518818 -0.65019,-1.322106 -1.59339,-2.351445 -2.82878,-3.08836 -1.21376,-0.75857 -2.6547,-1.138185 -4.32357,-1.138185 l 9e-5,-4.6e-5 c -1.69054,0 -3.19672,0.390672 -4.51882,1.170924 -1.30041,0.758582 -2.31932,1.820532 -3.0562,3.185988 -0.73693,1.343764 -1.10546,2.904092 -1.10546,4.681335 0,1.755574 0.39008,3.315892 1.17034,4.681345 0.78025,1.343777 1.86431,2.405713 3.25146,3.185974 1.38712,0.75859 2.96898,1.1382 4.74623,1.1382 0.997,0 2.04844,-0.18455 3.15384,-0.55304 1.10535,-0.390115 2.01533,-0.877414 2.73057,-1.462611 0.34675,-0.260079 0.50918,-0.56341 0.48754,-0.910187 -0.0215,-0.368457 -0.20566,-0.704401 -0.55241,-1.00783 -0.2601,-0.216736 -0.56343,-0.314545 -0.91022,-0.292888 -0.34676,0 -0.67224,0.108276 -0.97568,0.325037 -0.45515,0.346777 -1.05073,0.650108 -1.78765,0.910191 -0.71523,0.260096 -1.43074,0.390517 -2.14599,0.390517 -1.2571,0 -2.37317,-0.271323 -3.34851,-0.813169 -0.95363,-0.563511 -1.71225,-1.321542 -2.27578,-2.275198 -0.33875,-0.609774 -0.61245,-1.523777 -0.73938,-2.235291 z m -32.90857,-9.89973 c -0.17342,0.01037 -0.34692,0.05979 -0.52031,0.146446 -0.39012,0.173392 -0.65037,0.433041 -0.78041,0.779826 -0.1302,0.325104 -0.11884,0.661034 0.0328,1.007818 l 7.02201,14.792306 c 0.32512,0.65022 0.80195,0.97567 1.43049,0.97567 0.62853,0 1.09488,-0.32545 1.39832,-0.97567 l 6.95713,-14.824443 c 0.17337,-0.325116 0.19493,-0.661049 0.0648,-1.007832 -0.12992,-0.346774 -0.36875,-0.595962 -0.71555,-0.747675 -0.39013,-0.17339 -0.76913,-0.195532 -1.13757,-0.06542 -0.36845,0.108403 -0.63918,0.336013 -0.81257,0.682798 l -5.78739,12.126006 -5.85167,-12.126006 c -0.17339,-0.346785 -0.43362,-0.574434 -0.7804,-0.682798 -0.17342,-0.06495 -0.34631,-0.09181 -0.51971,-0.08099 z m -48.01114,1.756703 c 1.17037,0 2.20032,0.281789 3.08896,0.8453 0.91029,0.541846 1.62523,1.290004 2.14538,2.243634 0.5412,0.95248 0.81366,2.130892 0.81318,3.246706 l -0.0112,0.0012 v 0.363129 c -0.0529,0.994294 -0.31855,2.007945 -0.80184,2.858568 -0.52017,0.953643 -1.23512,1.712261 -2.14543,2.275782 -0.88862,0.541857 -1.91854,0.812576 -3.08893,0.812576 -1.12704,0 -2.15638,-0.270719 -3.08834,-0.812576 -0.91032,-0.563521 -1.63635,-1.322139 -2.17818,-2.275782 -0.52016,-0.953644 -0.7804,-2.026661 -0.7804,-3.218726 0,-1.213729 0.26024,-2.297222 0.7804,-3.250866 0.54183,-0.953644 1.26786,-1.701789 2.17818,-2.243632 0.93196,-0.563523 1.9613,-0.845313 3.08834,-0.845313 z m 36.19587,0.726834 c 1.17037,0 2.19972,0.281792 3.08834,0.845314 0.91032,0.541844 1.62525,1.289404 2.14542,2.243046 0.54119,0.952469 0.81364,2.131479 0.81315,3.247292 l -0.0112,0.0012 v 0.363109 c -0.0529,0.994308 -0.31856,2.007358 -0.80184,2.857984 -0.52018,0.953641 -1.23513,1.712261 -2.14542,2.275787 -0.88864,0.541845 -1.91795,0.813168 -3.08835,0.813168 -1.12702,0 -2.15697,-0.271323 -3.08896,-0.813168 -0.9103,-0.563526 -1.63631,-1.322146 -2.17812,-2.275787 -0.52018,-0.953646 -0.77984,-2.026077 -0.77984,-3.21813 0,-1.213731 0.25966,-2.297819 0.77984,-3.251462 0.54181,-0.953645 1.26782,-1.701193 2.17812,-2.243033 0.93199,-0.563524 1.96194,-0.845314 3.08896,-0.845314 z m -102.232772,0.03571 c 1.170386,0 2.199735,0.28179 3.088349,0.845311 0.9103,0.541846 1.62584,1.289991 2.146021,2.243635 0.541174,0.952469 0.813263,2.130891 0.812557,3.246705 l -0.01135,0.0012 v 0.363118 c -0.05284,0.994306 -0.317946,2.007956 -0.80125,2.858568 -0.520172,0.953652 -1.235722,1.712271 -2.14601,2.275796 -0.888616,0.541818 -1.917973,0.812565 -3.088351,0.812565 -1.127042,0 -2.156381,-0.270747 -3.088349,-0.812565 -0.9103,-0.563525 -1.636321,-1.322144 -2.17816,-2.275796 -0.52017,-0.953641 -0.780428,-2.026662 -0.780428,-3.218713 0,-1.213731 0.260258,-2.297222 0.780428,-3.250868 0.541839,-0.953641 1.26786,-1.701788 2.17816,-2.243631 0.931968,-0.563524 1.961307,-0.845314 3.088349,-0.845314 z M 50.314219,99.992928 c 0.173397,0.260062 0.41578,0.319832 0.632521,0.449892 0.216731,0.10848 0.476989,0.16243 0.78042,0.16243 0.650213,0 1.105505,-0.24916 1.365592,-0.747679 0.260085,-0.49848 0.202467,-1.037775 -0.16251,-1.625125 l -5.074329,-8.165848 c 1.257077,-0.650208 2.78707,-1.836696 3.480629,-2.9854 0.715235,-1.148713 1.073297,-2.459842 1.073297,-3.933659 0,-1.560515 -0.358062,-2.936855 -1.073297,-4.128918 -0.693559,-1.192049 -1.668761,-2.124176 -2.925836,-2.796061 -1.257077,-0.67189 -2.687569,-1.007822 -4.291429,-1.007822 h -5.916562 c -0.45515,0 -0.834759,0.151975 -1.138189,0.455391 -0.281763,0.281757 -0.42265,0.650299 -0.42265,1.105447 v 22.269711 c 0,0.455145 0.140886,0.834168 0.42265,1.137583 0.30343,0.28177 0.683039,0.42267 1.138189,0.42267 0.45515,0 0.823694,-0.14091 1.105446,-0.42267 0.281763,-0.303415 0.42266,-0.682438 0.42266,-1.137583 v -8.289972 h 4.981508 z"
       style="font-style:normal;font-variant:normal;font-weight:600;font-stretch:normal;font-size:28.2222px;font-family:Comfortaa;-inkscape-font-specification:'Comfortaa, Semi-Bold';font-variant-ligatures:normal;font-variant-caps:normal;font-variant-numeric:normal;font-variant-east-asian:normal;display:inline;fill:#fafafa;fill-opacity:1;stroke:#ffffff;stroke-width:1;stroke-linecap:round;stroke-linejoin:round;stroke-miterlimit:4;stroke-dasharray:none;stroke-opacity:1"
       id="path993" />
  </g>
</svg>
