<?xml version="1.0" encoding="UTF-8" standalone="no"?>
<svg
   xmlns:dc="http://purl.org/dc/elements/1.1/"
   xmlns:cc="http://creativecommons.org/ns#"
   xmlns:rdf="http://www.w3.org/1999/02/22-rdf-syntax-ns#"
   xmlns:svg="http://www.w3.org/2000/svg"
   xmlns="http://www.w3.org/2000/svg"
   xmlns:xlink="http://www.w3.org/1999/xlink"
   xmlns:sodipodi="http://sodipodi.sourceforge.net/DTD/sodipodi-0.dtd"
   xmlns:inkscape="http://www.inkscape.org/namespaces/inkscape"
   width="1024"
   height="1024"
   viewBox="0 0 270.93333 270.93334"
   version="1.1"
   id="svg1009"
   inkscape:version="1.0 (4035a4fb49, 2020-05-01)"
   sodipodi:docname="AndrewIconNoFrameBG.svg"
   inkscape:export-filename="S:\Dev\Icons\Andrew\AndrewRaven3.png"
   inkscape:export-xdpi="96"
   inkscape:export-ydpi="96">
  <defs
     id="defs1003">
    <rect
       x="-9.0343522"
       y="-129.13809"
       width="276.87632"
       height="71.211953"
       id="rect2139" />
    <linearGradient
       inkscape:collect="always"
       id="linearGradient1067">
      <stop
         style="stop-color:#214468;stop-opacity:1"
         offset="0"
         id="stop1063" />
      <stop
         id="stop1285"
         offset="0.32024845"
         style="stop-color:#587693;stop-opacity:0.95294118" />
      <stop
         id="stop1085"
         offset="0.38601628"
         style="stop-color:#7ea8d1;stop-opacity:0.95294118" />
      <stop
         style="stop-color:#62e9f4;stop-opacity:0.66666675"
         offset="0.535061"
         id="stop1095" />
      <stop
         id="stop1083"
         offset="0.65896732"
         style="stop-color:#e610f9;stop-opacity:0.29411766" />
      <stop
         style="stop-color:#581274;stop-opacity:1"
         offset="0.81506538"
         id="stop1093" />
      <stop
         style="stop-color:#070111;stop-opacity:1"
         offset="1"
         id="stop1065" />
    </linearGradient>
    <inkscape:path-effect
       effect="skeletal"
       id="path-effect2418"
       is_visible="true"
       lpeversion="1"
       pattern="m -22.645423,-27.003986 h 1.164054"
       copytype="single_stretched"
       prop_scale="1"
       scale_y_rel="false"
       spacing="0"
       normal_offset="0"
       tang_offset="0"
       prop_units="false"
       vertical_pattern="false"
       hide_knot="false"
       fuse_tolerance="0" />
    <inkscape:path-effect
       effect="skeletal"
       id="path-effect2365"
       is_visible="true"
       lpeversion="1"
       pattern="m 3.181531,3.0124702 h 3.809584 c 0.9031111,0 1.6935821,0.1880097 2.3709162,0.5643099 0.6961478,0.3574799 1.2414798,0.87502 1.6365928,1.5523599 0.39511,0.6585101 0.592728,1.41107 0.592728,2.2577401 0,0.79022 -0.197618,1.4957801 -0.592728,2.1166701 C 10.603511,10.12443 10.058179,10.61368 9.3620312,10.97116 8.6846971,11.30982 7.8942261,11.47914 6.991115,11.47914 H 3.181531 Z M 82.237117,6.32958 c -1.467551,0 -2.793751,0.34823 -3.979082,1.04438 -1.166519,0.6773301 -2.098,1.6088101 -2.794148,2.79414 -0.67732,1.16652 -1.01595,2.50233 -1.01595,4.00751 0,1.48637 0.319918,2.82218 0.959628,4.00751 0.639702,1.18533 1.514581,2.11681 2.624651,2.79414 1.11007,0.67734 2.36148,1.01596 3.753771,1.01596 1.392298,0 2.624489,-0.1652 3.69693,-0.82372 0.630849,-0.40004 1.888768,-1.53065 1.888768,-1.53065 l 0.105431,-0.22893 v 1.16013 c 0,0 0.0385,0.72273 0.263541,0.97152 0.22974,0.25394 0.583348,0.3669 0.959638,0.3669 0.39511,0 0.715042,-0.12231 0.959631,-0.3669 0.244591,-0.26341 0.3669,-0.58333 0.3669,-0.95963 v -6.72207 h -5.29e-4 C 90.023307,12.38265 89.675906,11.34888 88.982436,10.1681 88.305106,8.9827701 87.383226,8.0512901 86.216707,7.37396 85.050185,6.67781 83.723475,6.32958 82.237106,6.32958 Z m 19.439123,0.60565 c -2.147023,-0.006 -3.750363,0.49392 -4.905645,1.3079302 l 0.01191,-0.022701 c 0,-0.4327398 0.0113,-0.5702498 -0.21445,-0.7772098 -0.20697,-0.2257801 -0.526889,-0.33849 -0.959631,-0.33849 -0.41393,0 -0.733348,0.1127099 -0.959119,0.33849 -0.22578,0.22577 -0.339,0.5456999 -0.339,0.95963 V 21.243949 c 0,0.43274 0.11322,0.76228 0.339,0.98806 0.225771,0.20696 0.545189,0.31005 0.959119,0.31005 0.432742,0 0.752661,-0.1127 0.959631,-0.33847 0.225772,-0.22578 0.339,-0.54571 0.339,-0.95964 0,0 -0.0011,-8.30107 0.003,-8.37726 0.0458,-0.83949 0.307549,-1.58988 0.787551,-2.12132 0.526809,-0.58326 1.241459,-0.99719 2.144569,-1.2417799 0.921929,-0.2446001 1.966119,-0.2729 3.132629,-0.0847 0.26341,0.0564 0.50803,0.0751 0.7338,0.0563 0.22579,-0.018801 0.41431,-0.0936 0.56483,-0.2253099 0.16933,-0.1317001 0.29108,-0.32932 0.36638,-0.5927302 0.11289,-0.4891899 -0.0938,-0.89403 -0.62063,-1.21388 -0.52682,-0.3386698 -1.30768,-0.5079799 -2.34249,-0.5079799 z m 11.98222,0.0253 c -1.46756,0 -2.79427,0.34823 -3.9796,1.04438 -1.16652,0.6773301 -2.09748,1.6082901 -2.79363,2.7936305 -0.67733,1.16651 -1.01647,2.50284 -1.01647,4.00802 0,1.48637 0.31992,2.82217 0.95963,4.00751 0.6397,1.18533 1.51457,2.11629 2.62464,2.79363 1.11008,0.67733 2.36149,1.01596 3.75378,1.01596 1.3923,0 2.71854,-0.32902 3.79098,-0.98754 0.63085,-0.40005 1.79524,-1.34307 1.79524,-1.34307 l 0.10491,-0.22841 V 21.201 c 0,0 0.0385,0.72273 0.26354,0.97152 0.22974,0.25394 0.58335,0.3669 0.95964,0.3669 0.39511,0 0.71504,-0.12231 0.95963,-0.3669 0.24459,-0.26341 0.3669,-0.58334 0.3669,-0.95963 v -6.72207 h -5.3e-4 c -0.003,-1.47722 -0.35039,-2.51151 -1.04386,-3.69228 -0.67733,-1.1853298 -1.59921,-2.1162998 -2.76572,-2.79363 -1.16653,-0.69615 -2.49272,-1.04438 -3.97909,-1.04438 z m -50.038805,0.003 c -1.241769,0 -2.486509,0.20941 -3.487639,0.7477598 -0.432531,0.2325801 -0.940771,0.5413801 -1.42317,0.8805601 V 8.4311397 c 0,-0.3951099 -0.12232,-0.7150399 -0.366911,-0.95963 -0.244589,-0.2445898 -0.564521,-0.3668998 -0.959628,-0.3668998 -0.39511,0 -0.715042,0.12231 -0.959631,0.3668998 -0.244591,0.2445901 -0.3669,0.5645201 -0.3669,0.95963 V 21.24379 c 0,0.3763 0.122309,0.69623 0.3669,0.95964 0.244589,0.24459 0.564521,0.3669 0.959631,0.3669 0.395107,0 0.715039,-0.12231 0.959628,-0.3669 0.244591,-0.26341 0.366911,-0.58334 0.366911,-0.95964 v -8.09976 c 0,-0.71496 0.19762,-1.35482 0.59273,-1.91926 0.39511,-0.56445 0.921739,-1.01577 1.580261,-1.3544398 0.677328,-0.3386701 1.4395,-0.5079802 2.286169,-0.5079802 0.884291,0 1.674238,0.17892 2.370389,0.5364002 0.71497,0.3386698 1.270431,0.8652998 1.665531,1.5802698 0.41393,0.69614 0.620641,1.58971 0.620641,2.68097 v 7.0838 c 0,0.3763 0.122309,0.69623 0.366898,0.95964 0.263411,0.24459 0.583332,0.3669 0.95963,0.3669 0.376291,0 0.68662,-0.12231 0.931212,-0.3669 0.263408,-0.26341 0.39533,-0.58334 0.39533,-0.95964 v -7.0838 c 0,-1.54281 -0.301242,-2.85032 -0.903312,-3.92276 -0.60207,-1.0724398 -1.420339,-1.88161 -2.45515,-2.4272399 -1.034799,-0.5644401 -2.201289,-0.84646 -3.49952,-0.84646 z m 101.313195,0 c -1.24177,0 -2.54729,0.0812 -3.54448,0.6268299 -0.43898,0.2319099 -0.92127,0.5288801 -1.3808,0.8666199 l 0.0145,-0.025799 c 0,-0.3951102 -0.12231,-0.7150401 -0.3669,-0.9596302 -0.24459,-0.2445999 -0.56452,-0.3669099 -0.95963,-0.3669099 -0.39511,0 -0.71453,0.12231 -0.95911,0.3669099 -0.2446,0.2445901 -0.36691,0.56452 -0.36691,0.9596302 V 21.24383 c 0,0.3763 0.12231,0.69623 0.36691,0.95963 0.24458,0.2446 0.564,0.3669 0.95911,0.3669 0.39511,0 0.71504,-0.1223 0.95963,-0.3669 0.24459,-0.2634 0.3669,-0.58333 0.3669,-0.95963 v -8.08271 c 0,-0.73185 0.19762,-1.37187 0.59273,-1.93631 0.39511,-0.56445 0.92175,-1.01578 1.58027,-1.3544399 C 162.8724,9.5317 163.63456,9.36239 164.48123,9.36239 c 0.88429,0 1.67477,0.17892 2.37092,0.5364001 0.71497,0.3386599 1.2699,0.8652999 1.66501,1.5802599 0.41393,0.69615 0.62063,1.58972 0.62063,2.68098 v 7.0838 c 0,0.3763 0.12232,0.69623 0.36691,0.95963 0.26341,0.2446 0.58333,0.3669 0.95963,0.3669 0.37629,10e-6 0.68662,-0.1223 0.93121,-0.3669 0.26341,-0.2634 0.39532,-0.58333 0.39532,-0.95963 v -7.0838 c 0,-1.54282 -0.30123,-2.85032 -0.9033,-3.92276 -0.60207,-1.0724399 -1.42034,-1.8816098 -2.45515,-2.4272399 -1.03481,-0.5644499 -2.2013,-0.84646 -3.49953,-0.84646 z m -140.021897,0.0279 c -1.467557,0 -2.793754,0.34823 -3.979085,1.04438 -1.166519,0.6773299 -2.097997,1.6088098 -2.794145,2.7941398 -0.677334,1.16652 -1.015958,2.50233 -1.015958,4.00751 0,1.48637 0.319926,2.82218 0.959631,4.00751 0.639701,1.18533 1.514572,2.11681 2.624645,2.79414 1.110073,0.67733 2.360964,1.01596 3.75326,1.01596 1.392293,0 2.625002,-0.16469 3.697448,-0.8232 0.843778,-0.48716 1.888773,-1.53118 1.888773,-1.53118 l 0.104902,-0.22789 v 1.1591 c 0,0 0.03899,0.72273 0.264068,0.97152 0.229732,0.25394 0.583335,0.3669 0.95963,0.3669 0.395113,0 0.715039,-0.12231 0.959634,-0.3669 0.244594,-0.26341 0.366387,-0.58334 0.366387,-0.95963 v -6.72207 h -5.3e-4 c -0.0028,-1.47694 -0.349959,-2.51113 -1.043347,-3.69177 -0.677333,-1.18533 -1.599205,-2.1168099 -2.765724,-2.7941398 -1.166516,-0.69615 -2.493231,-1.04438 -3.979599,-1.04438 z m 19.072214,0 c -1.505183,0 -2.850592,0.33914 -4.03592,1.0164699 -1.166522,0.6585201 -2.088394,1.5803901 -2.765727,2.7657299 -0.658519,1.16651 -0.987533,2.52102 -0.987533,4.06383 0,1.524 0.310316,2.8785 0.931209,4.06384 0.639701,1.16651 1.504963,2.08838 2.596221,2.76572 1.110073,0.65852 2.380184,0.98805 3.8101,0.98805 1.317035,0 2.40387,-0.26228 3.471082,-0.7767 1.040035,-0.50132 1.709672,-1.02904 2.229829,-2.00762 -5.29e-4,-1.07303 -0.0021,-4.36407 -0.004,-4.85604 -0.02381,0.99959 -0.246509,1.89165 -0.672827,2.67322 -0.451546,0.80904 -1.072714,1.4489 -1.862932,1.91927 -0.771403,0.47036 -1.674566,0.70538 -2.709373,0.70538 -1.015994,0 -1.918649,-0.23502 -2.708872,-0.70538 -0.790221,-0.47037 -1.411381,-1.11023 -1.862934,-1.91927 -0.451557,-0.82785 -0.677479,-1.77803 -0.677479,-2.85047 0,-1.07244 0.225922,-2.02262 0.677479,-2.85047 0.451553,-0.82785 1.072713,-1.4768 1.862934,-1.94717 0.790223,-0.47037 1.692878,-0.7059 2.708872,-0.7059 1.034807,0 1.93797,0.23553 2.709373,0.7059 0.790218,0.47037 1.411386,1.11932 1.862932,1.94717 0.425868,0.78076 0.648078,1.6718 0.672306,2.67012 0.0021,0.0602 0.005,0.11935 0.005,0.18035 0,0.01 -0.0011,0.0195 -0.0011,0.0295 0.009,0.79771 0.171908,2.78633 0.103347,4.80333 0.01241,-0.0258 -0.02098,0.0577 -0.0088,0.0313 l -0.0041,0.27775 c -0.0697,1.49099 -0.278969,2.93851 -0.795306,3.83284 -0.492506,0.85307 -1.101114,1.52403 -1.891337,1.975588 -0.790218,0.470371 -1.665092,0.705384 -2.624635,0.705384 -1.015997,0 -1.928257,-0.18801 -2.737292,-0.564309 -0.79022,-0.376295 -1.448776,-0.893843 -1.97559,-1.552363 -0.206963,-0.2634 -0.48898,-0.43272 -0.846461,-0.50797 -0.338664,-0.0753 -0.658593,-0.009 -0.95963,0.19791 -0.282221,0.20697 -0.45153,0.46068 -0.507979,0.76172 -0.05645,0.31985 0.03756,0.621077 0.282152,0.9033 0.771408,0.997186 1.730674,1.758834 2.878378,2.285649 1.166519,0.545629 2.446229,0.818555 3.838522,0.818555 1.523992,0 2.869393,-0.357323 4.035907,-1.072285 1.185322,-0.696148 2.107186,-1.655932 2.765705,-2.878899 0.658506,-1.20415 0.987536,-2.55865 0.987536,-4.06383 v -4.98679 -0.99632 c 0,-1.54282 -0.33863,-2.89732 -1.015958,-4.06383 C 50.097785,9.58835 49.18552,8.66648 48.019018,8.0079601 46.852504,7.33063 45.507103,6.99149 43.983111,6.99149 Z M 49.322344,19.97927 c 0.005,-0.10295 0.009,-0.20583 0.01291,-0.30903 -0.0335,0.0696 -0.0681,0.13512 -0.102838,0.20051 7.1e-5,0.17242 5.29e-4,0.7935 5.29e-4,0.78031 z m -0.0904,-5.11235 c -7.94e-4,-0.0631 -0.006,-0.16277 -0.004,-0.20981 1.72e-4,-0.006 2.62e-4,0.32137 5.29e-4,0.3576 0.0011,-0.0493 0.003,-0.0979 0.004,-0.14779 z m 92.837186,-2.90835 c 0.39854,-0.85402 1.00626,-1.50522 1.77767,-1.97559 0.79022,-0.48919 1.7217,-0.7332898 2.79415,-0.7332898 0.97837,0 1.81532,0.2253999 2.51147,0.67696 1.09562,0.7272098 1.90226,1.9302798 2.09651,3.6974498 l -9.67229,-0.01 c 0.0971,-0.55068 0.2691,-1.17709 0.49249,-1.65577 z m 10.41375,3.78176 c 0.35749,-0.001 0.64911,-0.10362 0.87488,-0.31058 0.22578,-0.22578 0.33848,-0.50831 0.33848,-0.84698 0,-1.48637 -0.28201,-2.79386 -0.84646,-3.92275 -0.56444,-1.1477099 -1.38322,-2.0412698 -2.45566,-2.6809799 -1.05364,-0.6585101 -2.30453,-0.9880499 -3.75326,-0.9880499 l 9e-5,-4.03e-5 c -1.46756,0 -2.77505,0.3391401 -3.92276,1.0164702 -1.12889,0.6585199 -2.01337,1.5803901 -2.65307,2.7657299 -0.63971,1.16651 -0.95963,2.52102 -0.95963,4.06383 0,1.524 0.33863,2.8785 1.01596,4.06384 0.67733,1.16651 1.61841,2.08838 2.82256,2.76572 1.20415,0.65852 2.57736,0.98805 4.12017,0.98805 0.86547,0 1.77825,-0.16022 2.73781,-0.48007 0.95955,-0.33867 1.74951,-0.76169 2.3704,-1.26969 0.30102,-0.22578 0.44203,-0.4891 0.42323,-0.79013 -0.0188,-0.31986 -0.17853,-0.61148 -0.47956,-0.87489 -0.22578,-0.18815 -0.48909,-0.27305 -0.79013,-0.25425 -0.30103,0 -0.58357,0.094 -0.84698,0.28216 -0.39511,0.30103 -0.91214,0.56435 -1.55184,0.79013 -0.62089,0.22578 -1.24204,0.339 -1.86293,0.339 -1.09127,0 -2.06014,-0.23553 -2.9068,-0.7059 -0.82785,-0.48919 -1.4864,-1.14722 -1.9756,-1.97508 -0.29407,-0.52934 -0.53167,-1.32278 -0.64184,-1.94044 z M 123.9152,7.14649 c -0.15052,0.009 -0.30113,0.0519 -0.45165,0.1271302 -0.33867,0.1505199 -0.56459,0.37592 -0.67748,0.67696 -0.11291,0.2822199 -0.10329,0.57384 0.0284,0.87488 l 6.09576,12.8410798 c 0.28222,0.56444 0.69615,0.84697 1.24178,0.84697 0.54563,0 0.95047,-0.28253 1.21388,-0.84697 l 6.03942,-12.8689799 c 0.1505,-0.2822299 0.16922,-0.57385 0.0563,-0.87489 -0.11289,-0.3010299 -0.32011,-0.5173501 -0.62115,-0.6490499 -0.33867,-0.1505201 -0.66769,-0.16974 -0.98754,-0.0568 -0.31985,0.0941 -0.55486,0.2916901 -0.70538,0.5927301 L 130.12356,18.33604 125.04377,7.8095501 c -0.15052,-0.30104 -0.37644,-0.4986599 -0.67748,-0.5927301 -0.15053,-0.0564 -0.30062,-0.0797 -0.45114,-0.0703 z M 82.237117,8.67147 c 1.016,0 1.91008,0.24462 2.681499,0.7338002 0.790221,0.4703699 1.410859,1.1198398 1.86241,1.9476798 0.469789,0.82684 0.706321,1.84981 0.705901,2.81844 l -0.01,0.001 v 0.31523 c -0.0459,0.86314 -0.276529,1.74308 -0.696079,2.4815 -0.451551,0.82785 -1.0722,1.4864 -1.86242,1.97559 -0.771409,0.47037 -1.665489,0.70538 -2.681489,0.70538 -0.978371,0 -1.87194,-0.23501 -2.680981,-0.70538 -0.79022,-0.48919 -1.420471,-1.14774 -1.890839,-1.97559 -0.451551,-0.82785 -0.677471,-1.75933 -0.677471,-2.79415 0,-1.05363 0.22592,-1.9942 0.677471,-2.82205 0.470368,-0.82785 1.100619,-1.4773102 1.890839,-1.9476804 0.809041,-0.48919 1.70261,-0.73381 2.680981,-0.73381 z m 31.421343,0.6309601 c 1.016,0 1.90957,0.24462 2.68098,0.7338099 0.79022,0.47037 1.41087,1.11932 1.86241,1.94717 0.46979,0.82683 0.70632,1.85032 0.7059,2.81895 l -0.01,0.001 v 0.315219 c -0.0459,0.863151 -0.27653,1.742571 -0.69608,2.480991 -0.45155,0.827849 -1.0722,1.486399 -1.86242,1.975589 -0.77141,0.470371 -1.66497,0.705901 -2.68097,0.705901 -0.97837,0 -1.87245,-0.23553 -2.68149,-0.705901 -0.79023,-0.48919 -1.42048,-1.14774 -1.89084,-1.975589 -0.45156,-0.82785 -0.67697,-1.75882 -0.67697,-2.793631 0,-1.05363 0.22541,-1.994719 0.67697,-2.822569 0.47036,-0.827851 1.10061,-1.476791 1.89084,-1.947161 0.80904,-0.4891895 1.70312,-0.7338095 2.68149,-0.7338095 z m -88.747513,0.031 c 1.015997,0 1.909567,0.24462 2.680972,0.73381 0.790221,0.47037 1.411381,1.11983 1.862937,1.94768 0.469789,0.82683 0.705996,1.84981 0.705382,2.81844 l -0.0098,0.001 v 0.31522 c -0.04594,0.86315 -0.27601,1.74309 -0.695563,2.4815 -0.451556,0.82786 -1.072716,1.48641 -1.862936,1.9756 -0.771406,0.47036 -1.664975,0.70538 -2.680973,0.70538 -0.97837,0 -1.871937,-0.23502 -2.680972,-0.70538 -0.790223,-0.48919 -1.420471,-1.14774 -1.890842,-1.9756 -0.451554,-0.82785 -0.677479,-1.75933 -0.677479,-2.79414 0,-1.05363 0.225925,-1.9942 0.677479,-2.82205 0.470371,-0.82785 1.100619,-1.47731 1.890842,-1.94768 0.809035,-0.4891903 1.702602,-0.7338103 2.680972,-0.7338103 z M 12.368802,22.00979 c 0.150519,0.22577 0.360932,0.27766 0.54908,0.39055 0.188148,0.0941 0.414073,0.14107 0.677479,0.14107 0.564444,0 0.959678,-0.21631 1.185458,-0.64905 0.225777,-0.43274 0.175761,-0.90089 -0.141076,-1.41077 l -4.404924,-7.08881 c 1.091258,-0.56444 2.419435,-1.59442 3.021508,-2.5916 0.620889,-0.9971898 0.931725,-2.1353699 0.931725,-3.4147798 0,-1.3546701 -0.310836,-2.5494602 -0.931725,-3.5842803 C 12.654254,2.7673102 11.807688,1.95814 10.71643,1.37488 9.625172,0.79162 8.3833711,0.50000001 6.9910751,0.50000001 H 1.854955 c -0.39511,0 -0.724646,0.13192 -0.98805199,0.39532001 C 0.622309,1.13991 0.50000001,1.45984 0.50000001,1.85495 v 19.33216 c 0,0.39511 0.12230899,0.72413 0.366903,0.98753 0.26340599,0.2446 0.59294199,0.36691 0.98805199,0.36691 0.395113,0 0.715039,-0.12231 0.959633,-0.36691 0.2445909,-0.2634 0.366903,-0.59242 0.366903,-0.98753 V 13.99065 H 7.5059 Z"
       copytype="single_stretched"
       prop_scale="1"
       scale_y_rel="false"
       spacing="0"
       normal_offset="0"
       tang_offset="0"
       prop_units="false"
       vertical_pattern="false"
       hide_knot="false"
       fuse_tolerance="0" />
    <inkscape:path-effect
       fuse_tolerance="0"
       hide_knot="false"
       vertical_pattern="false"
       prop_units="false"
       tang_offset="0"
       normal_offset="0"
       spacing="0"
       scale_y_rel="false"
       prop_scale="1"
       copytype="single_stretched"
       pattern="m -24.043793,-28.402356 h 1.174377"
       lpeversion="1"
       is_visible="true"
       id="path-effect2354"
       effect="skeletal" />
    <inkscape:path-effect
       effect="skeletal"
       id="path-effect2336"
       is_visible="true"
       lpeversion="1"
       pattern="m -1.7018946,-1.7019017 h 1.00866037"
       copytype="single_stretched"
       prop_scale="1"
       scale_y_rel="false"
       spacing="0"
       normal_offset="0"
       tang_offset="0"
       prop_units="false"
       vertical_pattern="false"
       hide_knot="false"
       fuse_tolerance="0" />
    <inkscape:path-effect
       effect="skeletal"
       id="path-effect2290"
       is_visible="true"
       lpeversion="1"
       pattern="M 0,0 H 1"
       copytype="single_stretched"
       prop_scale="1"
       scale_y_rel="false"
       spacing="0"
       normal_offset="0"
       tang_offset="0"
       prop_units="false"
       vertical_pattern="false"
       hide_knot="false"
       fuse_tolerance="0" />
    <rect
       id="rect966"
       height="39.456847"
       width="187.77321"
       y="-50.730232"
       x="55.239586" />
    <linearGradient
       id="linearGradient1362"
       inkscape:collect="always">
      <stop
         id="stop1358"
         offset="0"
         style="stop-color:#575757;stop-opacity:1" />
      <stop
         id="stop1360"
         offset="1"
         style="stop-color:#0f0f0f;stop-opacity:1" />
    </linearGradient>
    <linearGradient
       id="linearGradient1356"
       inkscape:collect="always">
      <stop
         id="stop1348"
         offset="0"
         style="stop-color:#050505;stop-opacity:1" />
      <stop
         style="stop-color:#ff05d6;stop-opacity:1"
         offset="0.34801045"
         id="stop1350" />
      <stop
         style="stop-color:#48bee3;stop-opacity:1"
         offset="0.65782946"
         id="stop1352" />
      <stop
         id="stop1354"
         offset="1"
         style="stop-color:#040404;stop-opacity:1" />
    </linearGradient>
    <linearGradient
       inkscape:collect="always"
       id="linearGradient1291">
      <stop
         style="stop-color:#000000;stop-opacity:0"
         offset="0"
         id="stop1287" />
      <stop
         id="stop1295"
         offset="0.43927687"
         style="stop-color:#403930;stop-opacity:0.68235294;" />
      <stop
         style="stop-color:#d0dd4c;stop-opacity:1"
         offset="1"
         id="stop1289" />
    </linearGradient>
    <linearGradient
       inkscape:collect="always"
       id="linearGradient1267">
      <stop
         style="stop-color:#1d1d1d;stop-opacity:1"
         offset="0"
         id="stop1263" />
      <stop
         style="stop-color:#181818;stop-opacity:1"
         offset="1"
         id="stop1265" />
    </linearGradient>
    <linearGradient
       id="linearGradient1261"
       inkscape:collect="always">
      <stop
         id="stop1257"
         offset="0"
         style="stop-color:#575757;stop-opacity:1" />
      <stop
         id="stop1259"
         offset="1"
         style="stop-color:#0f0f0f;stop-opacity:1" />
    </linearGradient>
    <linearGradient
       inkscape:collect="always"
       id="linearGradient1225">
      <stop
         style="stop-color:#0f0f0f;stop-opacity:1"
         offset="0"
         id="stop1221" />
      <stop
         style="stop-color:#323232;stop-opacity:1"
         offset="1"
         id="stop1223" />
    </linearGradient>
    <linearGradient
       inkscape:collect="always"
       id="linearGradient1215">
      <stop
         style="stop-color:#808080;stop-opacity:1"
         offset="0"
         id="stop1211" />
      <stop
         id="stop1388"
         offset="0.49575108"
         style="stop-color:#484846;stop-opacity:1;" />
      <stop
         style="stop-color:#2a2926;stop-opacity:1"
         offset="1"
         id="stop1213" />
    </linearGradient>
    <linearGradient
       inkscape:collect="always"
       id="linearGradient1167">
      <stop
         style="stop-color:#050505;stop-opacity:1"
         offset="0"
         id="stop1163" />
      <stop
         id="stop1175"
         offset="0.39385217"
         style="stop-color:#ff05d6;stop-opacity:1" />
      <stop
         id="stop1173"
         offset="0.65782946"
         style="stop-color:#48bee3;stop-opacity:1" />
      <stop
         style="stop-color:#040404;stop-opacity:1"
         offset="1"
         id="stop1165" />
    </linearGradient>
    <inkscape:path-effect
       effect="spiro"
       id="path-effect1105"
       is_visible="true"
       lpeversion="1" />
    <inkscape:path-effect
       effect="spiro"
       id="path-effect1101"
       is_visible="true"
       lpeversion="1" />
    <inkscape:path-effect
       effect="spiro"
       id="path-effect1081"
       is_visible="true"
       lpeversion="1" />
    <inkscape:path-effect
       effect="spiro"
       id="path-effect1073"
       is_visible="true"
       lpeversion="1" />
    <inkscape:path-effect
       effect="spiro"
       id="path-effect1065"
       is_visible="true"
       lpeversion="1" />
    <inkscape:path-effect
       effect="spiro"
       id="path-effect1061"
       is_visible="true"
       lpeversion="1" />
    <inkscape:path-effect
       effect="spiro"
       id="path-effect1057"
       is_visible="true"
       lpeversion="1" />
    <inkscape:path-effect
       effect="spiro"
       id="path-effect1053"
       is_visible="true"
       lpeversion="1" />
    <inkscape:path-effect
       effect="spiro"
       id="path-effect1049"
       is_visible="true"
       lpeversion="1" />
    <inkscape:path-effect
       effect="spiro"
       id="path-effect1045"
       is_visible="true"
       lpeversion="1" />
    <inkscape:path-effect
       effect="spiro"
       id="path-effect977"
       is_visible="true"
       lpeversion="1" />
    <inkscape:path-effect
       effect="spiro"
       id="path-effect973"
       is_visible="true"
       lpeversion="1" />
    <inkscape:path-effect
       effect="spiro"
       id="path-effect969"
       is_visible="true"
       lpeversion="1" />
    <inkscape:path-effect
       effect="spiro"
       id="path-effect965"
       is_visible="true"
       lpeversion="1" />
    <inkscape:path-effect
       effect="spiro"
       id="path-effect961"
       is_visible="true"
       lpeversion="1" />
    <inkscape:path-effect
       effect="spiro"
       id="path-effect957"
       is_visible="true"
       lpeversion="1" />
    <inkscape:path-effect
       effect="spiro"
       id="path-effect929"
       is_visible="true"
       lpeversion="1" />
    <inkscape:path-effect
       lpeversion="1"
       is_visible="true"
       id="path-effect998"
       effect="spiro" />
    <inkscape:path-effect
       lpeversion="1"
       is_visible="true"
       id="path-effect994"
       effect="spiro" />
    <inkscape:path-effect
       lpeversion="1"
       is_visible="true"
       id="path-effect990"
       effect="spiro" />
    <inkscape:path-effect
       lpeversion="1"
       is_visible="true"
       id="path-effect986"
       effect="spiro" />
    <inkscape:path-effect
       lpeversion="1"
       is_visible="true"
       id="path-effect982"
       effect="spiro" />
    <inkscape:path-effect
       lpeversion="1"
       is_visible="true"
       id="path-effect978"
       effect="spiro" />
    <inkscape:path-effect
       lpeversion="1"
       is_visible="true"
       id="path-effect974"
       effect="spiro" />
    <inkscape:path-effect
       lpeversion="1"
       is_visible="true"
       id="path-effect970"
       effect="spiro" />
    <inkscape:path-effect
       lpeversion="1"
       is_visible="true"
       id="path-effect966"
       effect="spiro" />
    <inkscape:path-effect
       lpeversion="1"
       is_visible="true"
       id="path-effect962"
       effect="spiro" />
    <inkscape:path-effect
       lpeversion="1"
       is_visible="true"
       id="path-effect958"
       effect="spiro" />
    <inkscape:path-effect
       lpeversion="1"
       is_visible="true"
       id="path-effect954"
       effect="spiro" />
    <inkscape:path-effect
       lpeversion="1"
       is_visible="true"
       id="path-effect950"
       effect="spiro" />
    <inkscape:path-effect
       lpeversion="1"
       is_visible="true"
       id="path-effect946"
       effect="spiro" />
    <inkscape:path-effect
       lpeversion="1"
       is_visible="true"
       id="path-effect942"
       effect="spiro" />
    <inkscape:path-effect
       lpeversion="1"
       is_visible="true"
       id="path-effect938"
       effect="spiro" />
    <inkscape:path-effect
       lpeversion="1"
       is_visible="true"
       id="path-effect934"
       effect="spiro" />
    <inkscape:path-effect
       lpeversion="1"
       is_visible="true"
       id="path-effect930"
       effect="spiro" />
    <inkscape:path-effect
       lpeversion="1"
       is_visible="true"
       id="path-effect926"
       effect="spiro" />
    <inkscape:path-effect
       lpeversion="1"
       is_visible="true"
       id="path-effect922"
       effect="spiro" />
    <inkscape:path-effect
       lpeversion="1"
       is_visible="true"
       id="path-effect918"
       effect="spiro" />
    <inkscape:path-effect
       lpeversion="1"
       is_visible="true"
       id="path-effect910"
       effect="spiro" />
    <inkscape:path-effect
       lpeversion="1"
       is_visible="true"
       id="path-effect906"
       effect="spiro" />
    <linearGradient
       inkscape:collect="always"
       xlink:href="#linearGradient1225"
       id="linearGradient1237"
       gradientUnits="userSpaceOnUse"
       x1="110.5142"
       y1="14.146854"
       x2="95.460594"
       y2="30.775099"
       gradientTransform="matrix(-0.98772156,0,0,0.98772156,263.3754,0.36034222)" />
    <radialGradient
       inkscape:collect="always"
       xlink:href="#linearGradient1067"
       id="radialGradient1087"
       cx="-36.666481"
       cy="253.01071"
       fx="-36.666481"
       fy="253.01071"
       r="135.46666"
       gradientUnits="userSpaceOnUse"
       gradientTransform="matrix(3.918176,0.09434704,-0.04536992,1.8841855,119.69663,-242.77687)" />
    <radialGradient
       inkscape:collect="always"
       xlink:href="#linearGradient1067"
       id="radialGradient1501"
       gradientUnits="userSpaceOnUse"
       gradientTransform="matrix(3.918176,0.09434704,-0.04536992,1.8841855,119.69663,-242.77687)"
       cx="-36.666481"
       cy="253.01071"
       fx="-36.666481"
       fy="253.01071"
       r="135.46666" />
    <filter
       inkscape:collect="always"
       style="color-interpolation-filters:sRGB"
       id="filter1770"
       x="-0.034627712"
       width="1.0692554"
       y="-0.034627712"
       height="1.0692554">
      <feGaussianBlur
         inkscape:collect="always"
         stdDeviation="3.9090837"
         id="feGaussianBlur1772" />
    </filter>
    <filter
       inkscape:collect="always"
       style="color-interpolation-filters:sRGB"
       id="filter2086"
       x="-0.0010430421"
       width="1.0020861"
       y="-0.0010430421"
       height="1.0020861">
      <feGaussianBlur
         inkscape:collect="always"
         stdDeviation="0.11774786"
         id="feGaussianBlur2088" />
    </filter>
    <clipPath
       clipPathUnits="userSpaceOnUse"
       id="clipPath2091">
      <rect
         style="display:inline;fill:#4e4e4e;fill-opacity:1;stroke:none;stroke-width:1.01538;stroke-linecap:round;stroke-linejoin:round;stroke-miterlimit:4;stroke-dasharray:none;stroke-opacity:1"
         id="rect2093"
         width="229.30431"
         height="93.945984"
         x="24.558475"
         y="-154.36029"
         inkscape:label="rect1051"
         transform="scale(1,-1)" />
    </clipPath>
    <clipPath
       clipPathUnits="userSpaceOnUse"
       id="clipPath2105">
      <g
         style="display:inline"
         id="g2121"
         transform="matrix(0.83965177,0,0,0.83965177,26.117106,36.353033)"
         inkscape:label="Raven">
        <path
           sodipodi:nodetypes="ccccccccccccccccccccccccccccc"
           id="path2107"
           d="m 162.79469,6.1502963 c 7.22451,-3.901132 12.23362,-7.8272443 26.19247,-10.4198226 15.7167,-5.1717497 24.9219,-8.9426897 32.61548,-7.4688377 -0.0929,0.680131 -1.55938,1.432558 -3.3068,2.1997696 18.57486,-3.6960126 27.62826,-3.9964886 33.72763,-3.2432006 -1.40132,4.281232 -8.26422,3.7009199 -13.20738,5.0842792 7.63301,-0.1883733 15.02686,-1.2855028 23.05644,0.033069 -2.72241,4.5368115 -10.71277,5.2271726 -18.86111,5.8021954 7.18682,-0.1484071 14.19073,-0.1246573 19.90185,1.11582712 -1.94296,5.93007758 -11.64955,4.52950658 -18.90222,5.48950658 7.02731,0.481954 13.07851,1.711374 18.4535,3.149934 -2.49704,4.9513047 -15.99519,2.1384587 -24.62648,2.5583247 5.46452,1.257902 10.75192,2.760669 15.3384,4.545397 -3.78644,3.758929 -10.56235,1.418202 -15.07043,2.651571 3.04733,1.840168 -4.75241,4.345455 -11.46496,4.818769 0.59092,0.108725 8.60085,2.890467 -5.82967,6.707598 0.31759,2.157819 -1.79157,3.212963 -6.80969,6.36322 -1.12973,4.590692 -7.26609,5.357312 -7.47738,4.369239 -0.13192,1.021161 -6.58135,6.162861 -8.09844,5.70489 0.76483,1.846125 -3.63076,4.797138 -7.13349,6.012964 0.71985,2.475469 -4.01967,5.549579 -6.08878,5.247764 -0.0586,1.859122 -3.52167,3.522273 -5.97339,3.9377 0.31129,3.619587 -4.58039,4.932263 -6.96333,4.723247 -0.78904,3.393067 -4.33389,4.169746 -7.43163,4.427058 -2.77376,2.175262 -4.89795,-0.162541 -6.6537,-0.509618 -0.14206,0.633284 -3.3441,2.872585 -4.19288,2.251837 -3.62533,-1.006204 -5.13395,-6.24913 -5.07294,-9.841887 0.77703,-17.219541 -5.78622,-32.335435 -9.24372,-37.745403 5.35402,0.610347 13.86074,-8.438579 23.12265,-17.9653907 z"
           style="opacity:1;fill:url(#linearGradient2123);fill-opacity:1;stroke:none;stroke-width:595.485;stroke-linecap:butt;stroke-linejoin:miter;stroke-miterlimit:4;stroke-dasharray:none;stroke-opacity:1" />
        <path
           style="opacity:1;fill:url(#linearGradient2125);fill-opacity:1;stroke:none;stroke-width:0.264583px;stroke-linecap:butt;stroke-linejoin:miter;stroke-opacity:1"
           d="m 104.35191,6.4921508 c -7.314306,-3.949627 -12.385691,-7.9245451 -26.518056,-10.549352 -15.91208,-5.23604 -25.23171,-9.0538568 -33.02093,-7.5616828 0.09404,0.688586 1.57877,1.450366 3.34791,2.2271146 -18.80577,-3.7419576 -27.97171,-4.0461686 -34.1469,-3.2835166 1.41874,4.3344518 8.36695,3.7469258 13.37156,5.1474818 -7.72789,-0.190715 -15.213661,-1.301483 -23.3430517,0.03348 2.75625,4.593209 10.8459417,5.292152 19.0955717,5.874323 -7.27616,-0.150252 -14.3671317,-0.126207 -20.1492517,1.12969799 1.96711,6.00379501 11.7943717,4.58581301 19.1371917,5.55774701 -7.11466,0.487945 -13.2410917,1.732648 -18.6828917,3.189091 2.52808,5.0128552 16.1940317,2.1650422 24.9326117,2.5901282 -5.53245,1.273539 -10.88558,2.794987 -15.52907,4.601901 3.83351,3.805656 10.69365,1.435832 15.25777,2.684533 -3.085212,1.863043 4.811484,4.399473 11.607475,4.878671 -0.598265,0.110077 -8.707767,2.926399 5.902146,6.790981 -0.321544,2.184643 1.813839,3.252903 6.894339,6.442321 1.14377,4.64776 7.356416,5.42391 7.570331,4.423554 0.133557,1.033855 6.663159,6.239472 8.199111,5.775808 -0.774338,1.869074 3.675893,4.856771 7.222165,6.087711 -0.728795,2.506242 4.069639,5.618567 6.16447,5.313 0.05931,1.882233 3.565454,3.566058 6.047646,3.98665 -0.315154,3.664582 4.637333,4.993576 7.049895,4.781962 0.798845,3.435246 4.387763,4.22158 7.524008,4.482091 2.80824,2.202302 4.95883,-0.164562 6.73641,-0.515953 0.14382,0.641156 3.38567,2.908294 4.245,2.279829 3.6704,-1.018712 5.19777,-6.326813 5.136,-9.964232 -0.78669,-17.433598 5.85815,-32.737399 9.35863,-38.214619 -5.42057,0.617934 -14.03304,-8.543479 -23.41009,-18.1887202 z"
           id="path2109"
           sodipodi:nodetypes="ccccccccccccccccccccccccccccc" />
        <path
           style="fill:url(#linearGradient2127);fill-opacity:1;stroke:none;stroke-width:0.261334px;stroke-linecap:butt;stroke-linejoin:miter;stroke-opacity:1"
           d="m 162.79469,6.1502963 c 7.18434,-4.0617973 12.17371,-7.9787485 26.19247,-10.4198226 8.01039,-1.3948423 -0.45224,14.3922183 -9.0273,15.4779623 0.1575,1.081877 -0.68369,10.029721 -6.54312,10.34556 1.04207,3.601622 -0.13837,4.391722 -1.98081,5.206913 2.14401,3.420662 -0.73934,4.197349 -2.62894,4.770534 0.48287,1.108561 0.90109,2.601114 -0.87924,2.702557 0.061,2.15583 1.26822,6.194562 -2.76025,6.612244 1.24105,9.12071 -3.80937,6.212626 -5.10889,5.174246 -0.18805,12.365437 -6.16569,3.384835 -6.2124,3.392173 0,0 -1.81165,-4.004784 -6.56789,-3.718822 -1.26439,-5.527827 -4.89111,-15.797021 -7.60628,-21.578154 5.35402,0.610347 13.86074,-8.438579 23.12265,-17.9653907 z"
           id="path2111"
           sodipodi:nodetypes="csccccccccccc" />
        <path
           sodipodi:nodetypes="csccccccccccc"
           id="path2113"
           d="M 104.35191,6.4921508 C 97.179181,2.1177925 92.140368,-1.7683839 77.833854,-4.0572012 69.70522,-5.3576548 78.291709,10.513928 86.973368,11.613169 c -0.159457,1.095326 0.692194,10.154401 6.624461,10.474167 -1.055027,3.646394 0.140085,4.446315 2.005436,5.27164 -2.170667,3.463185 0.748529,4.249527 2.661611,4.829837 -0.48887,1.122342 -0.912288,2.633449 0.890178,2.736153 -0.06176,2.182629 -1.283989,6.271567 2.794556,6.694441 -1.25648,9.23409 3.85672,6.289856 5.17239,5.238567 0.19039,12.519153 6.24234,3.426913 6.28963,3.434342 0,0 1.83417,-4.054568 6.64954,-3.765051 1.2801,-5.596544 4.95191,-15.993395 7.70083,-21.846394 -5.42057,0.617934 -14.03304,-8.543479 -23.41009,-18.1887202 z"
           style="fill:url(#linearGradient2129);fill-opacity:1;stroke:none;stroke-width:0.264583px;stroke-linecap:butt;stroke-linejoin:miter;stroke-opacity:1" />
        <path
           style="display:inline;opacity:1;fill:url(#radialGradient2131);fill-opacity:1;stroke:none;stroke-width:0.264583px;stroke-linecap:butt;stroke-linejoin:miter;stroke-opacity:1"
           d="m 150.85457,70.816106 c -3.02052,-1.643958 -1.53112,-6.122737 -0.90008,-8.050167 0.42945,-12.863349 0.91703,-19.895558 -4.20047,-36.534307 -1.13578,-3.692817 -2.70586,-7.460358 -6.47973,-9.597381 -2.66158,-0.218701 -8.7284,-0.132139 -11.38998,0.182756 -3.76707,1.921798 -4.62136,4.303756 -5.96558,7.39416 -4.23178,9.729039 -6.77656,20.68199 -6.02895,38.110992 0.7847,4.01021 1.63677,8.451239 -1.57563,12.294469 -2.09754,9.781985 3.71007,21.665626 20.29472,28.436022 10.64537,-10.590674 17.47433,-15.882355 16.2457,-32.236544 z"
           id="path2115"
           sodipodi:nodetypes="ccsccscccc" />
        <path
           sodipodi:nodetypes="ccccc"
           id="path2117"
           d="m 133.85712,41.591588 c -3.81875,-3.882243 -5.86725,-10.120011 -8.23721,-15.743686 -1.14525,-11.708993 17.5241,-10.164 15.35318,-0.03696 -1.9643,5.808912 -4.01657,12.013943 -7.11597,15.780646 z"
           style="fill:url(#linearGradient2133);fill-opacity:1;stroke:none;stroke-width:0.264583px;stroke-linecap:butt;stroke-linejoin:miter;stroke-opacity:1" />
        <path
           sodipodi:nodetypes="ccccccccccccccccccccccccc"
           id="path2119"
           d="m 150.8076,70.79262 c 11.33791,8.554948 21.84493,14.372349 26.31157,19.594239 1.62144,3.94665 -1.83513,5.03256 -4.25224,6.14211 1.47509,3.45745 0.36601,6.162021 -5.00817,8.362721 -0.38063,3.57208 -1.7659,6.46454 -6.40197,7.15793 -0.94867,5.83256 -7.28339,9.21843 -12.56772,6.33109 0.8691,5.47481 -2.57139,5.48115 -6.47284,4.72471 -2.28927,1.80302 -4.65794,3.05019 -7.6304,0.0709 -1.50751,2.32983 -3.02085,6.00604 -8.2446,2.03162 -3.18917,1.03968 -6.37834,2.77594 -9.56751,-0.77958 -5.40712,0.9283 -10.06368,0.84997 -10.18175,-5.31528 -2.97784,-0.99203 -7.869614,1.16657 -7.110684,-5.97676 -5.81888,-0.57443 -8.50009,-2.65185 -4.84283,-8.81156 -4.25896,-1.51316 -8.93638,-3.43744 -5.07905,-7.276051 l 24.742634,-22.80786 c -0.35971,2.734987 -0.6405,5.192501 3.47597,3.414719 -0.71926,2.251961 -1.14961,5.596237 0.86357,4.915751 -0.22316,2.485746 -0.92305,4.501277 1.48493,5.01971 0.95122,1.94464 -0.0823,5.883444 4.37694,4.526617 0.92052,3.967824 2.0445,8.029504 5.62298,6.602609 1.9604,4.099395 3.69239,4.674145 6.58386,0.458328 3.75036,0.391197 3.62417,-3.846952 3.51268,-8.073491 3.46557,1.167504 3.68502,-3.713018 3.04768,-7.115277 1.92618,0.173166 3.97667,0.62084 2.98125,-5.657867 4.08741,0.499852 4.47138,-3.217979 4.3557,-7.539328 z"
           style="display:inline;opacity:1;fill:url(#radialGradient2135);fill-opacity:1;stroke:none;stroke-width:0.264583px;stroke-linecap:butt;stroke-linejoin:miter;stroke-opacity:1" />
      </g>
    </clipPath>
    <linearGradient
       inkscape:collect="always"
       xlink:href="#linearGradient1356"
       id="linearGradient2123"
       gradientUnits="userSpaceOnUse"
       gradientTransform="matrix(-0.98772156,0,0,0.98772156,263.3754,0.36034222)"
       x1="1.5307407"
       y1="-9.7700367"
       x2="122.8487"
       y2="-9.7700367" />
    <linearGradient
       inkscape:collect="always"
       xlink:href="#linearGradient1167"
       id="linearGradient2125"
       gradientUnits="userSpaceOnUse"
       gradientTransform="translate(2.5208864,0.63022159)"
       x1="1.5307407"
       y1="-9.7700367"
       x2="125.24663"
       y2="-9.7700367" />
    <linearGradient
       inkscape:collect="always"
       xlink:href="#linearGradient1362"
       id="linearGradient2127"
       gradientUnits="userSpaceOnUse"
       gradientTransform="matrix(-0.98772156,0,0,0.98772156,263.3754,0.36034222)"
       x1="110.5142"
       y1="14.146854"
       x2="95.460594"
       y2="30.775099" />
    <linearGradient
       inkscape:collect="always"
       xlink:href="#linearGradient1261"
       id="linearGradient2129"
       gradientUnits="userSpaceOnUse"
       gradientTransform="translate(2.5208864,0.63022159)"
       x1="110.5142"
       y1="14.146854"
       x2="95.460594"
       y2="30.775099" />
    <radialGradient
       inkscape:collect="always"
       xlink:href="#linearGradient1267"
       id="radialGradient2131"
       gradientUnits="userSpaceOnUse"
       gradientTransform="matrix(1,0,0,2.3356665,0,-79.56972)"
       cx="132.81143"
       cy="68.560455"
       fx="132.81143"
       fy="68.560455"
       r="18.454615" />
    <linearGradient
       inkscape:collect="always"
       xlink:href="#linearGradient1291"
       id="linearGradient2133"
       gradientUnits="userSpaceOnUse"
       gradientTransform="translate(-1.5253058,0.1398569)"
       x1="135.48982"
       y1="16.372316"
       x2="135.48982"
       y2="36.616062" />
    <radialGradient
       inkscape:collect="always"
       xlink:href="#linearGradient1215"
       id="radialGradient2135"
       gradientUnits="userSpaceOnUse"
       gradientTransform="matrix(-0.01094549,1.3255439,-1.2431561,-0.01026519,201.97051,-105.2872)"
       cx="133.1962"
       cy="54.149605"
       fx="133.1962"
       fy="54.149605"
       r="44.606377" />
    <clipPath
       clipPathUnits="userSpaceOnUse"
       id="clipPath3062">
      <use
         x="0"
         y="0"
         xlink:href="#g3058"
         id="use3064" />
    </clipPath>
    <radialGradient
       inkscape:collect="always"
       xlink:href="#linearGradient1067"
       id="radialGradient3098"
       gradientUnits="userSpaceOnUse"
       gradientTransform="matrix(3.918176,0.09434704,-0.04536992,1.8841855,119.69663,-242.77687)"
       cx="-36.666481"
       cy="253.01071"
       fx="-36.666481"
       fy="253.01071"
       r="135.46666" />
    <clipPath
       clipPathUnits="userSpaceOnUse"
       id="clipPath3270">
      <ellipse
         style="font-variation-settings:normal;display:inline;opacity:1;vector-effect:none;fill:none;fill-opacity:1;fill-rule:evenodd;stroke:#ffffff;stroke-width:18.4205;stroke-linecap:butt;stroke-linejoin:miter;stroke-miterlimit:4;stroke-dasharray:none;stroke-dashoffset:0;stroke-opacity:1;stop-color:#000000;stop-opacity:1"
         id="circle3272"
         cx="132.17186"
         cy="152.81534"
         rx="134.86676"
         ry="96.463493" />
    </clipPath>
  </defs>
  <sodipodi:namedview
     inkscape:guide-bbox="true"
     showguides="true"
     inkscape:window-maximized="1"
     inkscape:window-y="-8"
     inkscape:window-x="1912"
     inkscape:window-height="1017"
     inkscape:window-width="2560"
     units="px"
     showgrid="false"
     inkscape:document-rotation="0"
     inkscape:current-layer="layer4"
     inkscape:document-units="mm"
     inkscape:cy="348.18847"
     inkscape:cx="-432.82476"
     inkscape:zoom="0.4978682"
     inkscape:pageshadow="2"
     inkscape:pageopacity="0"
     borderopacity="1.0"
     bordercolor="#666666"
     pagecolor="#949494"
     id="base"
     inkscape:snap-global="false">
    <sodipodi:guide
       inkscape:color="rgb(0,0,255)"
       inkscape:locked="false"
       inkscape:label=""
       id="guide1681"
       orientation="-1,0"
       position="135.46667,135.46667" />
    <sodipodi:guide
       inkscape:color="rgb(0,0,255)"
       inkscape:locked="false"
       inkscape:label=""
       id="guide1683"
       orientation="0,1"
       position="135.46667,135.46667" />
  </sodipodi:namedview>
  <metadata
     id="metadata1006">
    <rdf:RDF>
      <cc:Work
         rdf:about="">
        <dc:format>image/svg+xml</dc:format>
        <dc:type
           rdf:resource="http://purl.org/dc/dcmitype/StillImage" />
        <dc:title></dc:title>
      </cc:Work>
    </rdf:RDF>
  </metadata>
  <g
     inkscape:groupmode="layer"
     id="layer4"
     inkscape:label="Sky">
    <rect
       transform="matrix(1.021697,0,0,1.021697,-2.9262834,-3.4922355)"
       y="0"
       x="0"
       height="270.93332"
       width="270.93332"
       id="rect1053"
       style="display:inline;fill:url(#radialGradient3098);fill-opacity:1;stroke:none;stroke-width:1;stroke-linecap:round;stroke-linejoin:round;stroke-miterlimit:4;stroke-dasharray:none;stroke-opacity:1;filter:url(#filter1770)"
       clip-path="none" />
  </g>
  <g
     inkscape:groupmode="layer"
     id="layer2"
     inkscape:label="Water" />
  <g
     inkscape:groupmode="layer"
     id="layer3"
     inkscape:label="Mountain" />
  <g
     inkscape:groupmode="layer"
     id="layer1"
     inkscape:label="Raven"
     style="display:inline">
    <g
       id="g3060"
       clip-path="url(#clipPath3270)"
       transform="matrix(0.67376789,0,0,0.94200293,46.014211,-8.8996078)">
      <g
         inkscape:label="Clip"
         id="g3058">
        <rect
           style="display:inline;fill:#7e7e7e;fill-opacity:1;stroke:none;stroke-width:0.982357;stroke-linecap:round;stroke-linejoin:round;stroke-miterlimit:4;stroke-dasharray:none;stroke-opacity:1"
           id="rect1541"
           width="270.65442"
           height="82.601135"
           x="-1.8825647"
           y="171.59241"
           inkscape:label="rect1051" />
        <rect
           clip-path="url(#clipPath2091)"
           style="display:inline;opacity:0.842949;fill:url(#radialGradient1501);fill-opacity:1;stroke:none;stroke-width:1;stroke-linecap:round;stroke-linejoin:round;stroke-miterlimit:4;stroke-dasharray:none;stroke-opacity:1;filter:url(#filter2086)"
           id="rect1499"
           width="270.93332"
           height="270.93332"
           x="0"
           y="0"
           transform="matrix(1.1889983,0,0,-0.84951712,-32.791695,302.72414)" />
        <path
           sodipodi:nodetypes="ccssscssssssssscsssssssscc"
           id="path1049"
           d="m 303.81125,205.01415 1.69537,-68.84012 c 0,0 -26.24686,7.80589 -35.47646,4.89108 -9.22954,-2.91479 -14.24213,9.66642 -22.96013,9.78801 -8.71801,0.12159 -11.7679,-7.61334 -20.01636,-6.14561 -8.2485,1.46772 -26.06708,-4.70849 -26.06708,-4.70849 0,0 -4.79255,5.13906 -6.05822,6.84756 -1.26566,1.7085 -4.98329,3.8738 -7.5819,4.58636 -2.59859,0.7126 -5.55579,-1.86676 -7.7353,-1.83636 -2.17949,0.0304 -4.63931,-2.1333 -7.22949,-1.08267 -2.59019,1.05063 -5.24076,-2.37853 -6.01171,1.69024 -0.77092,4.06877 -0.22412,2.37039 -7.59239,4.16399 -7.36829,1.79362 -2.27204,4.51225 -12.28936,4.99012 -10.01727,0.47789 -12.22201,-0.50587 -20.92319,0.29182 -8.70122,0.79769 -5.34011,-4.32173 -10.44489,0.82143 -5.10472,5.14371 -10.71015,4.20759 -10.71015,4.20759 0,0 -2.74888,-0.97608 -11.45008,-0.1784 -8.70119,0.79768 -6.01359,2.78894 -12.9964,2.54815 -6.98281,-0.24078 -9.17072,-0.54843 -13.97403,-0.81963 -4.803312,-0.27116 -8.09034,-1.4812 -12.812831,2.03862 -5.779577,4.30773 -7.034339,2.29629 -11.693651,3.20663 -13.928106,2.72124 -8.059959,0.28149 -13.718258,0.69856 -5.658297,0.41709 -7.380735,-5.3795 -10.076144,-1.88847 -8.2250347,10.65291 -49.083615,9.51108 -49.549182,11.08155 -0.403832,1.36223 42.961924,0.3908 52.211431,-0.46637 98.668925,-1.91603 195.541695,31.19387 283.460325,24.11383 z"
           style="display:inline;fill:#232323;fill-opacity:1;stroke:none;stroke-width:0.270327px;stroke-linecap:butt;stroke-linejoin:miter;stroke-opacity:1" />
      </g>
    </g>
    <rect
       inkscape:label="rect2095"
       transform="matrix(0.64785009,0,0,0.64785009,46.022882,94.22049)"
       inkscape:export-ydpi="96"
       inkscape:export-xdpi="96"
       clip-path="url(#clipPath2105)"
       y="3.4543111"
       x="-16.474407"
       height="159.16402"
       width="335.86533"
       id="rect3102"
       style="display:none;opacity:1;fill:#7e7e7e;fill-opacity:1;stroke:none;stroke-width:1;stroke-linecap:round;stroke-linejoin:round;stroke-miterlimit:4;stroke-dasharray:none;stroke-opacity:1" />
    <path
       id="rect3110"
       clip-path="none"
       style="display:inline;opacity:1;fill:none;fill-opacity:1;stroke:#ffffff;stroke-width:1.11044;stroke-linecap:round;stroke-linejoin:round;stroke-miterlimit:4;stroke-dasharray:none;stroke-opacity:1"
       inkscape:label="rect2095"
       d="m 197.79282,110.35962 c -3.29177,0.0307 -7.92937,0.54172 -15.18075,1.9846 0.9702,-0.42596 1.78411,-0.84378 1.8357,-1.22141 -4.27162,-0.8183 -9.38227,1.27536 -18.10846,4.14681 -7.78345,1.35533 -10.55405,3.5302 -14.54293,5.78539 -3.79416,3.90268 -7.35901,7.6578 -10.162,9.22407 -0.60269,-1.35602 -1.46321,-2.59166 -2.8967,-3.40341 -1.47776,-0.12142 -4.84617,-0.073 -6.32393,0.10186 -1.82149,0.92925 -2.41621,2.05236 -3.03243,3.46021 -0.11061,-0.0658 -0.222,-0.13363 -0.33483,-0.20572 -2.7401,-1.75067 -6.11902,-5.30537 -9.69834,-8.98708 -3.98243,-2.42872 -6.77989,-4.58632 -14.72312,-5.85711 -8.834651,-2.90714 -14.008966,-5.02693 -18.333665,-4.19845 0.05218,0.38232 0.87609,0.80506 1.858344,1.23632 -10.441267,-2.07759 -15.529983,-2.2465 -18.95857,-1.82306 0.787729,2.40656 4.645325,2.08036 7.423962,2.85797 -4.290661,-0.10588 -8.446732,-0.72253 -12.960301,0.0186 1.530314,2.55023 6.021804,2.93815 10.60214,3.26138 -4.039843,-0.0834 -7.977133,-0.0698 -11.187453,0.62749 1.092181,3.33341 6.548503,2.54615 10.625379,3.08578 -3.950203,0.27092 -7.35151,0.96192 -10.372885,1.77057 1.403626,2.78322 8.991323,1.20201 13.843146,1.43803 -3.071718,0.70708 -6.043985,1.55175 -8.622131,2.55498 2.128438,2.11297 5.937424,0.79723 8.4715,1.49054 -1.712957,1.03439 2.671442,2.44242 6.444717,2.70848 -0.332173,0.0611 -4.834813,1.62526 3.276867,3.77094 -0.178544,1.21296 1.006963,1.80589 3.827745,3.57671 0.635039,2.58051 4.084559,3.01142 4.203329,2.456 0.07415,0.57402 3.699442,3.46431 4.552218,3.20687 -0.429921,1.03774 2.041018,2.69643 4.009948,3.37987 -0.40464,1.39151 2.25927,3.11974 3.42233,2.95008 0.0329,1.04504 1.97964,1.97975 3.35779,2.21327 -0.17497,2.03464 2.5749,2.77233 3.9144,2.65484 0.44354,1.9073 2.43592,2.34407 4.17721,2.48871 1.55919,1.22275 2.75332,-0.0912 3.74024,-0.28634 0.0799,0.35598 1.87991,1.61481 2.35703,1.26587 0.71254,-0.19777 1.2764,-0.69036 1.71116,-1.329 -0.16329,0.75038 -0.48042,1.48675 -1.03719,2.18832 0.004,-0.0313 0.007,-0.0612 0.0114,-0.0927 l -13.73756,12.66335 c -2.14167,2.13126 0.45546,3.19964 2.82009,4.03978 -2.03056,3.41998 -0.54177,4.57357 2.68898,4.8925 -0.42137,3.9661 2.29463,2.76739 3.94797,3.31819 0.0655,3.42305 2.65072,3.46662 5.65283,2.95121 1.77068,1.97409 3.54158,1.01022 5.31226,0.43297 2.90032,2.20666 3.74047,0.16539 4.57745,-1.12816 1.65037,1.65415 2.96557,0.96147 4.23662,-0.0395 2.16615,0.41999 4.07646,0.41643 3.59392,-2.62328 2.93395,1.60309 6.4508,-0.27638 6.97752,-3.51472 2.57402,-0.38499 3.34327,-1.99109 3.5546,-3.97437 2.98384,-1.22187 3.59979,-2.72353 2.7808,-4.64317 1.34202,-0.61604 3.261,-1.21875 2.36075,-3.41 -2.47647,-2.89521 -8.29739,-6.12058 -14.58224,-10.8595 -1.5e-4,-0.002 -4.5e-4,-0.004 -5.6e-4,-0.007 -1.1435,-0.62238 -1.12194,-1.97603 -0.88198,-3.11391 0.34923,1.60818 1.1844,3.20721 2.62213,3.60625 0.47126,0.34466 2.24945,-0.89848 2.32833,-1.2501 0.97482,0.19271 2.15402,1.49064 3.69405,0.28291 1.71992,-0.14286 3.68805,-0.57413 4.12615,-2.45802 1.32303,0.11604 4.03931,-0.61276 3.86648,-2.62241 1.36124,-0.23065 3.28364,-1.15409 3.31617,-2.18631 1.14881,0.16757 3.78042,-1.53922 3.38074,-2.91363 1.94478,-0.67505 4.38496,-2.31384 3.9603,-3.33885 0.84233,0.25427 4.42332,-2.60031 4.49657,-3.16727 0.11731,0.5486 3.52443,0.12295 4.15168,-2.42588 2.78614,-1.74908 3.95702,-2.33474 3.7807,-3.5328 8.01206,-2.11934 3.56479,-3.66382 3.2367,-3.72417 3.72692,-0.26279 8.05774,-1.65381 6.36581,-2.6755 2.50296,-0.68479 6.26505,0.61486 8.36735,-1.47216 -2.5465,-0.99092 -5.48198,-1.8256 -8.51597,-2.52401 4.79224,-0.23312 12.28631,1.32881 13.67272,-1.42024 -2.98429,-0.79871 -6.3441,-1.48145 -10.24579,-1.74904 4.02681,-0.53301 9.41635,0.24485 10.49512,-3.04762 -3.17091,-0.68874 -7.05978,-0.70186 -11.05002,-0.61946 4.5241,-0.31926 8.96063,-0.70258 10.47217,-3.2215 -4.45816,-0.73209 -8.56338,-0.12325 -12.80136,-0.0186 2.74453,-0.76806 6.55498,-0.44538 7.33301,-2.8224 -0.84662,-0.10456 -1.79613,-0.1728 -2.90474,-0.18391 -0.20786,-0.002 -0.42123,-0.002 -0.64068,-3e-4 z"
       sodipodi:nodetypes="scccccccccccccccccccccccccccccccccccccccccccccccccccccccccccccccccccccccccccccss" />
  </g>
  <g
     inkscape:groupmode="layer"
     id="layer5"
     inkscape:label="Text">
    <path
       id="path993"
       style="font-style:normal;font-variant:normal;font-weight:600;font-stretch:normal;font-size:28.2222px;font-family:Comfortaa;-inkscape-font-specification:'Comfortaa, Semi-Bold';font-variant-ligatures:normal;font-variant-caps:normal;font-variant-numeric:normal;font-variant-east-asian:normal;display:inline;fill:#000000;fill-opacity:1;stroke:#ffffff;stroke-width:0.706367;stroke-linecap:round;stroke-linejoin:round;stroke-miterlimit:4;stroke-dasharray:none;stroke-opacity:1"
       d="m 76.632863,88.183505 h 2.690973 c 0.637933,0 1.196297,0.132803 1.674746,0.398611 0.491735,0.252513 0.87694,0.618087 1.156042,1.096539 0.279089,0.465152 0.418681,0.996737 0.418681,1.5948 0,0.558187 -0.139592,1.056572 -0.418681,1.495151 -0.279102,0.43857 -0.664307,0.784162 -1.156042,1.036674 -0.478449,0.239219 -1.036813,0.358822 -1.674746,0.358822 h -2.690973 z m 55.842407,2.343105 c -1.03663,0 -1.97342,0.245979 -2.81069,0.737718 -0.824,0.478445 -1.48197,1.136414 -1.97371,1.973695 -0.47844,0.823994 -0.71764,1.76757 -0.71764,2.830782 0,1.049927 0.22598,1.993502 0.67786,2.830784 0.45187,0.83728 1.06985,1.495251 1.85397,1.973691 0.78412,0.47846 1.66807,0.71765 2.65155,0.71765 0.98348,0 1.85385,-0.1167 2.61139,-0.58185 0.44562,-0.28258 1.33418,-1.081209 1.33418,-1.081209 l 0.0745,-0.161708 v 0.819477 c 0,0 0.0272,0.51052 0.18616,0.68625 0.16228,0.17938 0.41205,0.25917 0.67786,0.25917 0.27909,0 0.50508,-0.0864 0.67786,-0.25917 0.17276,-0.18606 0.25916,-0.41204 0.25916,-0.67785 v -4.748264 h -3.8e-4 c -0.002,-1.043463 -0.24749,-1.773686 -0.73734,-2.607753 -0.47846,-0.837281 -1.12963,-1.49525 -1.95363,-1.973695 -0.824,-0.491739 -1.76114,-0.737718 -2.81106,-0.737718 z m 13.7312,0.427812 c -1.51659,-0.0042 -2.64915,0.34889 -3.46519,0.923882 l 0.008,-0.01604 c 0,-0.305675 0.008,-0.402807 -0.15149,-0.548998 -0.1462,-0.159483 -0.37218,-0.239099 -0.67785,-0.239099 -0.29239,0 -0.51801,0.07962 -0.6775,0.239099 -0.15948,0.159477 -0.23944,0.385466 -0.23944,0.677854 v 9.07054 c 0,0.30567 0.08,0.53845 0.23944,0.69793 0.15949,0.14619 0.38511,0.21901 0.6775,0.21901 0.30567,0 0.53165,-0.0796 0.67785,-0.23908 0.15948,-0.15948 0.23946,-0.38547 0.23946,-0.67786 0,0 -6.1e-4,-5.863623 0.002,-5.917442 0.0324,-0.59299 0.21725,-1.123043 0.5563,-1.498436 0.37213,-0.411997 0.87694,-0.704385 1.51486,-0.877156 0.65122,-0.172777 1.38881,-0.192768 2.21279,-0.05982 0.18606,0.03984 0.35886,0.05304 0.51833,0.03976 0.15949,-0.01328 0.29266,-0.06612 0.39899,-0.159152 0.1196,-0.09303 0.2056,-0.232622 0.2588,-0.418686 0.0797,-0.345549 -0.0663,-0.631516 -0.4384,-0.857449 -0.37214,-0.239225 -0.9237,-0.358821 -1.65466,-0.358821 z m 8.46387,0.01787 c -1.03663,0 -1.97379,0.245979 -2.81107,0.737718 -0.82399,0.478446 -1.48159,1.136048 -1.97333,1.973335 -0.47845,0.823987 -0.718,1.76793 -0.718,2.831144 0,1.049925 0.22598,1.993494 0.67785,2.830782 0.45186,0.837289 1.06985,1.494889 1.85396,1.973339 0.78414,0.47845 1.66809,0.71764 2.65155,0.71764 0.98349,0 1.9203,-0.23241 2.67784,-0.69757 0.44561,-0.28258 1.26811,-0.9487 1.26811,-0.9487 l 0.0741,-0.16134 v 0.80269 c 0,0 0.0272,0.51051 0.18616,0.68625 0.16228,0.17938 0.41206,0.25917 0.67786,0.25917 0.2791,0 0.50508,-0.0864 0.67785,-0.25917 0.17277,-0.18606 0.25917,-0.41205 0.25917,-0.67785 v -4.748275 h -3.8e-4 c -0.002,-1.043463 -0.2475,-1.774055 -0.73734,-2.608114 -0.47845,-0.83728 -1.12964,-1.49489 -1.95362,-1.973335 -0.824,-0.491739 -1.76078,-0.737719 -2.81071,-0.737719 z m -35.34588,0.0021 c -0.87714,0 -1.75639,0.147922 -2.46355,0.528196 -0.30552,0.164286 -0.66452,0.382414 -1.00528,0.622 v -0.113535 c 0,-0.279094 -0.0864,-0.505082 -0.25917,-0.677853 -0.17277,-0.172771 -0.39877,-0.259167 -0.67786,-0.259167 -0.27909,0 -0.50508,0.0864 -0.67785,0.259167 -0.17277,0.172771 -0.25917,0.398759 -0.25917,0.677853 v 9.050467 c 0,0.26581 0.0864,0.4918 0.25917,0.67786 0.17277,0.17277 0.39876,0.25917 0.67785,0.25917 0.27909,0 0.50509,-0.0864 0.67786,-0.25917 0.17276,-0.18606 0.25917,-0.41205 0.25917,-0.67786 v -5.721419 c 0,-0.505026 0.13959,-0.957002 0.41868,-1.355706 0.2791,-0.39871 0.65109,-0.717509 1.11625,-0.956735 0.47845,-0.239226 1.01681,-0.358822 1.61488,-0.358822 0.62463,0 1.18263,0.126385 1.67436,0.378898 0.50504,0.239226 0.8974,0.611221 1.17649,1.116254 0.29238,0.491731 0.4384,1.122922 0.4384,1.893755 v 5.003785 c 0,0.2658 0.0864,0.49179 0.25917,0.67786 0.18606,0.17277 0.41204,0.25916 0.67785,0.25916 0.26579,0 0.48501,-0.0864 0.65778,-0.25916 0.18606,-0.18607 0.27925,-0.41206 0.27925,-0.67786 v -5.003828 c 0,-1.089794 -0.21279,-2.013379 -0.63808,-2.770917 -0.42528,-0.75754 -1.00328,-1.329112 -1.73424,-1.714529 -0.73095,-0.398703 -1.55492,-0.597913 -2.47196,-0.597913 z m 71.56455,0 c -0.87715,0 -1.79933,0.05736 -2.50372,0.442774 -0.31008,0.163814 -0.65075,0.373584 -0.97535,0.612154 l 0.0102,-0.01822 c 0,-0.279094 -0.0864,-0.505082 -0.25916,-0.677853 -0.17277,-0.172778 -0.39876,-0.259174 -0.67785,-0.259174 -0.2791,0 -0.50473,0.0864 -0.67749,0.259174 -0.17278,0.172771 -0.25917,0.398759 -0.25917,0.677853 v 9.05043 c 0,0.26581 0.0864,0.4918 0.25917,0.67786 0.17276,0.17277 0.39839,0.25916 0.67749,0.25916 0.27909,0 0.50508,-0.0864 0.67785,-0.25916 0.17277,-0.18606 0.25916,-0.41205 0.25916,-0.67786 v -5.709405 c 0,-0.516956 0.1396,-0.969046 0.4187,-1.36775 0.27908,-0.39871 0.65109,-0.717515 1.11625,-0.956735 0.47845,-0.239226 1.01681,-0.358821 1.61487,-0.358821 0.62464,0 1.18301,0.126383 1.67474,0.378896 0.50503,0.23922 0.89702,0.611221 1.17612,1.116248 0.29239,0.491738 0.4384,1.122929 0.4384,1.893762 v 5.003785 c 0,0.26581 0.0864,0.49179 0.25916,0.67785 0.18608,0.17278 0.41206,0.25917 0.67786,0.25917 0.2658,1e-5 0.48501,-0.0864 0.65778,-0.25917 0.18607,-0.18606 0.27924,-0.41204 0.27924,-0.67785 v -5.003785 c 0,-1.089801 -0.21278,-2.013379 -0.63807,-2.770919 -0.42528,-0.757538 -1.00327,-1.329111 -1.73424,-1.714528 -0.73096,-0.398709 -1.55493,-0.597912 -2.47195,-0.597912 z m -98.907145,0.01971 c -1.03664,0 -1.973423,0.24598 -2.810704,0.737719 -0.823993,0.478445 -1.48196,1.136414 -1.973701,1.973695 -0.478443,0.823994 -0.717637,1.767569 -0.717637,2.830783 0,1.049926 0.225982,1.993502 0.677852,2.830783 0.451865,0.837278 1.069849,1.495248 1.853967,1.973698 0.784123,0.47844 1.667712,0.71764 2.651189,0.71764 0.983477,0 1.854226,-0.11633 2.611764,-0.58148 0.59602,-0.34412 1.334168,-1.08158 1.334168,-1.08158 l 0.07411,-0.16098 v 0.81876 c 0,0 0.02752,0.51051 0.186526,0.68625 0.162279,0.17937 0.412056,0.25917 0.677853,0.25917 0.279101,0 0.505083,-0.0864 0.677858,-0.25917 0.172776,-0.18607 0.258808,-0.41205 0.258808,-0.67785 v -4.748286 h -3.71e-4 c -0.0025,-1.043265 -0.247204,-1.773786 -0.736991,-2.607753 -0.478449,-0.837276 -1.129637,-1.495245 -1.953631,-1.973691 -0.823988,-0.491739 -1.761142,-0.737717 -2.811062,-0.737717 z m 13.472035,0 c -1.06321,0 -2.01357,0.239558 -2.85085,0.718004 -0.824,0.465158 -1.47518,1.116339 -1.95363,1.953627 -0.46516,0.823987 -0.697564,1.780771 -0.697564,2.870566 0,1.076507 0.219204,2.033285 0.657784,2.870572 0.45186,0.823989 1.06305,1.475169 1.83389,1.953619 0.78412,0.46516 1.68128,0.69793 2.69133,0.69793 0.93031,0 1.69801,-0.18527 2.45185,-0.54864 0.73464,-0.35411 1.20765,-0.72688 1.57507,-1.41812 -3.7e-4,-0.757954 -10e-4,-3.082645 -0.003,-3.430157 -0.0168,0.706079 -0.17412,1.336203 -0.47526,1.88828 -0.31895,0.571481 -0.75772,1.02346 -1.31591,1.355714 -0.54489,0.332253 -1.18284,0.498263 -1.9138,0.498263 -0.71766,0 -1.35527,-0.16601 -1.91346,-0.498263 -0.55818,-0.332254 -0.99695,-0.784233 -1.31592,-1.355714 -0.31896,-0.584767 -0.47856,-1.255946 -0.47856,-2.013484 0,-0.757539 0.1596,-1.428717 0.47856,-2.013486 0.31897,-0.584767 0.75774,-1.043166 1.31592,-1.37542 0.55819,-0.332256 1.1958,-0.498627 1.91346,-0.498627 0.73096,0 1.36891,0.166371 1.9138,0.498627 0.55819,0.332254 0.99696,0.790653 1.31591,1.37542 0.30082,0.551506 0.45778,1.180909 0.47489,1.886091 10e-4,0.04251 0.004,0.08431 0.004,0.127395 0,0.007 -6.1e-4,0.01377 -6.1e-4,0.02084 0.007,0.563477 0.12143,1.968179 0.073,3.392925 0.009,-0.01822 -0.0148,0.04076 -0.007,0.02211 l -0.003,0.196196 c -0.0492,1.05319 -0.19705,2.07567 -0.56177,2.7074 -0.3479,0.60258 -0.77779,1.07652 -1.33598,1.39549 -0.55817,0.33225 -1.17616,0.49825 -1.85394,0.49825 -0.71767,0 -1.36207,-0.1328 -1.93354,-0.3986 -0.55819,-0.26581 -1.02338,-0.63139 -1.3955,-1.09654 -0.1462,-0.18606 -0.3454,-0.30566 -0.59791,-0.35881 -0.23923,-0.0532 -0.46522,-0.006 -0.67786,0.1398 -0.19936,0.1462 -0.31894,0.32541 -0.35881,0.53805 -0.0398,0.22593 0.0265,0.43871 0.19929,0.63806 0.54491,0.70438 1.22249,1.24238 2.0332,1.6145 0.824,0.38542 1.72795,0.5782 2.71142,0.5782 1.0765,0 2.02683,-0.2524 2.85082,-0.75742 0.83726,-0.49174 1.48843,-1.16969 1.95359,-2.03355 0.46516,-0.85058 0.69757,-1.80736 0.69757,-2.87057 v -3.522516 -0.70377 c 0,-1.089801 -0.2392,-2.046578 -0.71764,-2.870565 -0.46513,-0.837288 -1.10953,-1.48847 -1.9335,-1.953628 -0.82398,-0.478446 -1.77431,-0.718003 -2.85083,-0.718003 z m 3.7714,9.174218 c 0.004,-0.0727 0.007,-0.14539 0.009,-0.218294 -0.0237,0.04917 -0.0481,0.09544 -0.0726,0.141634 5e-5,0.12179 3.8e-4,0.56051 3.8e-4,0.55119 z m -0.0638,-3.611223 c -5.7e-4,-0.04456 -0.004,-0.114976 -0.003,-0.148204 1.3e-4,-0.0042 2e-4,0.227006 3.9e-4,0.252598 6.1e-4,-0.03482 0.002,-0.06916 0.003,-0.104394 z m 65.57734,-2.05438 c 0.28151,-0.603253 0.71078,-1.063241 1.25568,-1.395496 0.5582,-0.345549 1.21616,-0.517974 1.9737,-0.517974 0.6911,0 1.2823,0.159215 1.77403,0.478184 0.77392,0.513679 1.3437,1.36349 1.48091,2.611765 l -6.83221,-0.007 c 0.0686,-0.388983 0.19008,-0.831459 0.34789,-1.169585 z m 7.35595,2.671319 c 0.25252,-7.34e-4 0.45851,-0.07319 0.61799,-0.219383 0.15949,-0.159485 0.23909,-0.359056 0.23909,-0.598282 0,-1.049925 -0.1992,-1.973497 -0.59792,-2.77091 -0.39869,-0.810707 -0.97706,-1.441891 -1.73459,-1.893763 -0.74427,-0.465151 -1.62785,-0.697928 -2.65119,-0.697928 l 5e-5,-2.8e-5 c -1.03662,0 -1.9602,0.239557 -2.77091,0.718003 -0.7974,0.465158 -1.42219,1.116339 -1.87404,1.953628 -0.45188,0.823987 -0.67786,1.780771 -0.67786,2.870565 0,1.076507 0.2392,2.033285 0.71765,2.870572 0.47844,0.82399 1.14318,1.47517 1.99377,1.95362 0.85057,0.46516 1.82056,0.69793 2.91036,0.69793 0.61135,0 1.25609,-0.11317 1.93391,-0.33911 0.67779,-0.23922 1.23579,-0.53803 1.67437,-0.89687 0.21263,-0.15948 0.31223,-0.34548 0.29896,-0.55812 -0.0132,-0.22594 -0.12611,-0.431933 -0.33874,-0.617996 -0.15949,-0.132904 -0.34549,-0.192876 -0.55814,-0.179596 -0.21263,0 -0.41221,0.0664 -0.59828,0.19931 -0.27909,0.212637 -0.6443,0.398642 -1.09617,0.558122 -0.43858,0.15949 -0.87733,0.23946 -1.31591,0.23946 -0.77084,0 -1.45522,-0.16637 -2.05328,-0.498625 -0.58477,-0.34555 -1.04995,-0.810362 -1.3955,-1.395137 -0.20772,-0.37391 -0.37555,-0.934371 -0.45338,-1.370667 z m -20.17933,-6.070453 c -0.10633,0.0064 -0.21272,0.03666 -0.31904,0.0898 -0.23923,0.106323 -0.39881,0.265538 -0.47855,0.478184 -0.0798,0.199352 -0.0729,0.405342 0.0201,0.617988 l 4.30585,9.070545 c 0.19936,0.39871 0.49175,0.59828 0.87717,0.59828 0.38541,0 0.67137,-0.19957 0.85744,-0.59828 l 4.26607,-9.090252 c 0.10631,-0.199359 0.11953,-0.40535 0.0397,-0.617996 -0.0797,-0.212639 -0.22611,-0.36544 -0.43876,-0.458469 -0.23923,-0.106322 -0.47163,-0.119899 -0.69756,-0.04012 -0.22593,0.06647 -0.39194,0.206041 -0.49826,0.418687 l -3.54879,7.435591 -3.58821,-7.435591 c -0.10632,-0.212646 -0.2659,-0.352239 -0.47854,-0.418687 -0.10634,-0.03983 -0.21236,-0.0563 -0.31868,-0.04966 z m -29.44013,1.077199 c 0.71767,0 1.34923,0.172792 1.89414,0.518333 0.55818,0.332256 0.99658,0.791022 1.31553,1.375783 0.33186,0.584054 0.49893,1.306649 0.49864,1.990859 l -0.007,7.34e-4 v 0.222668 c -0.0324,0.609695 -0.19533,1.231259 -0.49168,1.752856 -0.31896,0.584768 -0.75737,1.049948 -1.31556,1.395496 -0.5449,0.332256 -1.17644,0.498259 -1.89412,0.498259 -0.69109,0 -1.32228,-0.166003 -1.89375,-0.498259 -0.5582,-0.345548 -1.0034,-0.810728 -1.33565,-1.395496 -0.31895,-0.584768 -0.47853,-1.242736 -0.47853,-1.973702 0,-0.744252 0.15958,-1.408642 0.47853,-1.993411 0.33225,-0.584768 0.77745,-1.043526 1.33565,-1.375781 0.57147,-0.345549 1.20266,-0.518341 1.89375,-0.518341 z m 22.19508,0.445691 c 0.71767,0 1.34886,0.172792 1.89376,0.518341 0.55819,0.332255 0.99659,0.790654 1.31555,1.375421 0.33185,0.584048 0.49892,1.30701 0.49862,1.99122 l -0.007,7.34e-4 v 0.222656 c -0.0324,0.609703 -0.19534,1.230899 -0.49169,1.752497 -0.31897,0.584767 -0.75737,1.049946 -1.31556,1.395495 -0.5449,0.332253 -1.17607,0.498633 -1.89375,0.498633 -0.69109,0 -1.32264,-0.16638 -1.89413,-0.498633 -0.55819,-0.345549 -1.00338,-0.810728 -1.33562,-1.395495 -0.31897,-0.584769 -0.47819,-1.242377 -0.47819,-1.973337 0,-0.744252 0.15922,-1.409008 0.47819,-1.993776 0.33224,-0.584769 0.77743,-1.043161 1.33562,-1.375414 0.57149,-0.345549 1.20304,-0.518341 1.89413,-0.518341 z m -62.688489,0.0219 c 0.717674,0 1.348864,0.172792 1.893756,0.51834 0.558191,0.332256 0.996955,0.791014 1.315927,1.375782 0.331844,0.584048 0.498688,1.30665 0.498255,1.99086 l -0.007,7.34e-4 v 0.222661 c -0.03241,0.609703 -0.194963,1.231266 -0.491322,1.752856 -0.318966,0.584774 -0.757736,1.049955 -1.31592,1.395504 -0.544893,0.33224 -1.176089,0.49826 -1.893757,0.49826 -0.691095,0 -1.322279,-0.16602 -1.893756,-0.49826 -0.558191,-0.345549 -1.003382,-0.81073 -1.335634,-1.395504 -0.318966,-0.584767 -0.478554,-1.242737 -0.478554,-1.973695 0,-0.744252 0.159588,-1.408642 0.478554,-1.993411 0.332252,-0.584767 0.777443,-1.043526 1.335634,-1.375781 0.571477,-0.345549 1.202661,-0.518341 1.893756,-0.518341 z m -8.859388,8.954187 c 0.106326,0.15948 0.254954,0.19613 0.387858,0.27588 0.132899,0.0665 0.292487,0.0996 0.478549,0.0996 0.398707,0 0.677889,-0.15279 0.837372,-0.45847 0.159483,-0.30567 0.124152,-0.63636 -0.09965,-0.99652 L 81.615116,95.5158 c 0.770831,-0.398703 1.709013,-1.12625 2.134299,-1.830628 0.438578,-0.704384 0.65814,-1.508359 0.65814,-2.412095 0,-0.956898 -0.219562,-1.800861 -0.65814,-2.531827 -0.425286,-0.730957 -1.023273,-1.302531 -1.794104,-1.714527 -0.770831,-0.411998 -1.648,-0.61799 -2.631477,-0.61799 h -3.627999 c -0.279095,0 -0.511869,0.09319 -0.69793,0.279243 -0.172775,0.172771 -0.259166,0.398759 -0.259166,0.677853 v 13.655651 c 0,0.27909 0.08639,0.5115 0.259166,0.69756 0.186061,0.17278 0.418835,0.25917 0.69793,0.25917 0.279095,0 0.505084,-0.0864 0.677853,-0.25917 0.172775,-0.18606 0.259172,-0.41847 0.259172,-0.69756 v -5.083363 h 3.054629 z"
       sodipodi:nodetypes="csccsscsccsccsssscccccscsccccssscccsssscscccsccscccsssccssssccccsscsccccsssscsssssscscssscsccsscssssscssscccssssscscssscsccsscssssscsccccssssccccsscscccccssccsccssccccsscsssscscsccccscscccccccsccscsccsccccccccccsccsccscccsccccccsccscccccccscccccccccsccsccccccccccccccccsccsccccccccccccsccsccccccccccccsccsccccccssccscsssssscscsccc"
       inkscape:label="TextBase" />
  </g>
</svg>
