<?xml version="1.0" encoding="UTF-8" standalone="no"?>
<svg
   xmlns:dc="http://purl.org/dc/elements/1.1/"
   xmlns:cc="http://creativecommons.org/ns#"
   xmlns:rdf="http://www.w3.org/1999/02/22-rdf-syntax-ns#"
   xmlns:svg="http://www.w3.org/2000/svg"
   xmlns="http://www.w3.org/2000/svg"
   xmlns:xlink="http://www.w3.org/1999/xlink"
   xmlns:sodipodi="http://sodipodi.sourceforge.net/DTD/sodipodi-0.dtd"
   xmlns:inkscape="http://www.inkscape.org/namespaces/inkscape"
   inkscape:export-ydpi="96"
   inkscape:export-xdpi="96"
   inkscape:export-filename="S:\Dev\Icons\Andrew\AndrewRaven5.png"
   sodipodi:docname="AndrewIconRavenAura6.svg"
   inkscape:version="1.0 (4035a4fb49, 2020-05-01)"
   id="svg1009"
   version="1.1"
   viewBox="0 0 270.93333 270.93334"
   height="1024"
   width="1024">
  <defs
     id="defs1003">
    <rect
       id="rect2139"
       height="71.211953"
       width="276.87632"
       y="-129.13809"
       x="-9.0343522" />
    <linearGradient
       id="linearGradient1067"
       inkscape:collect="always">
      <stop
         id="stop1063"
         offset="0"
         style="stop-color:#214468;stop-opacity:1" />
      <stop
         style="stop-color:#587693;stop-opacity:0.95294118"
         offset="0.32024845"
         id="stop1285" />
      <stop
         style="stop-color:#7ea8d1;stop-opacity:0.95294118"
         offset="0.38601628"
         id="stop1085" />
      <stop
         id="stop1095"
         offset="0.535061"
         style="stop-color:#62e9f4;stop-opacity:0.66666675" />
      <stop
         style="stop-color:#e610f9;stop-opacity:0.29411766"
         offset="0.65896732"
         id="stop1083" />
      <stop
         id="stop1093"
         offset="0.81506538"
         style="stop-color:#581274;stop-opacity:1" />
      <stop
         id="stop1065"
         offset="1"
         style="stop-color:#070111;stop-opacity:1" />
    </linearGradient>
    <inkscape:path-effect
       fuse_tolerance="0"
       hide_knot="false"
       vertical_pattern="false"
       prop_units="false"
       tang_offset="0"
       normal_offset="0"
       spacing="0"
       scale_y_rel="false"
       prop_scale="1"
       copytype="single_stretched"
       pattern="m -22.645423,-27.003986 h 1.164054"
       lpeversion="1"
       is_visible="true"
       id="path-effect2418"
       effect="skeletal" />
    <inkscape:path-effect
       fuse_tolerance="0"
       hide_knot="false"
       vertical_pattern="false"
       prop_units="false"
       tang_offset="0"
       normal_offset="0"
       spacing="0"
       scale_y_rel="false"
       prop_scale="1"
       copytype="single_stretched"
       pattern="m 3.181531,3.0124702 h 3.809584 c 0.9031111,0 1.6935821,0.1880097 2.3709162,0.5643099 0.6961478,0.3574799 1.2414798,0.87502 1.6365928,1.5523599 0.39511,0.6585101 0.592728,1.41107 0.592728,2.2577401 0,0.79022 -0.197618,1.4957801 -0.592728,2.1166701 C 10.603511,10.12443 10.058179,10.61368 9.3620312,10.97116 8.6846971,11.30982 7.8942261,11.47914 6.991115,11.47914 H 3.181531 Z M 82.237117,6.32958 c -1.467551,0 -2.793751,0.34823 -3.979082,1.04438 -1.166519,0.6773301 -2.098,1.6088101 -2.794148,2.79414 -0.67732,1.16652 -1.01595,2.50233 -1.01595,4.00751 0,1.48637 0.319918,2.82218 0.959628,4.00751 0.639702,1.18533 1.514581,2.11681 2.624651,2.79414 1.11007,0.67734 2.36148,1.01596 3.753771,1.01596 1.392298,0 2.624489,-0.1652 3.69693,-0.82372 0.630849,-0.40004 1.888768,-1.53065 1.888768,-1.53065 l 0.105431,-0.22893 v 1.16013 c 0,0 0.0385,0.72273 0.263541,0.97152 0.22974,0.25394 0.583348,0.3669 0.959638,0.3669 0.39511,0 0.715042,-0.12231 0.959631,-0.3669 0.244591,-0.26341 0.3669,-0.58333 0.3669,-0.95963 v -6.72207 h -5.29e-4 C 90.023307,12.38265 89.675906,11.34888 88.982436,10.1681 88.305106,8.9827701 87.383226,8.0512901 86.216707,7.37396 85.050185,6.67781 83.723475,6.32958 82.237106,6.32958 Z m 19.439123,0.60565 c -2.147023,-0.006 -3.750363,0.49392 -4.905645,1.3079302 l 0.01191,-0.022701 c 0,-0.4327398 0.0113,-0.5702498 -0.21445,-0.7772098 -0.20697,-0.2257801 -0.526889,-0.33849 -0.959631,-0.33849 -0.41393,0 -0.733348,0.1127099 -0.959119,0.33849 -0.22578,0.22577 -0.339,0.5456999 -0.339,0.95963 V 21.243949 c 0,0.43274 0.11322,0.76228 0.339,0.98806 0.225771,0.20696 0.545189,0.31005 0.959119,0.31005 0.432742,0 0.752661,-0.1127 0.959631,-0.33847 0.225772,-0.22578 0.339,-0.54571 0.339,-0.95964 0,0 -0.0011,-8.30107 0.003,-8.37726 0.0458,-0.83949 0.307549,-1.58988 0.787551,-2.12132 0.526809,-0.58326 1.241459,-0.99719 2.144569,-1.2417799 0.921929,-0.2446001 1.966119,-0.2729 3.132629,-0.0847 0.26341,0.0564 0.50803,0.0751 0.7338,0.0563 0.22579,-0.018801 0.41431,-0.0936 0.56483,-0.2253099 0.16933,-0.1317001 0.29108,-0.32932 0.36638,-0.5927302 0.11289,-0.4891899 -0.0938,-0.89403 -0.62063,-1.21388 -0.52682,-0.3386698 -1.30768,-0.5079799 -2.34249,-0.5079799 z m 11.98222,0.0253 c -1.46756,0 -2.79427,0.34823 -3.9796,1.04438 -1.16652,0.6773301 -2.09748,1.6082901 -2.79363,2.7936305 -0.67733,1.16651 -1.01647,2.50284 -1.01647,4.00802 0,1.48637 0.31992,2.82217 0.95963,4.00751 0.6397,1.18533 1.51457,2.11629 2.62464,2.79363 1.11008,0.67733 2.36149,1.01596 3.75378,1.01596 1.3923,0 2.71854,-0.32902 3.79098,-0.98754 0.63085,-0.40005 1.79524,-1.34307 1.79524,-1.34307 l 0.10491,-0.22841 V 21.201 c 0,0 0.0385,0.72273 0.26354,0.97152 0.22974,0.25394 0.58335,0.3669 0.95964,0.3669 0.39511,0 0.71504,-0.12231 0.95963,-0.3669 0.24459,-0.26341 0.3669,-0.58334 0.3669,-0.95963 v -6.72207 h -5.3e-4 c -0.003,-1.47722 -0.35039,-2.51151 -1.04386,-3.69228 -0.67733,-1.1853298 -1.59921,-2.1162998 -2.76572,-2.79363 -1.16653,-0.69615 -2.49272,-1.04438 -3.97909,-1.04438 z m -50.038805,0.003 c -1.241769,0 -2.486509,0.20941 -3.487639,0.7477598 -0.432531,0.2325801 -0.940771,0.5413801 -1.42317,0.8805601 V 8.4311397 c 0,-0.3951099 -0.12232,-0.7150399 -0.366911,-0.95963 -0.244589,-0.2445898 -0.564521,-0.3668998 -0.959628,-0.3668998 -0.39511,0 -0.715042,0.12231 -0.959631,0.3668998 -0.244591,0.2445901 -0.3669,0.5645201 -0.3669,0.95963 V 21.24379 c 0,0.3763 0.122309,0.69623 0.3669,0.95964 0.244589,0.24459 0.564521,0.3669 0.959631,0.3669 0.395107,0 0.715039,-0.12231 0.959628,-0.3669 0.244591,-0.26341 0.366911,-0.58334 0.366911,-0.95964 v -8.09976 c 0,-0.71496 0.19762,-1.35482 0.59273,-1.91926 0.39511,-0.56445 0.921739,-1.01577 1.580261,-1.3544398 0.677328,-0.3386701 1.4395,-0.5079802 2.286169,-0.5079802 0.884291,0 1.674238,0.17892 2.370389,0.5364002 0.71497,0.3386698 1.270431,0.8652998 1.665531,1.5802698 0.41393,0.69614 0.620641,1.58971 0.620641,2.68097 v 7.0838 c 0,0.3763 0.122309,0.69623 0.366898,0.95964 0.263411,0.24459 0.583332,0.3669 0.95963,0.3669 0.376291,0 0.68662,-0.12231 0.931212,-0.3669 0.263408,-0.26341 0.39533,-0.58334 0.39533,-0.95964 v -7.0838 c 0,-1.54281 -0.301242,-2.85032 -0.903312,-3.92276 -0.60207,-1.0724398 -1.420339,-1.88161 -2.45515,-2.4272399 -1.034799,-0.5644401 -2.201289,-0.84646 -3.49952,-0.84646 z m 101.313195,0 c -1.24177,0 -2.54729,0.0812 -3.54448,0.6268299 -0.43898,0.2319099 -0.92127,0.5288801 -1.3808,0.8666199 l 0.0145,-0.025799 c 0,-0.3951102 -0.12231,-0.7150401 -0.3669,-0.9596302 -0.24459,-0.2445999 -0.56452,-0.3669099 -0.95963,-0.3669099 -0.39511,0 -0.71453,0.12231 -0.95911,0.3669099 -0.2446,0.2445901 -0.36691,0.56452 -0.36691,0.9596302 V 21.24383 c 0,0.3763 0.12231,0.69623 0.36691,0.95963 0.24458,0.2446 0.564,0.3669 0.95911,0.3669 0.39511,0 0.71504,-0.1223 0.95963,-0.3669 0.24459,-0.2634 0.3669,-0.58333 0.3669,-0.95963 v -8.08271 c 0,-0.73185 0.19762,-1.37187 0.59273,-1.93631 0.39511,-0.56445 0.92175,-1.01578 1.58027,-1.3544399 C 162.8724,9.5317 163.63456,9.36239 164.48123,9.36239 c 0.88429,0 1.67477,0.17892 2.37092,0.5364001 0.71497,0.3386599 1.2699,0.8652999 1.66501,1.5802599 0.41393,0.69615 0.62063,1.58972 0.62063,2.68098 v 7.0838 c 0,0.3763 0.12232,0.69623 0.36691,0.95963 0.26341,0.2446 0.58333,0.3669 0.95963,0.3669 0.37629,10e-6 0.68662,-0.1223 0.93121,-0.3669 0.26341,-0.2634 0.39532,-0.58333 0.39532,-0.95963 v -7.0838 c 0,-1.54282 -0.30123,-2.85032 -0.9033,-3.92276 -0.60207,-1.0724399 -1.42034,-1.8816098 -2.45515,-2.4272399 -1.03481,-0.5644499 -2.2013,-0.84646 -3.49953,-0.84646 z m -140.021897,0.0279 c -1.467557,0 -2.793754,0.34823 -3.979085,1.04438 -1.166519,0.6773299 -2.097997,1.6088098 -2.794145,2.7941398 -0.677334,1.16652 -1.015958,2.50233 -1.015958,4.00751 0,1.48637 0.319926,2.82218 0.959631,4.00751 0.639701,1.18533 1.514572,2.11681 2.624645,2.79414 1.110073,0.67733 2.360964,1.01596 3.75326,1.01596 1.392293,0 2.625002,-0.16469 3.697448,-0.8232 0.843778,-0.48716 1.888773,-1.53118 1.888773,-1.53118 l 0.104902,-0.22789 v 1.1591 c 0,0 0.03899,0.72273 0.264068,0.97152 0.229732,0.25394 0.583335,0.3669 0.95963,0.3669 0.395113,0 0.715039,-0.12231 0.959634,-0.3669 0.244594,-0.26341 0.366387,-0.58334 0.366387,-0.95963 v -6.72207 h -5.3e-4 c -0.0028,-1.47694 -0.349959,-2.51113 -1.043347,-3.69177 -0.677333,-1.18533 -1.599205,-2.1168099 -2.765724,-2.7941398 -1.166516,-0.69615 -2.493231,-1.04438 -3.979599,-1.04438 z m 19.072214,0 c -1.505183,0 -2.850592,0.33914 -4.03592,1.0164699 -1.166522,0.6585201 -2.088394,1.5803901 -2.765727,2.7657299 -0.658519,1.16651 -0.987533,2.52102 -0.987533,4.06383 0,1.524 0.310316,2.8785 0.931209,4.06384 0.639701,1.16651 1.504963,2.08838 2.596221,2.76572 1.110073,0.65852 2.380184,0.98805 3.8101,0.98805 1.317035,0 2.40387,-0.26228 3.471082,-0.7767 1.040035,-0.50132 1.709672,-1.02904 2.229829,-2.00762 -5.29e-4,-1.07303 -0.0021,-4.36407 -0.004,-4.85604 -0.02381,0.99959 -0.246509,1.89165 -0.672827,2.67322 -0.451546,0.80904 -1.072714,1.4489 -1.862932,1.91927 -0.771403,0.47036 -1.674566,0.70538 -2.709373,0.70538 -1.015994,0 -1.918649,-0.23502 -2.708872,-0.70538 -0.790221,-0.47037 -1.411381,-1.11023 -1.862934,-1.91927 -0.451557,-0.82785 -0.677479,-1.77803 -0.677479,-2.85047 0,-1.07244 0.225922,-2.02262 0.677479,-2.85047 0.451553,-0.82785 1.072713,-1.4768 1.862934,-1.94717 0.790223,-0.47037 1.692878,-0.7059 2.708872,-0.7059 1.034807,0 1.93797,0.23553 2.709373,0.7059 0.790218,0.47037 1.411386,1.11932 1.862932,1.94717 0.425868,0.78076 0.648078,1.6718 0.672306,2.67012 0.0021,0.0602 0.005,0.11935 0.005,0.18035 0,0.01 -0.0011,0.0195 -0.0011,0.0295 0.009,0.79771 0.171908,2.78633 0.103347,4.80333 0.01241,-0.0258 -0.02098,0.0577 -0.0088,0.0313 l -0.0041,0.27775 c -0.0697,1.49099 -0.278969,2.93851 -0.795306,3.83284 -0.492506,0.85307 -1.101114,1.52403 -1.891337,1.975588 -0.790218,0.470371 -1.665092,0.705384 -2.624635,0.705384 -1.015997,0 -1.928257,-0.18801 -2.737292,-0.564309 -0.79022,-0.376295 -1.448776,-0.893843 -1.97559,-1.552363 -0.206963,-0.2634 -0.48898,-0.43272 -0.846461,-0.50797 -0.338664,-0.0753 -0.658593,-0.009 -0.95963,0.19791 -0.282221,0.20697 -0.45153,0.46068 -0.507979,0.76172 -0.05645,0.31985 0.03756,0.621077 0.282152,0.9033 0.771408,0.997186 1.730674,1.758834 2.878378,2.285649 1.166519,0.545629 2.446229,0.818555 3.838522,0.818555 1.523992,0 2.869393,-0.357323 4.035907,-1.072285 1.185322,-0.696148 2.107186,-1.655932 2.765705,-2.878899 0.658506,-1.20415 0.987536,-2.55865 0.987536,-4.06383 v -4.98679 -0.99632 c 0,-1.54282 -0.33863,-2.89732 -1.015958,-4.06383 C 50.097785,9.58835 49.18552,8.66648 48.019018,8.0079601 46.852504,7.33063 45.507103,6.99149 43.983111,6.99149 Z M 49.322344,19.97927 c 0.005,-0.10295 0.009,-0.20583 0.01291,-0.30903 -0.0335,0.0696 -0.0681,0.13512 -0.102838,0.20051 7.1e-5,0.17242 5.29e-4,0.7935 5.29e-4,0.78031 z m -0.0904,-5.11235 c -7.94e-4,-0.0631 -0.006,-0.16277 -0.004,-0.20981 1.72e-4,-0.006 2.62e-4,0.32137 5.29e-4,0.3576 0.0011,-0.0493 0.003,-0.0979 0.004,-0.14779 z m 92.837186,-2.90835 c 0.39854,-0.85402 1.00626,-1.50522 1.77767,-1.97559 0.79022,-0.48919 1.7217,-0.7332898 2.79415,-0.7332898 0.97837,0 1.81532,0.2253999 2.51147,0.67696 1.09562,0.7272098 1.90226,1.9302798 2.09651,3.6974498 l -9.67229,-0.01 c 0.0971,-0.55068 0.2691,-1.17709 0.49249,-1.65577 z m 10.41375,3.78176 c 0.35749,-0.001 0.64911,-0.10362 0.87488,-0.31058 0.22578,-0.22578 0.33848,-0.50831 0.33848,-0.84698 0,-1.48637 -0.28201,-2.79386 -0.84646,-3.92275 -0.56444,-1.1477099 -1.38322,-2.0412698 -2.45566,-2.6809799 -1.05364,-0.6585101 -2.30453,-0.9880499 -3.75326,-0.9880499 l 9e-5,-4.03e-5 c -1.46756,0 -2.77505,0.3391401 -3.92276,1.0164702 -1.12889,0.6585199 -2.01337,1.5803901 -2.65307,2.7657299 -0.63971,1.16651 -0.95963,2.52102 -0.95963,4.06383 0,1.524 0.33863,2.8785 1.01596,4.06384 0.67733,1.16651 1.61841,2.08838 2.82256,2.76572 1.20415,0.65852 2.57736,0.98805 4.12017,0.98805 0.86547,0 1.77825,-0.16022 2.73781,-0.48007 0.95955,-0.33867 1.74951,-0.76169 2.3704,-1.26969 0.30102,-0.22578 0.44203,-0.4891 0.42323,-0.79013 -0.0188,-0.31986 -0.17853,-0.61148 -0.47956,-0.87489 -0.22578,-0.18815 -0.48909,-0.27305 -0.79013,-0.25425 -0.30103,0 -0.58357,0.094 -0.84698,0.28216 -0.39511,0.30103 -0.91214,0.56435 -1.55184,0.79013 -0.62089,0.22578 -1.24204,0.339 -1.86293,0.339 -1.09127,0 -2.06014,-0.23553 -2.9068,-0.7059 -0.82785,-0.48919 -1.4864,-1.14722 -1.9756,-1.97508 -0.29407,-0.52934 -0.53167,-1.32278 -0.64184,-1.94044 z M 123.9152,7.14649 c -0.15052,0.009 -0.30113,0.0519 -0.45165,0.1271302 -0.33867,0.1505199 -0.56459,0.37592 -0.67748,0.67696 -0.11291,0.2822199 -0.10329,0.57384 0.0284,0.87488 l 6.09576,12.8410798 c 0.28222,0.56444 0.69615,0.84697 1.24178,0.84697 0.54563,0 0.95047,-0.28253 1.21388,-0.84697 l 6.03942,-12.8689799 c 0.1505,-0.2822299 0.16922,-0.57385 0.0563,-0.87489 -0.11289,-0.3010299 -0.32011,-0.5173501 -0.62115,-0.6490499 -0.33867,-0.1505201 -0.66769,-0.16974 -0.98754,-0.0568 -0.31985,0.0941 -0.55486,0.2916901 -0.70538,0.5927301 L 130.12356,18.33604 125.04377,7.8095501 c -0.15052,-0.30104 -0.37644,-0.4986599 -0.67748,-0.5927301 -0.15053,-0.0564 -0.30062,-0.0797 -0.45114,-0.0703 z M 82.237117,8.67147 c 1.016,0 1.91008,0.24462 2.681499,0.7338002 0.790221,0.4703699 1.410859,1.1198398 1.86241,1.9476798 0.469789,0.82684 0.706321,1.84981 0.705901,2.81844 l -0.01,0.001 v 0.31523 c -0.0459,0.86314 -0.276529,1.74308 -0.696079,2.4815 -0.451551,0.82785 -1.0722,1.4864 -1.86242,1.97559 -0.771409,0.47037 -1.665489,0.70538 -2.681489,0.70538 -0.978371,0 -1.87194,-0.23501 -2.680981,-0.70538 -0.79022,-0.48919 -1.420471,-1.14774 -1.890839,-1.97559 -0.451551,-0.82785 -0.677471,-1.75933 -0.677471,-2.79415 0,-1.05363 0.22592,-1.9942 0.677471,-2.82205 0.470368,-0.82785 1.100619,-1.4773102 1.890839,-1.9476804 0.809041,-0.48919 1.70261,-0.73381 2.680981,-0.73381 z m 31.421343,0.6309601 c 1.016,0 1.90957,0.24462 2.68098,0.7338099 0.79022,0.47037 1.41087,1.11932 1.86241,1.94717 0.46979,0.82683 0.70632,1.85032 0.7059,2.81895 l -0.01,0.001 v 0.315219 c -0.0459,0.863151 -0.27653,1.742571 -0.69608,2.480991 -0.45155,0.827849 -1.0722,1.486399 -1.86242,1.975589 -0.77141,0.470371 -1.66497,0.705901 -2.68097,0.705901 -0.97837,0 -1.87245,-0.23553 -2.68149,-0.705901 -0.79023,-0.48919 -1.42048,-1.14774 -1.89084,-1.975589 -0.45156,-0.82785 -0.67697,-1.75882 -0.67697,-2.793631 0,-1.05363 0.22541,-1.994719 0.67697,-2.822569 0.47036,-0.827851 1.10061,-1.476791 1.89084,-1.947161 0.80904,-0.4891895 1.70312,-0.7338095 2.68149,-0.7338095 z m -88.747513,0.031 c 1.015997,0 1.909567,0.24462 2.680972,0.73381 0.790221,0.47037 1.411381,1.11983 1.862937,1.94768 0.469789,0.82683 0.705996,1.84981 0.705382,2.81844 l -0.0098,0.001 v 0.31522 c -0.04594,0.86315 -0.27601,1.74309 -0.695563,2.4815 -0.451556,0.82786 -1.072716,1.48641 -1.862936,1.9756 -0.771406,0.47036 -1.664975,0.70538 -2.680973,0.70538 -0.97837,0 -1.871937,-0.23502 -2.680972,-0.70538 -0.790223,-0.48919 -1.420471,-1.14774 -1.890842,-1.9756 -0.451554,-0.82785 -0.677479,-1.75933 -0.677479,-2.79414 0,-1.05363 0.225925,-1.9942 0.677479,-2.82205 0.470371,-0.82785 1.100619,-1.47731 1.890842,-1.94768 0.809035,-0.4891903 1.702602,-0.7338103 2.680972,-0.7338103 z M 12.368802,22.00979 c 0.150519,0.22577 0.360932,0.27766 0.54908,0.39055 0.188148,0.0941 0.414073,0.14107 0.677479,0.14107 0.564444,0 0.959678,-0.21631 1.185458,-0.64905 0.225777,-0.43274 0.175761,-0.90089 -0.141076,-1.41077 l -4.404924,-7.08881 c 1.091258,-0.56444 2.419435,-1.59442 3.021508,-2.5916 0.620889,-0.9971898 0.931725,-2.1353699 0.931725,-3.4147798 0,-1.3546701 -0.310836,-2.5494602 -0.931725,-3.5842803 C 12.654254,2.7673102 11.807688,1.95814 10.71643,1.37488 9.625172,0.79162 8.3833711,0.50000001 6.9910751,0.50000001 H 1.854955 c -0.39511,0 -0.724646,0.13192 -0.98805199,0.39532001 C 0.622309,1.13991 0.50000001,1.45984 0.50000001,1.85495 v 19.33216 c 0,0.39511 0.12230899,0.72413 0.366903,0.98753 0.26340599,0.2446 0.59294199,0.36691 0.98805199,0.36691 0.395113,0 0.715039,-0.12231 0.959633,-0.36691 0.2445909,-0.2634 0.366903,-0.59242 0.366903,-0.98753 V 13.99065 H 7.5059 Z"
       lpeversion="1"
       is_visible="true"
       id="path-effect2365"
       effect="skeletal" />
    <inkscape:path-effect
       effect="skeletal"
       id="path-effect2354"
       is_visible="true"
       lpeversion="1"
       pattern="m -24.043793,-28.402356 h 1.174377"
       copytype="single_stretched"
       prop_scale="1"
       scale_y_rel="false"
       spacing="0"
       normal_offset="0"
       tang_offset="0"
       prop_units="false"
       vertical_pattern="false"
       hide_knot="false"
       fuse_tolerance="0" />
    <inkscape:path-effect
       fuse_tolerance="0"
       hide_knot="false"
       vertical_pattern="false"
       prop_units="false"
       tang_offset="0"
       normal_offset="0"
       spacing="0"
       scale_y_rel="false"
       prop_scale="1"
       copytype="single_stretched"
       pattern="m -1.7018946,-1.7019017 h 1.00866037"
       lpeversion="1"
       is_visible="true"
       id="path-effect2336"
       effect="skeletal" />
    <inkscape:path-effect
       fuse_tolerance="0"
       hide_knot="false"
       vertical_pattern="false"
       prop_units="false"
       tang_offset="0"
       normal_offset="0"
       spacing="0"
       scale_y_rel="false"
       prop_scale="1"
       copytype="single_stretched"
       pattern="M 0,0 H 1"
       lpeversion="1"
       is_visible="true"
       id="path-effect2290"
       effect="skeletal" />
    <rect
       x="55.239586"
       y="-50.730232"
       width="187.77321"
       height="39.456847"
       id="rect966" />
    <linearGradient
       inkscape:collect="always"
       id="linearGradient1362">
      <stop
         style="stop-color:#575757;stop-opacity:1"
         offset="0"
         id="stop1358" />
      <stop
         style="stop-color:#0f0f0f;stop-opacity:1"
         offset="1"
         id="stop1360" />
    </linearGradient>
    <linearGradient
       inkscape:collect="always"
       id="linearGradient1356">
      <stop
         style="stop-color:#050505;stop-opacity:1"
         offset="0"
         id="stop1348" />
      <stop
         id="stop1350"
         offset="0.34801045"
         style="stop-color:#ff05d6;stop-opacity:1" />
      <stop
         id="stop1352"
         offset="0.65782946"
         style="stop-color:#48bee3;stop-opacity:1" />
      <stop
         style="stop-color:#040404;stop-opacity:1"
         offset="1"
         id="stop1354" />
    </linearGradient>
    <linearGradient
       id="linearGradient1291"
       inkscape:collect="always">
      <stop
         id="stop1287"
         offset="0"
         style="stop-color:#000000;stop-opacity:0" />
      <stop
         style="stop-color:#403930;stop-opacity:0.68235294;"
         offset="0.43927687"
         id="stop1295" />
      <stop
         id="stop1289"
         offset="1"
         style="stop-color:#d0dd4c;stop-opacity:1" />
    </linearGradient>
    <linearGradient
       id="linearGradient1267"
       inkscape:collect="always">
      <stop
         id="stop1263"
         offset="0"
         style="stop-color:#1d1d1d;stop-opacity:1" />
      <stop
         id="stop1265"
         offset="1"
         style="stop-color:#181818;stop-opacity:1" />
    </linearGradient>
    <linearGradient
       inkscape:collect="always"
       id="linearGradient1261">
      <stop
         style="stop-color:#575757;stop-opacity:1"
         offset="0"
         id="stop1257" />
      <stop
         style="stop-color:#0f0f0f;stop-opacity:1"
         offset="1"
         id="stop1259" />
    </linearGradient>
    <linearGradient
       id="linearGradient1225"
       inkscape:collect="always">
      <stop
         id="stop1221"
         offset="0"
         style="stop-color:#0f0f0f;stop-opacity:1" />
      <stop
         id="stop1223"
         offset="1"
         style="stop-color:#323232;stop-opacity:1" />
    </linearGradient>
    <linearGradient
       id="linearGradient1215"
       inkscape:collect="always">
      <stop
         id="stop1211"
         offset="0"
         style="stop-color:#808080;stop-opacity:1" />
      <stop
         style="stop-color:#484846;stop-opacity:1;"
         offset="0.49575108"
         id="stop1388" />
      <stop
         id="stop1213"
         offset="1"
         style="stop-color:#2a2926;stop-opacity:1" />
    </linearGradient>
    <linearGradient
       id="linearGradient1167"
       inkscape:collect="always">
      <stop
         id="stop1163"
         offset="0"
         style="stop-color:#050505;stop-opacity:1" />
      <stop
         style="stop-color:#ff05d6;stop-opacity:1"
         offset="0.39385217"
         id="stop1175" />
      <stop
         style="stop-color:#48bee3;stop-opacity:1"
         offset="0.65782946"
         id="stop1173" />
      <stop
         id="stop1165"
         offset="1"
         style="stop-color:#040404;stop-opacity:1" />
    </linearGradient>
    <inkscape:path-effect
       lpeversion="1"
       is_visible="true"
       id="path-effect1105"
       effect="spiro" />
    <inkscape:path-effect
       lpeversion="1"
       is_visible="true"
       id="path-effect1101"
       effect="spiro" />
    <inkscape:path-effect
       lpeversion="1"
       is_visible="true"
       id="path-effect1081"
       effect="spiro" />
    <inkscape:path-effect
       lpeversion="1"
       is_visible="true"
       id="path-effect1073"
       effect="spiro" />
    <inkscape:path-effect
       lpeversion="1"
       is_visible="true"
       id="path-effect1065"
       effect="spiro" />
    <inkscape:path-effect
       lpeversion="1"
       is_visible="true"
       id="path-effect1061"
       effect="spiro" />
    <inkscape:path-effect
       lpeversion="1"
       is_visible="true"
       id="path-effect1057"
       effect="spiro" />
    <inkscape:path-effect
       lpeversion="1"
       is_visible="true"
       id="path-effect1053"
       effect="spiro" />
    <inkscape:path-effect
       lpeversion="1"
       is_visible="true"
       id="path-effect1049"
       effect="spiro" />
    <inkscape:path-effect
       lpeversion="1"
       is_visible="true"
       id="path-effect1045"
       effect="spiro" />
    <inkscape:path-effect
       lpeversion="1"
       is_visible="true"
       id="path-effect977"
       effect="spiro" />
    <inkscape:path-effect
       lpeversion="1"
       is_visible="true"
       id="path-effect973"
       effect="spiro" />
    <inkscape:path-effect
       lpeversion="1"
       is_visible="true"
       id="path-effect969"
       effect="spiro" />
    <inkscape:path-effect
       lpeversion="1"
       is_visible="true"
       id="path-effect965"
       effect="spiro" />
    <inkscape:path-effect
       lpeversion="1"
       is_visible="true"
       id="path-effect961"
       effect="spiro" />
    <inkscape:path-effect
       lpeversion="1"
       is_visible="true"
       id="path-effect957"
       effect="spiro" />
    <inkscape:path-effect
       lpeversion="1"
       is_visible="true"
       id="path-effect929"
       effect="spiro" />
    <inkscape:path-effect
       effect="spiro"
       id="path-effect998"
       is_visible="true"
       lpeversion="1" />
    <inkscape:path-effect
       effect="spiro"
       id="path-effect994"
       is_visible="true"
       lpeversion="1" />
    <inkscape:path-effect
       effect="spiro"
       id="path-effect990"
       is_visible="true"
       lpeversion="1" />
    <inkscape:path-effect
       effect="spiro"
       id="path-effect986"
       is_visible="true"
       lpeversion="1" />
    <inkscape:path-effect
       effect="spiro"
       id="path-effect982"
       is_visible="true"
       lpeversion="1" />
    <inkscape:path-effect
       effect="spiro"
       id="path-effect978"
       is_visible="true"
       lpeversion="1" />
    <inkscape:path-effect
       effect="spiro"
       id="path-effect974"
       is_visible="true"
       lpeversion="1" />
    <inkscape:path-effect
       effect="spiro"
       id="path-effect970"
       is_visible="true"
       lpeversion="1" />
    <inkscape:path-effect
       effect="spiro"
       id="path-effect966"
       is_visible="true"
       lpeversion="1" />
    <inkscape:path-effect
       effect="spiro"
       id="path-effect962"
       is_visible="true"
       lpeversion="1" />
    <inkscape:path-effect
       effect="spiro"
       id="path-effect958"
       is_visible="true"
       lpeversion="1" />
    <inkscape:path-effect
       effect="spiro"
       id="path-effect954"
       is_visible="true"
       lpeversion="1" />
    <inkscape:path-effect
       effect="spiro"
       id="path-effect950"
       is_visible="true"
       lpeversion="1" />
    <inkscape:path-effect
       effect="spiro"
       id="path-effect946"
       is_visible="true"
       lpeversion="1" />
    <inkscape:path-effect
       effect="spiro"
       id="path-effect942"
       is_visible="true"
       lpeversion="1" />
    <inkscape:path-effect
       effect="spiro"
       id="path-effect938"
       is_visible="true"
       lpeversion="1" />
    <inkscape:path-effect
       effect="spiro"
       id="path-effect934"
       is_visible="true"
       lpeversion="1" />
    <inkscape:path-effect
       effect="spiro"
       id="path-effect930"
       is_visible="true"
       lpeversion="1" />
    <inkscape:path-effect
       effect="spiro"
       id="path-effect926"
       is_visible="true"
       lpeversion="1" />
    <inkscape:path-effect
       effect="spiro"
       id="path-effect922"
       is_visible="true"
       lpeversion="1" />
    <inkscape:path-effect
       effect="spiro"
       id="path-effect918"
       is_visible="true"
       lpeversion="1" />
    <inkscape:path-effect
       effect="spiro"
       id="path-effect910"
       is_visible="true"
       lpeversion="1" />
    <inkscape:path-effect
       effect="spiro"
       id="path-effect906"
       is_visible="true"
       lpeversion="1" />
    <linearGradient
       gradientTransform="matrix(-0.98772156,0,0,0.98772156,263.3754,0.36034222)"
       y2="30.775099"
       x2="95.460594"
       y1="14.146854"
       x1="110.5142"
       gradientUnits="userSpaceOnUse"
       id="linearGradient1237"
       xlink:href="#linearGradient1225"
       inkscape:collect="always" />
    <radialGradient
       gradientTransform="matrix(3.918176,0.09434704,-0.04536992,1.8841855,119.69663,-242.77687)"
       gradientUnits="userSpaceOnUse"
       r="135.46666"
       fy="253.01071"
       fx="-36.666481"
       cy="253.01071"
       cx="-36.666481"
       id="radialGradient1087"
       xlink:href="#linearGradient1067"
       inkscape:collect="always" />
    <filter
       height="1.1313856"
       y="-0.065692801"
       width="1.1313856"
       x="-0.065692801"
       id="filter1495"
       style="color-interpolation-filters:sRGB"
       inkscape:collect="always">
      <feGaussianBlur
         id="feGaussianBlur1497"
         stdDeviation="7.4159869"
         inkscape:collect="always" />
    </filter>
    <radialGradient
       r="135.46666"
       fy="253.01071"
       fx="-36.666481"
       cy="253.01071"
       cx="-36.666481"
       gradientTransform="matrix(3.918176,0.09434704,-0.04536992,1.8841855,119.69663,-242.77687)"
       gradientUnits="userSpaceOnUse"
       id="radialGradient1501"
       xlink:href="#linearGradient1067"
       inkscape:collect="always" />
    <filter
       height="1.0692554"
       y="-0.034627712"
       width="1.0692554"
       x="-0.034627712"
       id="filter1770"
       style="color-interpolation-filters:sRGB"
       inkscape:collect="always">
      <feGaussianBlur
         id="feGaussianBlur1772"
         stdDeviation="3.9090837"
         inkscape:collect="always" />
    </filter>
    <filter
       height="1.0020861"
       y="-0.0010430421"
       width="1.0020861"
       x="-0.0010430421"
       id="filter2086"
       style="color-interpolation-filters:sRGB"
       inkscape:collect="always">
      <feGaussianBlur
         id="feGaussianBlur2088"
         stdDeviation="0.11774786"
         inkscape:collect="always" />
    </filter>
    <clipPath
       id="clipPath2091"
       clipPathUnits="userSpaceOnUse">
      <rect
         transform="scale(1,-1)"
         inkscape:label="rect1051"
         y="-154.36029"
         x="24.558475"
         height="93.945984"
         width="229.30431"
         id="rect2093"
         style="display:inline;fill:#4e4e4e;fill-opacity:1;stroke:none;stroke-width:1.01538;stroke-linecap:round;stroke-linejoin:round;stroke-miterlimit:4;stroke-dasharray:none;stroke-opacity:1" />
    </clipPath>
    <clipPath
       id="clipPath2105"
       clipPathUnits="userSpaceOnUse">
      <g
         inkscape:label="Raven"
         transform="matrix(0.83965177,0,0,0.83965177,26.117106,36.353033)"
         id="g2121"
         style="display:inline">
        <path
           style="opacity:1;fill:url(#linearGradient2123);fill-opacity:1;stroke:none;stroke-width:595.485;stroke-linecap:butt;stroke-linejoin:miter;stroke-miterlimit:4;stroke-dasharray:none;stroke-opacity:1"
           d="m 162.79469,6.1502963 c 7.22451,-3.901132 12.23362,-7.8272443 26.19247,-10.4198226 15.7167,-5.1717497 24.9219,-8.9426897 32.61548,-7.4688377 -0.0929,0.680131 -1.55938,1.432558 -3.3068,2.1997696 18.57486,-3.6960126 27.62826,-3.9964886 33.72763,-3.2432006 -1.40132,4.281232 -8.26422,3.7009199 -13.20738,5.0842792 7.63301,-0.1883733 15.02686,-1.2855028 23.05644,0.033069 -2.72241,4.5368115 -10.71277,5.2271726 -18.86111,5.8021954 7.18682,-0.1484071 14.19073,-0.1246573 19.90185,1.11582712 -1.94296,5.93007758 -11.64955,4.52950658 -18.90222,5.48950658 7.02731,0.481954 13.07851,1.711374 18.4535,3.149934 -2.49704,4.9513047 -15.99519,2.1384587 -24.62648,2.5583247 5.46452,1.257902 10.75192,2.760669 15.3384,4.545397 -3.78644,3.758929 -10.56235,1.418202 -15.07043,2.651571 3.04733,1.840168 -4.75241,4.345455 -11.46496,4.818769 0.59092,0.108725 8.60085,2.890467 -5.82967,6.707598 0.31759,2.157819 -1.79157,3.212963 -6.80969,6.36322 -1.12973,4.590692 -7.26609,5.357312 -7.47738,4.369239 -0.13192,1.021161 -6.58135,6.162861 -8.09844,5.70489 0.76483,1.846125 -3.63076,4.797138 -7.13349,6.012964 0.71985,2.475469 -4.01967,5.549579 -6.08878,5.247764 -0.0586,1.859122 -3.52167,3.522273 -5.97339,3.9377 0.31129,3.619587 -4.58039,4.932263 -6.96333,4.723247 -0.78904,3.393067 -4.33389,4.169746 -7.43163,4.427058 -2.77376,2.175262 -4.89795,-0.162541 -6.6537,-0.509618 -0.14206,0.633284 -3.3441,2.872585 -4.19288,2.251837 -3.62533,-1.006204 -5.13395,-6.24913 -5.07294,-9.841887 0.77703,-17.219541 -5.78622,-32.335435 -9.24372,-37.745403 5.35402,0.610347 13.86074,-8.438579 23.12265,-17.9653907 z"
           id="path2107"
           sodipodi:nodetypes="ccccccccccccccccccccccccccccc" />
        <path
           sodipodi:nodetypes="ccccccccccccccccccccccccccccc"
           id="path2109"
           d="m 104.35191,6.4921508 c -7.314306,-3.949627 -12.385691,-7.9245451 -26.518056,-10.549352 -15.91208,-5.23604 -25.23171,-9.0538568 -33.02093,-7.5616828 0.09404,0.688586 1.57877,1.450366 3.34791,2.2271146 -18.80577,-3.7419576 -27.97171,-4.0461686 -34.1469,-3.2835166 1.41874,4.3344518 8.36695,3.7469258 13.37156,5.1474818 -7.72789,-0.190715 -15.213661,-1.301483 -23.3430517,0.03348 2.75625,4.593209 10.8459417,5.292152 19.0955717,5.874323 -7.27616,-0.150252 -14.3671317,-0.126207 -20.1492517,1.12969799 1.96711,6.00379501 11.7943717,4.58581301 19.1371917,5.55774701 -7.11466,0.487945 -13.2410917,1.732648 -18.6828917,3.189091 2.52808,5.0128552 16.1940317,2.1650422 24.9326117,2.5901282 -5.53245,1.273539 -10.88558,2.794987 -15.52907,4.601901 3.83351,3.805656 10.69365,1.435832 15.25777,2.684533 -3.085212,1.863043 4.811484,4.399473 11.607475,4.878671 -0.598265,0.110077 -8.707767,2.926399 5.902146,6.790981 -0.321544,2.184643 1.813839,3.252903 6.894339,6.442321 1.14377,4.64776 7.356416,5.42391 7.570331,4.423554 0.133557,1.033855 6.663159,6.239472 8.199111,5.775808 -0.774338,1.869074 3.675893,4.856771 7.222165,6.087711 -0.728795,2.506242 4.069639,5.618567 6.16447,5.313 0.05931,1.882233 3.565454,3.566058 6.047646,3.98665 -0.315154,3.664582 4.637333,4.993576 7.049895,4.781962 0.798845,3.435246 4.387763,4.22158 7.524008,4.482091 2.80824,2.202302 4.95883,-0.164562 6.73641,-0.515953 0.14382,0.641156 3.38567,2.908294 4.245,2.279829 3.6704,-1.018712 5.19777,-6.326813 5.136,-9.964232 -0.78669,-17.433598 5.85815,-32.737399 9.35863,-38.214619 -5.42057,0.617934 -14.03304,-8.543479 -23.41009,-18.1887202 z"
           style="opacity:1;fill:url(#linearGradient2125);fill-opacity:1;stroke:none;stroke-width:0.264583px;stroke-linecap:butt;stroke-linejoin:miter;stroke-opacity:1" />
        <path
           sodipodi:nodetypes="csccccccccccc"
           id="path2111"
           d="m 162.79469,6.1502963 c 7.18434,-4.0617973 12.17371,-7.9787485 26.19247,-10.4198226 8.01039,-1.3948423 -0.45224,14.3922183 -9.0273,15.4779623 0.1575,1.081877 -0.68369,10.029721 -6.54312,10.34556 1.04207,3.601622 -0.13837,4.391722 -1.98081,5.206913 2.14401,3.420662 -0.73934,4.197349 -2.62894,4.770534 0.48287,1.108561 0.90109,2.601114 -0.87924,2.702557 0.061,2.15583 1.26822,6.194562 -2.76025,6.612244 1.24105,9.12071 -3.80937,6.212626 -5.10889,5.174246 -0.18805,12.365437 -6.16569,3.384835 -6.2124,3.392173 0,0 -1.81165,-4.004784 -6.56789,-3.718822 -1.26439,-5.527827 -4.89111,-15.797021 -7.60628,-21.578154 5.35402,0.610347 13.86074,-8.438579 23.12265,-17.9653907 z"
           style="fill:url(#linearGradient2127);fill-opacity:1;stroke:none;stroke-width:0.261334px;stroke-linecap:butt;stroke-linejoin:miter;stroke-opacity:1" />
        <path
           style="fill:url(#linearGradient2129);fill-opacity:1;stroke:none;stroke-width:0.264583px;stroke-linecap:butt;stroke-linejoin:miter;stroke-opacity:1"
           d="M 104.35191,6.4921508 C 97.179181,2.1177925 92.140368,-1.7683839 77.833854,-4.0572012 69.70522,-5.3576548 78.291709,10.513928 86.973368,11.613169 c -0.159457,1.095326 0.692194,10.154401 6.624461,10.474167 -1.055027,3.646394 0.140085,4.446315 2.005436,5.27164 -2.170667,3.463185 0.748529,4.249527 2.661611,4.829837 -0.48887,1.122342 -0.912288,2.633449 0.890178,2.736153 -0.06176,2.182629 -1.283989,6.271567 2.794556,6.694441 -1.25648,9.23409 3.85672,6.289856 5.17239,5.238567 0.19039,12.519153 6.24234,3.426913 6.28963,3.434342 0,0 1.83417,-4.054568 6.64954,-3.765051 1.2801,-5.596544 4.95191,-15.993395 7.70083,-21.846394 -5.42057,0.617934 -14.03304,-8.543479 -23.41009,-18.1887202 z"
           id="path2113"
           sodipodi:nodetypes="csccccccccccc" />
        <path
           sodipodi:nodetypes="ccsccscccc"
           id="path2115"
           d="m 150.85457,70.816106 c -3.02052,-1.643958 -1.53112,-6.122737 -0.90008,-8.050167 0.42945,-12.863349 0.91703,-19.895558 -4.20047,-36.534307 -1.13578,-3.692817 -2.70586,-7.460358 -6.47973,-9.597381 -2.66158,-0.218701 -8.7284,-0.132139 -11.38998,0.182756 -3.76707,1.921798 -4.62136,4.303756 -5.96558,7.39416 -4.23178,9.729039 -6.77656,20.68199 -6.02895,38.110992 0.7847,4.01021 1.63677,8.451239 -1.57563,12.294469 -2.09754,9.781985 3.71007,21.665626 20.29472,28.436022 10.64537,-10.590674 17.47433,-15.882355 16.2457,-32.236544 z"
           style="display:inline;opacity:1;fill:url(#radialGradient2131);fill-opacity:1;stroke:none;stroke-width:0.264583px;stroke-linecap:butt;stroke-linejoin:miter;stroke-opacity:1" />
        <path
           style="fill:url(#linearGradient2133);fill-opacity:1;stroke:none;stroke-width:0.264583px;stroke-linecap:butt;stroke-linejoin:miter;stroke-opacity:1"
           d="m 133.85712,41.591588 c -3.81875,-3.882243 -5.86725,-10.120011 -8.23721,-15.743686 -1.14525,-11.708993 17.5241,-10.164 15.35318,-0.03696 -1.9643,5.808912 -4.01657,12.013943 -7.11597,15.780646 z"
           id="path2117"
           sodipodi:nodetypes="ccccc" />
        <path
           style="display:inline;opacity:1;fill:url(#radialGradient2135);fill-opacity:1;stroke:none;stroke-width:0.264583px;stroke-linecap:butt;stroke-linejoin:miter;stroke-opacity:1"
           d="m 150.8076,70.79262 c 11.33791,8.554948 21.84493,14.372349 26.31157,19.594239 1.62144,3.94665 -1.83513,5.03256 -4.25224,6.14211 1.47509,3.45745 0.36601,6.162021 -5.00817,8.362721 -0.38063,3.57208 -1.7659,6.46454 -6.40197,7.15793 -0.94867,5.83256 -7.28339,9.21843 -12.56772,6.33109 0.8691,5.47481 -2.57139,5.48115 -6.47284,4.72471 -2.28927,1.80302 -4.65794,3.05019 -7.6304,0.0709 -1.50751,2.32983 -3.02085,6.00604 -8.2446,2.03162 -3.18917,1.03968 -6.37834,2.77594 -9.56751,-0.77958 -5.40712,0.9283 -10.06368,0.84997 -10.18175,-5.31528 -2.97784,-0.99203 -7.869614,1.16657 -7.110684,-5.97676 -5.81888,-0.57443 -8.50009,-2.65185 -4.84283,-8.81156 -4.25896,-1.51316 -8.93638,-3.43744 -5.07905,-7.276051 l 24.742634,-22.80786 c -0.35971,2.734987 -0.6405,5.192501 3.47597,3.414719 -0.71926,2.251961 -1.14961,5.596237 0.86357,4.915751 -0.22316,2.485746 -0.92305,4.501277 1.48493,5.01971 0.95122,1.94464 -0.0823,5.883444 4.37694,4.526617 0.92052,3.967824 2.0445,8.029504 5.62298,6.602609 1.9604,4.099395 3.69239,4.674145 6.58386,0.458328 3.75036,0.391197 3.62417,-3.846952 3.51268,-8.073491 3.46557,1.167504 3.68502,-3.713018 3.04768,-7.115277 1.92618,0.173166 3.97667,0.62084 2.98125,-5.657867 4.08741,0.499852 4.47138,-3.217979 4.3557,-7.539328 z"
           id="path2119"
           sodipodi:nodetypes="ccccccccccccccccccccccccc" />
      </g>
    </clipPath>
    <linearGradient
       y2="-9.7700367"
       x2="122.8487"
       y1="-9.7700367"
       x1="1.5307407"
       gradientTransform="matrix(-0.98772156,0,0,0.98772156,263.3754,0.36034222)"
       gradientUnits="userSpaceOnUse"
       id="linearGradient2123"
       xlink:href="#linearGradient1356"
       inkscape:collect="always" />
    <linearGradient
       y2="-9.7700367"
       x2="125.24663"
       y1="-9.7700367"
       x1="1.5307407"
       gradientTransform="translate(2.5208864,0.63022159)"
       gradientUnits="userSpaceOnUse"
       id="linearGradient2125"
       xlink:href="#linearGradient1167"
       inkscape:collect="always" />
    <linearGradient
       y2="30.775099"
       x2="95.460594"
       y1="14.146854"
       x1="110.5142"
       gradientTransform="matrix(-0.98772156,0,0,0.98772156,263.3754,0.36034222)"
       gradientUnits="userSpaceOnUse"
       id="linearGradient2127"
       xlink:href="#linearGradient1362"
       inkscape:collect="always" />
    <linearGradient
       y2="30.775099"
       x2="95.460594"
       y1="14.146854"
       x1="110.5142"
       gradientTransform="translate(2.5208864,0.63022159)"
       gradientUnits="userSpaceOnUse"
       id="linearGradient2129"
       xlink:href="#linearGradient1261"
       inkscape:collect="always" />
    <radialGradient
       r="18.454615"
       fy="68.560455"
       fx="132.81143"
       cy="68.560455"
       cx="132.81143"
       gradientTransform="matrix(1,0,0,2.3356665,0,-79.56972)"
       gradientUnits="userSpaceOnUse"
       id="radialGradient2131"
       xlink:href="#linearGradient1267"
       inkscape:collect="always" />
    <linearGradient
       y2="36.616062"
       x2="135.48982"
       y1="16.372316"
       x1="135.48982"
       gradientTransform="translate(-1.5253058,0.1398569)"
       gradientUnits="userSpaceOnUse"
       id="linearGradient2133"
       xlink:href="#linearGradient1291"
       inkscape:collect="always" />
    <radialGradient
       r="44.606377"
       fy="54.149605"
       fx="133.1962"
       cy="54.149605"
       cx="133.1962"
       gradientTransform="matrix(-0.01094549,1.3255439,-1.2431561,-0.01026519,201.97051,-105.2872)"
       gradientUnits="userSpaceOnUse"
       id="radialGradient2135"
       xlink:href="#linearGradient1215"
       inkscape:collect="always" />
    <clipPath
       id="clipPath3062"
       clipPathUnits="userSpaceOnUse">
      <use
         id="use3064"
         xlink:href="#g3058"
         y="0"
         x="0" />
    </clipPath>
    <radialGradient
       r="135.46666"
       fy="253.01071"
       fx="-36.666481"
       cy="253.01071"
       cx="-36.666481"
       gradientTransform="matrix(3.918176,0.09434704,-0.04536992,1.8841855,119.69663,-242.77687)"
       gradientUnits="userSpaceOnUse"
       id="radialGradient3098"
       xlink:href="#linearGradient1067"
       inkscape:collect="always" />
    <clipPath
       id="clipPath3283"
       clipPathUnits="userSpaceOnUse">
      <ellipse
         ry="96.463493"
         rx="134.86676"
         cy="152.81534"
         cx="132.17186"
         id="circle3285"
         style="font-variation-settings:normal;display:inline;opacity:1;vector-effect:none;fill:none;fill-opacity:1;fill-rule:evenodd;stroke:#ffffff;stroke-width:18.4205;stroke-linecap:butt;stroke-linejoin:miter;stroke-miterlimit:4;stroke-dasharray:none;stroke-dashoffset:0;stroke-opacity:1;stop-color:#000000;stop-opacity:1" />
    </clipPath>
    <clipPath
       id="clipPath3301"
       clipPathUnits="userSpaceOnUse">
      <circle
         r="121.26947"
         cy="135.82585"
         cx="135.27191"
         id="circle3303"
         style="font-variation-settings:normal;display:inline;opacity:1;vector-effect:none;fill:none;fill-opacity:1;fill-rule:evenodd;stroke:#ffffff;stroke-width:19.5849;stroke-linecap:butt;stroke-linejoin:miter;stroke-miterlimit:4;stroke-dasharray:none;stroke-dashoffset:0;stroke-opacity:1;stop-color:#000000;stop-opacity:1" />
    </clipPath>
  </defs>
  <sodipodi:namedview
     inkscape:snap-global="false"
     id="base"
     pagecolor="#949494"
     bordercolor="#666666"
     borderopacity="1.0"
     inkscape:pageopacity="0"
     inkscape:pageshadow="2"
     inkscape:zoom="0.70409196"
     inkscape:cx="287.31965"
     inkscape:cy="454.11782"
     inkscape:document-units="mm"
     inkscape:current-layer="layer4"
     inkscape:document-rotation="0"
     showgrid="false"
     units="px"
     inkscape:window-width="2560"
     inkscape:window-height="1017"
     inkscape:window-x="1912"
     inkscape:window-y="-8"
     inkscape:window-maximized="1"
     showguides="true"
     inkscape:guide-bbox="true">
    <sodipodi:guide
       position="135.46667,135.46667"
       orientation="-1,0"
       id="guide1681"
       inkscape:label=""
       inkscape:locked="false"
       inkscape:color="rgb(0,0,255)" />
    <sodipodi:guide
       position="135.46667,135.46667"
       orientation="0,1"
       id="guide1683"
       inkscape:label=""
       inkscape:locked="false"
       inkscape:color="rgb(0,0,255)" />
  </sodipodi:namedview>
  <metadata
     id="metadata1006">
    <rdf:RDF>
      <cc:Work
         rdf:about="">
        <dc:format>image/svg+xml</dc:format>
        <dc:type
           rdf:resource="http://purl.org/dc/dcmitype/StillImage" />
        <dc:title></dc:title>
      </cc:Work>
    </rdf:RDF>
  </metadata>
  <g
     inkscape:label="Sky"
     id="layer4"
     inkscape:groupmode="layer">
    <rect
       clip-path="url(#clipPath3301)"
       style="display:inline;fill:url(#radialGradient3098);fill-opacity:1;stroke:none;stroke-width:1;stroke-linecap:round;stroke-linejoin:round;stroke-miterlimit:4;stroke-dasharray:none;stroke-opacity:1;filter:url(#filter1770)"
       id="rect1053"
       width="270.93332"
       height="270.93332"
       x="0"
       y="0"
       transform="matrix(1.078572,0,0,1.078572,-10.619873,-11.217329)" />
  </g>
  <g
     inkscape:label="Water"
     id="layer2"
     inkscape:groupmode="layer" />
  <g
     inkscape:label="Mountain"
     id="layer3"
     inkscape:groupmode="layer" />
  <g
     style="display:inline"
     inkscape:label="Raven"
     id="layer1"
     inkscape:groupmode="layer">
    <g
       transform="matrix(0.91353308,0,0,1.2772215,14.24811,-60.20719)"
       clip-path="url(#clipPath3283)"
       id="g3060">
      <g
         id="g3058"
         inkscape:label="Clip">
        <rect
           inkscape:label="rect1051"
           y="171.59241"
           x="-1.8825647"
           height="74.42337"
           width="270.93329"
           id="rect1541"
           style="display:inline;fill:#7e7e7e;fill-opacity:1;stroke:none;stroke-width:0.982357;stroke-linecap:round;stroke-linejoin:round;stroke-miterlimit:4;stroke-dasharray:none;stroke-opacity:1" />
        <rect
           transform="matrix(1.1815447,0,0,-0.79219313,-30.8995,293.87559)"
           y="0"
           x="0"
           height="270.93332"
           width="270.93332"
           id="rect1499"
           style="display:inline;opacity:0.842949;fill:url(#radialGradient1501);fill-opacity:1;stroke:none;stroke-width:1;stroke-linecap:round;stroke-linejoin:round;stroke-miterlimit:4;stroke-dasharray:none;stroke-opacity:1;filter:url(#filter2086)"
           clip-path="url(#clipPath2091)" />
        <path
           style="display:inline;fill:#232323;fill-opacity:1;stroke:none;stroke-width:0.270327px;stroke-linecap:butt;stroke-linejoin:miter;stroke-opacity:1"
           d="m 303.81125,205.01415 1.69537,-68.84012 c 0,0 -26.24686,7.80589 -35.47646,4.89108 -9.22954,-2.91479 -14.24213,9.66642 -22.96013,9.78801 -8.71801,0.12159 -11.7679,-7.61334 -20.01636,-6.14561 -8.2485,1.46772 -26.06708,-4.70849 -26.06708,-4.70849 0,0 -4.79255,5.13906 -6.05822,6.84756 -1.26566,1.7085 -4.98329,3.8738 -7.5819,4.58636 -2.59859,0.7126 -5.55579,-1.86676 -7.7353,-1.83636 -2.17949,0.0304 -4.63931,-2.1333 -7.22949,-1.08267 -2.59019,1.05063 -5.24076,-2.37853 -6.01171,1.69024 -0.77092,4.06877 -0.22412,2.37039 -7.59239,4.16399 -7.36829,1.79362 -2.27204,4.51225 -12.28936,4.99012 -10.01727,0.47789 -12.22201,-0.50587 -20.92319,0.29182 -8.70122,0.79769 -5.34011,-4.32173 -10.44489,0.82143 -5.10472,5.14371 -10.71015,4.20759 -10.71015,4.20759 0,0 -2.74888,-0.97608 -11.45008,-0.1784 -8.70119,0.79768 -6.01359,2.78894 -12.9964,2.54815 -6.98281,-0.24078 -9.17072,-0.54843 -13.97403,-0.81963 -4.803312,-0.27116 -8.09034,-1.4812 -12.812831,2.03862 -5.779577,4.30773 -7.034339,2.29629 -11.693651,3.20663 -13.928106,2.72124 -8.059959,0.28149 -13.718258,0.69856 -5.658297,0.41709 -7.380735,-5.3795 -10.076144,-1.88847 -8.2250347,10.65291 -49.083615,9.51108 -49.549182,11.08155 -0.403832,1.36223 42.961924,0.3908 52.211431,-0.46637 98.668925,-1.91603 195.541695,31.19387 283.460325,24.11383 z"
           id="path1049"
           sodipodi:nodetypes="ccssscssssssssscsssssssscc" />
      </g>
    </g>
    <rect
       style="display:none;opacity:1;fill:#7e7e7e;fill-opacity:1;stroke:none;stroke-width:1;stroke-linecap:round;stroke-linejoin:round;stroke-miterlimit:4;stroke-dasharray:none;stroke-opacity:1"
       id="rect3102"
       width="335.86533"
       height="159.16402"
       x="-16.474407"
       y="3.4543111"
       clip-path="url(#clipPath2105)"
       inkscape:export-xdpi="96"
       inkscape:export-ydpi="96"
       transform="matrix(0.64785009,0,0,0.64785009,46.022882,94.22049)"
       inkscape:label="rect2095" />
    <path
       sodipodi:nodetypes="scccccccccccccccccccccccccccccccccccccccccccccccccccccccccccccccccccccccccccccss"
       d="m 220.03824,101.4913 c -4.46317,0.0416 -10.7511,0.73449 -20.58293,2.69083 1.31545,-0.57754 2.419,-1.14404 2.48895,-1.65605 -5.79171,-1.1095 -12.72102,1.7292 -24.55249,5.62248 -10.55325,1.83763 -14.30979,4.78645 -19.71814,7.84416 -5.14434,5.29148 -9.97777,10.38289 -13.77822,12.50652 -0.81716,-1.83857 -1.9839,-3.51392 -3.92751,-4.61453 -2.00363,-0.16463 -6.57072,-0.099 -8.57435,0.1381 -2.46968,1.25993 -3.27603,2.78271 -4.11154,4.69155 -0.14997,-0.0892 -0.301,-0.18118 -0.45398,-0.27892 -3.71519,-2.37366 -8.29652,-7.19333 -13.14957,-12.1852 -5.3996,-3.293 -9.19256,-6.2184 -19.962446,-7.94141 -11.978525,-3.94166 -18.994158,-6.81579 -24.857833,-5.69249 0.07075,0.51837 1.187853,1.09154 2.51965,1.67627 -14.156868,-2.81692 -21.05644,-3.04593 -25.705115,-2.47181 1.068048,3.26295 6.298398,2.82067 10.065833,3.875 -5.817524,-0.14356 -11.452563,-0.97965 -17.572318,0.0252 2.074887,3.45775 8.164706,3.98371 14.374988,4.42196 -5.47745,-0.11307 -10.815854,-0.0946 -15.168589,0.85079 1.480841,4.51963 8.878835,3.45222 14.406497,4.18388 -5.355912,0.36733 -9.967598,1.30422 -14.064152,2.40064 1.903117,3.77365 12.190951,1.62975 18.76933,1.94976 -4.164811,0.9587 -8.19478,2.10395 -11.690378,3.46419 2.885858,2.86489 8.050299,1.08093 11.486144,2.02096 -2.322525,1.40248 3.622094,3.31157 8.738117,3.67231 -0.45038,0.0828 -6.555317,2.20362 4.442964,5.11286 -0.242081,1.6446 1.365298,2.44853 5.189875,4.84951 0.861023,3.4988 5.538079,4.08305 5.699115,3.32998 0.100536,0.77829 5.015915,4.69711 6.172157,4.34806 -0.582911,1.40703 2.767329,3.65597 5.436917,4.58262 -0.548634,1.88669 3.063248,4.22992 4.640191,3.99989 0.04461,1.41692 2.68411,2.68426 4.552683,3.00088 -0.23723,2.75868 3.4912,3.75888 5.30737,3.59958 0.60138,2.58603 3.30276,3.17823 5.6637,3.37434 2.11404,1.65787 3.73311,-0.12366 5.07123,-0.38824 0.10833,0.48266 2.54889,2.18945 3.1958,1.71634 0.9661,-0.26815 1.73061,-0.93603 2.32009,-1.80194 -0.2214,1.01741 -0.65138,2.01583 -1.40629,2.96705 0.005,-0.0424 0.01,-0.083 0.0155,-0.12568 l -18.62617,17.16969 c -2.903798,2.88969 0.61754,4.33826 3.82364,5.47737 -2.75315,4.637 -0.73456,6.2011 3.64587,6.63353 -0.57131,5.37746 3.11119,3.75218 5.35289,4.49899 0.0888,4.64117 3.594,4.70024 7.66443,4.00142 2.40079,2.67658 4.80187,1.36971 7.20266,0.58705 3.93242,2.99191 5.07155,0.22424 6.20637,-1.52963 2.23767,2.24279 4.02089,1.30362 5.74425,-0.0536 2.93699,0.56945 5.5271,0.56462 4.87285,-3.55679 3.97801,2.17356 8.74636,-0.37473 9.46052,-4.76546 3.49,-0.52199 4.533,-2.69963 4.81953,-5.38868 4.04566,-1.65668 4.8808,-3.69271 3.77037,-6.29547 1.81958,-0.83526 4.42145,-1.65245 3.20084,-4.62347 -3.35774,-3.9255 -11.25008,-8.29864 -19.77144,-14.72394 -2e-4,-0.003 -6.1e-4,-0.005 -7.6e-4,-0.009 -1.55042,-0.84386 -1.52119,-2.67921 -1.19584,-4.22201 0.47351,2.18046 1.60588,4.34851 3.55524,4.88956 0.63896,0.46731 3.04993,-1.21822 3.15688,-1.69496 1.32172,0.26129 2.92054,2.02109 5.0086,0.38358 2.33197,-0.19369 5.00047,-0.77843 5.59447,-3.33272 1.79384,0.15733 5.47673,-0.83082 5.2424,-3.55561 1.84565,-0.31273 4.45215,-1.56479 4.49625,-2.96433 1.55762,0.2272 5.12571,-2.08696 4.5838,-3.95046 2.63685,-0.91528 5.94538,-3.13724 5.3696,-4.52701 1.14208,0.34476 5.9974,-3.52565 6.09671,-4.29436 0.15906,0.74382 4.77863,0.1667 5.62909,-3.28915 3.77761,-2.3715 5.36515,-3.16558 5.12609,-4.78997 10.86321,-2.87353 4.83334,-4.96762 4.3885,-5.04945 5.05317,-0.3563 10.92515,-2.24233 8.63113,-3.62759 3.39366,-0.92848 8.49451,0.83366 11.34493,-1.99604 -3.45269,-1.34355 -7.43278,-2.47526 -11.54644,-3.4222 6.4976,-0.31608 16.65848,1.80168 18.53826,-1.92564 -4.04627,-1.08294 -8.6017,-2.00864 -13.89183,-2.37145 5.45978,-0.72269 12.76723,0.33198 14.22988,-4.13214 -4.2993,-0.93383 -9.57205,-0.95162 -14.98225,-0.8399 6.13404,-0.43287 12.14934,-0.9526 14.19877,-4.36789 -6.04463,-0.99261 -11.61072,-0.16711 -17.35681,-0.0252 3.72119,-1.04138 8.88761,-0.60387 9.94251,-3.82677 -1.1479,-0.14177 -2.4353,-0.23429 -3.93841,-0.24936 -0.28183,-0.003 -0.57113,-0.003 -0.86867,-4e-4 z"
       inkscape:label="rect2095"
       style="display:inline;opacity:1;fill:none;fill-opacity:1;stroke:#ffffff;stroke-width:1.5056;stroke-linecap:round;stroke-linejoin:round;stroke-miterlimit:4;stroke-dasharray:none;stroke-opacity:1"
       clip-path="none"
       id="rect3110" />
    <circle
       style="font-variation-settings:normal;display:inline;opacity:1;vector-effect:none;fill:none;fill-opacity:1;fill-rule:evenodd;stroke:#ffffff;stroke-width:19.8975;stroke-linecap:butt;stroke-linejoin:miter;stroke-miterlimit:4;stroke-dasharray:none;stroke-dashoffset:0;stroke-opacity:1;stop-color:#000000;stop-opacity:1"
       id="path3094"
       cx="135.28062"
       cy="135.28062"
       r="123.20525" />
  </g>
  <g
     inkscape:label="Text"
     id="layer5"
     inkscape:groupmode="layer">
    <path
       inkscape:label="TextBase"
       sodipodi:nodetypes="csccsscsccsccsssscccccscsccccssscccsssscscccsccscccsssccssssccccsscsccccsssscsssssscscssscsccsscssssscssscccssssscscssscsccsscssssscsccccssssccccsscscccccssccsccssccccsscsssscscsccccscscccccccsccscsccsccccccccccsccsccscccsccccccsccscccccccscccccccccsccsccccccccccccccccsccsccccccccccccsccsccccccccccccsccsccccccssccscsssssscscsccc"
       d="m 55.762631,71.423653 h 3.648576 c 0.864946,0 1.622008,0.180062 2.270716,0.54046 0.666723,0.342371 1.189006,0.838038 1.567428,1.48675 0.378405,0.63068 0.567672,1.351433 0.567672,2.162321 0,0.756822 -0.189267,1.432561 -0.567672,2.027212 -0.378422,0.594638 -0.900705,1.063211 -1.567428,1.405582 -0.648708,0.324346 -1.40577,0.486511 -2.270716,0.486511 h -3.648576 z m 75.714329,3.176916 c -1.40552,0 -2.67567,0.333513 -3.81089,1.00024 -1.11723,0.648704 -2.00934,1.540816 -2.67607,2.676049 -0.6487,1.117218 -0.97302,2.396573 -0.97302,3.838136 0,1.423552 0.3064,2.702905 0.91908,3.838139 0.61268,1.135233 1.45057,2.027347 2.51372,2.676044 1.06316,0.648723 2.26167,0.973031 3.59513,0.973031 1.33346,0 2.51355,-0.158229 3.54067,-0.788906 0.6042,-0.383138 1.80896,-1.465965 1.80896,-1.465965 l 0.10101,-0.219253 v 1.111094 c 0,0 0.0369,0.692192 0.2524,0.930457 0.22003,0.243214 0.55869,0.351398 0.91909,0.351398 0.3784,0 0.68481,-0.117147 0.91908,-0.351398 0.23423,-0.252271 0.35138,-0.558667 0.35138,-0.919068 v -6.437968 h -5.1e-4 c -0.003,-1.414787 -0.33557,-2.404865 -0.99973,-3.535741 -0.64873,-1.135233 -1.53162,-2.027345 -2.64885,-2.676049 -1.11722,-0.666727 -2.38785,-1.00024 -3.81139,-1.00024 z m 18.61755,0.580052 c -2.05628,-0.0057 -3.59187,0.473045 -4.6983,1.252652 l 0.0109,-0.02175 c 0,-0.414451 0.0108,-0.546148 -0.2054,-0.744363 -0.19823,-0.216236 -0.50463,-0.324184 -0.91907,-0.324184 -0.39644,0 -0.70235,0.107954 -0.91859,0.324184 -0.21624,0.216228 -0.32465,0.522637 -0.32465,0.919074 v 12.298357 c 0,0.414445 0.10847,0.730061 0.32465,0.946294 0.21624,0.198212 0.52215,0.296946 0.91859,0.296946 0.41444,0 0.72084,-0.107926 0.91907,-0.324158 0.21623,-0.216233 0.32467,-0.522643 0.32467,-0.919082 0,0 -8.3e-4,-7.950236 0.003,-8.023207 0.0439,-0.804009 0.29456,-1.522686 0.75427,-2.031665 0.50455,-0.558609 1.189,-0.955045 2.05393,-1.189298 0.88296,-0.234261 1.88303,-0.261366 3.00023,-0.08111 0.25227,0.05402 0.48656,0.07192 0.70278,0.05391 0.21624,-0.01801 0.3968,-0.08965 0.54097,-0.215787 0.16216,-0.126135 0.27877,-0.315402 0.3509,-0.567679 0.10806,-0.468515 -0.0899,-0.856245 -0.59441,-1.162578 -0.50457,-0.324355 -1.25241,-0.48651 -2.24348,-0.48651 z m 11.4758,0.02423 c -1.40552,0 -2.67618,0.333513 -3.81141,1.000241 -1.11721,0.648704 -2.00882,1.540319 -2.67555,2.67556 -0.64871,1.117209 -0.97351,2.397061 -0.97351,3.838627 0,1.423549 0.3064,2.702894 0.91907,3.838137 0.61266,1.135244 1.45056,2.026856 2.51371,2.675566 1.06318,0.64871 2.26169,0.973017 3.59512,0.973017 1.33347,0 2.60365,-0.315115 3.63077,-0.945805 0.60418,-0.383138 1.71937,-1.286302 1.71937,-1.286302 l 0.10047,-0.218754 v 1.088333 c 0,0 0.0369,0.692179 0.25241,0.930457 0.22003,0.243214 0.55869,0.351398 0.91908,0.351398 0.37842,0 0.68482,-0.117146 0.91907,-0.351398 0.23425,-0.252271 0.3514,-0.558681 0.3514,-0.919068 v -6.437983 h -5.2e-4 c -0.003,-1.414787 -0.33557,-2.405365 -0.99973,-3.53623 -0.64871,-1.135232 -1.53163,-2.026858 -2.64883,-2.675561 -1.11722,-0.666728 -2.38736,-1.000241 -3.81092,-1.000241 z m -47.92397,0.0028 c -1.18927,0 -2.38141,0.200561 -3.34022,0.716158 -0.41424,0.222748 -0.90099,0.518499 -1.36302,0.843343 v -0.153937 c 0,-0.378412 -0.11714,-0.684819 -0.35139,-0.919072 -0.23425,-0.234253 -0.54068,-0.351393 -0.91908,-0.351393 -0.37841,0 -0.68482,0.117146 -0.91907,0.351393 -0.23425,0.234253 -0.3514,0.54066 -0.3514,0.919072 v 12.271141 c 0,0.360401 0.11715,0.666811 0.3514,0.919082 0.23425,0.234251 0.54066,0.351397 0.91907,0.351397 0.3784,0 0.68483,-0.117146 0.91908,-0.351397 0.23424,-0.252271 0.35139,-0.558681 0.35139,-0.919082 v -7.757427 c 0,-0.684743 0.18927,-1.297558 0.56768,-1.838144 0.37841,-0.540594 0.88278,-0.97284 1.51347,-1.297196 0.64871,-0.324356 1.37865,-0.486511 2.18955,-0.486511 0.84691,0 1.60347,0.17136 2.27019,0.513731 0.68476,0.324356 1.21675,0.828729 1.59515,1.513481 0.39643,0.666717 0.59441,1.522522 0.59441,2.567662 v 6.784418 c 0,0.360387 0.11715,0.666797 0.3514,0.919081 0.25227,0.234252 0.55867,0.351384 0.91907,0.351384 0.36037,0 0.6576,-0.117146 0.89185,-0.351384 0.25227,-0.252284 0.37863,-0.558694 0.37863,-0.919081 v -6.78443 c 0,-1.477605 -0.28852,-2.729854 -0.86515,-3.756968 -0.57662,-1.027116 -1.3603,-1.802086 -2.35138,-2.324656 -0.99107,-0.540584 -2.10825,-0.810685 -3.35163,-0.810685 z m 97.03132,0 c -1.18929,0 -2.43964,0.07777 -3.39469,0.600338 -0.42042,0.222108 -0.88232,0.506527 -1.32243,0.829993 l 0.0138,-0.0247 c 0,-0.378412 -0.11715,-0.684819 -0.35139,-0.919072 -0.23425,-0.234263 -0.54066,-0.351403 -0.91907,-0.351403 -0.37842,0 -0.68434,0.117146 -0.91858,0.351403 -0.23426,0.234253 -0.35139,0.54066 -0.35139,0.919072 v 12.271091 c 0,0.3604 0.11714,0.66681 0.35139,0.919081 0.23424,0.234252 0.54016,0.351384 0.91858,0.351384 0.37841,0 0.68482,-0.117146 0.91907,-0.351384 0.23425,-0.252271 0.35139,-0.558681 0.35139,-0.919081 v -7.741138 c 0,-0.700919 0.18927,-1.313888 0.56769,-1.854474 0.3784,-0.540594 0.88279,-0.972848 1.51348,-1.297196 0.64871,-0.324356 1.37865,-0.48651 2.18953,-0.48651 0.84692,0 1.60399,0.171357 2.27071,0.513729 0.68475,0.324348 1.21623,0.828728 1.59465,1.513473 0.39644,0.666726 0.59441,1.522531 0.59441,2.567671 v 6.784418 c 0,0.3604 0.11714,0.666797 0.35138,0.919068 0.2523,0.234265 0.5587,0.351397 0.91908,0.351397 0.36039,1.4e-5 0.65761,-0.117146 0.89186,-0.351397 0.25228,-0.252271 0.37861,-0.558668 0.37861,-0.919068 v -6.784418 c 0,-1.477615 -0.2885,-2.729855 -0.86513,-3.756971 -0.57662,-1.027113 -1.36029,-1.802085 -2.35138,-2.324655 -0.99108,-0.540593 -2.10827,-0.810684 -3.35162,-0.810684 z m -134.103973,0.02672 c -1.405536,0 -2.67568,0.333513 -3.810913,1.000241 -1.117217,0.648703 -2.009326,1.540815 -2.676057,2.676049 -0.6487,1.117218 -0.973013,2.396571 -0.973013,3.838138 0,1.423549 0.306399,2.702904 0.91907,3.838137 0.612665,1.13523 1.450563,2.027343 2.513715,2.676053 1.063159,0.648696 2.261179,0.973017 3.594634,0.973017 1.333454,0 2.514065,-0.157726 3.541179,-0.788403 0.808118,-0.466578 1.808941,-1.466469 1.808941,-1.466469 l 0.100483,-0.218265 v 1.110121 c 0,0 0.03731,0.692179 0.252902,0.930457 0.220028,0.2432 0.55869,0.351398 0.919072,0.351398 0.378421,0 0.684821,-0.117146 0.919079,-0.351398 0.23426,-0.252284 0.350907,-0.558681 0.350907,-0.919068 v -6.437998 h -5.03e-4 c -0.0034,-1.414518 -0.335174,-2.405 -0.999255,-3.53574 -0.648708,-1.135227 -1.531626,-2.027339 -2.648845,-2.676044 -1.11721,-0.666728 -2.387857,-1.000239 -3.811399,-1.000239 z m 18.266157,0 c -1.441561,0 -2.730114,0.324806 -3.865346,0.973511 -1.117226,0.630687 -2.000134,1.513596 -2.648843,2.648839 -0.630691,1.117209 -0.945798,2.414471 -0.945798,3.892078 0,1.459589 0.29721,2.756844 0.891862,3.892085 0.612657,1.117212 1.441344,2.000119 2.486493,2.648829 1.063154,0.630691 2.279575,0.946293 3.649059,0.946293 1.261368,0 2.302259,-0.251199 3.324359,-0.743877 0.996067,-0.480123 1.637401,-0.985546 2.13557,-1.922768 -5.02e-4,-1.027678 -0.0014,-4.179627 -0.0041,-4.650804 -0.02278,0.957343 -0.236082,1.811701 -0.644385,2.560238 -0.43245,0.774847 -1.02736,1.387666 -1.784186,1.838155 -0.738793,0.450488 -1.603762,0.675574 -2.594839,0.675574 -0.973045,0 -1.837553,-0.225086 -2.594379,-0.675574 -0.756812,-0.450489 -1.351722,-1.063308 -1.7842,-1.838155 -0.432464,-0.79286 -0.648859,-1.702883 -0.648859,-2.729996 0,-1.027115 0.216395,-1.937137 0.648859,-2.73 0.432478,-0.792861 1.027388,-1.414384 1.7842,-1.864873 0.756826,-0.450492 1.621334,-0.676067 2.594379,-0.676067 0.991077,0 1.856046,0.225575 2.594839,0.676067 0.756826,0.450489 1.351736,1.072012 1.784186,1.864873 0.407869,0.747763 0.620685,1.601144 0.643883,2.55727 0.0014,0.05764 0.0054,0.114312 0.0054,0.17273 0,0.0095 -8.27e-4,0.01867 -8.27e-4,0.02826 0.0095,0.763994 0.164639,2.668569 0.09898,4.600322 0.0122,-0.0247 -0.02007,0.05526 -0.0095,0.02998 l -0.0041,0.266013 c -0.06671,1.427976 -0.267172,2.814313 -0.76168,3.670848 -0.471703,0.817013 -1.054572,1.459608 -1.811398,1.892086 -0.756799,0.450483 -1.594705,0.675555 -2.513678,0.675555 -0.973058,0 -1.846773,-0.180057 -2.621605,-0.540444 -0.756826,-0.360401 -1.387557,-0.856075 -1.892098,-1.486752 -0.198227,-0.252271 -0.468313,-0.414431 -0.810681,-0.486495 -0.324362,-0.07213 -0.630772,-0.0081 -0.919081,0.189549 -0.270304,0.198226 -0.432438,0.441209 -0.486496,0.729519 -0.05396,0.306329 0.03593,0.594828 0.270209,0.865118 0.73882,0.955039 1.657522,1.68449 2.756729,2.189032 1.117227,0.522574 2.342854,0.783956 3.676299,0.783956 1.45958,0 2.748092,-0.342218 3.865305,-1.026953 1.135205,-0.666729 2.018104,-1.585933 2.648784,-2.757204 0.63069,-1.153265 0.94581,-2.450522 0.94581,-3.892083 v -4.776029 -0.954211 c 0,-1.477615 -0.32433,-2.774868 -0.97302,-3.892077 -0.63065,-1.135243 -1.504361,-2.018153 -2.621547,-2.64884 -1.117199,-0.648705 -2.405711,-0.97351 -3.865319,-0.97351 z m 5.11348,12.43893 c 0.0054,-0.09857 0.0095,-0.197128 0.0122,-0.295976 -0.03213,0.06667 -0.06522,0.129403 -0.09843,0.192036 6.8e-5,0.165129 5.15e-4,0.759971 5.15e-4,0.747335 z m -0.0865,-4.896303 c -7.73e-4,-0.06042 -0.0054,-0.155891 -0.0041,-0.200944 1.77e-4,-0.0057 2.72e-4,0.307788 5.29e-4,0.342487 8.27e-4,-0.04721 0.0027,-0.09377 0.0041,-0.141543 z m 88.913506,-2.785446 c 0.38169,-0.817925 0.96372,-1.441603 1.70253,-1.892094 0.75683,-0.468515 1.64893,-0.702299 2.67605,-0.702299 0.93703,0 1.73862,0.215873 2.40533,0.64835 1.04933,0.696475 1.82187,1.848698 2.0079,3.54118 l -9.2635,-0.0095 c 0.093,-0.527405 0.25772,-1.127339 0.47169,-1.58579 z m 9.97362,3.621927 c 0.34238,-9.95e-4 0.62167,-0.09923 0.83791,-0.297452 0.21624,-0.216239 0.32417,-0.486829 0.32417,-0.811185 0,-1.423549 -0.27009,-2.67578 -0.8107,-3.756959 -0.54056,-1.099202 -1.32475,-1.954998 -2.35185,-2.567672 -1.00913,-0.630678 -2.20713,-0.946291 -3.59464,-0.946291 l 7e-5,-3.8e-5 c -1.40551,0 -2.65775,0.324806 -3.75696,0.97351 -1.08116,0.630688 -1.92828,1.513596 -2.54093,2.648841 -0.61268,1.117208 -0.91908,2.414471 -0.91908,3.892076 0,1.45959 0.32432,2.756844 0.97303,3.892086 0.6487,1.117213 1.54999,2.00012 2.70327,2.64883 1.15325,0.63069 2.46842,0.946293 3.94603,0.946293 0.8289,0 1.70308,-0.153442 2.62211,-0.459784 0.91898,-0.324349 1.67555,-0.729492 2.2702,-1.216028 0.2883,-0.216232 0.42334,-0.468422 0.40535,-0.756731 -0.0179,-0.306343 -0.17099,-0.58564 -0.45928,-0.837915 -0.21625,-0.180198 -0.46844,-0.261512 -0.75676,-0.243506 -0.2883,0 -0.5589,0.09003 -0.81118,0.270236 -0.37841,0.288305 -0.87358,0.540501 -1.48625,0.756734 -0.59465,0.216245 -1.18954,0.324673 -1.78419,0.324673 -1.04515,0 -1.97307,-0.225574 -2.78395,-0.676064 -0.79287,-0.468517 -1.42359,-1.098735 -1.8921,-1.891607 -0.28164,-0.506968 -0.50919,-1.266873 -0.61472,-1.858429 z m -27.36029,-8.230668 c -0.14417,0.0087 -0.28842,0.04971 -0.43257,0.121756 -0.32436,0.144159 -0.54073,0.360032 -0.64885,0.648349 -0.1082,0.270293 -0.0988,0.549586 0.0273,0.837904 l 5.83812,12.298364 c 0.27031,0.540594 0.66674,0.811182 1.18932,0.811182 0.52256,0 0.91028,-0.270588 1.16257,-0.811182 L 184.31373,76.9641 c 0.14414,-0.270302 0.16206,-0.549597 0.0538,-0.837914 -0.10807,-0.288308 -0.30658,-0.495485 -0.5949,-0.621619 -0.32436,-0.144157 -0.63946,-0.162566 -0.94579,-0.0544 -0.30633,0.09012 -0.53142,0.279362 -0.67557,0.56768 l -4.81165,10.0816 -4.86511,-10.0816 c -0.14415,-0.288318 -0.36052,-0.477586 -0.64883,-0.56768 -0.14418,-0.054 -0.28793,-0.07634 -0.43208,-0.06733 z m -39.91661,1.460528 c 0.97305,0 1.82936,0.234282 2.56818,0.702786 0.75681,0.450492 1.35122,1.072513 1.78367,1.865365 0.44995,0.791894 0.67648,1.77163 0.67608,2.699321 l -0.009,9.95e-4 v 0.301906 c -0.0439,0.826659 -0.26484,1.669411 -0.66664,2.376623 -0.43247,0.792862 -1.02689,1.423579 -1.78372,1.892093 -0.7388,0.450492 -1.59508,0.675568 -2.56815,0.675568 -0.93702,0 -1.79283,-0.225076 -2.56766,-0.675568 -0.75684,-0.468514 -1.36046,-1.099231 -1.81095,-1.892093 -0.43245,-0.792862 -0.64882,-1.684973 -0.64882,-2.676059 0,-1.009099 0.21637,-1.909917 0.64882,-2.70278 0.45049,-0.792862 1.05411,-1.414873 1.81095,-1.865363 0.77483,-0.468515 1.63064,-0.702796 2.56766,-0.702796 z m 30.09336,0.604294 c 0.97305,0 1.82886,0.234281 2.56766,0.702796 0.75683,0.45049 1.35124,1.072014 1.7837,1.864875 0.44994,0.791885 0.67647,1.772119 0.67606,2.69981 l -0.009,9.95e-4 v 0.30189 c -0.0439,0.82667 -0.26485,1.668923 -0.66666,2.376135 -0.43248,0.792861 -1.02689,1.423577 -1.78371,1.892092 -0.73881,0.450488 -1.59459,0.676076 -2.56766,0.676076 -0.93702,0 -1.79331,-0.225588 -2.56817,-0.676076 -0.75682,-0.468515 -1.36044,-1.099231 -1.81091,-1.892092 -0.43248,-0.792863 -0.64836,-1.684485 -0.64836,-2.675563 0,-1.009099 0.21588,-1.910414 0.64836,-2.703276 0.45047,-0.792863 1.05409,-1.414377 1.81091,-1.864865 0.77486,-0.468515 1.63115,-0.702796 2.56817,-0.702796 z m -84.996643,0.02969 c 0.973064,0 1.828867,0.234281 2.567663,0.702795 0.756827,0.450492 1.351729,1.072502 1.784209,1.865364 0.449933,0.791886 0.67615,1.771631 0.675563,2.699322 l -0.0095,9.95e-4 v 0.301897 c -0.04394,0.82667 -0.264342,1.669421 -0.666163,2.376622 -0.432472,0.79287 -1.027382,1.423589 -1.784199,1.892104 -0.738798,0.45047 -1.594609,0.67557 -2.567665,0.67557 -0.937026,0 -1.792821,-0.2251 -2.567662,-0.67557 -0.756828,-0.468515 -1.360443,-1.099234 -1.810929,-1.892104 -0.432473,-0.79286 -0.648851,-1.684974 -0.648851,-2.676048 0,-1.0091 0.216378,-1.909918 0.648851,-2.702781 0.450486,-0.792861 1.054101,-1.414873 1.810929,-1.865363 0.774841,-0.468515 1.630636,-0.702796 2.567662,-0.702796 z M 64.561698,89.617976 c 0.144162,0.216232 0.345681,0.265925 0.52588,0.374054 0.180192,0.09016 0.39657,0.135044 0.648844,0.135044 0.54059,0 0.919121,-0.207162 1.135357,-0.62162 0.216236,-0.414445 0.168332,-0.862814 -0.135111,-1.351139 l -4.218813,-6.789116 c 1.045137,-0.540585 2.317178,-1.527035 2.893805,-2.482071 0.594649,-0.955044 0.892344,-2.045119 0.892344,-3.270456 0,-1.297417 -0.297695,-2.441711 -0.892344,-3.432796 -0.576627,-0.991074 -1.387412,-1.766046 -2.432549,-2.324654 -1.045137,-0.558611 -2.234453,-0.837906 -3.567907,-0.837906 h -4.919049 c -0.378413,0 -0.694021,0.126352 -0.946293,0.378613 -0.234258,0.234253 -0.351392,0.540661 -0.351392,0.919072 v 18.515114 c 0,0.378406 0.117132,0.693521 0.351392,0.945792 0.252272,0.234265 0.56788,0.351397 0.946293,0.351397 0.378413,0 0.684822,-0.117146 0.919072,-0.351397 0.234258,-0.252271 0.3514,-0.567386 0.3514,-0.945792 V 81.9378 h 4.141641 z"
       style="font-style:normal;font-variant:normal;font-weight:600;font-stretch:normal;font-size:28.2222px;font-family:Comfortaa;-inkscape-font-specification:'Comfortaa, Semi-Bold';font-variant-ligatures:normal;font-variant-caps:normal;font-variant-numeric:normal;font-variant-east-asian:normal;display:inline;fill:#000000;fill-opacity:1;stroke:#ffffff;stroke-width:0.957733;stroke-linecap:round;stroke-linejoin:round;stroke-miterlimit:4;stroke-dasharray:none;stroke-opacity:1"
       id="path993" />
  </g>
</svg>
