<?xml version="1.0" encoding="UTF-8" standalone="no"?>
<svg
   xmlns:dc="http://purl.org/dc/elements/1.1/"
   xmlns:cc="http://creativecommons.org/ns#"
   xmlns:rdf="http://www.w3.org/1999/02/22-rdf-syntax-ns#"
   xmlns:svg="http://www.w3.org/2000/svg"
   xmlns="http://www.w3.org/2000/svg"
   xmlns:xlink="http://www.w3.org/1999/xlink"
   xmlns:sodipodi="http://sodipodi.sourceforge.net/DTD/sodipodi-0.dtd"
   xmlns:inkscape="http://www.inkscape.org/namespaces/inkscape"
   inkscape:export-ydpi="177.29253"
   inkscape:export-xdpi="177.29253"
   inkscape:export-filename="C:\Users\Andrew\Downloads\CrakkenGS1.png"
   width="295mm"
   height="297mm"
   viewBox="0 0 295 297"
   version="1.1"
   id="svg8"
   sodipodi:docname="CrakkenGS.svg"
   inkscape:version="1.0 (4035a4fb49, 2020-05-01)">
  <defs
     id="defs2">
    <inkscape:path-effect
       lpeversion="1"
       is_visible="true"
       id="path-effect1103"
       effect="spiro" />
    <inkscape:path-effect
       lpeversion="1"
       is_visible="true"
       id="path-effect1099"
       effect="spiro" />
    <inkscape:path-effect
       lpeversion="1"
       is_visible="true"
       id="path-effect1091"
       effect="spiro" />
    <inkscape:path-effect
       lpeversion="1"
       is_visible="true"
       id="path-effect1073"
       effect="spiro" />
    <inkscape:path-effect
       end_linecap_type="zerowidth"
       scale_width="1"
       miter_limit="4"
       linejoin_type="round"
       start_linecap_type="zerowidth"
       interpolator_beta="0.2"
       interpolator_type="CentripetalCatmullRom"
       sort_points="true"
       offset_points="0.1275345,-8.0353921 | 1.6791685,-4.7041634 | 6.06825,-2.9436272 | 8.2492569,-2.0935823 | 13.618345,-0.93516177"
       lpeversion="1"
       is_visible="true"
       id="path-effect1069"
       effect="powerstroke" />
    <inkscape:path-effect
       end_linecap_type="zerowidth"
       scale_width="1"
       miter_limit="4"
       linejoin_type="round"
       start_linecap_type="zerowidth"
       interpolator_beta="0.2"
       interpolator_type="CentripetalCatmullRom"
       sort_points="true"
       offset_points="0.24211986,5.4906719 | 11.96901,2.3111774 | 9.3996752,2.4652823 | 22.8,0.1322915 | 14.512349,1.9496"
       lpeversion="1"
       is_visible="true"
       id="path-effect1067"
       effect="powerstroke" />
    <inkscape:path-effect
       lpeversion="1"
       is_visible="true"
       id="path-effect1061"
       effect="spiro" />
    <inkscape:path-effect
       lpeversion="1"
       is_visible="true"
       id="path-effect1057"
       effect="spiro" />
    <inkscape:path-effect
       lpeversion="1"
       is_visible="true"
       id="path-effect1045"
       effect="spiro" />
    <rect
       id="rect1004"
       height="46.275444"
       width="205.97792"
       y="236.94418"
       x="57.061451" />
    <inkscape:path-effect
       end_linecap_type="zerowidth"
       scale_width="1"
       miter_limit="4"
       linejoin_type="round"
       start_linecap_type="zerowidth"
       interpolator_beta="0.2"
       interpolator_type="CentripetalCatmullRom"
       sort_points="true"
       offset_points="0.3506149,4.689773 | 1.9496871,3.9766576 | 6.3182669,1.583874 | 11.064309,1.056741"
       lpeversion="1"
       is_visible="true"
       id="path-effect1000"
       effect="powerstroke" />
    <inkscape:path-effect
       lpeversion="1"
       is_visible="true"
       id="path-effect998"
       effect="spiro" />
    <inkscape:path-effect
       end_linecap_type="zerowidth"
       scale_width="1"
       miter_limit="4"
       linejoin_type="round"
       start_linecap_type="zerowidth"
       interpolator_beta="0.2"
       interpolator_type="CentripetalCatmullRom"
       sort_points="true"
       offset_points="0.0062841045,4.4885813 | 0.34333828,3.6083445 | 0.64246965,2.9420814 | 0.63687315,1.0129523"
       lpeversion="1"
       is_visible="true"
       id="path-effect994"
       effect="powerstroke" />
    <inkscape:path-effect
       lpeversion="1"
       is_visible="true"
       id="path-effect992"
       effect="spiro" />
    <inkscape:path-effect
       end_linecap_type="zerowidth"
       scale_width="1"
       miter_limit="4"
       linejoin_type="round"
       start_linecap_type="zerowidth"
       interpolator_beta="0.2"
       interpolator_type="CentripetalCatmullRom"
       sort_points="true"
       offset_points="0.15537753,6.026814 | 0.62322668,7.5192597 | 4.8892147,3.7531128 | 12.134301,2.3535192 | 12.134301,2.3535192 | 9.2019434,2.4929815"
       lpeversion="1"
       is_visible="true"
       id="path-effect988"
       effect="powerstroke" />
    <inkscape:path-effect
       lpeversion="1"
       is_visible="true"
       id="path-effect986"
       effect="spiro" />
    <inkscape:path-effect
       lpeversion="1"
       is_visible="true"
       id="path-effect978"
       effect="spiro" />
    <inkscape:path-effect
       end_linecap_type="zerowidth"
       scale_width="1"
       miter_limit="4"
       linejoin_type="round"
       start_linecap_type="zerowidth"
       interpolator_beta="0.2"
       interpolator_type="CentripetalCatmullRom"
       sort_points="true"
       offset_points="0.71620478,-5.8826376 | 0.22896484,-7.0128533 | 6.9608477,-1.6344522 | 2.0315551,-3.6329038 | 12.745089,-0.30696496"
       lpeversion="1"
       is_visible="true"
       id="path-effect974"
       effect="powerstroke" />
    <inkscape:path-effect
       lpeversion="1"
       is_visible="true"
       id="path-effect972"
       effect="spiro" />
    <inkscape:path-effect
       end_linecap_type="zerowidth"
       scale_width="1"
       miter_limit="4"
       linejoin_type="round"
       start_linecap_type="zerowidth"
       interpolator_beta="0.2"
       interpolator_type="CentripetalCatmullRom"
       sort_points="true"
       offset_points="3.028931,-2.9179245 | 0.078958097,-6.4152429 | 0.69824307,-5.947625 | 7.7846953,-2.016713 | 13.16681,-0.85027672 | 14.725867,-0.35290252"
       lpeversion="1"
       is_visible="true"
       id="path-effect968"
       effect="powerstroke" />
    <inkscape:path-effect
       lpeversion="1"
       is_visible="true"
       id="path-effect966"
       effect="spiro" />
    <inkscape:path-effect
       end_linecap_type="zerowidth"
       scale_width="1"
       miter_limit="4"
       linejoin_type="round"
       start_linecap_type="zerowidth"
       interpolator_beta="0.2"
       interpolator_type="CentripetalCatmullRom"
       sort_points="true"
       offset_points="0.0066032242,-7.4142568 | 0.024181322,-4.8807438 | 0.63814132,-3.7764934 | 0.23801654,-3.2680257 | 0.25260008,-0.41180266"
       lpeversion="1"
       is_visible="true"
       id="path-effect962"
       effect="powerstroke" />
    <inkscape:path-effect
       lpeversion="1"
       is_visible="true"
       id="path-effect960"
       effect="spiro" />
    <inkscape:path-effect
       end_linecap_type="zerowidth"
       scale_width="1"
       miter_limit="4"
       linejoin_type="round"
       start_linecap_type="zerowidth"
       interpolator_beta="0.2"
       interpolator_type="CentripetalCatmullRom"
       sort_points="true"
       offset_points="0.21378258,6.0215085 | 7.5826054,1.7130946 | 2.6569902,3.5891243 | 13.845081,0.56165145"
       lpeversion="1"
       is_visible="true"
       id="path-effect956"
       effect="powerstroke" />
    <inkscape:path-effect
       lpeversion="1"
       is_visible="true"
       id="path-effect954"
       effect="spiro" />
    <inkscape:path-effect
       end_linecap_type="zerowidth"
       scale_width="1"
       miter_limit="4"
       linejoin_type="round"
       start_linecap_type="zerowidth"
       interpolator_beta="0.2"
       interpolator_type="CentripetalCatmullRom"
       sort_points="true"
       offset_points="0.2612658,7.5657187 | 7.4422412,2.7451428 | 3.7011029,4.98362 | 17.833001,1.4195789"
       lpeversion="1"
       is_visible="true"
       id="path-effect950"
       effect="powerstroke" />
    <inkscape:path-effect
       lpeversion="1"
       is_visible="true"
       id="path-effect948"
       effect="spiro" />
    <inkscape:path-effect
       lpeversion="1"
       is_visible="true"
       id="path-effect944"
       effect="spiro" />
    <rect
       x="90.985374"
       y="26.900023"
       width="144.78542"
       height="23.339725"
       id="rect909" />
    <inkscape:path-effect
       effect="powerstroke"
       id="path-effect905"
       is_visible="true"
       lpeversion="1"
       offset_points="0,2.3820989 | 3.4261301,2.0582732 | 7.8364012,0.082609749"
       sort_points="true"
       interpolator_type="CentripetalCatmullRom"
       interpolator_beta="0.2"
       start_linecap_type="zerowidth"
       linejoin_type="round"
       miter_limit="4"
       scale_width="1"
       end_linecap_type="zerowidth" />
    <inkscape:path-effect
       effect="spiro"
       id="path-effect903"
       is_visible="true"
       lpeversion="1" />
    <inkscape:path-effect
       effect="powerstroke"
       id="path-effect899"
       is_visible="true"
       lpeversion="1"
       offset_points="0.085297316,2.1394683 | 2.2341063,2.6266728 | 5.5044349,1.3405524"
       sort_points="true"
       interpolator_type="CentripetalCatmullRom"
       interpolator_beta="0.2"
       start_linecap_type="zerowidth"
       linejoin_type="round"
       miter_limit="4"
       scale_width="1"
       end_linecap_type="zerowidth" />
    <inkscape:path-effect
       effect="spiro"
       id="path-effect897"
       is_visible="true"
       lpeversion="1" />
    <inkscape:path-effect
       effect="powerstroke"
       id="path-effect889"
       is_visible="true"
       lpeversion="1"
       offset_points="0.0048528679,2.7225976 | 1.7185888,3.1486196 | 7.0352179,1.3538097"
       sort_points="true"
       interpolator_type="CentripetalCatmullRom"
       interpolator_beta="0.2"
       start_linecap_type="zerowidth"
       linejoin_type="round"
       miter_limit="4"
       scale_width="1"
       end_linecap_type="zerowidth" />
    <inkscape:path-effect
       effect="spiro"
       id="path-effect887"
       is_visible="true"
       lpeversion="1" />
    <inkscape:path-effect
       effect="powerstroke"
       id="path-effect883"
       is_visible="true"
       lpeversion="1"
       offset_points="0.081485642,-3.3412987 | 3.4042874,-2.0761305 | 7.8603955,-0.58277821"
       sort_points="true"
       interpolator_type="CentripetalCatmullRom"
       interpolator_beta="0.2"
       start_linecap_type="zerowidth"
       linejoin_type="round"
       miter_limit="4"
       scale_width="1"
       end_linecap_type="zerowidth" />
    <inkscape:path-effect
       effect="spiro"
       id="path-effect881"
       is_visible="true"
       lpeversion="1" />
    <inkscape:path-effect
       effect="powerstroke"
       id="path-effect877"
       is_visible="true"
       lpeversion="1"
       offset_points="0.071147021,3.4671083 | 0.94646718,3.1006199 | 2.0213649,1.7839057 | 2.8061313,0.22950471"
       sort_points="true"
       interpolator_type="CentripetalCatmullRom"
       interpolator_beta="0.069767442"
       start_linecap_type="zerowidth"
       linejoin_type="round"
       miter_limit="4"
       scale_width="1"
       end_linecap_type="zerowidth" />
    <inkscape:path-effect
       lpeversion="1"
       is_visible="true"
       id="path-effect898"
       effect="spiro" />
  </defs>
  <sodipodi:namedview
     inkscape:guide-bbox="true"
     showguides="true"
     inkscape:snap-smooth-nodes="true"
     inkscape:window-maximized="0"
     inkscape:window-y="0"
     inkscape:window-x="3193"
     inkscape:window-height="1008"
     inkscape:window-width="1278"
     inkscape:snap-tangential="false"
     inkscape:snap-perpendicular="false"
     objecttolerance="1"
     inkscape:pagecheckerboard="false"
     showgrid="false"
     inkscape:document-rotation="0"
     inkscape:current-layer="layer1"
     inkscape:document-units="mm"
     inkscape:cy="562.24078"
     inkscape:cx="744.95955"
     inkscape:zoom="0.67232888"
     inkscape:pageshadow="2"
     inkscape:pageopacity="0"
     borderopacity="1.0"
     bordercolor="#666666"
     pagecolor="#787878"
     id="base"
     inkscape:snap-text-baseline="false"
     gridtolerance="3.3"
     guidetolerance="1">
    <sodipodi:guide
       id="guide931"
       orientation="0,-1"
       position="147.32179,150.26152" />
    <sodipodi:guide
       id="guide1166"
       orientation="1,0"
       position="147.69393,290.26946" />
  </sodipodi:namedview>
  <metadata
     id="metadata5">
    <rdf:RDF>
      <cc:Work
         rdf:about="">
        <dc:format>image/svg+xml</dc:format>
        <dc:type
           rdf:resource="http://purl.org/dc/dcmitype/StillImage" />
        <dc:title></dc:title>
      </cc:Work>
    </rdf:RDF>
  </metadata>
  <g
     id="layer1"
     inkscape:groupmode="layer"
     inkscape:label="Layer 1">
    <circle
       r="140.40393"
       cy="147.13448"
       cx="147.69392"
       id="path24"
       style="display:inline;fill:#6c6c6c;fill-opacity:1;stroke:#020201;stroke-width:12.601;stroke-miterlimit:14;stroke-dasharray:none;stroke-opacity:1" />
    <ellipse
       ry="112.21014"
       rx="111.16633"
       style="display:inline;fill:none;stroke:#000000;stroke-width:4.0184;stroke-miterlimit:4;stroke-dasharray:none;stroke-opacity:0"
       id="path24-5"
       cx="147.69394"
       cy="146.65013" />
    <path
       sodipodi:nodetypes="cssssc"
       id="path926"
       d="m 137.17803,86.451657 c -17.91322,-7.596646 -35.36936,-3.755106 -34.91203,14.349773 0.34615,13.70297 13.5876,24.4639 30.42551,15.24518 0,0 8.64458,-2.67778 19.33122,0.73589 6.86301,2.19227 13.79973,-4.13969 13.75158,-15.1509 -0.11665,-26.674362 -28.59628,-15.179943 -28.59628,-15.179943 z"
       style="display:inline;fill:#000000;fill-opacity:1;stroke:none;stroke-width:2.21159;stroke-linecap:butt;stroke-linejoin:miter;stroke-miterlimit:4;stroke-dasharray:none;stroke-opacity:1" />
    <path
       sodipodi:nodetypes="ccc"
       id="path928"
       d="m 147.80215,95.47761 c 5.7442,-3.74218 11.65253,0.20789 11.65253,0.20789 0,0 -5.47049,5.20666 -11.65253,-0.20789 z"
       style="display:inline;fill:#ffffff;fill-opacity:1;stroke:#ffffff;stroke-width:0.247089px;stroke-linecap:butt;stroke-linejoin:miter;stroke-opacity:1" />
    <path
       sodipodi:nodetypes="cccsccsssc"
       id="path930"
       d="m 128.3944,60.329731 h 17.04086 c 0,0 0.21688,4.316627 1.49107,11.778109 1.45426,3.107063 9.04436,2.489882 11.95615,1.425084 4.69898,-1.718356 3.58765,-1.354895 0.39848,1.968609 -7.123,6.05055 -12.49685,6.363996 -23.64787,6.489158 -10.55679,0.01003 -15.51523,-1.528261 -19.67267,-3.369473 -4.53754,-2.009548 -5.24726,-7.225724 -4.89663,-5.892296 0.93419,3.552645 15.02773,1.949701 15.83954,-1.419598 1.49107,-6.188497 1.49107,-10.979593 1.49107,-10.979593 z"
       style="display:inline;fill:#000000;fill-opacity:1;stroke:#000000;stroke-width:0.19505px;stroke-linecap:butt;stroke-linejoin:miter;stroke-opacity:1" />
    <path
       id="path932"
       d="m 154.84251,110.12679 c -0.27784,0.72243 -1.87257,2.12835 -1.69509,4.30139 v 0 c 0.13476,1.65001 1.11916,4.22013 2.60081,7.09732 v 0 c 1.36073,2.64236 3.2094,5.66638 5.32729,8.37414 v 0 c 1.9387,2.47865 4.09849,4.69401 6.51033,6.39913 v 0 c 2.01214,1.42254 4.05625,2.39091 6.17501,2.98806 v 0 c 0.60068,0.16929 1.21977,0.30514 1.85763,0.40373 l 0,0 c 1.37574,0.21067 2.70476,0.28071 4.00221,0.215 v 0 c 1.26324,-0.064 2.46648,-0.25505 3.62972,-0.5506 v 0 c 2.279,-0.57904 4.3313,-1.54099 6.30682,-2.61914 v 0 c 1.99645,-1.08957 3.93976,-2.30412 6.02424,-3.47347 v 0 c 2.21884,-1.24472 4.51597,-2.39971 7.16671,-3.40026 l 0,0 c 0.29026,-0.10674 0.57865,-0.20792 0.865,-0.3037 v 0 c 3.02254,-1.01104 6.02798,-1.50472 8.85139,-1.43667 l 0,0 c 3.13848,0.0756 5.8811,0.84062 8.09465,2.15982 v 0 c 1.2109,0.72166 2.2375,1.59296 3.08767,2.57323 l 0,0 c 0.98236,1.13269 1.69858,2.37512 2.20438,3.63759 v 0 c 0.26999,0.67387 0.47549,1.34202 0.63001,1.98697 v 0 c 0.81127,3.38623 0.357,6.66185 0.0401,8.44357 0.39887,-1.75842 0.95374,-5.02667 0.41028,-8.53203 v 0 c -0.10434,-0.673 -0.25229,-1.38179 -0.46201,-2.11007 v 0 c -0.39202,-1.36132 -0.99405,-2.76953 -1.90526,-4.12438 l 0,0 c -0.79027,-1.17504 -1.79586,-2.28339 -3.04806,-3.26173 v 0 c -2.29775,-1.79524 -5.29027,-3.04209 -8.83593,-3.49678 l 0,0 c -3.17933,-0.40772 -6.61142,-0.15247 -10.07094,0.73676 v 0 c -0.32768,0.0842 -0.65779,0.17456 -0.99018,0.2712 l 0,0 c -2.95636,0.83038 -5.53659,1.84684 -7.99514,2.93736 v 0 c -2.29664,1.0187 -4.37009,2.04842 -6.27597,2.86123 v 0 c -1.91568,0.817 -3.5885,1.38476 -5.27488,1.65415 v 0 c -0.8482,0.13549 -1.69318,0.19399 -2.56143,0.16973 v 0 c -0.8919,-0.0249 -1.82185,-0.13761 -2.81302,-0.35196 l 0,0 c -0.387,-0.0855 -0.75881,-0.1922 -1.11723,-0.31747 v 0 c -1.2503,-0.43698 -2.45835,-1.22972 -3.6504,-2.40811 v 0 c -1.45861,-1.44188 -2.79611,-3.36023 -4.14753,-5.66656 v 0 c -1.47651,-2.5198 -2.89078,-5.36944 -4.2596,-7.87838 v 0 c -1.49811,-2.7459 -2.89901,-4.99906 -4.19566,-6.12063 v 0 c -1.67029,-1.44476 -3.72819,-0.96318 -4.48594,-1.15844 z"
       style="display:inline;fill:#000000;fill-opacity:1;fill-rule:nonzero;stroke:none;stroke-width:4.42318;stroke-linecap:round;stroke-linejoin:miter;stroke-miterlimit:4;stroke-dasharray:none;stroke-dashoffset:0;stroke-opacity:1"
       sodipodi:nodetypes="cssc"
       inkscape:path-effect="#path-effect877"
       inkscape:original-d="m 154.84251,110.12679 c 6.62979,12.86883 11.83043,24.85267 21.31617,26.55668 9.62207,1.7285 14.48702,-4.78088 26.02507,-8.54949 14.50324,-4.73712 27.66166,2.35184 24.33766,18.78892" />
    <path
       style="fill:#000000;fill-rule:nonzero;stroke:none;stroke-width:0.19505px;stroke-linecap:butt;stroke-linejoin:miter;stroke-opacity:1"
       d="m 162.07695,101.74733 c 0.33818,-0.4509 0.98862,-2.381644 1.90849,-2.778598 v 0 c 0.92635,-0.399748 2.20844,0.150147 4.17287,0.357539 l 0,0 c 1.33806,0.141265 2.94557,0.08966 4.60587,-0.505289 l 0,0 c 1.57125,-0.563042 3.0296,-1.580523 4.08779,-2.943496 l 0,-1e-6 c 0.45265,-0.583035 0.81544,-1.21051 1.08241,-1.850804 v 0 c 0.40602,-0.973779 0.67747,-2.027593 0.7814,-3.116637 l 0,0 c 0.0996,-1.408465 -0.0733,-2.854074 -0.36224,-4.461728 v 0 c -0.28014,-1.558838 -0.66331,-3.20849 -0.89031,-4.953606 l 0,-2e-6 c -0.15988,-1.703698 -0.1685,-3.55236 0.28452,-5.35587 l 0,0 c 0.22198,-0.885157 0.5618,-1.760095 1.02984,-2.56498 h 0 c 0.46044,-0.791803 1.04769,-1.520244 1.77145,-2.118891 l 0,-10e-7 c 1.01027,-0.817452 2.22748,-1.337611 3.48225,-1.566449 v 0 c 0.19794,-0.0361 0.40004,-0.06563 0.60571,-0.08784 l 0,0 c 1.34195,-0.144816 2.78584,0.02143 4.21935,0.521301 l 0,1e-6 c 1.31358,0.435165 2.52759,1.116553 3.65669,1.964019 v 0 c 1.09759,0.823824 2.1015,1.794402 3.02647,2.822624 l 0,2e-6 c 0.9128,1.0147 1.75711,2.084168 2.60024,3.149812 l 0,2e-6 c 0.8486,1.072563 1.68337,2.124851 2.58677,3.120626 l 0,2e-6 c 0.91861,1.01254 1.90531,1.951778 2.9739,2.739622 v 0 c 1.10733,0.816411 2.28012,1.453518 3.53059,1.849667 l 1e-5,0 c 1.28772,0.408233 2.61494,0.534567 3.87354,0.436853 v 0 c 1.37885,-0.107049 2.65958,-0.480065 3.77063,-1.032685 l 1e-5,-10e-7 c 1.28095,-0.637128 2.31739,-1.500337 3.10757,-2.390507 v 0 c 1.04602,-1.178392 1.6593,-2.394126 2.01413,-3.379078 -0.33104,0.992797 -0.92363,2.225132 -1.95749,3.428536 v 0 c -0.78083,0.90888 -1.81439,1.797367 -3.10292,2.462025 l -1e-5,1e-6 c -1.11793,0.576658 -2.41323,0.97494 -3.81549,1.104627 v 0 c -1.27963,0.118345 -2.63767,0.01056 -3.96469,-0.387483 l 0,0 c -1.28824,-0.386672 -2.49843,-1.019903 -3.64242,-1.834466 v 0 c -1.10356,-0.785772 -2.12312,-1.724142 -3.07295,-2.733151 l 0,-2e-6 c -0.93238,-0.990462 -1.79544,-2.036285 -2.66544,-3.09019 l 0,-2e-6 c -0.86747,-1.050838 -1.7243,-2.0879 -2.64686,-3.065747 l 0,-2e-6 c -0.9326,-0.988459 -1.93034,-1.903755 -3.00616,-2.66585 v 0 c -1.10627,-0.783666 -2.2697,-1.387154 -3.50104,-1.751083 l -1e-5,0 c -1.35865,-0.376701 -2.66828,-0.414743 -3.81526,-0.174782 l 0,0 c -0.17469,0.03657 -0.34485,0.07956 -0.50995,0.128196 v 0 c -1.05612,0.31112 -1.98332,0.871303 -2.66843,1.608383 l 0,10e-7 c -0.49878,0.521693 -0.88128,1.138763 -1.15843,1.80039 h 0 c -0.28243,0.674229 -0.45592,1.395782 -0.53133,2.113182 l 0,0 c -0.15588,1.474545 0.0678,2.992123 0.43805,4.463085 l 0,2e-6 c 0.31933,1.528599 0.80624,3.087101 1.23188,4.720083 v 0 c 0.42997,1.649582 0.80586,3.41572 0.81959,5.277626 l 0,0 c 0.0373,1.478126 -0.15779,2.952474 -0.56264,4.359119 v 0 c -0.26555,0.922619 -0.61275,1.880911 -1.07446,2.842556 l 0,10e-7 c -1.06736,2.223105 -2.69261,4.347585 -4.89388,5.982495 h 0 c -2.3297,1.73029 -5.01155,2.70084 -7.58478,2.91989 l 0,0 c -3.75544,0.31968 -6.53228,-0.97907 -7.21239,-2.11439 v 0 c -0.65403,-1.09178 0.8194,-2.79262 0.97756,-3.24866 z"
       id="path879"
       inkscape:path-effect="#path-effect881;#path-effect883"
       inkscape:original-d="m 162.07695,101.74733 c 4.61544,-5.12362 13.87968,-5.665148 18.49471,-10.789148 4.61503,-5.123996 -0.19309,-15.720473 0.51675,-18.914724 0.70982,-3.194252 20.07015,13.513889 26.10525,14.046044 6.0351,0.532155 11.24136,-6.286744 12.80324,-6.486562"
       sodipodi:nodetypes="csssc" />
    <path
       style="display:inline;fill:#000000;fill-rule:nonzero;stroke:none;stroke-width:0.264583px;stroke-linecap:butt;stroke-linejoin:miter;stroke-opacity:1"
       d="m 161.08404,103.84824 c -0.35455,0.19402 -2.17174,0.39097 -2.38534,1.31354 v 0 c -0.39501,1.70615 2.2304,5.9439 7.2886,8.7689 l 1e-5,0 c 2.43572,1.36035 5.12573,2.23516 7.90024,2.69826 v 0 c 1.00987,0.16856 2.10113,0.27265 3.25567,0.27927 h 0 c 3.43956,0.0197 7.35971,-0.84062 10.99653,-3.03614 l 0,0 c 3.1455,-1.89893 5.8998,-4.71025 7.736,-8.18501 l 0,0 c 0.52155,-1.03535 0.937,-2.08395 1.30679,-3.07621 v 0 c 0.37075,-0.99479 0.7034,-1.95028 1.05682,-2.842349 l 0,0 c 0.35839,-0.905575 0.74245,-1.746767 1.18694,-2.506903 v 0 c 0.45595,-0.779729 0.96498,-1.454565 1.54841,-2.008055 l 0,-10e-7 c 0.85286,-0.774577 1.89417,-1.316205 3.00665,-1.640559 v 0 c 1.21701,-0.354827 2.47668,-0.438459 3.64144,-0.321955 l 0,0 c 0.088,0.0088 0.17555,0.01875 0.26259,0.02967 v 0 c 1.13763,0.142669 2.28186,0.465521 3.41447,0.95465 v 0 c 1.19997,0.518222 2.35099,1.20773 3.423,2.01519 l 0,2e-6 c 2.1389,1.706985 3.88521,3.817762 5.4945,6.022752 l 0,0 c 1.7137,2.34806 3.26824,4.77451 4.88758,6.93033 l 0,0 c 3.27074,4.25883 6.51018,7.16867 8.49922,8.82258 -1.8686,-1.80613 -4.83615,-4.94237 -7.7199,-9.3745 l 0,0 c -1.4694,-2.20552 -2.87595,-4.69645 -4.49137,-7.18718 l 0,0 c -1.50385,-2.318711 -3.23042,-4.676709 -5.45357,-6.653987 l 0,-2e-6 c -1.07431,-1.005349 -2.28261,-1.917725 -3.60308,-2.655136 v 0 c -1.24753,-0.696681 -2.57866,-1.227921 -3.97235,-1.539702 v 0 c -0.10671,-0.02387 -0.21445,-0.04663 -0.3232,-0.0682 l 0,-10e-7 c -1.45306,-0.287684 -3.09277,-0.346917 -4.76511,-0.03487 v 0 c -1.52594,0.284726 -3.10781,0.886544 -4.52227,1.929854 l 0,10e-7 c -0.99222,0.709125 -1.84025,1.573312 -2.58316,2.524384 v 0 c -0.71714,0.918072 -1.32562,1.903182 -1.86673,2.880329 l 0,0 c -0.51948,0.937477 -1.01306,1.930049 -1.46617,2.799808 v 0 c -0.47182,0.90568 -0.91814,1.71598 -1.41356,2.46272 l 0,0 c -1.57872,2.5161 -3.7799,4.4533 -6.14758,5.69342 l 0,0 c -2.73826,1.43421 -5.59186,1.90497 -8.02358,1.82184 h 0 c -0.81504,-0.0279 -1.58724,-0.11681 -2.30445,-0.24333 v 0 c -1.9842,-0.35001 -3.82147,-1.19811 -5.37804,-2.29994 l 0,0 c -3.1403,-2.22288 -4.63317,-5.18144 -6.05577,-5.50169 v 0 c -0.8514,-0.19166 -2.02464,1.02459 -2.43023,1.22822 z"
       id="path885"
       inkscape:path-effect="#path-effect887;#path-effect889"
       inkscape:original-d="m 161.08404,103.84824 c 12.40542,-1.92538 20.16079,2.49606 32.56568,0.57015 10.35408,-1.40623 2.52612,-3.31346 6.21429,-10.55038 1.45023,-2.70345 16.73011,10.55064 25.63059,15.09965 8.90048,4.549 5.40664,6.06595 8.10956,9.09854"
       sodipodi:nodetypes="cccsc" />
    <path
       style="display:inline;fill:#000000;fill-rule:nonzero;stroke:none;stroke-width:0.264583px;stroke-linecap:butt;stroke-linejoin:miter;stroke-opacity:1"
       d="m 162.07695,101.74733 c -0.16374,0.31377 -1.14377,1.14672 -0.9656,2.10996 v 0 c 0.30785,1.66421 3.45331,4.81909 8.63049,5.84613 v 0 c 3.84779,0.76331 7.89008,0.149 11.3986,-1.52085 v 0 c 0.76934,-0.3684 1.4811,-0.76915 2.13504,-1.16609 v 0 c 0.75309,-0.45712 1.47585,-0.9593 2.18228,-1.49239 v 0 c 1.26128,-0.95181 2.42677,-1.96825 3.59577,-2.96151 l 0,0 c 1.10614,-0.94016 2.21356,-1.84744 3.36159,-2.616616 v 0 c 1.12149,-0.751392 2.26231,-1.357743 3.46206,-1.737136 l 0,0 c 1.14805,-0.366825 2.37774,-0.52613 3.63931,-0.493154 v 0 c 1.29097,0.03374 2.58413,0.268114 3.81363,0.660162 l 0,10e-7 c 1.30711,0.417194 2.53622,1.002134 3.67635,1.687463 v 0 c 1.1166,0.67119 2.22605,1.4762 3.32679,2.41396 l 0,0 c 2.07435,1.87942 3.87514,4.04253 5.66088,6.33921 v 0 c 1.88715,2.42712 3.49299,4.6433 5.40065,6.87244 l 0,0 c 5.33233,6.25371 10.8949,9.95246 14.13625,11.86203 -3.14344,-2.10761 -8.40462,-6.11454 -13.26291,-12.56275 l 0,0 c -1.74146,-2.32021 -3.15887,-4.56581 -4.92575,-7.1542 v 0 c -1.64823,-2.41458 -3.39497,-4.80516 -5.48658,-6.93749 l 0,0 c -1.05601,-1.139322 -2.17044,-2.162769 -3.33965,-3.048868 v 0 c -1.1914,-0.902914 -2.53663,-1.74734 -4.03801,-2.422544 l 0,0 c -1.42181,-0.639093 -2.98772,-1.119893 -4.63275,-1.350998 v 0 c -1.60743,-0.225824 -3.29279,-0.213076 -4.97241,0.129121 l 0,10e-7 c -1.74333,0.358334 -3.34712,1.03364 -4.80631,1.832137 v 0 c -1.47804,0.808812 -2.84799,1.766281 -4.06576,2.662626 l 0,0 c -1.37976,1.015264 -2.36744,1.789165 -3.58489,2.632145 v 0 c -0.63353,0.43866 -1.23507,0.82759 -1.82961,1.17343 v 0 c -0.51657,0.30049 -1.05702,0.56892 -1.61925,0.79268 v 0 c -2.55781,1.02642 -5.38347,1.06357 -7.89458,0.41467 v 0 c -3.26111,-0.8427 -5.48974,-2.72934 -6.89215,-2.83524 v 0 c -0.83708,-0.0632 -1.74236,0.74365 -2.10348,0.87167 z"
       id="path895"
       inkscape:path-effect="#path-effect897;#path-effect899"
       inkscape:original-d="m 162.07695,101.74733 c 7.28097,-0.17037 10.69641,4.16297 17.97685,3.99207 7.28045,-0.1709 10.93921,-7.94801 15.32128,-9.53338 4.38207,-1.58536 17.5055,14.65722 26.45638,19.13253 8.95089,4.47531 9.41075,8.29653 13.69958,12.21239"
       sodipodi:nodetypes="csssc" />
    <path
       style="display:inline;fill:#000000;fill-rule:nonzero;stroke:none;stroke-width:0.264583px;stroke-linecap:butt;stroke-linejoin:miter;stroke-opacity:1"
       d="m 161.42293,110.10894 c -0.31819,0.23743 -2.27167,-0.0865 -1.90916,1.42461 v 0 c 0.50552,2.10728 5.34382,9.0212 14.83393,13.89089 l 0,0 c 2.32156,1.13511 5.25723,2.23544 8.49773,2.53854 l 0,0 c 1.55191,0.14599 3.13926,0.0954 4.68311,-0.18621 v 0 c 1.59794,-0.29145 3.10626,-0.82222 4.46913,-1.59689 l 0,0 c 1.47371,-0.82249 2.66046,-1.86666 3.62357,-2.85501 v 0 c 0.17776,-0.18242 0.35226,-0.3688 0.5239,-0.55876 v 0 c 1.11238,-1.2311 2.06942,-2.57176 3.01283,-3.9196 l 0,0 c 0.86907,-1.24245 1.75205,-2.49738 2.72499,-3.60072 v 0 c 0.94031,-1.06632 1.95662,-1.98541 3.14792,-2.64063 l 0,0 c 1.59107,-0.93681 3.52513,-1.36139 5.42542,-1.15895 l 0,0 c 2.06083,0.21954 3.94024,1.15729 5.32104,2.4599 l 0,0 c 1.44341,1.36168 2.25058,3.0113 2.60857,4.42883 v 0 c 0.0855,0.3386 0.14985,0.67805 0.19391,1.01589 l 0,0 c 0.38083,2.92026 -0.75269,5.14012 -1.31243,6.10307 0.59206,-0.96817 1.61173,-3.17992 1.40425,-6.11228 l 0,0 c -0.0243,-0.34307 -0.0654,-0.69036 -0.12401,-1.04052 v 0 c -0.24237,-1.44767 -0.83957,-3.26613 -2.16328,-4.94672 l 0,0 c -1.26628,-1.60769 -3.19974,-3.03961 -5.57447,-3.695 l 0,0 c -2.20871,-0.60956 -4.7007,-0.52101 -6.99308,0.38256 l -1e-5,0 c -1.66546,0.69771 -3.07321,1.74577 -4.29713,2.88962 v 0 c -1.24773,1.16611 -2.36211,2.49042 -3.32659,3.65097 l 0,0 c -1.0755,1.29334 -1.98434,2.38207 -2.99324,3.3674 v 0 c -0.151,0.14747 -0.30122,0.28951 -0.45114,0.42631 v 0 c -0.82698,0.75463 -1.73627,1.39644 -2.75212,1.82552 l 0,0 c -0.92625,0.3771 -1.95771,0.57709 -3.05421,0.60345 v 0 c -1.06372,0.0256 -2.15445,-0.11326 -3.21225,-0.38425 l 0,0 c -2.25167,-0.57428 -4.36733,-1.70194 -6.29369,-2.82044 l 0,0 c -7.88799,-4.34438 -12.27476,-9.95869 -14.10433,-10.91619 v 0 c -1.25533,-0.65697 -1.59097,1.18718 -1.90916,1.42461 z"
       id="path901"
       inkscape:path-effect="#path-effect903;#path-effect905"
       inkscape:original-d="m 161.42293,110.10894 c 8.74074,6.48622 5.72891,5.91785 14.46913,12.40354 8.74022,6.48569 13.20649,3.79303 15.10506,1.67834 1.77221,-1.97393 5.81582,-9.35093 13.42672,-12.86727 6.04193,-2.79145 11.72492,18.18661 12.84355,14.13035"
       sodipodi:nodetypes="csssc" />
    <text
       transform="rotate(-118.04858,146.4896,146.63408)"
       inkscape:transform-center-y="-123.28632"
       inkscape:transform-center-x="3.4901116"
       xml:space="preserve"
       id="text907"
       style="font-style:normal;font-variant:normal;font-weight:bold;font-stretch:normal;font-size:22.5778px;line-height:1.25;font-family:Charm;-inkscape-font-specification:'Charm, Bold';font-variant-ligatures:normal;font-variant-caps:normal;font-variant-numeric:normal;font-variant-east-asian:normal;white-space:pre;display:inline;fill:#aaa9ad;fill-opacity:1;stroke:#ffffff;stroke-width:0.5;stroke-miterlimit:14;stroke-dasharray:none;stroke-opacity:1"><textPath
         style="font-style:normal;font-variant:normal;font-weight:bold;font-stretch:normal;font-size:28.2222px;font-family:Charm;-inkscape-font-specification:'Charm, Bold';font-variant-ligatures:normal;font-variant-caps:normal;font-variant-numeric:normal;font-variant-east-asian:normal;fill:#aaa9ad;fill-opacity:1;stroke:#ffffff;stroke-width:0.5;stroke-miterlimit:14;stroke-dasharray:none;stroke-opacity:1"
         id="textPath925"
         xlink:href="#path24-5"><tspan
           rotate="0 0"
           dy="5.48"
           id="tspan857"
           style="font-style:normal;font-variant:normal;font-weight:bold;font-stretch:normal;font-size:28.2222px;font-family:Charm;-inkscape-font-specification:'Charm, Bold';font-variant-ligatures:normal;font-variant-caps:normal;font-variant-numeric:normal;font-variant-east-asian:normal;fill:#aaa9ad;fill-opacity:1;stroke:#ffffff;stroke-width:0.5;stroke-miterlimit:14;stroke-dasharray:none;stroke-opacity:1">C<tspan
   rotate="0 0 0 0 0 0 0"
   id="tspan1037"
   style="font-style:normal;font-variant:normal;font-weight:bold;font-stretch:normal;font-size:28.2222px;font-family:Charm;-inkscape-font-specification:'Charm, Bold';font-variant-ligatures:normal;font-variant-caps:normal;font-variant-numeric:normal;font-variant-east-asian:normal;fill:#aaa9ad;fill-opacity:1;stroke:#ffffff;stroke-width:0.5;stroke-miterlimit:14;stroke-dasharray:none;stroke-opacity:1">RAKKEN</tspan></tspan></textPath></text>
    <path
       sodipodi:nodetypes="csssssssc"
       inkscape:original-d="m 122.17383,114.87798 c -6.40758,6.96819 4.57697,5.23289 6.15773,6.91096 1.58076,1.67807 -2.23851,3.25731 -3.05062,5.05472 -0.81211,1.7974 -11.92485,2.28465 -11.9831,8.60522 -0.0564,6.12485 19.28471,10.22536 24.88545,10.33611 8.78512,0.17371 24.81866,-1.41995 24.6506,-8.61135 -0.10877,-4.65456 -9.35145,-7.40203 -11.10752,-9.78165 -3.17644,-4.30432 -3.87015,-1.75102 -3.73326,-4.94848 0.2906,-6.78782 5.0386,-3.25994 5.15431,-8.01533"
       inkscape:path-effect="#path-effect944"
       id="path942"
       d="m 122.17383,114.87798 c 1.74577,-0.0136 3.48292,0.75717 4.64432,2.06064 1.16141,1.30347 1.72748,3.11767 1.51341,4.85032 -0.24737,2.00217 -1.48228,3.78579 -3.05062,5.05472 -1.95248,1.57974 -4.37251,2.43645 -6.61555,3.5663 -1.12152,0.56492 -2.21305,1.20771 -3.16121,2.03108 -0.94816,0.82337 -1.75177,1.83724 -2.20634,3.00784 -0.48949,1.26051 -0.55535,2.67144 -0.249,3.9885 0.30636,1.31705 0.97646,2.53926 1.87331,3.55127 1.79369,2.02402 4.42806,3.15999 7.09816,3.58959 5.34019,0.85919 10.75475,-0.87697 16.16298,-0.79325 5.10523,0.079 10.16055,1.77977 15.23442,1.20933 2.53694,-0.28523 5.06979,-1.18264 6.93951,-2.9209 0.93486,-0.86913 1.68994,-1.94022 2.13958,-3.13486 0.44965,-1.19464 0.58743,-2.51325 0.33709,-3.76492 -0.24941,-1.24699 -0.87484,-2.40017 -1.69001,-3.37623 -0.81518,-0.97605 -1.81621,-1.78334 -2.87608,-2.4861 -2.11974,-1.40551 -4.49142,-2.41391 -6.54143,-3.91932 -1.6985,-1.24728 -3.19965,-2.90988 -3.73326,-4.94848 -0.45203,-1.72694 -0.1481,-3.6378 0.81743,-5.13927 0.96553,-1.50147 2.57805,-2.57083 4.33688,-2.87606"
       style="display:inline;fill:#000000;fill-opacity:1;stroke:#000000;stroke-width:0.264583px;stroke-linecap:butt;stroke-linejoin:miter;stroke-opacity:1" />
    <path
       sodipodi:nodetypes="csssssc"
       inkscape:original-d="m 124.38701,134.30317 c -4.18888,10.54776 -8.37803,21.09526 -12.56743,31.64249 -4.18941,10.54724 -15.335464,4.26475 -23.003592,6.39672 -7.668127,2.13198 -7.667598,-11.60404 -14.761659,-15.49974 -7.094064,-3.8957 -17.426697,-4.38723 -22.880574,-8.48795 -5.453877,-4.10073 0.246293,-11.89108 0.369041,-17.83701 0.122751,-5.94593 -4.428233,0.41031 -6.642746,0.61507"
       inkscape:path-effect="#path-effect954;#path-effect956"
       id="path952"
       d="m 124.38701,134.30317 c -0.49904,0.62381 -1.72416,0.6369 -2.9846,1.33132 -1.32425,0.72957 -2.47077,2.00689 -3.55037,5.1165 v 0 c -0.69172,1.99239 -1.54266,4.93318 -2.8421,8.14484 v 0 c -1.58142,3.90858 -3.93195,8.49904 -7.6418,12.81426 l 0,0 c -1.01961,1.41374 -2.16147,2.88566 -3.46447,4.21056 v 0 c -1.20323,1.22345 -2.54031,2.31799 -4.043499,3.12827 l -10e-7,0 c -0.919941,0.69917 -1.953874,1.23582 -3.02505,1.48245 v 0 c -0.548944,0.12639 -1.120562,0.21434 -1.707678,0.25342 l 0,0 c -1.572699,0.10559 -3.288072,-0.15172 -4.849693,-0.90246 l -10e-7,0 c -1.211175,-0.63659 -2.32918,-1.56741 -3.456911,-2.78969 l -2e-6,-10e-6 c -1.109417,-1.20243 -2.109413,-2.55025 -3.225428,-4.05312 l -10e-7,0 c -1.063247,-1.43261 -2.266491,-3.02666 -3.645128,-4.45578 v 0 c -1.370263,-1.42043 -2.976576,-2.74715 -4.924708,-3.6717 l 0,0 c -1.162923,-0.53009 -2.360928,-0.87508 -3.54343,-1.1015 l -2e-6,0 c -1.177241,-0.2254 -2.35551,-0.33628 -3.486021,-0.38995 l 0,0 c -1.30339,-0.0618 -2.621898,-0.0529 -3.835999,-0.0583 v 0 c -0.868191,-0.004 -1.742725,-0.0172 -2.606934,-0.0695 l -1e-6,0 c -0.997882,-0.0603 -2.002134,-0.17683 -2.972511,-0.39072 v 0 c -0.942159,-0.20767 -1.852077,-0.50703 -2.697821,-0.93686 l 0,0 c -0.821775,-0.41712 -1.589586,-0.97822 -2.216686,-1.65307 h 0 c -0.618428,-0.66551 -1.091312,-1.432 -1.351958,-2.27031 l 0,-1e-5 c -0.197422,-0.60789 -0.287497,-1.26328 -0.289712,-1.95517 v 0 c -0.0022,-0.69438 0.0841,-1.40903 0.227442,-2.12331 l 0,0 c 0.292966,-1.45871 0.817561,-2.92901 1.238865,-4.43862 l 0,0 c 0.219822,-0.78754 0.409413,-1.58421 0.527307,-2.39093 v 0 c 0.122737,-0.83986 0.165128,-1.67381 0.08978,-2.50144 l 0,0 c -0.093,-0.75856 -0.282064,-1.45747 -0.555365,-2.07988 v 0 c -0.05284,-0.12034 -0.109487,-0.23975 -0.170125,-0.35791 l 0,0 c -0.391145,-0.76234 -0.935084,-1.43962 -1.607256,-1.94454 l -1e-6,0 c -0.539282,-0.42779 -1.149713,-0.721 -1.765293,-0.88884 v 0 c -0.665258,-0.18139 -1.327637,-0.2149 -1.936061,-0.13044 l -1e-6,0 c -0.698949,0.097 -1.308036,0.34588 -1.794973,0.63938 h 0 c -0.672597,0.40541 -1.111752,0.89147 -1.37876,1.26266 0.302808,-0.34592 0.784235,-0.78098 1.463038,-1.10688 h 0 c 0.49564,-0.23796 1.090784,-0.41471 1.743328,-0.44272 l 10e-7,0 c 0.566725,-0.0243 1.163449,0.0652 1.740772,0.2836 v 0 c 0.535181,0.20245 1.040375,0.51119 1.463264,0.91862 l 0,0 c 0.50205,0.51407 0.867339,1.15243 1.090376,1.82832 l 0,0 c 0.03469,0.10509 0.06589,0.21067 0.0938,0.31648 v 0 c 0.144071,0.54619 0.217527,1.14585 0.207802,1.78581 l 0,0 c 0.01543,0.69676 -0.06691,1.40836 -0.224657,2.14344 v 0 c -0.151939,0.70804 -0.369866,1.42044 -0.62643,2.15078 l 0,0 c -0.458764,1.30611 -1.1561,2.9535 -1.573697,4.48116 l 0,0 c -0.217551,0.79621 -0.384671,1.64454 -0.44492,2.51367 v 0 c -0.06021,0.86852 -0.01462,1.76674 0.200571,2.66255 l 10e-7,0 c 0.31043,1.24359 0.922651,2.36029 1.706863,3.31343 h 0 c 0.792391,0.96308 1.766178,1.76702 2.809517,2.38523 l 0,0 c 1.055403,0.62579 2.170281,1.07309 3.281597,1.40223 v 0 c 1.141895,0.3382 2.296791,0.55638 3.395839,0.71046 l 10e-7,0 c 0.944633,0.13251 1.887066,0.22443 2.766076,0.30546 v 0 c 1.273797,0.11742 2.47596,0.21265 3.671658,0.37386 l 0,0 c 1.012262,0.1366 1.985237,0.31825 2.903629,0.58062 l 2e-6,0 c 0.920416,0.26295 1.760534,0.5999 2.514603,1.03438 l 0,0 c 1.285086,0.70178 2.407069,1.71289 3.453628,2.93404 v 0 c 1.068714,1.247 2.025287,2.6722 2.98897,4.15934 l 1e-6,0 c 0.980267,1.51182 2.033145,3.15279 3.248782,4.67495 l 2e-6,1e-5 c 1.261512,1.5796 2.737668,3.08356 4.579757,4.26084 l 2e-6,0 c 2.326414,1.55866 4.942014,2.39185 7.414581,2.71114 l 0,0 c 0.924957,0.11966 1.833201,0.16973 2.712946,0.16686 v 0 c 1.716024,-0.006 3.451753,-0.0825 5.245743,-0.31774 l 10e-6,0 c 2.64631,-0.61941 5.09308,-1.63166 7.30863,-2.84593 v 0 c 2.38263,-1.30583 4.48939,-2.8415 6.23488,-4.33553 l 0,0 c 5.41892,-5.27818 8.92893,-11.1945 10.9771,-16.42477 v 0 c 1.71096,-4.36918 2.40194,-8.23738 2.48808,-11.05587 v 0 c 0.12928,-4.23038 -1.1809,-6.03178 -2.39779,-6.90074 -1.21688,-0.86896 -2.44686,-0.87731 -2.9514,-1.49668 z"
       style="display:inline;fill:#000000;fill-rule:nonzero;stroke:none;stroke-width:0.264583px;stroke-linecap:butt;stroke-linejoin:miter;stroke-opacity:1" />
    <path
       sodipodi:nodetypes="cssssc"
       inkscape:original-d="m 127.30143,135.7576 c 4.73027,14.35038 -11.80495,27.0249 -7.07521,41.37475 4.72973,14.34985 -11.91733,1.97426 -26.846349,11.75139 -14.929017,9.77712 -38.080107,-0.32219 -41.671072,-8.8249 -3.590988,-8.5027 30.792193,-2.80857 34.948844,3.56763 4.156675,6.37625 13.386117,14.09463 4.881976,17.35337"
       inkscape:path-effect="#path-effect966;#path-effect968"
       id="path964"
       d="m 127.30143,135.7576 c 0.53393,-0.1533 1.60867,-0.95283 2.82489,-1.52382 1.20704,-0.56668 2.59866,-0.90591 3.72583,0.0387 v 0 c 1.9546,1.6381 3.26975,5.80792 3.79348,10.89962 l 0,0 c 0.17751,1.7257 0.26664,3.52978 0.29297,5.41147 v 0 c 0.0345,2.46563 -0.19326,5.22356 -0.84949,8.14003 l 0,0 c -0.90605,4.02673 -2.60982,8.22656 -5.27206,12.20574 l 0,1e-5 c -2.32144,3.46979 -5.34506,6.72352 -9.03848,9.37684 l 0,0 c -4.34996,3.20306 -9.19257,5.27375 -14.16736,6.95321 v 0 c -4.77012,1.61036 -9.641161,2.85693 -14.226318,4.38699 l 0,0 c -0.115852,0.0342 -0.23177,0.0689 -0.347764,0.10386 v 0 c -3.600724,1.08623 -7.54574,2.62959 -11.952604,3.94697 l 0,0 c -4.037485,1.20707 -8.663483,2.23577 -13.444658,2.04108 l 0,0 c -2.311089,-0.094 -4.682589,-0.49033 -6.956579,-1.26281 h 0 c -2.237958,-0.76023 -4.393647,-1.88952 -6.284593,-3.45983 l -3e-6,0 c -1.873032,-1.56536 -3.447151,-3.53839 -4.47061,-5.80612 l 0,0 c -0.814661,-1.80497 -1.256892,-3.75769 -1.270287,-5.70053 v 0 c -0.0037,-0.53208 0.0233,-1.07342 0.0853,-1.61993 l 0,-1e-5 c 0.256122,-2.21303 1.080196,-4.41432 2.42548,-6.3411 l 0,0 c 1.279431,-1.83234 2.980936,-3.34772 4.91196,-4.44108 l 5e-6,0 c 1.908631,-1.12064 4.008761,-1.79544 6.129533,-2.08262 v 0 c 2.158005,-0.29223 4.339487,-0.18413 6.394912,0.26177 l 0,0 c 4.34366,0.94254 8.038923,3.28591 10.85388,5.98338 l 0,0 c 3.275591,3.13904 5.497903,6.84663 6.995608,9.95148 l 0,0 c 0.469856,0.95597 0.890578,1.89559 1.267255,2.81134 v 0 c 2.535552,6.16426 3.653019,12.54429 3.552001,18.56942 -0.09414,5.61464 -1.229078,9.58403 -1.311997,9.56603 v 0 c -0.05659,-0.0123 0.498957,-2.7435 0.698872,-5.77084 0.219802,-3.3285 0.02435,-6.03144 -0.120987,-7.41705 0.07195,1.41157 0.177622,4.07568 -0.187973,7.38984 -0.330321,2.99441 -1.022005,5.6559 -1.078388,5.64271 v 0 c -0.08262,-0.0193 0.87301,-3.94624 0.805777,-9.41359 -0.07214,-5.86649 -1.30005,-12.02547 -3.920467,-17.89689 v 0 c -0.388951,-0.87149 -0.820002,-1.76389 -1.297757,-2.66991 l 0,0 c -1.580059,-2.94152 -3.813923,-6.32215 -6.940855,-9.09649 l 0,0 c -2.672439,-2.37094 -6.060886,-4.3153 -9.84471,-4.99346 l 0,0 c -1.774139,-0.31783 -3.62793,-0.33968 -5.426202,-0.0303 v 0 c -1.767265,0.304 -3.455479,0.92358 -4.941889,1.86865 l -4e-6,0 c -1.480452,0.98269 -2.710834,2.26033 -3.576491,3.70615 l 0,0 c -0.910052,1.52016 -1.386034,3.1742 -1.456159,4.74206 l 0,0 c -0.01849,0.38571 -0.01272,0.76788 0.0144,1.1438 v 0 c 0.09912,1.37376 0.47124,2.75756 1.095617,4.03963 l 0,0 c 0.786501,1.61516 1.964253,3.06508 3.39887,4.22897 l 2e-6,0 c 1.433717,1.17308 3.107798,2.04558 4.905764,2.63711 h 0 c 1.831524,0.60256 3.775966,0.90913 5.700524,0.95592 l 0,0 c 4.03715,0.0984 8.060896,-0.8737 11.791398,-2.18189 l 0,0 c 3.82508,-1.34124 8.022742,-3.29874 11.442771,-4.77938 v 0 c -0.0065,0.003 0.357507,-0.15448 0.351001,-0.15167 l 0,0 c 4.7433,-1.86348 9.50582,-3.43076 13.80217,-5.26625 v 0 c 4.53752,-1.93854 8.353,-4.07049 11.49685,-6.89633 l 0,0 c 2.55135,-2.36893 4.4808,-5.12386 5.8376,-7.91155 l 0,0 c 1.55613,-3.19725 2.33073,-6.36334 2.59878,-9.2007 l 0,0 c 0.1943,-2.05666 0.12911,-3.96589 -0.051,-5.64734 v 0 c -0.13783,-1.28688 -0.44037,-2.49636 -0.81601,-3.60663 l 0,-1e-5 c -1.10441,-3.26431 -2.7619,-5.43745 -2.67697,-7.21638 v 0 c 0.0492,-1.03125 1.01442,-1.997 2.09316,-2.79739 1.07676,-0.79893 2.26707,-1.41095 2.64198,-1.82087 z"
       style="fill:#000000;fill-rule:nonzero;stroke:none;stroke-width:0.264583px;stroke-linecap:butt;stroke-linejoin:miter;stroke-opacity:1" />
    <path
       sodipodi:nodetypes="csssssc"
       inkscape:original-d="m 138.41199,135.91368 c 6.01502,9.22177 6.51511,29.25648 12.52961,38.47773 6.0145,9.22124 7.62858,32.62512 8.69443,34.59307 1.06585,1.96796 -19.897,25.55336 -21.29142,36.78836 -1.39442,11.235 -20.36661,-20.19132 -24.46733,-22.65186 -4.10073,-2.46054 18.52507,-1.68406 21.55915,-6.19483 3.03408,-4.51077 7.09254,-12.30584 6.92826,-16.16054"
       inkscape:path-effect="#path-effect972;#path-effect974"
       id="path970"
       d="m 138.41199,135.91368 c 1.55161,1.15938 7.01552,2.57223 9.34721,6.83297 v 0 c 2.34249,4.28048 2.69585,11.10838 4.9313,18.90929 v 0 c 0.97559,3.40446 2.04465,7.06087 3.22738,10.92838 l 0,0 c 1.30831,4.38075 3.58082,11.57643 5.02996,17.63758 v 0 c 1.27422,5.32952 2.46742,11.82549 2.3547,18.71875 l 0,0 c -0.008,0.25341 -0.0185,0.50815 -0.0304,0.76417 v 0 c -0.30626,6.57059 -1.82619,14.61823 -6.30802,22.3016 l 0,0 c -3.77072,6.46486 -9.72899,12.56774 -17.58434,16.02739 l 0,0 c -3.91606,1.66805 -8.36696,2.71307 -12.93477,2.46107 l 0,0 c -2.23285,-0.12303 -4.46662,-0.56619 -6.57982,-1.34074 l 0,0 c -2.11888,-0.77663 -4.11005,-1.88401 -5.85213,-3.32617 l -1e-5,0 c -1.77399,-1.46829 -3.2406,-3.26679 -4.30213,-5.23867 v 0 c -1.00772,-1.87192 -1.64801,-3.89434 -1.85646,-5.95235 v 0 c -0.0179,-0.1768 -0.0328,-0.35503 -0.0445,-0.53463 l 0,0 c -0.0881,-2.07509 0.23142,-4.39785 1.21841,-6.63498 l 0,0 c 0.88498,-2.00605 2.28309,-3.86336 4.12471,-5.25301 l 0,0 c 1.64296,-1.27281 3.51118,-2.07423 5.41913,-2.61302 l 0,-1e-5 c 1.9145,-0.54064 3.90878,-0.82679 5.7755,-1.04179 l 0,0 c 1.96518,-0.22625 3.77109,-0.39528 5.58668,-0.72645 v 0 c 1.87585,-0.34216 3.578,-0.82998 5.12574,-1.61649 l 0,0 c 2.98364,-1.5033 5.05895,-4.02669 6.14834,-6.38129 l 0,0 c 1.30107,-2.81214 1.32324,-5.33068 1.29536,-6.66238 v 0 c -0.024,-1.14625 -0.1033,-2.16582 -0.13906,-2.40729 0.11815,0.28014 0.53271,1.09245 0.75005,2.34731 v 0 c 0.2374,1.37061 0.42825,4.04607 -0.8228,7.18689 l 0,0 c -1.04467,2.62269 -3.15057,5.49011 -6.47913,7.33592 l 0,0 c -1.70532,0.93906 -3.559,1.5276 -5.52939,1.95109 v 0 c -1.88214,0.40452 -3.77446,0.64049 -5.68138,0.91982 l 0,0 c -1.83703,0.26918 -3.68717,0.59672 -5.41785,1.14467 l 0,1e-5 c -1.71808,0.54396 -3.27441,1.29153 -4.58263,2.37631 l 0,0 c -1.42684,1.22159 -2.45769,2.80232 -3.04605,4.45703 l -1e-5,1e-5 c -0.65656,1.84628 -0.75142,3.71769 -0.51388,5.33272 l 0,0 c 0.0164,0.13941 0.0353,0.2777 0.0566,0.41482 v 0 c 0.24733,1.595 0.82767,3.16265 1.69853,4.61144 v 0 c 0.91926,1.52931 2.14878,2.90221 3.5943,3.99391 l 10e-6,0 c 1.42947,1.07991 3.06069,1.89951 4.80454,2.45293 l 1e-5,0 c 1.74151,0.55268 3.57614,0.83365 5.39931,0.85015 l 0,0 c 3.75287,0.0344 7.4439,-1.00595 10.71461,-2.62877 l 1e-5,-10e-6 c 6.63335,-3.17402 11.57885,-8.62167 14.55282,-14.33209 l 0,0 c 3.53836,-6.79323 4.41188,-13.90107 4.14402,-19.49659 v 0 c -0.0105,-0.21968 -0.0228,-0.43799 -0.0368,-0.65487 l 0,0 c -0.26719,-5.96137 -1.75211,-11.5835 -3.3874,-16.41199 v 0 c -1.93678,-5.7187 -4.64719,-11.83067 -6.6168,-16.41782 l 0,0 c -1.59997,-3.79497 -3.07236,-7.3799 -4.40793,-10.7379 v 0 c -3.05792,-7.68841 -6.72763,-13.64814 -7.21135,-18.61423 v 0 c -0.48313,-4.96012 3.37275,-9.12689 4.06595,-10.93269 z"
       style="fill:#000000;fill-rule:nonzero;stroke:none;stroke-width:0.264583px;stroke-linecap:butt;stroke-linejoin:miter;stroke-opacity:1" />
    <path
       sodipodi:nodetypes="cssssssc"
       inkscape:original-d="m 146.05245,140.3741 c 4.49228,7.60284 8.4624,15.90129 12.95415,23.5036 4.49176,7.60231 5.50925,14.84552 8.00252,22.61582 2.49327,7.7703 21.7746,37.49168 31.63251,41.55067 9.85791,4.05898 25.08374,-24.49653 29.95457,-26.64239 4.87084,-2.14587 37.84087,-62.25337 -10.32924,-21.33245 -5.65871,4.80713 -20.2913,10.93014 -27.59821,11.97368 -7.30692,1.04355 17.28775,13.66582 16.93955,18.42068"
       inkscape:path-effect="#path-effect998;#path-effect1000"
       id="path996"
       d="m 146.05245,140.3741 c 0.24584,1.73721 -0.44605,5.91329 1.02769,10.3283 v 0 c 1.33688,4.00503 4.15672,9.0409 7.17271,15.21408 l 0,1e-5 c 2.99807,6.04586 5.94899,12.62013 8.60158,20.59859 v 0 c 0.004,0.0116 0.37367,1.12707 0.37752,1.13865 l 0,0 c 1.24591,3.80342 2.8236,8.77007 4.58138,13.27644 l 1e-5,1e-5 c 1.63756,4.19816 3.67959,8.68731 6.44791,12.95215 l 1e-5,1e-5 c 2.62123,3.85944 5.98818,7.69651 10.2251,10.73045 l 0,0 c 4.01699,2.87696 8.76316,4.95879 13.81398,5.57822 l 0,0 c 4.11987,0.56386 8.27237,0.081 12.0919,-1.20411 l 0,-1e-5 c 3.889,-1.30844 7.43582,-3.44721 10.32639,-6.18722 l 0,0 c 1.88321,-1.78523 3.47401,-3.79739 4.77556,-5.93533 v 0 c 0.75027,-1.2324 1.4135,-2.52154 1.98489,-3.85395 l 1e-5,-1e-5 c 1.5538,-3.62325 2.43152,-7.57449 2.52346,-11.5645 l 0,-10e-6 c 0.0692,-4.28769 -0.72166,-8.67572 -2.58656,-12.6485 l 0,-1e-5 c -1.85263,-3.94669 -4.77309,-7.43778 -8.4967,-9.76546 l 0,0 c -2.71677,-1.69444 -5.80145,-2.73476 -8.93177,-3.00737 l 0,0 c -3.22698,-0.28103 -6.44525,0.25992 -9.28292,1.51155 l 0,0 c -0.18659,0.0823 -0.37139,0.16761 -0.55429,0.25584 v 0 c -2.52473,1.2179 -4.91468,3.09203 -6.7423,5.572 l 0,0 c -1.87134,2.53927 -3.02231,5.54837 -3.31682,8.60578 l 0,1e-5 c -0.27055,2.51191 0.0619,4.99551 0.82525,7.235 l 0,0 c 0.82566,2.42228 2.13863,4.52239 3.728,6.1814 l 0,0 c 1.82437,1.90431 3.95494,3.17681 5.96094,3.95887 v 0 c 2.74807,1.07137 5.22853,1.22783 7.00292,1.11873 -1.78328,0.0423 -4.25551,-0.22776 -6.89294,-1.3845 v 0 c -1.94218,-0.85181 -3.95915,-2.18075 -5.64055,-4.08886 l -1e-5,-1e-5 c -1.46305,-1.66033 -2.63173,-3.72179 -3.32135,-6.05248 l 0,0 c -0.63823,-2.15696 -0.85018,-4.50086 -0.50714,-6.8215 l 0,-10e-6 c 0.45213,-2.82291 1.68367,-5.5122 3.5005,-7.71013 l 0,0 c 1.77396,-2.14608 4.00142,-3.70929 6.28351,-4.69274 v 0 c 0.1653,-0.0712 0.33192,-0.13995 0.49977,-0.20608 l 0,0 c 2.55305,-1.00576 5.4024,-1.4169 8.23635,-1.12874 l 1e-5,0 c 2.75018,0.27963 5.46427,1.21534 7.84818,2.72814 l 0,0 c 3.27106,2.07047 5.86495,5.19374 7.48474,8.76115 l 1e-5,1e-5 c 1.63036,3.59061 2.27824,7.5825 2.09047,11.48976 l 0,1e-5 c -0.14661,3.62021 -1.01932,7.18336 -2.50402,10.41444 l 0,0 c -0.54527,1.18664 -1.17214,2.32656 -1.87446,3.4078 v 0 c -1.21879,1.87634 -2.68645,3.60905 -4.39068,5.11467 l -1e-5,1e-5 c -2.60889,2.30466 -5.77256,4.04289 -9.18079,5.03098 l 0,0 c -3.35059,0.97137 -6.87862,1.20007 -10.25697,0.57174 l 0,0 c -4.14393,-0.84228 -7.96448,-2.9179 -11.11302,-5.62606 l 0,0 c -3.32504,-2.85932 -5.90245,-6.38417 -7.87696,-9.94104 l 0,-1e-5 c -2.25144,-3.83545 -3.91307,-7.92994 -5.28003,-11.92922 l -1e-5,-1e-5 c -1.47487,-4.315 -2.79228,-9.11825 -3.92661,-13.06772 l 0,0 c -0.11183,-0.39345 -0.22311,-0.78309 -0.33405,-1.16952 v 0 c -2.40154,-8.36477 -4.10444,-15.32313 -6.69189,-22.32487 l 0,-1e-5 c -2.61138,-6.94916 -5.57958,-12.52895 -8.6024,-15.90356 v 0 c -3.33527,-3.72343 -7.59223,-4.72122 -9.1055,-5.56125 z"
       style="display:inline;fill:#000000;fill-rule:nonzero;stroke:none;stroke-width:0.264583px;stroke-linecap:butt;stroke-linejoin:miter;stroke-opacity:1" />
    <text
       transform="rotate(-30.372316,146.71991,145.31761)"
       inkscape:transform-center-y="-0.66720998"
       inkscape:transform-center-x="-114.42908"
       style="font-style:normal;font-variant:normal;font-weight:normal;font-stretch:normal;font-size:18.3444px;line-height:1.25;font-family:Charm;-inkscape-font-specification:'Charm, Normal';font-variant-ligatures:normal;font-variant-caps:normal;font-variant-numeric:normal;font-variant-east-asian:normal;white-space:pre;display:inline;fill:#aaa9ad;fill-opacity:1;stroke:#ffffff;stroke-width:0.5;stroke-miterlimit:4;stroke-dasharray:none;stroke-opacity:0.441489"
       id="text1002"
       xml:space="preserve"><textPath
         style="font-style:normal;font-variant:normal;font-weight:bold;font-stretch:normal;font-size:18.3444px;font-family:Charm;-inkscape-font-specification:'Charm, Bold';font-variant-ligatures:normal;font-variant-caps:normal;font-variant-numeric:normal;font-variant-east-asian:normal;fill:#aaa9ad;fill-opacity:1;stroke:#ffffff;stroke-width:0.5;stroke-miterlimit:4;stroke-dasharray:none;stroke-opacity:1"
         id="textPath1008"
         xlink:href="#path24-5"><tspan
           dy="-2.72"
           id="tspan1006"
           style="font-style:normal;font-variant:normal;font-weight:bold;font-stretch:normal;font-size:18.3444px;font-family:Charm;-inkscape-font-specification:'Charm, Bold';font-variant-ligatures:normal;font-variant-caps:normal;font-variant-numeric:normal;font-variant-east-asian:normal;fill:#aaa9ad;fill-opacity:1;stroke:#ffffff;stroke-width:0.5;stroke-miterlimit:4;stroke-dasharray:none;stroke-opacity:1">LEGEND B<tspan
   style="opacity:0.996;stroke-width:0.5;stroke-miterlimit:4;stroke-dasharray:none"
   id="tspan2209">Y SEA</tspan></tspan></textPath></text>
    <ellipse
       inkscape:transform-center-y="-0.069406869"
       inkscape:transform-center-x="0.0047032554"
       cy="146.67879"
       cx="147.69595"
       id="ellipse1011"
       style="display:inline;fill:none;stroke:#ff0000;stroke-width:0.0976795;stroke-miterlimit:4;stroke-dasharray:none;stroke-opacity:1"
       rx="2.7022438"
       ry="2.727617" />
    <text
       transform="rotate(145.02315,147.16406,146.81158)"
       inkscape:transform-center-y="4.0444031"
       inkscape:transform-center-x="112.10655"
       id="text1015"
       style="font-style:normal;font-variant:normal;font-weight:normal;font-stretch:normal;font-size:18.3444px;line-height:1.25;font-family:Charm;-inkscape-font-specification:'Charm, Normal';font-variant-ligatures:normal;font-variant-caps:normal;font-variant-numeric:normal;font-variant-east-asian:normal;display:inline;fill:#aaa9ad;fill-opacity:1;stroke:#ffffff;stroke-width:0.5;stroke-miterlimit:4;stroke-dasharray:none;stroke-opacity:0.441489"
       xml:space="preserve"><textPath
         style="font-style:normal;font-variant:normal;font-weight:bold;font-stretch:normal;font-size:18.3444px;font-family:Charm;-inkscape-font-specification:'Charm, Bold';font-variant-ligatures:normal;font-variant-caps:normal;font-variant-numeric:normal;font-variant-east-asian:normal;fill:#aaa9ad;fill-opacity:1;stroke:#ffffff;stroke-width:0.5;stroke-miterlimit:4;stroke-dasharray:none;stroke-opacity:1"
         id="textPath1028"
         xlink:href="#path24-5"><tspan
           dx="0"
           dy="-3.289999"
           id="tspan1013"
           style="font-style:normal;font-variant:normal;font-weight:bold;font-stretch:normal;font-size:18.3444px;font-family:Charm;-inkscape-font-specification:'Charm, Bold';font-variant-ligatures:normal;font-variant-caps:normal;font-variant-numeric:normal;font-variant-east-asian:normal;fill:#aaa9ad;fill-opacity:1;stroke:#ffffff;stroke-width:0.5;stroke-miterlimit:4;stroke-dasharray:none;stroke-opacity:1">HUNTER BY LAND</tspan></textPath></text>
    <ellipse
       ry="0.38175973"
       rx="0.37820849"
       style="display:inline;fill:none;stroke:#ff0000;stroke-width:0.0136713;stroke-miterlimit:4;stroke-dasharray:none;stroke-opacity:1"
       id="ellipse1026"
       cx="147.7"
       cy="146.73848"
       inkscape:transform-center-x="0.0006596763"
       inkscape:transform-center-y="-0.0097144862" />
    <path
       sodipodi:nodetypes="csssssssc"
       inkscape:original-d="M 130.23788,134.44431 C 114.41385,123.51091 86.203721,118.88393 70.379166,107.95 54.554611,97.016071 -49.969498,107.59349 85.357496,67.913392 99.415714,63.791293 562.91046,-10.021661 154.41022,45.610729 c -8.70588,1.185627 1680.21048,722.375511 65.47004,25.219492 -47.9365,-20.69634 44.58562,48.514789 32.21889,54.596889 -80.56881,39.62468 -6.44519,16.23145 -8.29753,21.31137 -1.85234,5.07993 -4.21337,-16.48833 -8.27058,-19.18754 -4.0572,-2.6992 11.13184,2.71441 11.13184,2.71441"
       inkscape:path-effect="#path-effect1057;#path-effect1069"
       id="path1055"
       d="m 130.23788,134.44431 c 0.38284,1.24995 3.50444,5.54747 1.97445,8.258 v 0 c -2.07497,3.67605 -10.26984,5.86281 -19.56617,5.04081 l 0,0 c -5.14175,-0.45464 -10.07023,-1.72268 -14.962241,-3.29519 v 0 c -2.07275,-0.66627 -4.268067,-1.52021 -6.505472,-2.62315 h 0 c -5.820144,-2.86908 -11.758096,-7.3666 -16.385443,-13.74579 l -3e-6,0 c -4.092059,-5.64125 -6.890934,-12.42845 -7.821762,-19.65122 l 0,0 c -1.06454,-8.17672 0.338652,-16.304478 3.211842,-23.382684 l 3e-6,-5e-6 C 73.427276,77.053163 78.394866,70.611176 83.238572,65.83274 l 0,0 c 0.6388,-0.638434 1.281867,-1.254905 1.927176,-1.849985 v 0 C 95.192433,54.736528 106.83979,49.523715 116.60401,46.735074 l 0,0 c 11.10035,-3.170143 23.83078,-4.449676 37.96509,-3.290633 l 0,0 c 5.71805,0.445391 11.70961,1.303264 17.86429,2.683357 v 0 c 16.25335,3.644568 33.53369,10.935202 48.6336,23.235117 l 1e-5,6e-6 c 8.27489,6.745025 15.90459,15.133509 21.79052,24.889177 l 0,0 c 5.57736,9.244212 9.58238,19.717602 10.88298,30.979972 l 0,2e-5 c 0.20783,2.05273 0.33343,4.22287 0.23165,6.40441 v 0 c -0.0995,2.13301 -0.41717,4.30321 -1.10197,6.42426 l 0,0 c -0.70774,2.08343 -1.76977,4.08835 -3.23784,5.79264 l 0,0 c -1.485,1.72412 -3.3525,3.0869 -5.43483,3.86242 l 0,0 c -1.43424,0.54598 -2.941,0.79138 -4.40879,0.76843 v 0 c -0.35484,-0.006 -0.70749,-0.0268 -1.05662,-0.0632 v 0 c -1.09577,-0.11444 -2.21253,-0.38428 -3.29124,-0.83819 l 0,0 c -1.33671,-0.56245 -2.58784,-1.39881 -3.65494,-2.46641 v 0 c -1.02325,-1.02373 -1.87082,-2.25467 -2.4416,-3.62968 l 0,0 c -0.55904,-1.34668 -0.83915,-2.80487 -0.8347,-4.26298 l 0,-1e-5 c 0.004,-1.45298 0.29143,-2.89733 0.85791,-4.22283 l 0,0 c 0.57379,-1.34262 1.42419,-2.53572 2.44635,-3.50986 l 0,0 c 1.05637,-1.00675 2.28814,-1.77313 3.59556,-2.25256 l 0,0 c 2.15453,-0.77318 4.34594,-0.73996 6.15491,-0.2471 l 0,0 c 2.5499,0.69474 4.2193,2.21474 5.09853,3.27396 -0.94521,-1.0151 -2.6713,-2.40905 -5.17825,-2.94706 l 0,0 c -1.77562,-0.38107 -3.85878,-0.28841 -5.83198,0.5451 l -1e-5,0 c -1.19956,0.4963 -2.31204,1.25519 -3.24779,2.22368 l 0,0 c -0.90628,0.93798 -1.63434,2.06048 -2.10093,3.29227 l 0,10e-6 c -0.46053,1.21575 -0.66272,2.52477 -0.61148,3.82429 l 0,1e-5 c 0.0515,1.30514 0.3577,2.58325 0.8963,3.73678 l 0,0 c 0.54994,1.17785 1.33589,2.21721 2.263,3.06572 v 0 c 0.96742,0.88541 2.07404,1.5509 3.22421,1.97368 l 0,0 c 0.92824,0.34121 1.8817,0.52475 2.80985,0.57718 v 0 c 0.29557,0.0167 0.5931,0.0204 0.89137,0.011 v 0 c 1.23563,-0.0393 2.47717,-0.30539 3.62856,-0.80683 l 0,0 c 1.66863,-0.74389 3.14764,-1.96731 4.29197,-3.47963 l 0,0 c 1.13183,-1.49559 1.92465,-3.2435 2.41243,-5.06569 l 0,0 c 0.52727,-1.8382 0.74744,-3.74623 0.77168,-5.67354 v 0 c 0.0248,-1.97491 -0.15626,-3.97136 -0.42401,-5.92014 l 0,-2e-5 c -1.31042,-10.7121 -5.20471,-20.70686 -10.61784,-29.534912 l 0,0 C 234.11882,86.756826 226.70678,78.726105 218.69353,72.297532 l 0,-5e-6 C 204.0362,60.530311 187.28379,53.6087 171.53429,50.217294 v 0 c -5.96103,-1.283616 -11.75758,-2.061044 -17.28295,-2.440277 l -1e-5,0 c -13.69099,-0.8816 -25.79587,0.62903 -36.19044,3.854503 l 0,0 c -9.1691,2.845291 -19.851868,7.971016 -28.860507,16.638598 v 0 C 88.622317,68.8263 88.047071,69.40078 87.47642,69.994044 l 0,0 c -4.285507,4.519449 -8.572553,10.371392 -11.285301,17.429221 l -2e-6,5e-6 c -2.400421,6.245526 -3.442203,13.22908 -2.404024,20.04896 l 0,0 c 0.925319,6.01509 3.43411,11.59413 6.993366,16.08622 l 3e-6,0 c 4.025232,5.0802 9.10158,8.44782 13.928363,10.29013 v 0 c 1.850346,0.70625 3.649159,1.18616 5.330635,1.49067 v 0 c 3.99507,0.72352 7.97145,0.0932 11.37551,-1.13133 l 0,0 c 6.10784,-2.19718 9.63807,-5.93585 12.63812,-5.35107 v 0 c 1.16477,0.22704 2.44743,1.39341 3.56538,2.61984 1.12019,1.22889 2.07063,2.53126 2.61941,2.96762 z"
       style="fill:#000000;fill-rule:nonzero;stroke:none;stroke-width:0.264583px;stroke-linecap:butt;stroke-linejoin:miter;stroke-opacity:1" />
    <path
       sodipodi:nodetypes="cssssssssszc"
       inkscape:original-d="m 146.57916,134.14375 c 1.0586,0.0885 9.32683,5.53446 10.3849,5.62239 1.05807,0.0879 4.52023,12.19315 24.80469,18.98386 20.28446,6.79071 62.24172,15.0407 66.51866,12.45674 4.27694,-2.58398 -9.26033,13.77344 -0.8378,20.7666 8.42253,6.99317 -24.58199,27.5429 -41.3392,50.91417 -16.7572,23.37125 -67.38029,4.76276 -101.07083,7.14375 C 71.349041,252.41223 65.175952,210.34402 45.243749,190.5 c -19.932208,-19.84402 -7.566761,-0.63479 -6.879166,-21.69583 0.592204,-18.1392 0.617625,-47.44834 6.614583,-65.0875 C 50.976124,86.077512 76.907265,72.545457 85.460417,82.549998 94.01357,92.554539 65.458481,98.88954 65.634606,109.29622"
       inkscape:path-effect="#path-effect1061;#path-effect1067"
       id="path1059"
       d="m 146.57916,134.14375 c 0.11515,1.02591 -0.51452,4.04396 0.34626,6.10548 v 0 c 0.7338,1.75742 2.74327,3.60589 5.34895,6.04442 l 0,0 c 2.75769,2.42174 6.1059,5.87685 10.85755,10.10225 l 0,0 c 1.9742,1.7556 4.32834,3.70717 6.9708,5.48357 v 0 c 2.48799,1.67256 5.37447,3.28867 8.65102,4.48361 l 1e-5,0 c 3.59065,1.32341 7.27533,1.99638 10.91364,2.23436 v 0 c 3.51149,0.22968 6.98259,0.0546 10.29666,-0.32812 h 0 c 6.42814,-0.74368 12.32055,-2.20049 17.86177,-3.05309 l 0,0 c 2.74756,-0.42342 5.42441,-0.70007 8.01344,-0.72379 l 0,0 c 2.59977,-0.0238 5.0728,0.20809 7.40489,0.78423 l 0,0 c 2.46313,0.42067 4.77553,1.22077 6.77366,2.39668 l 0,0 c 2.17614,1.27865 3.94072,2.99965 5.12373,4.92723 l 0,0 c 1.61224,2.75519 2.12007,5.98402 2.06116,8.8113 l 0,0 c -0.0296,1.40263 -0.19355,2.72334 -0.42049,3.89883 v 0 c -0.40558,2.1008 -0.99804,4.12283 -1.58155,5.89874 l 0,0 c -3.68507,10.9059 -9.37889,20.3949 -15.81317,28.24939 v 0 c -7.15722,8.73699 -15.60272,15.92305 -24.50931,21.43983 l -10e-6,0 c -14.47589,8.96732 -31.27485,14.14027 -48.5449,15.32496 h 0 c -15.35057,1.05302 -31.77958,-1.01337 -47.43228,-7.11122 v 0 c -0.99475,-0.38752 -1.9801,-0.78898 -2.95573,-1.20407 l -1e-5,0 C 92.430819,242.16201 80.671435,233.86588 71.085257,224.34465 l -7e-6,-1e-5 C 61.042705,214.37013 52.873215,202.55435 47.256093,189.62923 l 0,0 c -2.677569,-6.08778 -5.170356,-13.22088 -6.894302,-21.23866 l 0,0 C 38.240757,158.28116 37.45534,147.01897 38.7142,135.14552 v 0 c 0.973428,-9.18128 3.279469,-19.7523 7.972543,-30.69048 l 0,0 c 1.54782,-3.65048 3.5345,-7.701199 6.115043,-11.403899 l 0,0 c 2.306787,-3.309901 5.16214,-6.453623 8.769077,-8.856623 l 10e-6,-6e-6 c 3.243203,-2.196594 7.265228,-3.844547 11.561148,-4.0688 l 1e-6,0 c 2.017421,-0.105411 4.096593,0.116989 6.093021,0.697238 l 6e-6,10e-7 c 1.954021,0.567924 3.812321,1.474241 5.432042,2.729496 l 0,0 c 1.546482,1.19688 2.861541,2.710227 3.863086,4.423922 l 0,0 c 1.004406,1.718591 1.682321,3.61956 1.969469,5.574394 l 0,0 c 0.291493,1.984409 0.178931,4.013451 -0.287925,5.943595 v 0 c -0.480307,1.985752 -1.329677,3.845202 -2.478786,5.453862 l -1e-6,0 c -1.200521,1.68063 -2.718188,3.07543 -4.386355,4.13887 v 0 c -1.782387,1.13624 -3.715115,1.88264 -5.643511,2.24314 l -5e-6,0 c -2.122293,0.39676 -4.21665,0.32475 -6.115409,-0.0556 v 0 c -4.750113,-0.95149 -8.028647,-3.78777 -9.713395,-6.1609 -1.684747,-2.37313 -2.069069,-4.22663 -2.103638,-4.21696 v 0 c -0.03757,0.0105 0.543541,2.2876 1.852823,4.28934 1.437854,2.19832 3.153348,3.4995 4.021162,4.1101 -0.878479,-0.58469 -2.616526,-1.88027 -4.096154,-4.0601 -1.351649,-1.9913 -1.994307,-4.27885 -2.031884,-4.26838 v 0 c -0.03458,0.01 0.235142,1.92424 1.870733,4.47451 1.635592,2.55027 4.947951,5.6871 9.967564,6.88868 l 0,0 c 2.00359,0.47962 4.249855,0.64265 6.565619,0.29415 l 6e-6,0 c 2.105832,-0.31691 4.237635,-1.05437 6.227827,-2.22926 v 0 c 1.86133,-1.09882 3.590127,-2.57735 4.990467,-4.4055 l 10e-7,0 c 1.341165,-1.75091 2.359075,-3.79536 2.969891,-6.002274 v 0 c 0.593335,-2.143754 0.799817,-4.434356 0.539396,-6.71526 l 0,0 c -0.256657,-2.247931 -0.96259,-4.448733 -2.05244,-6.457036 v 0 c -1.086159,-2.001503 -2.551146,-3.806831 -4.321889,-5.268201 l 0,0 c -1.853738,-1.528257 -3.985837,-2.645252 -6.224202,-3.368722 l -8e-6,-2e-6 C 77.75441,77.440243 75.362649,77.112489 73.024235,77.16575 l -10e-7,0 c -4.966962,0.11295 -9.574255,1.868167 -13.287231,4.230263 l -1.1e-5,8e-6 c -4.089468,2.640471 -7.284979,6.08301 -9.820062,9.612915 l 0,0 c -2.831649,3.942853 -4.990902,8.213939 -6.645341,11.969364 l 0,0 c -4.925812,11.30662 -7.37347,22.23904 -8.433698,31.74539 v 0 c -1.370917,12.29208 -0.620922,23.97754 1.529484,34.49408 l 0,0 c 1.666309,8.35324 4.154131,15.79037 6.86403,22.153 l 0,0 c 5.804429,13.46991 14.264408,25.7766 24.672152,36.16864 l 8e-6,1e-5 c 9.933533,9.91854 22.148475,18.58802 36.230325,24.61476 l 1e-5,0 c 1.01845,0.43562 2.04687,0.85694 3.08495,1.26365 v 0 c 16.32822,6.39716 33.44888,8.56251 49.43355,7.47286 h 0 c 17.98333,-1.22589 35.52688,-6.61795 50.69024,-16.01434 l 0,0 c 9.31995,-5.7759 18.16028,-13.29856 25.6679,-22.44683 v 0 c 6.74798,-8.22263 12.76205,-18.19083 16.68802,-29.69228 l 0,-1e-5 c 0.6443,-1.83956 1.36364,-4.05688 1.9056,-6.3973 v 0 c 0.30275,-1.30742 0.62319,-2.84233 0.84331,-4.49861 l 0,0 c 0.43069,-3.24467 0.5529,-7.63434 -1.01419,-12.02841 l 0,-10e-6 c -1.10094,-3.22751 -3.0528,-6.36753 -5.79787,-9.07363 l 0,0 c -2.52172,-2.48738 -5.57997,-4.49303 -8.95958,-5.97895 l 0,0 c -3.31663,-1.26769 -6.73775,-1.98967 -10.14005,-2.35926 l -10e-6,-1e-5 c -3.37136,-0.36623 -6.72598,-0.38655 -9.93451,-0.25092 l 0,0 c -6.45575,0.27176 -12.41095,1.0866 -17.72666,1.20053 h 0 c -2.73763,0.0578 -5.28928,-0.0583 -7.65682,-0.41188 v 0 c -2.43973,-0.36439 -4.56786,-0.96422 -6.43403,-1.80186 l 0,0 c -1.70447,-0.778 -3.36617,-1.82005 -5.02897,-3.05236 v 0 c -1.77956,-1.31884 -3.52403,-2.82862 -5.26319,-4.39343 l 0,0 c -4.42188,-3.97849 -8.08473,-7.51284 -12.83784,-10.4525 l 0,0 c -4.33281,-2.54806 -8.01246,-3.39343 -10.141,-2.96669 v 0 c -2.51401,0.50402 -4.18253,3.21287 -4.93359,3.87181 z"
       style="fill:#000000;fill-rule:nonzero;stroke:none;stroke-width:0.264583px;stroke-linecap:butt;stroke-linejoin:miter;stroke-opacity:1" />
    <path
       d="m 200.02077,218.34684 0.75363,0.66328 0.67202,-0.10704 0.88578,0.76171 0.0847,-0.0972 1.16095,-1.31119 -1.47176,-1.21136 0.25736,-0.64356 -6.18025,-5.47209 0.0547,-0.36434 -0.77567,-0.68678 c -0.023,-0.77636 0.2136,-1.56525 0.66297,-2.21075 0.0319,-0.045 0.0641,-0.09 0.0977,-0.13387 l -1.57846,-2.14754 0.10775,-0.62653 c 0.28913,-0.23197 0.52741,-0.52809 0.69186,-0.85984 0.20591,-0.41567 0.29444,-0.8953 0.19923,-1.34189 -0.10451,-0.49032 -0.42963,-0.91751 -0.85658,-1.17209 -0.42695,-0.25459 -0.94845,-0.34034 -1.44771,-0.26787 -0.22865,0.0332 -0.4527,0.098 -0.68132,0.13127 -0.15979,0.0233 -0.3225,0.0309 -0.48086,0.007 -0.15839,-0.0241 -0.31267,-0.0812 -0.43836,-0.17849 -0.14025,-0.10818 -0.23976,-0.26304 -0.30236,-0.42978 -0.0626,-0.16672 -0.0899,-0.34579 -0.10231,-0.52478 -0.0405,-0.58291 0.0747,-1.17857 0.31884,-1.71694 0.41212,-0.90879 1.1675,-1.62423 1.97723,-2.20927 0.19344,-0.13973 0.39366,-0.27585 0.54812,-0.45814 0.0788,-0.0935 0.14505,-0.19752 0.19525,-0.30871 l -1.30616,-1.25975 4.30491,-8.47249 -3.56942,1.9637 -3.15486,3.56312 -1.02978,0.0936 -1.59597,5.27959 c -0.0733,0.34004 -0.13862,0.68162 -0.19576,1.02434 -0.15863,0.95137 -0.25318,1.93476 -0.0242,2.86106 0.20626,0.83447 0.67405,1.59023 1.30132,2.16716 0.0437,0.04 0.0879,0.0792 0.13291,0.11771 -0.18714,0.39535 -0.18981,0.87002 -0.007,1.25746 0.0104,0.0213 0.0209,0.043 0.0321,0.0639 -0.0125,0.0135 -0.0252,0.0269 -0.0373,0.0405 -0.17907,0.18461 -0.38459,0.34219 -0.55945,0.53078 -0.0874,0.0943 -0.16727,0.19645 -0.22808,0.30964 -0.061,0.11302 -0.10329,0.23701 -0.11336,0.36393 -1.9e-4,0.012 -10e-4,0.0241 -0.007,0.0349 -0.005,0.0116 -0.0145,0.0219 -0.0254,0.0287 -0.011,0.007 -0.0235,0.0109 -0.0361,0.013 -0.045,0.008 -0.0907,-0.006 -0.13106,-0.0262 -0.0404,-0.0204 -0.0771,-0.0469 -0.11743,-0.0669 -0.0996,-0.0496 -0.21626,-0.0572 -0.32855,-0.0473 -0.13722,0.0121 -0.27177,0.0485 -0.40436,0.0885 -0.16828,0.0508 -0.33556,0.10793 -0.5081,0.13883 -0.11204,0.0201 -0.22651,0.0289 -0.33902,0.0179 -0.1126,-0.011 -0.22333,-0.0424 -0.32009,-0.0991 -0.0124,-0.007 -0.0244,-0.0144 -0.0385,-0.0175 -0.0152,-0.004 -0.0313,-0.003 -0.0464,0.002 -0.0151,0.005 -0.0284,0.0144 -0.0399,0.0255 -0.0218,0.0231 -0.0339,0.054 -0.0391,0.0851 -0.007,0.0451 1.8e-4,0.0916 0.0162,0.13385 0.0161,0.0422 0.0409,0.0805 0.0698,0.11482 0.11425,0.13606 0.28835,0.21029 0.46495,0.23905 0.24207,0.0395 0.49296,0.002 0.73644,0.0329 0.21482,0.0275 0.42202,0.1099 0.59085,0.24268 0.16851,0.13318 0.29823,0.31641 0.36051,0.52361 0.0633,0.21068 0.057,0.43751 0.0973,0.65443 7.2e-4,0.007 0.003,0.0129 0.003,0.0186 0.11667,0.10377 0.2332,0.20779 0.35009,0.31131 1.53197,1.36578 3.05966,2.73632 4.58208,4.11275 0.1092,0.0154 0.21377,0.0578 0.3022,0.12199 0.0137,0.0104 0.0278,0.021 0.0409,0.0322 l 6.66921,6.0402 z m -6.84987,-14.59315 c -0.0178,-0.0162 -0.0355,-0.0327 -0.0523,-0.0503 -0.11768,-0.11845 -0.21712,-0.25582 -0.29122,-0.40602 0.13197,-0.21657 0.29941,-0.41192 0.49356,-0.57507 0.31312,-0.26224 0.68972,-0.4373 1.0756,-0.56279 0.0258,-0.008 0.0514,-0.0166 0.0774,-0.0245 l 0.0324,-0.1072 c -0.20499,0.0251 -0.40917,0.059 -0.61172,0.10166 -0.0867,0.0183 -0.17338,0.0383 -0.25845,0.0642 -0.1298,0.0396 -0.25577,0.0935 -0.37343,0.16251 -0.10549,0.0619 -0.20396,0.13577 -0.29611,0.21662 -0.0985,0.0864 -0.18984,0.18092 -0.2733,0.28197 -0.0243,-0.19733 -0.005,-0.40107 0.0624,-0.59018 0.0985,-0.27633 0.30119,-0.51595 0.55671,-0.66058 0.25551,-0.14467 0.56171,-0.19313 0.84409,-0.13421 0.28192,0.0589 0.53316,0.21983 0.73392,0.42375 0.26831,0.27242 0.4567,0.63443 0.47757,1.0214 0.0106,0.19726 -0.0229,0.40004 -0.11249,0.57874 -0.0809,0.1615 -0.20546,0.29975 -0.34978,0.40863 -0.2184,0.16505 -0.48428,0.26488 -0.75401,0.28335 -0.36466,-0.0326 -0.71403,-0.18712 -0.98105,-0.43238 z"
       style="fill:#000000;fill-opacity:1;stroke:#000000;stroke-width:0.0339293;stroke-linecap:butt;stroke-linejoin:miter;stroke-miterlimit:4;stroke-dasharray:none;stroke-opacity:1"
       id="path1089" />
    <path
       id="path1138"
       style="fill:#000000;fill-opacity:1;stroke:#000000;stroke-width:0.0278877;stroke-linecap:butt;stroke-linejoin:miter;stroke-miterlimit:4;stroke-dasharray:none;stroke-opacity:1"
       d="m 139.43259,193.63377 0.17264,-0.87721 0.47417,-0.3494 0.2111,-1.01992 0.0981,0.008 1.33551,0.0943 -0.37563,1.66105 0.45788,0.23951 -1.40071,7.2139 0.20163,0.19192 -0.1758,0.90539 c 0.34137,0.49528 0.8527,0.83776 1.43292,0.95968 0.0409,0.008 0.0819,0.0162 0.12329,0.0225 l -0.0139,2.30714 0.35535,0.32163 c 0.28924,-0.0351 0.57572,9.5e-4 0.83185,0.10478 0.32082,0.13017 0.59675,0.37258 0.74124,0.70823 0.15865,0.36848 0.14885,0.83433 -0.005,1.25618 -0.15336,0.42187 -0.44393,0.79759 -0.79301,1.06153 -0.15985,0.12081 -0.33129,0.21933 -0.49116,0.34013 -0.11178,0.0844 -0.21812,0.18037 -0.30737,0.29312 -0.0891,0.11294 -0.16053,0.24376 -0.19552,0.38177 -0.0391,0.15377 -0.0311,0.31131 0.006,0.45336 0.0375,0.14179 0.10165,0.26987 0.17585,0.38845 0.24159,0.38625 0.58759,0.68408 0.98884,0.86665 0.67734,0.30816 1.48318,0.28419 2.2636,0.14581 0.18642,-0.033 0.37551,-0.0725 0.55677,-0.0552 0.0926,0.009 0.18232,0.0326 0.26505,0.0705 l -0.2487,1.58859 6.60748,2.58674 -3.15823,0.99126 -3.6292,-0.2562 -0.69434,0.57904 -3.43003,-2.28415 c -0.20223,-0.16538 -0.40021,-0.33655 -0.59345,-0.51361 -0.53649,-0.49139 -1.04717,-1.04222 -1.32699,-1.75785 -0.25208,-0.64466 -0.3027,-1.40232 -0.17037,-2.14786 0.009,-0.0518 0.0193,-0.10349 0.0301,-0.15511 -0.29926,-0.13003 -0.51894,-0.42168 -0.58091,-0.77486 -0.003,-0.0197 -0.007,-0.0395 -0.009,-0.0596 -0.0143,1.3e-4 -0.0284,-0.002 -0.0422,-0.002 -0.19798,-0.004 -0.40017,0.0258 -0.59722,0.0172 -0.0986,-0.004 -0.1959,-0.0183 -0.28624,-0.0508 -0.0905,-0.0321 -0.17393,-0.0831 -0.23857,-0.15534 -0.006,-0.009 -0.0116,-0.0144 -0.0203,-0.0176 -0.008,-0.004 -0.0196,-0.005 -0.0299,-0.002 -0.01,0.003 -0.0197,0.008 -0.0288,0.0139 -0.0322,0.0229 -0.0547,0.0598 -0.0709,0.0974 -0.0164,0.0376 -0.027,0.0768 -0.0433,0.11425 -0.0401,0.0923 -0.11016,0.16954 -0.18609,0.23256 -0.0923,0.0773 -0.1942,0.13795 -0.29639,0.19527 -0.12971,0.0727 -0.26175,0.14067 -0.38505,0.2283 -0.0801,0.0569 -0.15656,0.1221 -0.22264,0.19864 -0.0662,0.0764 -0.12174,0.16448 -0.15714,0.25939 -0.005,0.013 -0.009,0.0242 -0.0162,0.0346 -0.008,0.0118 -0.018,0.0214 -0.0302,0.0274 -0.0121,0.006 -0.0246,0.008 -0.0368,0.009 -0.0243,2e-5 -0.046,-0.013 -0.0641,-0.0279 -0.0255,-0.0229 -0.0418,-0.057 -0.0511,-0.0929 -0.01,-0.0359 -0.0111,-0.0751 -0.009,-0.1144 0.01,-0.15502 0.086,-0.30866 0.18433,-0.43582 0.13505,-0.17423 0.3109,-0.30618 0.45078,-0.47594 0.1233,-0.14992 0.21604,-0.32956 0.26252,-0.51588 0.0455,-0.18675 0.0436,-0.38053 -0.012,-0.54745 -0.0564,-0.16975 -0.16456,-0.30634 -0.23853,-0.4657 -0.002,-0.005 -0.004,-0.0103 -0.005,-0.0143 0.0262,-0.13643 0.0522,-0.27299 0.0787,-0.40945 0.34295,-1.794 0.68097,-3.58828 1.01297,-5.38295 0.0619,-0.0772 0.10831,-0.16836 0.13528,-0.2625 0.005,-0.0153 0.008,-0.0301 0.011,-0.0451 l 1.44956,-7.86837 z m 2.35733,13.27987 c -0.004,0.0214 -0.007,0.0424 -0.0102,0.0635 -0.0203,0.14621 -0.02,0.29281 0.002,0.43174 0.18276,0.0525 0.37826,0.07 0.57587,0.051 0.31827,-0.0312 0.63678,-0.1556 0.93836,-0.31674 0.0202,-0.0103 0.0399,-0.0225 0.0602,-0.0327 l 0.0696,0.0466 c -0.14118,0.1112 -0.28588,0.21655 -0.43354,0.31543 -0.0633,0.0424 -0.12729,0.0835 -0.19293,0.12012 -0.10032,0.0558 -0.20467,0.10027 -0.31072,0.13038 -0.0952,0.0266 -0.19124,0.042 -0.28662,0.0489 -0.10183,0.007 -0.20299,0.005 -0.30214,-0.006 0.0752,0.13729 0.18073,0.25159 0.31011,0.32701 0.18898,0.11031 0.42704,0.13345 0.65501,0.065 0.22795,-0.0684 0.44381,-0.22796 0.59547,-0.43901 0.15138,-0.21087 0.23647,-0.46602 0.26999,-0.71658 0.0448,-0.3348 -0.002,-0.67565 -0.16617,-0.92835 -0.0837,-0.12875 -0.19787,-0.23369 -0.33645,-0.28906 -0.12518,-0.05 -0.26735,-0.0587 -0.4086,-0.0368 -0.21383,0.0328 -0.42783,0.1353 -0.60685,0.2909 -0.21577,0.24578 -0.36604,0.55755 -0.42236,0.87482 z" />
    <path
       d="m 56.122049,115.99762 -0.20064,-1.0699 -0.551072,-0.42615 -0.245337,-1.24396 -0.11401,0.01 -1.552108,0.11502 0.436551,2.02591 -0.532141,0.29212 1.627882,8.79851 -0.234331,0.23408 0.204312,1.10427 c -0.396734,0.60407 -0.990994,1.02178 -1.665316,1.17048 -0.04753,0.01 -0.09518,0.0198 -0.143286,0.0274 l 0.01615,2.81393 -0.412982,0.39228 c -0.33615,-0.0428 -0.669092,0.001 -0.966763,0.12779 -0.372851,0.15877 -0.693533,0.45442 -0.861457,0.8638 -0.18438,0.44942 -0.172991,1.0176 0.0058,1.53212 0.178233,0.51453 0.515929,0.97279 0.921624,1.2947 0.185775,0.14735 0.385019,0.26751 0.570818,0.41485 0.129909,0.10293 0.253495,0.21999 0.35722,0.3575 0.103551,0.13775 0.186565,0.29731 0.22723,0.46563 0.04544,0.18755 0.03614,0.37969 -0.007,0.55295 -0.04358,0.17293 -0.118136,0.32915 -0.20437,0.47377 -0.280772,0.4711 -0.682887,0.83435 -1.149213,1.05702 -0.787194,0.37585 -1.723728,0.34662 -2.630719,0.17784 -0.216655,-0.0403 -0.436412,-0.0884 -0.647069,-0.0673 -0.107618,0.011 -0.21189,0.0398 -0.308037,0.086 l 0.289035,1.93754 -7.679105,3.15495 3.670443,1.209 4.217797,-0.31248 0.806951,0.70623 3.986324,-2.78588 c 0.235029,-0.20171 0.465118,-0.41048 0.689698,-0.62643 0.6235,-0.59933 1.217004,-1.27116 1.542206,-2.14398 0.292963,-0.78627 0.351793,-1.71036 0.198001,-2.61966 -0.01046,-0.0632 -0.02243,-0.12623 -0.03498,-0.18919 0.347795,-0.15859 0.603103,-0.5143 0.675124,-0.94506 0.0035,-0.024 0.0081,-0.0482 0.01046,-0.0727 0.01662,1.6e-4 0.03301,-0.002 0.04904,-0.002 0.23009,-0.005 0.465071,0.0315 0.69408,0.021 0.114591,-0.005 0.227671,-0.0223 0.332663,-0.062 0.105178,-0.0392 0.202139,-0.10136 0.277262,-0.18947 0.007,-0.011 0.01348,-0.0176 0.02359,-0.0215 0.0093,-0.005 0.02278,-0.006 0.03475,-0.002 0.01162,0.004 0.02289,0.01 0.03347,0.0169 0.03742,0.0279 0.06357,0.0729 0.0824,0.1188 0.01906,0.0459 0.03138,0.0937 0.05032,0.13934 0.0466,0.11258 0.128026,0.20679 0.216271,0.28365 0.107269,0.0943 0.225696,0.16825 0.344459,0.23816 0.150747,0.0887 0.304202,0.17157 0.447499,0.27845 0.09309,0.0694 0.181952,0.14892 0.258749,0.24227 0.07694,0.0932 0.141484,0.20061 0.182625,0.31637 0.0058,0.0159 0.01046,0.0295 0.01883,0.0422 0.0093,0.0144 0.02092,0.0261 0.0351,0.0334 0.01406,0.007 0.02859,0.01 0.04277,0.011 0.02824,2e-5 0.05346,-0.0159 0.0745,-0.034 0.02964,-0.0279 0.04858,-0.0695 0.05939,-0.11331 0.01162,-0.0438 0.0129,-0.0916 0.01046,-0.13953 -0.01162,-0.18907 -0.09995,-0.37646 -0.214225,-0.53155 -0.156953,-0.2125 -0.361323,-0.37344 -0.523889,-0.58049 -0.143297,-0.18285 -0.251078,-0.40195 -0.305097,-0.62919 -0.05288,-0.22777 -0.05067,-0.46412 0.01395,-0.66771 0.06555,-0.20703 0.191249,-0.37363 0.277215,-0.56799 0.0023,-0.006 0.0046,-0.0126 0.0058,-0.0174 -0.03045,-0.1664 -0.06067,-0.33296 -0.09146,-0.49939 -0.398571,-2.18807 -0.791412,-4.37649 -1.177257,-6.56537 -0.07194,-0.0942 -0.125876,-0.20535 -0.15722,-0.32016 -0.0058,-0.0187 -0.0093,-0.0367 -0.01278,-0.055 l -1.684655,-9.59674 z m -2.73965,16.19693 c 0.0046,0.0261 0.0081,0.0517 0.01185,0.0774 0.02359,0.17832 0.02324,0.35712 -0.0023,0.52657 -0.2124,0.064 -0.439607,0.0854 -0.669266,0.0622 -0.369888,-0.038 -0.740056,-0.18977 -1.090547,-0.38631 -0.02348,-0.0126 -0.04637,-0.0274 -0.06996,-0.0399 l -0.08089,0.0568 c 0.164077,0.13563 0.332245,0.26412 0.503853,0.38472 0.07357,0.0517 0.147934,0.10184 0.22422,0.14651 0.11659,0.068 0.237864,0.12229 0.361114,0.15901 0.110639,0.0325 0.222256,0.0512 0.333105,0.0597 0.118345,0.009 0.235911,0.006 0.351142,-0.007 -0.0874,0.16745 -0.210042,0.30685 -0.360405,0.39884 -0.219629,0.13454 -0.496299,0.16276 -0.761242,0.0793 -0.26492,-0.0834 -0.515789,-0.27804 -0.692045,-0.53545 -0.175932,-0.25719 -0.274822,-0.56838 -0.313778,-0.87398 -0.05207,-0.40834 0.0023,-0.82406 0.19312,-1.13227 0.09727,-0.15703 0.229961,-0.28502 0.391016,-0.35256 0.145483,-0.061 0.31071,-0.0716 0.474869,-0.0449 0.248509,0.04 0.497217,0.16502 0.705271,0.3548 0.250764,0.29977 0.425405,0.68002 0.49086,1.06698 z"
       style="fill:#000000;fill-opacity:1;stroke:#000000;stroke-width:0.0332024;stroke-linecap:butt;stroke-linejoin:miter;stroke-miterlimit:4;stroke-dasharray:none;stroke-opacity:1"
       id="path1149" />
    <path
       id="path1160"
       style="fill:#000000;fill-opacity:1;stroke:#000000;stroke-width:0.0332024;stroke-linecap:butt;stroke-linejoin:miter;stroke-miterlimit:4;stroke-dasharray:none;stroke-opacity:1"
       d="m 88.780785,224.59422 0.211772,1.06775 0.555476,0.42039 0.258275,1.24134 0.113898,-0.0112 1.550828,-0.13118 -0.457616,-2.02125 0.529065,-0.29765 -1.719401,-8.78108 0.231878,-0.23651 -0.215798,-1.10208 c 0.390424,-0.60817 0.980302,-1.03204 1.653036,-1.18776 0.04746,-0.0105 0.09501,-0.0208 0.142995,-0.0289 l -0.04545,-2.81361 0.408877,-0.39656 c 0.336587,0.0393 0.669046,-0.008 0.965379,-0.13785 0.371177,-0.16264 0.688771,-0.46161 0.852418,-0.87272 0.179696,-0.45132 0.162354,-1.01935 -0.02175,-1.53198 -0.183588,-0.51264 -0.526034,-0.96736 -0.935061,-1.28503 -0.187293,-0.14541 -0.387781,-0.26349 -0.575105,-0.40889 -0.13097,-0.10157 -0.25577,-0.21733 -0.360922,-0.35376 -0.104978,-0.13666 -0.189649,-0.29535 -0.232067,-0.46324 -0.04743,-0.18707 -0.04005,-0.37929 0.0013,-0.55299 0.04179,-0.17337 0.114709,-0.33036 0.199424,-0.47587 0.275854,-0.474 0.674162,-0.84141 1.138144,-1.06893 0.783238,-0.38402 1.720025,-0.36455 2.628726,-0.20522 0.217064,0.038 0.437309,0.0839 0.647736,0.0606 0.107497,-0.0121 0.211459,-0.042 0.307125,-0.0892 l -0.30919,-1.93443 7.645833,-3.23473 -3.68284,-1.17072 -4.214309,0.35638 -0.814256,-0.69779 -3.957105,2.82723 c -0.232913,0.20415 -0.460817,0.4153 -0.683132,0.63358 -0.617233,0.60579 -1.203702,1.28376 -1.519801,2.15992 -0.284762,0.78928 -0.333966,1.71393 -0.170662,2.62159 0.01116,0.0631 0.02374,0.12599 0.03692,0.18881 -0.34612,0.1622 -0.597716,0.52055 -0.665249,0.95204 -0.0032,0.024 -0.0075,0.0483 -0.0097,0.0728 -0.01657,-2e-5 -0.03296,0.002 -0.04904,0.003 -0.23002,0.007 -0.465368,-0.0267 -0.694257,-0.0138 -0.114532,0.006 -0.227424,0.0247 -0.332,0.0655 -0.104761,0.0403 -0.201076,0.10346 -0.275268,0.19235 -0.007,0.0111 -0.01328,0.0177 -0.0234,0.0217 -0.0095,0.005 -0.02267,0.006 -0.03476,0.002 -0.01169,-0.004 -0.023,-0.01 -0.03362,-0.0165 -0.03773,-0.0275 -0.06434,-0.0722 -0.08363,-0.11793 -0.01949,-0.0457 -0.03237,-0.0934 -0.05178,-0.13881 -0.04781,-0.11209 -0.130171,-0.20545 -0.219207,-0.28138 -0.108244,-0.0932 -0.227442,-0.16589 -0.346924,-0.23456 -0.151662,-0.0871 -0.305974,-0.1684 -0.450371,-0.27378 -0.09381,-0.0684 -0.183489,-0.14702 -0.261262,-0.23956 -0.07795,-0.0924 -0.143558,-0.19913 -0.185901,-0.31445 -0.0056,-0.0158 -0.01075,-0.0294 -0.01933,-0.042 -0.0094,-0.0143 -0.02121,-0.0259 -0.03542,-0.033 -0.01413,-0.007 -0.02873,-0.01 -0.04291,-0.0106 -0.02825,3.1e-4 -0.05324,0.0165 -0.07411,0.0348 -0.02931,0.0282 -0.04783,0.07 -0.0582,0.11392 -0.01108,0.0439 -0.01147,0.0918 -0.0089,0.13964 0.01361,0.18895 0.10387,0.3754 0.219753,0.5293 0.159157,0.21085 0.36519,0.36965 0.529906,0.575 0.145186,0.18135 0.255243,0.39931 0.311625,0.62598 0.05528,0.22721 0.05548,0.46356 -0.007,0.66781 -0.06343,0.2077 -0.187348,0.37561 -0.271294,0.57085 -0.0026,0.006 -0.0042,0.0127 -0.0056,0.0175 0.03219,0.16607 0.06417,0.33231 0.09666,0.49841 0.421332,2.1838 0.836933,4.36801 1.245555,6.55275 0.07293,0.0935 0.128002,0.20403 0.160541,0.31851 0.0063,0.0187 0.0097,0.0366 0.01332,0.0549 l 1.784493,9.57868 z m 2.570858,-16.22458 c -0.0046,-0.026 -0.0086,-0.0516 -0.01266,-0.0773 -0.02546,-0.17806 -0.02696,-0.35685 -0.0032,-0.52656 0.211721,-0.0662 0.438691,-0.09 0.668582,-0.0692 0.370268,0.0342 0.741991,0.18206 1.094514,0.37494 0.02357,0.0123 0.04663,0.0269 0.0704,0.0392 l 0.08033,-0.0576 c -0.165476,-0.13392 -0.334979,-0.26065 -0.507833,-0.37946 -0.07414,-0.0509 -0.148982,-0.10029 -0.225729,-0.14416 -0.117296,-0.0668 -0.239123,-0.11981 -0.362752,-0.15524 -0.110971,-0.0314 -0.222773,-0.0489 -0.333707,-0.0562 -0.118434,-0.008 -0.235961,-0.004 -0.35105,0.0106 0.08562,-0.16836 0.206839,-0.30902 0.356227,-0.40257 0.21822,-0.13682 0.494582,-0.16792 0.760376,-0.0872 0.265781,0.0806 0.518663,0.27265 0.697589,0.52821 0.178596,0.25534 0.280718,0.56549 0.322863,0.87067 0.05631,0.40777 0.0063,0.82404 -0.181279,1.13422 -0.09561,0.15804 -0.226979,0.2874 -0.387319,0.35661 -0.14484,0.0625 -0.309948,0.0748 -0.474379,0.0498 -0.248907,-0.0374 -0.498904,-0.15983 -0.70893,-0.34744 -0.253867,-0.29714 -0.432455,-0.67555 -0.501943,-1.06181 z" />
    <text
       id="text1164"
       y="73.83181"
       x="231.34955"
       style="font-style:normal;font-weight:normal;font-size:10.5833px;line-height:1.25;font-family:sans-serif;fill:#000000;fill-opacity:1;stroke:none;stroke-width:0.264583"
       xml:space="preserve"><tspan
         style="stroke-width:0.264583"
         y="73.83181"
         x="231.34955"
         id="tspan1162"
         sodipodi:role="line" /></text>
    <circle
       r="140.40393"
       style="display:inline;fill:none;fill-opacity:1;stroke:#ececec;stroke-width:4.6;stroke-miterlimit:14;stroke-dasharray:none;stroke-opacity:1"
       id="circle1539"
       cx="147.69392"
       cy="147.13448" />
    <g
       id="g2993"
       inkscape:transform-center-x="-3.0677212"
       inkscape:transform-center-y="100.31251"
       transform="rotate(4.9791464,147.69673,146.74133)">
      <path
         transform="translate(92.9513,-55.139)"
         sodipodi:type="star"
         style="fill:#aaa9ad;fill-opacity:1;stroke:#ffffff;stroke-width:0.897383;stroke-linecap:round;stroke-miterlimit:4;stroke-dasharray:none;stroke-opacity:1"
         id="path4651"
         sodipodi:sides="5"
         sodipodi:cx="158.11002"
         sodipodi:cy="270.65302"
         sodipodi:r1="8.2205896"
         sodipodi:r2="4.1102953"
         sodipodi:arg1="0.95548018"
         sodipodi:arg2="1.5837987"
         inkscape:flatsided="false"
         inkscape:rounded="0"
         inkscape:randomized="0"
         d="m 162.85508,277.36587 -4.79851,-2.60291 -4.86456,2.47726 0.9927,-5.36799 -3.85925,-3.86095 5.41202,-0.71469 2.47942,-4.86347 2.35212,4.92629 5.39161,0.85517 -3.95834,3.75931 z"
         inkscape:transform-center-x="-0.033021224"
         inkscape:transform-center-y="-0.75351728" />
      <path
         transform="translate(73.1906,-31.8331)"
         sodipodi:type="star"
         style="fill:none;stroke:#ffffff;stroke-width:0.897383;stroke-linecap:round;stroke-miterlimit:4;stroke-dasharray:none;stroke-opacity:1"
         id="path1468"
         sodipodi:sides="5"
         sodipodi:cx="158.11002"
         sodipodi:cy="270.65302"
         sodipodi:r1="8.2205896"
         sodipodi:r2="4.1102953"
         sodipodi:arg1="0.95548018"
         sodipodi:arg2="1.5837987"
         inkscape:flatsided="false"
         inkscape:rounded="0"
         inkscape:randomized="0"
         d="m 162.85508,277.36587 -4.79851,-2.60291 -4.86456,2.47726 0.9927,-5.36799 -3.85925,-3.86095 5.41202,-0.71469 2.47942,-4.86347 2.35212,4.92629 5.39161,0.85517 -3.95834,3.75931 z"
         inkscape:transform-center-x="-0.033021224"
         inkscape:transform-center-y="-0.75351728" />
      <path
         transform="translate(48.314,-14.0927)"
         sodipodi:type="star"
         style="fill:none;stroke:#ffffff;stroke-width:0.897383;stroke-linecap:round;stroke-miterlimit:4;stroke-dasharray:none;stroke-opacity:1"
         id="path4252"
         sodipodi:sides="5"
         sodipodi:cx="158.11002"
         sodipodi:cy="270.65302"
         sodipodi:r1="8.2205896"
         sodipodi:r2="4.1102953"
         sodipodi:arg1="0.95548018"
         sodipodi:arg2="1.5837987"
         inkscape:flatsided="false"
         inkscape:rounded="0"
         inkscape:randomized="0"
         d="m 162.85508,277.36587 -4.79851,-2.60291 -4.86456,2.47726 0.9927,-5.36799 -3.85925,-3.86095 5.41202,-0.71469 2.47942,-4.86347 2.35212,4.92629 5.39161,0.85517 -3.95834,3.75931 z"
         inkscape:transform-center-x="-0.033021224"
         inkscape:transform-center-y="-0.75351728" />
      <path
         transform="translate(19.8489,-2.99045)"
         sodipodi:type="star"
         style="fill:none;stroke:#ffffff;stroke-width:0.897383;stroke-linecap:round;stroke-miterlimit:4;stroke-dasharray:none;stroke-opacity:1"
         id="path1877"
         sodipodi:sides="5"
         sodipodi:cx="158.11002"
         sodipodi:cy="270.65302"
         sodipodi:r1="8.2205896"
         sodipodi:r2="4.1102953"
         sodipodi:arg1="0.95548018"
         sodipodi:arg2="1.5837987"
         inkscape:flatsided="false"
         inkscape:rounded="0"
         inkscape:randomized="0"
         d="m 162.85508,277.36587 -4.79851,-2.60291 -4.86456,2.47726 0.9927,-5.36799 -3.85925,-3.86095 5.41202,-0.71469 2.47942,-4.86347 2.35212,4.92629 5.39161,0.85517 -3.95834,3.75931 z"
         inkscape:transform-center-x="-0.033021224"
         inkscape:transform-center-y="-0.75351728" />
      <path
         transform="translate(-10.4713,0.784687)"
         sodipodi:type="star"
         style="fill:none;stroke:#ffffff;stroke-width:0.897383;stroke-linecap:round;stroke-miterlimit:4;stroke-dasharray:none;stroke-opacity:1"
         id="path1452"
         sodipodi:sides="5"
         sodipodi:cx="158.11002"
         sodipodi:cy="270.65302"
         sodipodi:r1="8.2205896"
         sodipodi:r2="4.1102953"
         sodipodi:arg1="0.95548018"
         sodipodi:arg2="1.5837987"
         inkscape:flatsided="false"
         inkscape:rounded="0"
         inkscape:randomized="0"
         d="m 162.85508,277.36587 -4.79851,-2.60291 -4.86456,2.47726 0.9927,-5.36799 -3.85925,-3.86095 5.41202,-0.71469 2.47942,-4.86347 2.35212,4.92629 5.39161,0.85517 -3.95834,3.75931 z"
         inkscape:transform-center-x="-0.033021224"
         inkscape:transform-center-y="-0.75351728" />
      <path
         transform="translate(-40.7927,-2.98997)"
         sodipodi:type="star"
         style="fill:none;stroke:#ffffff;stroke-width:0.897383;stroke-linecap:round;stroke-miterlimit:4;stroke-dasharray:none;stroke-opacity:1"
         id="path7328"
         sodipodi:sides="5"
         sodipodi:cx="158.11002"
         sodipodi:cy="270.65302"
         sodipodi:r1="8.2205896"
         sodipodi:r2="4.1102953"
         sodipodi:arg1="0.95548018"
         sodipodi:arg2="1.5837987"
         inkscape:flatsided="false"
         inkscape:rounded="0"
         inkscape:randomized="0"
         d="m 162.85508,277.36587 -4.79851,-2.60291 -4.86456,2.47726 0.9927,-5.36799 -3.85925,-3.86095 5.41202,-0.71469 2.47942,-4.86347 2.35212,4.92629 5.39161,0.85517 -3.95834,3.75931 z"
         inkscape:transform-center-x="-0.033021224"
         inkscape:transform-center-y="-0.75351728" />
      <path
         transform="translate(-69.2522,-14.1115)"
         sodipodi:type="star"
         style="fill:none;stroke:#ffffff;stroke-width:0.897383;stroke-linecap:round;stroke-miterlimit:4;stroke-dasharray:none;stroke-opacity:1"
         id="path9632"
         sodipodi:sides="5"
         sodipodi:cx="158.11002"
         sodipodi:cy="270.65302"
         sodipodi:r1="8.2205896"
         sodipodi:r2="4.1102953"
         sodipodi:arg1="0.95548018"
         sodipodi:arg2="1.5837987"
         inkscape:flatsided="false"
         inkscape:rounded="0"
         inkscape:randomized="0"
         d="m 162.85508,277.36587 -4.79851,-2.60291 -4.86456,2.47726 0.9927,-5.36799 -3.85925,-3.86095 5.41202,-0.71469 2.47942,-4.86347 2.35212,4.92629 5.39161,0.85517 -3.95834,3.75931 z"
         inkscape:transform-center-x="-0.033021224"
         inkscape:transform-center-y="-0.75351728" />
      <path
         transform="translate(-94.1167,-31.8678)"
         sodipodi:type="star"
         style="fill:none;stroke:#ffffff;stroke-width:0.897383;stroke-linecap:round;stroke-miterlimit:4;stroke-dasharray:none;stroke-opacity:1"
         id="path8921"
         sodipodi:sides="5"
         sodipodi:cx="158.11002"
         sodipodi:cy="270.65302"
         sodipodi:r1="8.2205896"
         sodipodi:r2="4.1102953"
         sodipodi:arg1="0.95548018"
         sodipodi:arg2="1.5837987"
         inkscape:flatsided="false"
         inkscape:rounded="0"
         inkscape:randomized="0"
         d="m 162.85508,277.36587 -4.79851,-2.60291 -4.86456,2.47726 0.9927,-5.36799 -3.85925,-3.86095 5.41202,-0.71469 2.47942,-4.86347 2.35212,4.92629 5.39161,0.85517 -3.95834,3.75931 z"
         inkscape:transform-center-x="-0.033021224"
         inkscape:transform-center-y="-0.75351728" />
      <path
         transform="translate(73.1902,-31.8331)"
         sodipodi:type="star"
         style="fill:#aaa9ad;fill-opacity:1;stroke:#ffffff;stroke-width:0.897383;stroke-linecap:round;stroke-miterlimit:4;stroke-dasharray:none;stroke-opacity:1"
         id="path6610"
         sodipodi:sides="5"
         sodipodi:cx="158.11002"
         sodipodi:cy="270.65302"
         sodipodi:r1="8.2205896"
         sodipodi:r2="4.1102953"
         sodipodi:arg1="0.95548018"
         sodipodi:arg2="1.5837987"
         inkscape:flatsided="false"
         inkscape:rounded="0"
         inkscape:randomized="0"
         d="m 162.85508,277.36587 -4.79851,-2.60291 -4.86456,2.47726 0.9927,-5.36799 -3.85925,-3.86095 5.41202,-0.71469 2.47942,-4.86347 2.35212,4.92629 5.39161,0.85517 -3.95834,3.75931 z"
         inkscape:transform-center-x="-0.033021224"
         inkscape:transform-center-y="-0.75351728" />
      <path
         transform="translate(48.3137,-14.0928)"
         sodipodi:type="star"
         style="fill:#aaa9ad;fill-opacity:1;stroke:#ffffff;stroke-width:0.897383;stroke-linecap:round;stroke-miterlimit:4;stroke-dasharray:none;stroke-opacity:1"
         id="path9116"
         sodipodi:sides="5"
         sodipodi:cx="158.11002"
         sodipodi:cy="270.65302"
         sodipodi:r1="8.2205896"
         sodipodi:r2="4.1102953"
         sodipodi:arg1="0.95548018"
         sodipodi:arg2="1.5837987"
         inkscape:flatsided="false"
         inkscape:rounded="0"
         inkscape:randomized="0"
         d="m 162.85508,277.36587 -4.79851,-2.60291 -4.86456,2.47726 0.9927,-5.36799 -3.85925,-3.86095 5.41202,-0.71469 2.47942,-4.86347 2.35212,4.92629 5.39161,0.85517 -3.95834,3.75931 z"
         inkscape:transform-center-x="-0.033021224"
         inkscape:transform-center-y="-0.75351728" />
      <path
         transform="translate(19.8485,-2.99065)"
         sodipodi:type="star"
         style="fill:#aaa9ad;fill-opacity:1;stroke:#ffffff;stroke-width:0.897383;stroke-linecap:round;stroke-miterlimit:4;stroke-dasharray:none;stroke-opacity:1"
         id="path9620"
         sodipodi:sides="5"
         sodipodi:cx="158.11002"
         sodipodi:cy="270.65302"
         sodipodi:r1="8.2205896"
         sodipodi:r2="4.1102953"
         sodipodi:arg1="0.95548018"
         sodipodi:arg2="1.5837987"
         inkscape:flatsided="false"
         inkscape:rounded="0"
         inkscape:randomized="0"
         d="m 162.85508,277.36587 -4.79851,-2.60291 -4.86456,2.47726 0.9927,-5.36799 -3.85925,-3.86095 5.41202,-0.71469 2.47942,-4.86347 2.35212,4.92629 5.39161,0.85517 -3.95834,3.75931 z"
         inkscape:transform-center-x="-0.033021224"
         inkscape:transform-center-y="-0.75351728" />
      <path
         transform="translate(-10.4717,0.784398)"
         sodipodi:type="star"
         style="fill:#aaa9ad;fill-opacity:1;stroke:#ffffff;stroke-width:0.897383;stroke-linecap:round;stroke-miterlimit:4;stroke-dasharray:none;stroke-opacity:1"
         id="path2913"
         sodipodi:sides="5"
         sodipodi:cx="158.11002"
         sodipodi:cy="270.65302"
         sodipodi:r1="8.2205896"
         sodipodi:r2="4.1102953"
         sodipodi:arg1="0.95548018"
         sodipodi:arg2="1.5837987"
         inkscape:flatsided="false"
         inkscape:rounded="0"
         inkscape:randomized="0"
         d="m 162.85508,277.36587 -4.79851,-2.60291 -4.86456,2.47726 0.9927,-5.36799 -3.85925,-3.86095 5.41202,-0.71469 2.47942,-4.86347 2.35212,4.92629 5.39161,0.85517 -3.95834,3.75931 z"
         inkscape:transform-center-x="-0.033021224"
         inkscape:transform-center-y="-0.75351728" />
      <path
         transform="translate(-40.7932,-2.99022)"
         sodipodi:type="star"
         style="fill:#aaa9ad;fill-opacity:1;stroke:#ffffff;stroke-width:0.897383;stroke-linecap:round;stroke-miterlimit:4;stroke-dasharray:none;stroke-opacity:1"
         id="path9145"
         sodipodi:sides="5"
         sodipodi:cx="158.11002"
         sodipodi:cy="270.65302"
         sodipodi:r1="8.2205896"
         sodipodi:r2="4.1102953"
         sodipodi:arg1="0.95548018"
         sodipodi:arg2="1.5837987"
         inkscape:flatsided="false"
         inkscape:rounded="0"
         inkscape:randomized="0"
         d="m 162.85508,277.36587 -4.79851,-2.60291 -4.86456,2.47726 0.9927,-5.36799 -3.85925,-3.86095 5.41202,-0.71469 2.47942,-4.86347 2.35212,4.92629 5.39161,0.85517 -3.95834,3.75931 z"
         inkscape:transform-center-x="-0.033021224"
         inkscape:transform-center-y="-0.75351728" />
      <path
         transform="translate(-69.2527,-14.1117)"
         sodipodi:type="star"
         style="fill:#aaa9ad;fill-opacity:1;stroke:#ffffff;stroke-width:0.897383;stroke-linecap:round;stroke-miterlimit:4;stroke-dasharray:none;stroke-opacity:1"
         id="path7982"
         sodipodi:sides="5"
         sodipodi:cx="158.11002"
         sodipodi:cy="270.65302"
         sodipodi:r1="8.2205896"
         sodipodi:r2="4.1102953"
         sodipodi:arg1="0.95548018"
         sodipodi:arg2="1.5837987"
         inkscape:flatsided="false"
         inkscape:rounded="0"
         inkscape:randomized="0"
         d="m 162.85508,277.36587 -4.79851,-2.60291 -4.86456,2.47726 0.9927,-5.36799 -3.85925,-3.86095 5.41202,-0.71469 2.47942,-4.86347 2.35212,4.92629 5.39161,0.85517 -3.95834,3.75931 z"
         inkscape:transform-center-x="-0.033021224"
         inkscape:transform-center-y="-0.75351728" />
      <path
         transform="translate(-94.1172,-31.868)"
         sodipodi:type="star"
         style="fill:#aaa9ad;fill-opacity:1;stroke:#ffffff;stroke-width:0.897383;stroke-linecap:round;stroke-miterlimit:4;stroke-dasharray:none;stroke-opacity:1"
         id="path1384"
         sodipodi:sides="5"
         sodipodi:cx="158.11002"
         sodipodi:cy="270.65302"
         sodipodi:r1="8.2205896"
         sodipodi:r2="4.1102953"
         sodipodi:arg1="0.95548018"
         sodipodi:arg2="1.5837987"
         inkscape:flatsided="false"
         inkscape:rounded="0"
         inkscape:randomized="0"
         d="m 162.85508,277.36587 -4.79851,-2.60291 -4.86456,2.47726 0.9927,-5.36799 -3.85925,-3.86095 5.41202,-0.71469 2.47942,-4.86347 2.35212,4.92629 5.39161,0.85517 -3.95834,3.75931 z"
         inkscape:transform-center-x="-0.033021224"
         inkscape:transform-center-y="-0.75351728" />
    </g>
    <g
       transform="rotate(4.9791464,2278.8474,1965.548)"
       inkscape:transform-center-y="100.31251"
       inkscape:transform-center-x="-3.0677212"
       id="g3229">
      <path
         inkscape:transform-center-y="-0.75351728"
         inkscape:transform-center-x="-0.033021224"
         d="m 162.85508,277.36587 -4.79851,-2.60291 -4.86456,2.47726 0.9927,-5.36799 -3.85925,-3.86095 5.41202,-0.71469 2.47942,-4.86347 2.35212,4.92629 5.39161,0.85517 -3.95834,3.75931 z"
         inkscape:randomized="0"
         inkscape:rounded="0"
         inkscape:flatsided="false"
         sodipodi:arg2="1.5837987"
         sodipodi:arg1="0.95548018"
         sodipodi:r2="4.1102953"
         sodipodi:r1="8.2205896"
         sodipodi:cy="270.65302"
         sodipodi:cx="158.11002"
         sodipodi:sides="5"
         id="path3213"
         style="fill:#aaa9ad;fill-opacity:1;stroke:#ffffff;stroke-width:0.897;stroke-linecap:round;stroke-miterlimit:4;stroke-dasharray:none;stroke-opacity:1"
         sodipodi:type="star"
         transform="translate(-94.1167,-31.8678)" />
    </g>
    <g
       id="g3495"
       inkscape:transform-center-x="-3.0677212"
       inkscape:transform-center-y="100.31251"
       transform="rotate(4.9791464,2080.1293,2202.1959)">
      <path
         transform="translate(-94.1167,-31.8678)"
         sodipodi:type="star"
         style="fill:#aaa9ad;fill-opacity:1;stroke:#ffffff;stroke-width:0.897;stroke-linecap:round;stroke-miterlimit:4;stroke-dasharray:none;stroke-opacity:1"
         id="path3493"
         sodipodi:sides="5"
         sodipodi:cx="158.11002"
         sodipodi:cy="270.65302"
         sodipodi:r1="8.2205896"
         sodipodi:r2="4.1102953"
         sodipodi:arg1="0.95548018"
         sodipodi:arg2="1.5837987"
         inkscape:flatsided="false"
         inkscape:rounded="0"
         inkscape:randomized="0"
         d="m 162.85508,277.36587 -4.79851,-2.60291 -4.86456,2.47726 0.9927,-5.36799 -3.85925,-3.86095 5.41202,-0.71469 2.47942,-4.86347 2.35212,4.92629 5.39161,0.85517 -3.95834,3.75931 z"
         inkscape:transform-center-x="-0.033021224"
         inkscape:transform-center-y="-0.75351728" />
    </g>
    <g
       id="g3499"
       inkscape:transform-center-x="-3.0677212"
       inkscape:transform-center-y="100.31251"
       transform="rotate(4.9791464,2089.1987,138.3298)">
      <path
         transform="translate(-94.1167,-31.8678)"
         sodipodi:type="star"
         style="fill:#aaa9ad;fill-opacity:1;stroke:#ffffff;stroke-width:0.897;stroke-linecap:round;stroke-miterlimit:4;stroke-dasharray:none;stroke-opacity:1"
         id="path3497"
         sodipodi:sides="5"
         sodipodi:cx="158.11002"
         sodipodi:cy="270.65302"
         sodipodi:r1="8.2205896"
         sodipodi:r2="4.1102953"
         sodipodi:arg1="0.95548018"
         sodipodi:arg2="1.5837987"
         inkscape:flatsided="false"
         inkscape:rounded="0"
         inkscape:randomized="0"
         d="m 162.85508,277.36587 -4.79851,-2.60291 -4.86456,2.47726 0.9927,-5.36799 -3.85925,-3.86095 5.41202,-0.71469 2.47942,-4.86347 2.35212,4.92629 5.39161,0.85517 -3.95834,3.75931 z"
         inkscape:transform-center-x="-0.033021224"
         inkscape:transform-center-y="-0.75351728" />
    </g>
    <g
       transform="rotate(4.9791464,2268.7873,335.72865)"
       inkscape:transform-center-y="100.31251"
       inkscape:transform-center-x="-3.0677212"
       id="g3503">
      <path
         inkscape:transform-center-y="-0.75351728"
         inkscape:transform-center-x="-0.033021224"
         d="m 162.85508,277.36587 -4.79851,-2.60291 -4.86456,2.47726 0.9927,-5.36799 -3.85925,-3.86095 5.41202,-0.71469 2.47942,-4.86347 2.35212,4.92629 5.39161,0.85517 -3.95834,3.75931 z"
         inkscape:randomized="0"
         inkscape:rounded="0"
         inkscape:flatsided="false"
         sodipodi:arg2="1.5837987"
         sodipodi:arg1="0.95548018"
         sodipodi:r2="4.1102953"
         sodipodi:r1="8.2205896"
         sodipodi:cy="270.65302"
         sodipodi:cx="158.11002"
         sodipodi:sides="5"
         id="path3501"
         style="fill:#aaa9ad;fill-opacity:1;stroke:#ffffff;stroke-width:0.897;stroke-linecap:round;stroke-miterlimit:4;stroke-dasharray:none;stroke-opacity:1"
         sodipodi:type="star"
         transform="translate(-94.1167,-31.8678)" />
    </g>
  </g>
</svg>
