<?xml version="1.0" encoding="UTF-8"?>
<svg width="205mm" height="132mm" version="1.1" viewBox="0 0 205 132" xmlns="http://www.w3.org/2000/svg" xmlns:cc="http://creativecommons.org/ns#" xmlns:dc="http://purl.org/dc/elements/1.1/" xmlns:rdf="http://www.w3.org/1999/02/22-rdf-syntax-ns#">
 <metadata>
  <rdf:RDF>
   <cc:Work rdf:about="">
    <dc:format>image/svg+xml</dc:format>
    <dc:type rdf:resource="http://purl.org/dc/dcmitype/StillImage"/>
   </cc:Work>
  </rdf:RDF>
 </metadata>
 <g fill="#fff" stroke-width=".26458">
  <path d="m171.26 11.653c2.4445-1.3182 4.9566-2.4993 7.4917-3.631 2.7331-1.0791 5.6009-1.9089 8.5655-1.8637 1.792 0.02726 2.1396 0.18978 3.8463 0.56335 0.59186 0.28512 1.2171 0.50936 1.7756 0.85535 2.3852 1.4778 4.3834 4.1396 5.4455 6.7085 0.32291 0.78104 0.52683 1.6061 0.79024 2.4092 0.17055 0.86494 0.40149 1.7201 0.51165 2.5948 0.24607 1.9537 0.23064 4.0985 0.087 6.0558-0.12165 1.6575-0.49356 4.4298-0.91801 6.0477-0.28222 1.0757-0.6966 2.1124-1.0449 3.1686-0.47463 1.0645-0.90597 2.1493-1.4239 3.1934-2.0728 4.1786-4.9215 8.1845-8.1018 11.593-1.0058 1.0779-2.0831 2.0867-3.1247 3.13-6.8071 6.4564-14.487 11.892-22.495 16.746-0.98245 0.5955-1.9936 1.1423-2.9904 1.7134-13.422 7.5524-27.687 13.41-41.812 19.482-15.301 6.7232-30.642 13.392-46.384 19.033-12.88 4.6153-16.973 5.7062-30.025 9.7111-12.719 3.514-14.488 4.1554-26.937 7.0332-3.6544 0.84481-7.3324 1.5841-10.999 2.3762l-1.7941 1.364c3.7334-0.84102 7.3734-0.72707 11.399-1.766 12.553-3.2397 14.386-3.9844 27.261-7.5822 11.924-3.6563 17.974-5.1655 29.726-9.3312 4.4699-1.5845 8.9457-3.0891 13.366-4.8075 10.951-4.2572 22.411-9.0276 33.176-13.729 14.035-5.9929 27.611-11.913 40.947-19.386 2.6739-1.5415 5.473-3.3458 8.1238-4.9266 8.1092-4.8359 15.469-10.7 22.374-17.146 1.0722-1.0653 2.1842-2.0921 3.2166-3.196 0.83532-0.8931 1.6176-1.8356 2.3821-2.79 2.9477-3.6798 5.3869-7.7422 7.1266-12.13 0.35499-1.0759 0.78043-2.1311 1.065-3.2278 0.41118-1.5848 0.77372-4.4698 0.88763-6.0899 0.13214-1.8793 0.15845-4.2715-0.0702-6.1513-0.10814-0.88923-0.34609-1.7578-0.51913-2.6367-0.26245-0.825-0.46101-1.6731-0.78735-2.475-1.0615-2.6084-3.1496-5.3732-5.5264-6.9182-0.56965-0.37028-1.2079-0.62244-1.8118-0.93366-1.7766-0.40682-2.0606-0.56021-3.9276-0.616-0.72706-0.02172-1.4576-0.01294-2.1814 0.05973-2.2188 0.22275-4.3689 0.93031-6.4506 1.6874-2.4732 1.0865-4.932 2.2079-7.3196 3.4738l-2.9205 2.3347z"/>
  <path d="m172.52 11.951c0.23585 3.4565 0.76177 6.8833 1.258 10.309 1.0575 7.301 0.6702 4.6951 1.9464 12.531 1.8565 11.536 3.817 23.055 5.8559 34.56 0.87831 4.7856 1.687 9.5894 2.8284 14.321 0.3936 1.6984 0.95936 3.3499 1.3991 5.0358 0.1535 0.64591 0.35903 1.2697 0.66006 1.8614 0.16508 0.3227 0.37432 0.60211 0.62422 0.86203l3.2062-1.9582c-0.22728-0.23184-0.43433-0.46185-0.57537-0.76121-0.29116-0.56511-0.49341-1.1617-0.65914-1.7752-0.48534-1.6617-1.0767-3.2923-1.4994-4.9725-1.2422-4.6614-2.2073-9.3906-3.1631-14.117-2.2686-11.423-4.3572-22.884-6.152-34.391-1.1009-7.6956-2.2972-15.417-2.4259-23.206l-3.3034 1.7018z"/>
  <path d="m47.432 97.686c2.3387-7.8537 6.2856-15.062 10.174-22.228 1.1293-1.9964 2.2455-4.0003 3.388-5.9892 1.1752-2.0459 2.3863-4.071 3.565-6.115 1.5251-2.6447 6.0855-10.666 7.5871-13.352 2.9044-5.196 3.621-6.5712 6.3596-11.656 3.3094-6.1552 6.3076-12.468 9.4113-18.727 0.90584-1.8506 1.8251-3.69 2.9815-5.3972 0.64969-0.8358 1.2278-1.7434 1.9722-2.5 0.59978-0.58552 1.3425-0.99892 2.0363-1.4619 1.9974-1.1528-2.0128 1.1612-3.8004 2.2083-0.10729 0.06285 0.22069-0.11464 0.33065-0.1727 0.30459-0.16085 0.60435-0.33016 0.90742-0.49381 0.33077-0.14425 0.82242-0.58214 1.2206-0.39717 0.09515 0.04421 0.16878 0.1247 0.25316 0.18705 0.0965 0.12284 0.20744 0.2356 0.28949 0.36852 0.69687 1.129 0.92069 3.0965 1.0936 4.3201 0.13728 0.97169 0.2472 1.9471 0.3708 2.9206 1.3663 12.088 2.0264 24.24 2.6494 36.384 0.59264 11.722 1.2793 23.44 1.8737 35.162l4.3032-2.229c-0.97367-11.633-1.7781-23.279-2.2814-34.944-0.64637-12.226-1.2288-24.458-2.1621-36.667-0.0897-0.99649-0.1708-1.9938-0.269-2.9895-0.17182-1.7422-0.28036-3.6562-1.3692-5.1129-0.65104-0.67347-1.0092-0.77373-1.8496-0.33593-2.1408 1.267-4.4311 2.291-6.4806 3.7147-0.71095 0.46969-1.4418 0.93229-1.9962 1.5911-0.66901 0.8208-1.2954 1.6762-1.8939 2.5495-1.1048 1.7071-1.9451 3.5545-2.8042 5.3944-2.9073 6.1884-5.7413 12.414-8.9049 18.478-2.5765 4.9046-3.4244 6.5807-6.1878 11.567-4.7587 8.586-9.851 16.979-14.679 25.525-2.2785 4.1172-3.7403 6.6414-5.8011 10.791-1.2998 2.6174-2.387 5.0634-3.4777 7.7535-0.33242 0.81985-0.62762 1.6543-0.94596 2.4798-0.20284 0.52595-0.41173 1.0496-0.61759 1.5743l4.7544-2.2015z"/>
  <path d="m123.11 83.435c0.0923-0.25194 0.19624-0.49992 0.27688-0.75583 5.5146-20.329 12.105-36.583 17.923-54.408 0.46686-1.5172 0.91398-3.0402 1.3713-4.5602 0.25869-0.85985 0.47965-1.7325 0.92066-2.5174-1.6067 1.0156-3.3677 1.8207-4.82 3.0469-0.23765 0.20066 0.0886 0.61609 0.11458 0.92604 0.0402 0.48031 0.0592 0.96218 0.0838 1.4435 0.0384 0.751 0.15112 3.447 0.19317 4.0808 0.0636 0.95894 0.15329 1.916 0.22993 2.874 0.5967 5.5826 1.1049 11.175 1.7313 16.755 0.18211 1.6009 0.31491 3.2115 0.78654 4.7579 3.6248-1.398 3.3347-1.363 5.6669-2.4378 0.21587-0.09948 0.10475-0.46376 0.14995-0.69711 0.0658-0.3396 0.12193-0.68099 0.18289-1.0215 3.0629-10.763 5.6795-20.389 8.9932-30.522 0.5392-0.95616 1.0497-1.9298 1.5975-2.8811 0.17902-0.31083 0.49545-0.89857 0.81948-1.1404 0.0982-0.0733 0.23304-0.07597 0.34956-0.11396-1.57 0.91328-3.2284 1.6892-4.7099 2.7399-0.13317 0.09443 0.19667 0.26261 0.27089 0.40801 0.14024 0.2747 0.25625 0.56138 0.37028 0.84794 3.729 13.736 8.0092 29.165 10.046 41.482 0.11858 0.89207 0.069 0.46889 0.1526 1.2691l4.9821-2.6171c-0.11702-0.80473-0.0503-0.38011-0.20364-1.2733-2.7087-12.696-5.9305-25.386-8.8574-37.348-0.46515-1.728-0.86374-3.5527-1.63-5.1819-0.10956-0.23296-0.13965-0.74376-0.38597-0.66894-1.8568 0.56401-3.5366 1.5984-5.305 2.3976-3.1706 8.251-5.8366 16.601-9.162 24.425-0.75727 3.5385-1.4681 7.0881-2.3378 10.601-0.0808 0.33515-0.14673 0.67422-0.24236 1.0054-0.0616 0.21318-0.44466 0.51176-0.24105 0.42357 1.626-0.70424 3.0823-1.5758 4.6784-2.3455 0.0875-0.0422 0.0613 0.20691 0.0129 0.29106-0.0723 0.12548 0.18953-0.47686 0.2647-0.2647-0.48557-1.4858-1.1743-3.1369-1.4128-4.6766-0.78816-5.5306-1.4242-11.086-1.8465-16.657-0.11664-2.3459-0.18855-4.6848-0.24921-7.0322-0.013-0.50329-0.0136-1.0073-0.0477-1.5096-0.0246-0.363 0.22981-1.1479-0.12837-1.0839-1.8397 0.32853-3.4816 1.3596-5.2224 2.0395-0.83103 2.3165-1.305 4.7515-2.13 7.0717-6.6519 17.934-12.001 38.48-18.038 54.419-0.0999 0.25695-0.22442 0.50361-0.33663 0.75541l5.1391-2.3455z"/>
  <path d="m98.029 56.451c-4.8297 0.28359-9.6828-0.11831-14.447-0.9213-1.3018-0.2194-2.5933-0.49633-3.89-0.7445-1.2405-0.30749-2.4972-0.55578-3.7215-0.92247-4.0251-1.2056-8.1606-2.9892-11.302-5.8521-0.54639-0.49787-1.0091-1.0805-1.5136-1.6208-0.94515-1.4372-1.2358-1.6952-1.8266-3.2976-0.90619-2.458-1.001-5.1158-1.1288-7.7002-0.09262-2.6968-0.03102-5.4283 0.53082-8.0788 0.34249-1.6157 0.60413-2.1949 1.153-3.7503 0.99879-2.5287 2.4358-4.8369 4.2024-6.8992 1.0811-1.262 1.7492-1.8595 2.9333-3.0099 2.6367-2.5098 5.6354-4.573 8.7743-6.3952-0.95406 0.57852-2.0414 0.97973-2.8622 1.7356-0.5406 0.49785 1.322-0.64344 1.9955-0.93744 2.1388-0.93356 4.3467-1.7196 6.6112-2.2869 0.82296-0.20616 1.6577-0.36224 2.4865-0.54336 4.3526-0.71889 8.8215-0.70844 13.103 0.43542 0.78989 0.21102 1.5579 0.49682 2.3368 0.74523 0.7465 0.31103 1.5234 0.55737 2.2395 0.93307 3.0561 1.6033 6.1772 4.5685 7.9446 7.5334 0.52188 0.87551 0.89615 1.831 1.3442 2.7465 1.1553 3.0455 1.9499 6.242 2.2875 9.4862 0.41177 3.9575 0.19779 7.9308 0.0139 11.892-0.41173 5.4819-0.93487 10.971-1.9813 16.373-0.68808 3.5527-1.0022 4.5312-1.911 8.0152-1.3385 4.8404-3.1962 9.5324-5.7231 13.88-1.5726 2.7053-2.1527 3.3692-3.9797 5.8803-3.3038 4.1842-7.224 7.8749-11.621 10.895-0.79817 0.54832-1.6339 1.0399-2.4508 1.5598 0.67642-0.42652 9.3001-5.8966 8.5886-5.5314-0.9833 0.50469-8.2446 5.0347-9.107 5.3793-0.83368 0.33313-1.682 0.6305-2.537 0.90426-1.8232 0.58375-3.3906 0.96351-5.2864 1.2737-0.93714 0.1533-1.8841 0.23911-2.8261 0.35867-0.92028 0.0604-1.8386 0.17477-2.7608 0.18115-3.7641 0.0261-7.6265-0.73298-11.042-2.3419-0.76059-0.35832-1.4695-0.8173-2.2043-1.226-0.66073-0.52382-1.3708-0.99083-1.9822-1.5715-3.0343-2.8815-5.1171-7.14-6.6459-10.968-0.47433-1.1878-0.86924-2.4057-1.3039-3.6086-1.6818-5.6231-3.0807-11.508-2.5657-17.426 0.10641-1.2228 0.35255-2.4293 0.52882-3.644 0.96882-4.9966 2.6996-9.7903 5.0244-14.311 1.2504-2.4313 1.9673-3.5243 3.3684-5.8328 2.1508-3.4206 4.5405-6.6901 7.2027-9.731 1.3762-1.572 1.7422-1.8982 3.1596-3.3239 0.42496-0.38961 0.84992-0.77922 1.2749-1.1688l-5.0648 2.0792c-0.40555 0.39012-0.8111 0.78024-1.2166 1.1704-3.8378 4.0026-7.2855 8.3656-10.172 13.109-1.3827 2.3355-2.0641 3.3956-3.2942 5.8553-2.2886 4.5764-3.987 9.4196-4.9538 14.449-0.17957 1.2405-0.43525 2.4723-0.53871 3.7214-0.49466 5.9722 1.0076 11.901 2.7092 17.565 0.43497 1.2156 0.83276 2.4451 1.3049 3.6468 1.5362 3.9096 3.5905 8.2897 6.6437 11.267 0.62354 0.60804 1.3522 1.098 2.0283 1.647 0.75221 0.42554 1.477 0.9036 2.2566 1.2766 3.3906 1.6224 7.4374 2.4962 11.188 2.5261 0.93069 7e-3 1.8583-0.1082 2.7874-0.1623 2.3343-0.26669 3.3148-0.31379 5.6026-0.83108 5.4492-1.2321 10.024-3.6846 14.784-6.6617 0.8098-0.53003 1.6378-1.0333 2.4294-1.5901 4.3613-3.0677 8.2373-6.7957 11.492-11.016 1.7998-2.5281 2.3874-3.22 3.9353-5.9387 2.4944-4.3812 4.3093-9.1027 5.6173-13.965 0.92686-3.6316 1.1662-4.3452 1.8786-8.0465 1.0438-5.4238 1.5601-10.929 1.9578-16.433 0.18999-3.9993 0.4372-8.0386 0.0359-12.037-0.33094-3.2968-1.1837-6.5391-2.3344-9.6369-0.45265-0.94905-0.82536-1.9406-1.358-2.8472-1.7081-2.9075-5.1001-6.1849-8.0573-7.8065-0.72093-0.39533-1.5122-0.646-2.2683-0.969-2.1524-0.71066-2.6072-0.94345-4.8568-1.3505-3.5568-0.64351-7.1875-0.56552-10.755-0.05231-1.9312 0.39731-3.02 0.5745-4.9027 1.1454-4.5266 1.3727-8.6783 3.6289-12.7 6.0914-3.1149 1.862-6.0904 3.956-8.6891 6.5056-1.1913 1.193-1.8142 1.7625-2.8986 3.0719-1.7571 2.1218-3.1754 4.4889-4.1461 7.0706-0.55787 1.661-0.77035 2.1141-1.1085 3.8347-0.52852 2.6892-0.5767 5.4484-0.47596 8.1773 0.14025 2.6519 0.24813 5.38 1.2066 7.8935 0.6374 1.6715 0.94714 1.9346 1.9609 3.4245 1.5522 1.6135 1.7648 1.9951 3.7171 3.3034 2.8259 1.8938 6.1994 3.3198 9.4414 4.3058 1.2324 0.37481 2.4995 0.62375 3.7493 0.93562 1.297 0.25686 2.5892 0.53913 3.8909 0.77058 4.673 0.83087 9.4198 1.3089 14.169 1.2484l4.5197-3.3124z"/>
 </g>
</svg>
