<?xml version="1.0" encoding="UTF-8" standalone="no"?>
<svg
   xmlns:dc="http://purl.org/dc/elements/1.1/"
   xmlns:cc="http://creativecommons.org/ns#"
   xmlns:rdf="http://www.w3.org/1999/02/22-rdf-syntax-ns#"
   xmlns:svg="http://www.w3.org/2000/svg"
   xmlns="http://www.w3.org/2000/svg"
   xmlns:sodipodi="http://sodipodi.sourceforge.net/DTD/sodipodi-0.dtd"
   xmlns:inkscape="http://www.inkscape.org/namespaces/inkscape"
   width="500mm"
   height="500mm"
   viewBox="0 0 500 500"
   version="1.1"
   id="svg8"
   inkscape:version="1.0 (4035a4fb49, 2020-05-01)"
   sodipodi:docname="signature_legacy_big.svg">
  <defs
     id="defs2">
    <inkscape:path-effect
       effect="spiro"
       id="path-effect154"
       is_visible="true"
       lpeversion="1" />
    <inkscape:path-effect
       effect="spiro"
       id="path-effect150"
       is_visible="true"
       lpeversion="1" />
  </defs>
  <sodipodi:namedview
     id="base"
     pagecolor="#ffffff"
     bordercolor="#666666"
     borderopacity="1.0"
     inkscape:pageopacity="0.0"
     inkscape:pageshadow="2"
     inkscape:zoom="0.22"
     inkscape:cx="-345.78362"
     inkscape:cy="727.12838"
     inkscape:document-units="mm"
     inkscape:current-layer="layer1"
     inkscape:document-rotation="0"
     showgrid="false"
     inkscape:snap-text-baseline="true"
     inkscape:snap-others="false"
     inkscape:window-width="2560"
     inkscape:window-height="1017"
     inkscape:window-x="1912"
     inkscape:window-y="-8"
     inkscape:window-maximized="1" />
  <metadata
     id="metadata5">
    <rdf:RDF>
      <cc:Work
         rdf:about="">
        <dc:format>image/svg+xml</dc:format>
        <dc:type
           rdf:resource="http://purl.org/dc/dcmitype/StillImage" />
        <dc:title></dc:title>
      </cc:Work>
    </rdf:RDF>
  </metadata>
  <g
     inkscape:label="Layer 1"
     inkscape:groupmode="layer"
     id="layer1">
    <path
       style="fill:none;stroke-width:0.264583"
       id="path82"
       d="m 270.10079,259.40038 c 0.86252,-1.71275 1.54468,-3.50776 2.24332,-5.29128 1.60893,-3.69683 3.15872,-7.41611 4.61254,-11.17674 1.16207,-3.01555 2.47867,-5.97064 3.50791,-9.03684 0.65849,-1.9617 0.76252,-2.47218 1.29183,-4.45117 0.98594,-3.91932 1.63779,-7.91139 2.28411,-11.89759 0.39687,-2.63407 0.58322,-5.29275 0.88785,-7.93712 0.1506,-1.25818 0.0761,-0.65375 0.22265,-1.81343 0,0 -3.16876,1.5734 -3.16876,1.5734 v 0 c -0.0921,1.13562 -0.0415,0.54237 -0.15337,1.77961 -0.23449,2.61425 -0.39226,5.23642 -0.72758,7.8406 -0.54183,3.963 -1.2168,7.9088 -2.15977,11.79818 -0.51867,1.97915 -0.60686,2.44552 -1.26139,4.40775 -1.02969,3.08694 -2.34466,6.0652 -3.59265,9.067 -0.76011,1.94601 -1.52256,3.89067 -2.34128,5.81306 -0.76567,1.79784 -0.86081,1.95752 -1.652,3.72377 -0.25252,0.56373 -0.50127,1.12914 -0.7519,1.69371 -0.43582,1.0039 -0.76492,1.78372 -1.22242,2.76162 -0.36288,0.77567 -0.73728,1.57501 -1.21172,2.29194 -0.0722,0.10907 -0.15911,0.2076 -0.23867,0.3114 0,0 3.4313,-1.45787 3.4313,-1.45787 z" />
    <path
       style="fill:none;stroke-width:0.264583"
       id="path84"
       d="m 273.55376,260.25794 c 0.29814,-0.77129 0.34796,-0.86555 0.6254,-1.80359 0.1807,-0.61094 1.3014,-4.72119 1.33854,-4.8526 1.30146,-4.60556 1.20874,-4.17224 2.78524,-9.20236 3.92849,-11.87037 8.26816,-23.59689 12.62303,-35.31554 0,0 -1.68922,0.79018 -1.68922,0.79018 v 0 c -1.90961,5.81115 -2.37734,7.35394 -4.53528,13.37298 -2.83893,7.91854 -2.91117,7.83638 -5.91198,15.65588 -0.81868,2.1333 -1.62172,4.27256 -2.43258,6.40884 -2.27947,6.20526 -1.4873,3.98116 -3.43835,9.51641 -0.53483,1.51735 -1.20492,3.51353 -1.83167,5.05986 -0.45785,1.12963 -0.41174,0.99389 -0.93116,1.82171 0,0 3.39803,-1.45177 3.39803,-1.45177 z" />
    <circle
       id="path86"
       style="fill:#000000;stroke:#000000;stroke-width:0.264583"
       cx="283.01318"
       cy="257.9971"
       r="0.033302065" />
    <path
       style="fill:none;stroke-width:0.264583"
       id="path96"
       d="m 272.25537,256.0162 c 0.66239,-4.63132 2.64678,-9.05792 4.34923,-13.37776 1.44162,-3.63986 2.47083,-6.16223 3.81489,-9.88647 0.72527,-2.00962 1.4004,-4.03699 2.10224,-6.05491 1.91027,-5.49238 3.82605,-10.98238 5.77355,-16.46166 0.5515,-1.48472 1.56038,-4.35353 2.32254,-5.93955 0.20866,-0.43419 1.18245,-1.4328 0.74055,-1.24102 -1.04731,0.45451 -2.1128,1.12192 -2.70927,2.0954 -0.30958,0.50526 0.27674,1.15425 0.35857,1.74113 0.14587,1.04618 0.21581,2.10155 0.32372,3.15232 0.68184,8.82713 1.26303,17.66313 2.10067,26.47735 0.0788,0.5594 0.0577,1.14231 0.23648,1.67819 0.0472,0.14163 0.28114,0.30988 0.39432,0.21249 1.21093,-1.04208 2.53885,-2.05272 3.34612,-3.43135 0.49859,-0.85146 0.23792,-1.95922 0.38199,-2.93535 0.61585,-4.17232 0.76223,-4.64766 1.60766,-9.02443 0.97958,-4.02413 1.49102,-6.46429 2.75813,-10.37582 0.43541,-1.34411 0.74815,-2.75853 1.45877,-3.9797 0.4119,-0.70783 1.21796,-2.20895 1.81847,-1.6521 0.61702,0.57216 -1.29227,1.37676 -1.21207,2.21441 0.0929,0.96999 1.10318,1.60653 1.65478,2.4098 0.52352,1.29223 1.12113,2.55687 1.57056,3.8767 1.58176,4.64509 2.53914,9.77096 3.26202,14.6167 0.22156,1.48514 0.37886,2.97915 0.56829,4.46873 0,0 2.18504,-1.15318 2.18504,-1.15318 v 0 c -1.27321,-7.83332 -2.48163,-15.73202 -5.0779,-23.26204 -0.47987,-0.9222 -0.45437,-2.43491 -1.43962,-2.76659 -2.11246,-0.71117 -4.76623,0.36595 -5.6565,2.33947 -0.5539,1.22789 -0.81394,2.56857 -1.18387,3.86381 -0.49943,1.74867 -2.35189,8.81327 -2.76955,10.39723 -0.71871,3.09424 -1.40877,6.19513 -2.13661,9.28724 -0.24365,1.03514 -1.3196,2.19161 -0.76296,3.09773 0.44281,0.72083 1.68611,-0.30764 2.52799,-0.22453 0.47134,0.0465 -3.49975,2.66859 -1.03779,-0.9705 -0.1881,-1.06332 -0.41017,-2.12119 -0.56431,-3.18997 -0.40525,-2.80996 -0.71275,-6.27195 -0.92843,-9.0698 -0.36423,-4.72483 -0.59039,-9.461 -0.58773,-14.20079 0.003,-1.11678 0.03,-2.23377 0.008,-3.35036 -0.0135,-0.70013 0.56382,-1.92001 -0.11353,-2.09772 -2.87038,-0.75311 -3.37133,0.68671 -3.89525,2.28961 -0.24301,0.74346 -0.45781,1.49586 -0.68151,2.24535 -0.3385,1.13407 -0.67006,2.27021 -1.00509,3.40531 -1.24141,4.06822 -1.7725,5.90436 -3.18687,10.09125 -2.55618,7.56689 -5.42899,15.02769 -8.62425,22.34782 -1.99911,4.57145 -4.14107,9.12023 -5.43235,13.95733 0,0 3.34039,-1.61977 3.34039,-1.61977 z" />
    <path
       style="fill:none;stroke-width:0.264583"
       id="path98"
       d="m 317.45544,197.834 c 0.13899,1.23572 0.31199,2.46299 0.52765,3.68791 0.11835,0.67219 0.21104,1.34982 0.36454,2.01486 0.24025,1.04092 0.5439,2.06618 0.81584,3.09927 2.91686,10.64397 6.23776,21.17265 8.93597,31.87728 0.70556,2.7992 1.33835,5.61625 2.00752,8.42437 1.91845,8.60366 3.45405,17.2972 4.405,26.06274 0.13996,1.29005 0.2415,2.58397 0.36224,3.87594 0,0 2.35301,-1.2387 2.35301,-1.2387 v 0 c -1.73204,-9.81886 -3.65936,-19.60305 -6.02151,-29.29253 -1.95354,-8.2266 -3.97634,-16.43621 -5.91901,-24.66535 -0.91075,-3.85795 -1.92441,-8.18298 -2.75802,-12.09403 -0.30395,-1.42608 -0.57861,-2.85826 -0.86792,-4.28738 -0.47062,-3.02662 -0.96825,-6.07571 -0.89638,-9.15036 0,0 -3.30893,1.68598 -3.30893,1.68598 z" />
    <path
       style="fill:none;stroke-width:0.264583"
       id="path100"
       d="m 334.65364,264.02782 c -1.39819,-3.43568 -2.28372,-7.03717 -3.05422,-10.65716 -1.07529,-5.05196 -1.42644,-7.40479 -2.3246,-12.60402 -1.94571,-11.94121 -3.81979,-23.9004 -5.22029,-35.91991 -0.20428,-1.75324 -0.38004,-3.50969 -0.57006,-5.26453 -0.30685,-3.18187 -0.64551,-6.36268 -0.86559,-9.55235 -0.0815,-1.18201 -0.12335,-2.32946 -0.0353,-3.5087 0.0781,-0.78642 0.45642,-1.47932 0.66839,-2.22853 0.0735,-0.38073 0.0414,-0.19182 0.097,-0.56665 0,0 -3.32391,1.62614 -3.32391,1.62614 v 0 c -0.0629,0.3482 -0.0256,0.17344 -0.11281,0.52412 -0.22468,0.74145 -0.53148,1.4578 -0.49615,2.25333 0.0551,1.13894 0.23003,2.23374 0.43323,3.35756 0.55093,3.04705 1.15424,6.08488 1.64623,9.14255 2.23513,13.63147 4.38314,27.27773 6.20157,40.97212 0.84424,5.94786 1.68976,11.8938 2.61201,17.83012 0.18991,1.2224 0.36465,2.44732 0.57451,3.66645 0.10391,0.60362 0.2444,1.20037 0.3666,1.80055 0.0502,0.296 0.10038,0.592 0.15057,0.888 0,0 3.25287,-1.75909 3.25287,-1.75909 z" />
    <path
       style="fill:none;stroke-width:0.264583"
       id="path102"
       d="m 318.10717,191.76386 c 0.29617,5.02224 0.35302,10.06158 0.7447,15.07831 0.22664,2.90281 0.56359,5.79595 0.84672,8.6938 1.26232,12.91988 0.55567,5.47461 1.72128,18.01768 0.81664,9.34607 0.42835,4.96913 1.16073,13.13119 0,0 1.89568,-0.99782 1.89568,-0.99782 v 0 c -1.40625,-7.83696 -0.7234,-3.60814 -1.97542,-12.69805 -0.32046,-2.89209 -0.68151,-5.77997 -0.96137,-8.67627 -1.09271,-11.30876 -1.69739,-22.73935 -0.42856,-34.06138 0,0 -3.00376,1.51254 -3.00376,1.51254 z" />
    <path
       style="fill:none;stroke-width:0.264583"
       id="path104"
       d="m 322.00379,191.76159 c 0.20234,0.5906 0.42839,1.17361 0.60702,1.77181 1.06485,3.56606 1.68478,6.23996 2.44217,10.06038 1.24325,6.27129 2.16864,12.12349 3.01263,18.48266 0.44048,3.31888 0.78595,6.64969 1.17893,9.97453 1.05246,11.23598 0.61379,5.92406 1.35278,15.93267 0,0 1.54875,-0.81084 1.54875,-0.81084 v 0 c -1.45135,-9.68319 -0.72115,-4.51351 -2.15326,-15.5143 -1.25834,-10.55639 -1.14754,-9.44464 -2.32423,-20.05074 -0.20794,-1.87419 -1.3896,-12.82918 -1.70626,-15.53386 -0.24851,-2.12259 -0.50302,-3.96594 -0.78157,-6.02647 0,0 -3.17696,1.71416 -3.17696,1.71416 z" />
    <path
       style="fill:none;stroke-width:0.264583"
       id="path106"
       d="m 315.97009,175.67406 c 0.19694,0.41038 0.44841,0.79881 0.59083,1.23115 1.6205,4.91944 2.24021,8.15774 3.23182,13.57826 0.66567,3.63882 1.2575,7.29129 1.81018,10.94898 1.60067,10.59349 1.80709,13.28901 3.0001,23.84328 0.30732,3.35893 0.61463,6.71786 0.92195,10.07679 0,0 0.75336,-0.39484 0.75336,-0.39484 v 0 c -0.4596,-3.27916 -0.91919,-6.55832 -1.37879,-9.83748 -0.48418,-3.89101 -0.98849,-7.77956 -1.45255,-11.67302 -0.83254,-6.98498 -1.87751,-16.45398 -2.601,-23.52025 -0.30685,-2.99705 -0.59875,-5.99569 -0.87279,-8.99592 -0.17203,-1.88343 -0.251,-3.77562 -0.46539,-5.6547 -0.0557,-0.48831 -0.22892,-0.95593 -0.34338,-1.4339 0,0 -3.19434,1.83165 -3.19434,1.83165 z" />
    <path
       style="fill:none;stroke-width:0.264583"
       id="path108"
       d="m 317.17332,187.09138 c 0.9071,2.63709 1.08191,3.01726 1.90772,6.51695 0.99529,4.21793 2.14465,10.50382 2.88127,14.6683 1.26368,7.14429 1.41869,8.40347 2.4939,15.39715 0,0 1.42613,-0.75681 1.42613,-0.75681 v 0 c -0.44148,-2.41852 -0.90296,-4.83347 -1.32445,-7.25555 -0.98776,-5.67625 -1.73345,-10.37638 -2.52313,-16.08186 -1.45944,-10.54441 -0.42531,-3.41353 -1.4183,-12.18671 -0.0771,-0.68091 -0.19799,-1.35613 -0.29699,-2.03419 0,0 -3.14615,1.73272 -3.14615,1.73272 z" />
    <path
       style="fill:#000000;stroke-width:0.264583"
       id="path194"
       d="m 319.18304,186.03698 c 2.44448,-1.31825 4.95655,-2.49934 7.49169,-3.63102 2.73309,-1.07913 5.60088,-1.90885 8.56549,-1.86375 1.79195,0.0273 2.13963,0.18978 3.84629,0.56335 0.59186,0.28512 1.21711,0.50937 1.77556,0.85536 2.38522,1.47777 4.3834,4.13958 5.4455,6.70848 0.32291,0.78103 0.52683,1.60612 0.79024,2.40917 0.17055,0.86494 0.40149,1.72014 0.51165,2.59483 0.24607,1.95369 0.23064,4.09849 0.087,6.05577 -0.12165,1.65747 -0.49356,4.42982 -0.91801,6.0477 -0.28222,1.07573 -0.6966,2.11237 -1.04489,3.16855 -0.47463,1.06447 -0.90597,2.14932 -1.42388,3.19342 -2.07275,4.17864 -4.92153,8.18449 -8.10185,11.59281 -1.00577,1.07787 -2.08312,2.08667 -3.12469,3.13001 -6.80712,6.4564 -14.48692,11.89186 -22.49529,16.74603 -0.98245,0.5955 -1.9936,1.14229 -2.99041,1.71343 -13.42185,7.55241 -27.68698,13.41002 -41.81228,19.48173 -15.30069,6.72324 -30.64172,13.3924 -46.38351,19.03304 -12.88017,4.61526 -16.97271,5.70622 -30.02454,9.71106 -12.71939,3.51401 -14.48834,4.15542 -26.93676,7.03319 -3.65441,0.84481 -7.3324,1.58412 -10.9986,2.37618 l -1.79411,1.364 v 0 c 3.73339,-0.84102 7.37338,-0.72707 11.39881,-1.76596 12.55285,-3.23966 14.38578,-3.98443 27.26056,-7.5822 11.92425,-3.65633 17.97374,-5.16546 29.72554,-9.33122 4.46989,-1.58448 8.94565,-3.08912 13.36581,-4.80747 10.95092,-4.25721 22.41061,-9.02761 33.1762,-13.72949 14.03527,-5.99286 27.61108,-11.91267 40.94749,-19.38582 2.67392,-1.5415 5.47296,-3.34578 8.12382,-4.92661 8.10918,-4.83588 15.46932,-10.70006 22.37396,-17.14589 1.07222,-1.06533 2.18418,-2.09209 3.21665,-3.19598 0.83532,-0.8931 1.61755,-1.83561 2.38207,-2.79002 2.94769,-3.67979 5.38689,-7.74217 7.12657,-12.12974 0.35499,-1.07591 0.78043,-2.13109 1.06496,-3.22775 0.41118,-1.58479 0.77372,-4.46981 0.88763,-6.08994 0.13214,-1.8793 0.15845,-4.27154 -0.0702,-6.15132 -0.10814,-0.88923 -0.34609,-1.75783 -0.51913,-2.63674 -0.26245,-0.825 -0.46101,-1.67313 -0.78735,-2.47501 -1.06154,-2.60844 -3.14958,-5.37322 -5.52641,-6.91821 -0.56965,-0.37028 -1.2079,-0.62244 -1.81185,-0.93366 -1.77655,-0.40683 -2.06058,-0.56022 -3.92761,-0.616 -0.72706,-0.0217 -1.4576,-0.0129 -2.18135,0.0597 -2.21875,0.22275 -4.36889,0.93031 -6.45062,1.68741 -2.47319,1.08646 -4.93204,2.20789 -7.31964,3.47382 l -2.92053,2.33473 z"
       sodipodi:nodetypes="scscsscssscsscsccscsccsscssccscsscssscsscsscccs" />
    <path
       style="fill:#000000;stroke-width:0.264583"
       id="path222"
       d="m 320.44201,186.33518 c 0.23585,3.45654 0.76177,6.88326 1.25801,10.30919 1.05753,7.30103 0.6702,4.69506 1.94643,12.53056 1.85651,11.53625 3.81703,23.05485 5.85592,34.56014 0.87831,4.78559 1.68699,9.5894 2.8284,14.3214 0.3936,1.69841 0.95936,3.34994 1.3991,5.03579 0.1535,0.64591 0.35903,1.26966 0.66006,1.8614 0.16508,0.3227 0.37432,0.60211 0.62422,0.86203 0,0 3.20615,-1.95822 3.20615,-1.95822 v 0 c -0.22728,-0.23184 -0.43433,-0.46185 -0.57537,-0.76121 -0.29116,-0.56511 -0.49341,-1.16173 -0.65914,-1.77518 -0.48534,-1.66169 -1.0767,-3.2923 -1.49939,-4.97254 -1.24218,-4.6614 -2.20731,-9.39058 -3.16313,-14.11741 -2.26865,-11.42312 -4.35718,-22.8836 -6.15196,-34.39133 -1.10093,-7.69562 -2.29721,-15.41749 -2.42592,-23.20638 0,0 -3.30338,1.70176 -3.30338,1.70176 z" />
    <path
       style="fill:#000000;stroke-width:0.264583"
       id="path264"
       d="m 195.35838,272.07008 c 2.33866,-7.8537 6.28563,-15.06209 10.17381,-22.22753 1.12933,-1.9964 2.24553,-4.0003 3.38801,-5.98921 1.17522,-2.04591 2.38632,-4.07105 3.56495,-6.115 1.52508,-2.64474 6.08547,-10.6657 7.58713,-13.35224 2.90437,-5.19603 3.62101,-6.57124 6.35964,-11.65585 3.30945,-6.15521 6.30764,-12.46822 9.41132,-18.72741 0.90584,-1.85063 1.82508,-3.69002 2.98146,-5.39724 0.64969,-0.8358 1.2278,-1.74343 1.97223,-2.50003 0.59978,-0.58552 1.34251,-0.99891 2.03632,-1.46187 1.99741,-1.15279 -2.01276,1.16119 -3.80045,2.20829 -0.10729,0.0628 0.2207,-0.11464 0.33065,-0.1727 0.30459,-0.16086 0.60435,-0.33016 0.90742,-0.49382 0.33077,-0.14425 0.82242,-0.58214 1.22056,-0.39716 0.0951,0.0442 0.16878,0.1247 0.25316,0.18705 0.0965,0.12284 0.20744,0.2356 0.28949,0.36852 0.69687,1.12897 0.92069,3.09651 1.09356,4.32009 0.13729,0.97169 0.24721,1.94705 0.37081,2.92058 1.36635,12.08806 2.02643,24.24013 2.64937,36.3845 0.59264,11.7224 1.27931,23.43986 1.8737,35.16214 0,0 4.3032,-2.229 4.3032,-2.229 v 0 c -0.97367,-11.6333 -1.7781,-23.27943 -2.28136,-34.94362 -0.64637,-12.2262 -1.22881,-24.45845 -2.16215,-36.66701 -0.0897,-0.99649 -0.1708,-1.99378 -0.269,-2.98947 -0.17182,-1.74223 -0.28036,-3.65622 -1.36925,-5.11293 -0.65104,-0.67348 -1.00922,-0.77374 -1.84964,-0.33593 -2.14083,1.26704 -4.43115,2.29097 -6.48058,3.71466 -0.71094,0.46969 -1.44178,0.93229 -1.99619,1.5911 -0.66901,0.8208 -1.29539,1.67624 -1.89395,2.54952 -1.10478,1.70714 -1.94512,3.55448 -2.8042,5.39442 -2.90729,6.18845 -5.74133,12.41394 -8.90485,18.47808 -2.57655,4.9046 -3.42435,6.58066 -6.1878,11.56666 -4.75873,8.58601 -9.85095,16.97889 -14.67942,25.52493 -2.27855,4.11715 -3.74027,6.64139 -5.80114,10.79135 -1.29982,2.61743 -2.38697,5.06339 -3.4777,7.75352 -0.33241,0.81985 -0.62761,1.65432 -0.94595,2.47975 -0.20285,0.52595 -0.41173,1.04956 -0.61759,1.57434 0,0 4.75443,-2.20148 4.75443,-2.20148 z" />
    <path
       style="fill:#000000;stroke-width:0.264583"
       id="path314"
       d="m 271.03774,257.81961 c 0.0923,-0.25194 0.19624,-0.49992 0.27688,-0.75583 0.61722,-1.95856 0.90457,-3.74543 1.42063,-5.73175 1.02848,-3.95862 0.81528,-2.91301 1.68475,-5.82452 1.56342,-4.36373 2.86125,-7.85837 4.30243,-12.10723 0.56774,-1.67379 1.7848,-4.78522 2.40139,-6.45829 1.6561,-4.73144 3.23169,-9.4926 4.75947,-14.26708 1.07464,-3.35414 2.26483,-6.66961 3.35401,-10.01883 0.46686,-1.51715 0.91398,-3.04019 1.37126,-4.56016 0.25869,-0.85985 0.47965,-1.73252 0.92066,-2.51743 -1.60667,1.01563 -3.3677,1.82065 -4.82003,3.04689 -0.23765,0.20066 0.0886,0.61609 0.11458,0.92604 0.0402,0.48031 0.0592,0.96219 0.0838,1.44355 0.0384,0.751 0.15112,3.44695 0.19317,4.08076 0.0636,0.95894 0.15329,1.91597 0.22993,2.87395 0.5967,5.58262 1.10488,11.17518 1.73132,16.75456 0.18211,1.60092 0.31491,3.21153 0.78654,4.75788 1.15426,2.61037 4.02793,-1.18654 5.66686,-2.43778 0.18892,-0.14424 0.10475,-0.46376 0.14995,-0.69711 0.0658,-0.3396 0.12193,-0.68099 0.18289,-1.02149 0.78248,-3.49918 1.48183,-7.01627 2.19002,-10.53105 0.77485,-4.28185 1.94919,-8.46767 3.37727,-12.57356 0.92244,-2.56751 2.18576,-4.99337 3.42591,-7.41757 0.5392,-0.95616 1.04966,-1.92984 1.59752,-2.8811 0.17902,-0.31082 0.49545,-0.89857 0.81948,-1.1404 0.0982,-0.0733 0.23304,-0.076 0.34956,-0.11396 -1.56998,0.91329 -3.22835,1.68922 -4.70993,2.73985 -0.13317,0.0944 0.19667,0.26261 0.27089,0.40801 0.14024,0.2747 0.25625,0.56138 0.37028,0.84795 0.53555,1.34587 0.91021,2.74017 1.30442,4.13172 1.34574,4.90016 2.53708,9.84153 3.7634,14.77263 1.18806,4.71817 2.26506,9.46387 3.28043,14.22196 0.62638,2.77231 1.25461,5.54705 1.69777,8.35561 0.11858,0.89207 0.069,0.46889 0.1526,1.26906 l 4.98214,-2.61707 v 0 c -0.11702,-0.80473 -0.0503,-0.38011 -0.20364,-1.2733 -0.53735,-2.78428 -1.20077,-5.54234 -1.84463,-8.30338 -1.06522,-4.74209 -2.18949,-9.47065 -3.38291,-14.18221 -1.20248,-4.95601 -2.41791,-9.90888 -3.62981,-14.8626 -0.46515,-1.728 -0.86374,-3.55274 -1.63004,-5.18193 -0.10956,-0.23295 -0.13965,-0.74376 -0.38597,-0.66894 -1.85676,0.56401 -3.53663,1.5984 -5.30495,2.3976 -1.088,1.20225 -1.68111,3.00009 -2.55038,4.36277 -1.22729,2.42647 -2.45154,4.86696 -3.31283,7.45303 -1.35756,4.13248 -2.50731,8.32832 -3.29875,12.60904 -0.75727,3.53849 -1.46809,7.08809 -2.33781,10.60138 -0.0808,0.33515 -0.14673,0.67422 -0.24236,1.00543 -0.0616,0.21318 -0.43206,0.71344 -0.22845,0.62525 1.62596,-0.70424 3.06972,-1.77751 4.66576,-2.54715 0.0875,-0.0422 0.0613,0.20691 0.0129,0.29106 -0.0723,0.12548 -0.31867,-0.57196 -0.2435,-0.3598 -0.48557,-1.48583 -0.66613,-3.04184 -0.90462,-4.58149 -0.78816,-5.53056 -1.42425,-11.08616 -1.84649,-16.65687 -0.11664,-2.34591 -0.18855,-4.68478 -0.24921,-7.0322 -0.013,-0.50329 -0.0136,-1.00732 -0.0477,-1.50962 -0.0246,-0.36301 0.22981,-1.14791 -0.12837,-1.08395 -1.83972,0.32853 -3.48159,1.35964 -5.22238,2.03946 -0.83103,2.31651 -1.30504,4.75154 -2.13002,7.07166 -1.09181,3.33777 -2.25128,6.65304 -3.30819,10.0023 -1.48665,4.73663 -2.9825,9.47249 -4.6005,14.16596 -1.11212,3.03802 -1.50275,3.3073 -2.41379,6.4493 -1.20617,4.15984 -2.81541,7.99929 -3.89024,12.1843 -0.14046,0.52077 -1.78784,5.04452 -1.95044,5.63228 -0.55681,2.01281 -1.11764,4.03533 -1.87531,5.98452 -0.0999,0.25695 -0.22442,0.50361 -0.33663,0.75541 l 5.13906,-2.34552 z"
       sodipodi:nodetypes="ccscscccscscsscccssccccsscsssccccccsccccssccccccssccccscsccccscssccc" />
    <path
       style="fill:#000000;stroke-width:0.264583"
       id="path320"
       d="m 245.95537,230.83503 c -4.82972,0.28359 -9.68282,-0.11831 -14.44744,-0.9213 -1.30185,-0.2194 -2.59335,-0.49633 -3.89002,-0.7445 -1.2405,-0.30749 -2.4972,-0.55578 -3.72151,-0.92247 -4.02505,-1.20556 -8.16057,-2.98917 -11.30244,-5.85206 -0.5464,-0.49787 -1.00906,-1.08051 -1.51359,-1.62077 -0.94515,-1.43715 -1.23581,-1.69518 -1.82656,-3.29756 -0.90619,-2.458 -1.00105,-5.11576 -1.12884,-7.70017 -0.0926,-2.69683 -0.031,-5.42832 0.53082,-8.07883 0.34249,-1.61571 0.60413,-2.19486 1.15297,-3.75035 0.99879,-2.52868 2.43576,-4.83692 4.20239,-6.89922 1.08109,-1.26203 1.74921,-1.85952 2.93326,-3.00995 2.6367,-2.50978 5.63536,-4.573 8.77426,-6.3952 -0.95406,0.57852 -2.04144,0.97972 -2.86219,1.73556 -0.5406,0.49785 1.32198,-0.64344 1.99553,-0.93744 2.13877,-0.93356 4.34672,-1.71958 6.61125,-2.28687 0.82296,-0.20617 1.65767,-0.36224 2.48651,-0.54336 4.35264,-0.71889 8.82151,-0.70844 13.10315,0.43542 0.78989,0.21102 1.55788,0.49682 2.33681,0.74523 0.7465,0.31103 1.52336,0.55737 2.23949,0.93307 3.0561,1.60328 6.17723,4.56846 7.94458,7.53341 0.52188,0.87552 0.89615,1.83097 1.34422,2.74646 1.15528,3.04555 1.94994,6.24204 2.28749,9.48621 0.41177,3.9575 0.19779,7.93085 0.0139,11.89172 -0.41173,5.48186 -0.93487,10.97073 -1.98126,16.3734 -0.68808,3.55271 -1.00217,4.53118 -1.91096,8.01516 -1.3385,4.84036 -3.19621,9.53243 -5.72314,13.87958 -1.57255,2.70531 -2.15269,3.36915 -3.97972,5.8803 -3.30379,4.1842 -7.22399,7.87489 -11.62087,10.89542 -0.79817,0.54832 -1.63388,1.03988 -2.45082,1.55982 0.67642,-0.42652 9.30008,-5.89655 8.58864,-5.5314 -0.9833,0.50469 -8.24462,5.03472 -9.10697,5.3793 -0.83368,0.33313 -1.68197,0.6305 -2.53699,0.90426 -1.82318,0.58375 -3.39058,0.96351 -5.28642,1.27366 -0.93714,0.1533 -1.88408,0.23911 -2.82612,0.35867 -0.92028,0.0604 -1.8386,0.17477 -2.76084,0.18115 -3.7641,0.0261 -7.62651,-0.73298 -11.04173,-2.34189 -0.76058,-0.35832 -1.46954,-0.8173 -2.20431,-1.22595 -0.66073,-0.52382 -1.37078,-0.99083 -1.98219,-1.57146 -3.0343,-2.88154 -5.11705,-7.13995 -6.64586,-10.96818 -0.47434,-1.18777 -0.86924,-2.40573 -1.30387,-3.6086 -1.68175,-5.62306 -3.0807,-11.50826 -2.56573,-17.42601 0.10641,-1.22276 0.35255,-2.42931 0.52882,-3.64397 0.96882,-4.9966 2.69962,-9.79033 5.02439,-14.31076 1.25036,-2.43127 1.96735,-3.52433 3.3684,-5.83276 2.15084,-3.42058 4.54047,-6.69006 7.20273,-9.73104 1.37623,-1.57201 1.74222,-1.89825 3.1596,-3.32388 0.42497,-0.3896 0.84993,-0.77921 1.27489,-1.16882 l -5.06483,2.07924 v 0 c -0.40555,0.39012 -0.8111,0.78024 -1.21665,1.17035 -3.83784,4.00257 -7.28552,8.36562 -10.17174,13.10889 -1.38274,2.33548 -2.0641,3.39557 -3.29417,5.85529 -2.28862,4.57642 -3.98699,9.41959 -4.95378,14.44948 -0.17957,1.24048 -0.43525,2.4723 -0.53871,3.72143 -0.49466,5.97222 1.00763,11.90143 2.70918,17.56549 0.43497,1.21558 0.83276,2.44512 1.30491,3.64675 1.5362,3.90965 3.59048,8.28971 6.64372,11.26701 0.62353,0.60804 1.3522,1.09798 2.0283,1.64697 0.75221,0.42554 1.47705,0.9036 2.25664,1.27663 3.3906,1.62237 7.43737,2.49623 11.18832,2.52607 0.93069,0.007 1.85829,-0.1082 2.78744,-0.1623 2.33427,-0.26669 3.31476,-0.31379 5.60265,-0.83108 5.44916,-1.23206 10.02392,-3.68456 14.78436,-6.66168 0.80979,-0.53003 1.63776,-1.03328 2.42938,-1.59009 4.36131,-3.06768 8.23729,-6.79568 11.49181,-11.01639 1.79983,-2.52806 2.38743,-3.21998 3.93532,-5.93871 2.49442,-4.38119 4.30929,-9.10271 5.61734,-13.96468 0.92686,-3.63158 1.16625,-4.34523 1.87859,-8.04649 1.04385,-5.42375 1.56013,-10.92882 1.95783,-16.43263 0.18999,-3.9993 0.4372,-8.03859 0.0359,-12.03651 -0.33094,-3.29684 -1.18374,-6.5391 -2.3344,-9.63695 -0.45265,-0.94905 -0.82536,-1.94056 -1.35797,-2.84716 -1.70809,-2.9075 -5.10007,-6.18494 -8.05728,-7.80655 -0.72093,-0.39532 -1.51222,-0.646 -2.26833,-0.969 -2.15243,-0.71067 -2.60717,-0.94345 -4.85685,-1.35048 -3.55676,-0.64351 -7.18754,-0.56551 -10.75484,-0.0523 -1.93116,0.39731 -3.01998,0.5745 -4.90266,1.14544 -4.52661,1.37271 -8.67835,3.62886 -12.69988,6.09143 -3.11488,1.86202 -6.09038,3.95596 -8.68913,6.50555 -1.19128,1.19296 -1.81422,1.76254 -2.89856,3.07193 -1.75709,2.12176 -3.17543,4.48894 -4.14607,7.07058 -0.55787,1.66104 -0.77034,2.11406 -1.10851,3.8347 -0.52852,2.68915 -0.5767,5.44835 -0.47596,8.17732 0.14025,2.65193 0.24813,5.37998 1.20659,7.89348 0.63739,1.67153 0.94713,1.93455 1.96091,3.42451 1.55222,1.61352 1.76476,1.99512 3.71707,3.30343 2.82593,1.89376 6.19941,3.31979 9.44138,4.30582 1.23235,0.37481 2.49953,0.62375 3.7493,0.93562 1.29698,0.25686 2.58919,0.53913 3.89095,0.77058 4.67305,0.83087 9.41978,1.30894 14.16911,1.24838 l 4.51966,-3.31239 z"
       sodipodi:nodetypes="sscsscscscsccssscscsscscscscscssssccscsscscscscccsccscscsscsccscscscscscsscscsccscscscsscsccs" />
  </g>
</svg>
