<?xml version="1.0" encoding="UTF-8" standalone="no"?>
<svg
   xmlns:dc="http://purl.org/dc/elements/1.1/"
   xmlns:cc="http://creativecommons.org/ns#"
   xmlns:rdf="http://www.w3.org/1999/02/22-rdf-syntax-ns#"
   xmlns:svg="http://www.w3.org/2000/svg"
   xmlns="http://www.w3.org/2000/svg"
   xmlns:sodipodi="http://sodipodi.sourceforge.net/DTD/sodipodi-0.dtd"
   xmlns:inkscape="http://www.inkscape.org/namespaces/inkscape"
   sodipodi:docname="signature_legacy.svg"
   inkscape:version="1.0 (4035a4fb49, 2020-05-01)"
   id="svg8"
   version="1.1"
   viewBox="0 0 205 132"
   height="132mm"
   width="205mm">
  <defs
     id="defs2">
    <inkscape:path-effect
       lpeversion="1"
       is_visible="true"
       id="path-effect154"
       effect="spiro" />
    <inkscape:path-effect
       lpeversion="1"
       is_visible="true"
       id="path-effect150"
       effect="spiro" />
  </defs>
  <sodipodi:namedview
     inkscape:window-maximized="1"
     inkscape:window-y="-8"
     inkscape:window-x="1912"
     inkscape:window-height="1017"
     inkscape:window-width="2560"
     inkscape:snap-others="false"
     inkscape:snap-text-baseline="true"
     showgrid="false"
     inkscape:document-rotation="0"
     inkscape:current-layer="layer1"
     inkscape:document-units="mm"
     inkscape:cy="426.61856"
     inkscape:cx="276.54785"
     inkscape:zoom="0.65595209"
     inkscape:pageshadow="2"
     inkscape:pageopacity="0.0"
     borderopacity="1.0"
     bordercolor="#666666"
     pagecolor="#ffffff"
     id="base" />
  <metadata
     id="metadata5">
    <rdf:RDF>
      <cc:Work
         rdf:about="">
        <dc:format>image/svg+xml</dc:format>
        <dc:type
           rdf:resource="http://purl.org/dc/dcmitype/StillImage" />
        <dc:title></dc:title>
      </cc:Work>
    </rdf:RDF>
  </metadata>
  <g
     id="layer1"
     inkscape:groupmode="layer"
     inkscape:label="Layer 1">
    <path
       d="m 122.17465,85.015909 c 0.86252,-1.71275 1.54468,-3.50776 2.24332,-5.29128 1.60893,-3.69683 3.15872,-7.41611 4.61254,-11.17674 1.16207,-3.01555 2.47867,-5.97064 3.50791,-9.03684 0.65849,-1.9617 0.76252,-2.47218 1.29183,-4.45117 0.98594,-3.91932 1.63779,-7.91139 2.28411,-11.89759 0.39687,-2.63407 0.58322,-5.29275 0.88785,-7.93712 0.1506,-1.25818 0.0761,-0.65375 0.22265,-1.81343 0,0 -3.16876,1.5734 -3.16876,1.5734 v 0 c -0.0921,1.13562 -0.0415,0.54237 -0.15337,1.77961 -0.23449,2.61425 -0.39226,5.23642 -0.72758,7.8406 -0.54183,3.963 -1.2168,7.9088 -2.15977,11.79818 -0.51867,1.97915 -0.60686,2.44552 -1.26139,4.40775 -1.02969,3.08694 -2.34466,6.0652 -3.59265,9.067 -0.76011,1.94601 -1.52256,3.89067 -2.34128,5.81306 -0.76567,1.79784 -0.86081,1.95752 -1.652,3.72377 -0.25252,0.56373 -0.50127,1.12914 -0.7519,1.69371 -0.43582,1.0039 -0.76492,1.78372 -1.22242,2.76162 -0.36288,0.77567 -0.73728,1.57501 -1.21172,2.29194 -0.0722,0.10907 -0.15911,0.2076 -0.23867,0.3114 0,0 3.4313,-1.45787 3.4313,-1.45787 z"
       id="path82"
       style="fill:none;stroke-width:0.264583" />
    <path
       d="m 125.62762,85.873469 c 0.29814,-0.77129 0.34796,-0.86555 0.6254,-1.80359 0.1807,-0.61094 1.3014,-4.72119 1.33854,-4.8526 1.30146,-4.60556 1.20874,-4.17224 2.78524,-9.20236 3.92849,-11.87037 8.26816,-23.59689 12.62303,-35.31554 0,0 -1.68922,0.79018 -1.68922,0.79018 v 0 c -1.90961,5.81115 -2.37734,7.35394 -4.53528,13.37298 -2.83893,7.91854 -2.91117,7.83638 -5.91198,15.65588 -0.81868,2.1333 -1.62172,4.27256 -2.43258,6.40884 -2.27947,6.20526 -1.4873,3.98116 -3.43835,9.51641 -0.53483,1.51735 -1.20492,3.51353 -1.83167,5.05986 -0.45785,1.12963 -0.41174,0.99389 -0.93116,1.82171 0,0 3.39803,-1.45177 3.39803,-1.45177 z"
       id="path84"
       style="fill:none;stroke-width:0.264583" />
    <circle
       r="0.033302065"
       cy="83.612617"
       cx="135.08704"
       style="fill:#000000;stroke:#000000;stroke-width:0.264583"
       id="path86" />
    <path
       d="m 124.32923,81.631729 c 0.66239,-4.63132 2.64678,-9.05792 4.34923,-13.37776 1.44162,-3.63986 2.47083,-6.16223 3.81489,-9.88647 0.72527,-2.00962 1.4004,-4.03699 2.10224,-6.05491 1.91027,-5.49238 3.82605,-10.98238 5.77355,-16.46166 0.5515,-1.48472 1.56038,-4.35353 2.32254,-5.93955 0.20866,-0.43419 1.18245,-1.4328 0.74055,-1.24102 -1.04731,0.45451 -2.1128,1.12192 -2.70927,2.0954 -0.30958,0.50526 0.27674,1.15425 0.35857,1.74113 0.14587,1.04618 0.21581,2.10155 0.32372,3.15232 0.68184,8.82713 1.26303,17.66313 2.10067,26.47735 0.0788,0.5594 0.0577,1.14231 0.23648,1.67819 0.0472,0.14163 0.28114,0.30988 0.39432,0.21249 1.21093,-1.04208 2.53885,-2.05272 3.34612,-3.43135 0.49859,-0.85146 0.23792,-1.95922 0.38199,-2.93535 0.61585,-4.17232 0.76223,-4.64766 1.60766,-9.02443 0.97958,-4.02413 1.49102,-6.46429 2.75813,-10.37582 0.43541,-1.34411 0.74815,-2.75853 1.45877,-3.9797 0.4119,-0.70783 1.21796,-2.20895 1.81847,-1.6521 0.61702,0.57216 -1.29227,1.37676 -1.21207,2.21441 0.0929,0.96999 1.10318,1.60653 1.65478,2.4098 0.52352,1.29223 1.12113,2.55687 1.57056,3.8767 1.58176,4.64509 2.53914,9.77096 3.26202,14.6167 0.22156,1.48514 0.37886,2.97915 0.56829,4.46873 0,0 2.18504,-1.15318 2.18504,-1.15318 v 0 c -1.27321,-7.83332 -2.48163,-15.73202 -5.0779,-23.26204 -0.47987,-0.9222 -0.45437,-2.43491 -1.43962,-2.76659 -2.11246,-0.71117 -4.76623,0.36595 -5.6565,2.33947 -0.5539,1.22789 -0.81394,2.56857 -1.18387,3.86381 -0.49943,1.74867 -2.35189,8.81327 -2.76955,10.39723 -0.71871,3.09424 -1.40877,6.19513 -2.13661,9.28724 -0.24365,1.03514 -1.3196,2.19161 -0.76296,3.09773 0.44281,0.72083 1.68611,-0.30764 2.52799,-0.22453 0.47134,0.0465 -3.49975,2.66859 -1.03779,-0.9705 -0.1881,-1.06332 -0.41017,-2.12119 -0.56431,-3.18997 -0.40525,-2.80996 -0.71275,-6.27195 -0.92843,-9.0698 -0.36423,-4.72483 -0.59039,-9.461 -0.58773,-14.20079 0.003,-1.11678 0.03,-2.23377 0.008,-3.35036 -0.0135,-0.70013 0.56382,-1.92001 -0.11353,-2.09772 -2.87038,-0.75311 -3.37133,0.68671 -3.89525,2.28961 -0.24301,0.74346 -0.45781,1.49586 -0.68151,2.24535 -0.3385,1.13407 -0.67006,2.27021 -1.00509,3.40531 -1.24141,4.06822 -1.7725,5.90436 -3.18687,10.09125 -2.55618,7.56689 -5.42899,15.02769 -8.62425,22.34782 -1.99911,4.57145 -4.14107,9.12023 -5.43235,13.95733 0,0 3.34039,-1.61977 3.34039,-1.61977 z"
       id="path96"
       style="fill:none;stroke-width:0.264583" />
    <path
       d="m 169.5293,23.449533 c 0.13899,1.235713 0.31199,2.46299 0.52765,3.687906 0.11835,0.67219 0.21104,1.34982 0.36454,2.01486 0.24025,1.04092 0.5439,2.06618 0.81584,3.09927 2.91686,10.64397 6.23776,21.17265 8.93597,31.87728 0.70556,2.7992 1.33835,5.61625 2.00752,8.42437 1.91845,8.60366 3.45405,17.2972 4.405,26.06274 0.13996,1.29005 0.2415,2.583971 0.36224,3.875941 0,0 2.35301,-1.2387 2.35301,-1.2387 v 0 c -1.73204,-9.818861 -3.65936,-19.603051 -6.02151,-29.292531 -1.95354,-8.2266 -3.97634,-16.43621 -5.91901,-24.66535 -0.91075,-3.85795 -1.92441,-8.18298 -2.75802,-12.09403 -0.30395,-1.42608 -0.57861,-2.85826 -0.86792,-4.28738 -0.47062,-3.02662 -0.96825,-6.075711 -0.89638,-9.150359 0,0 -3.30893,1.685983 -3.30893,1.685983 z"
       id="path98"
       style="fill:none;stroke-width:0.264583" />
    <path
       d="m 186.7275,89.643349 c -1.39819,-3.43568 -2.28372,-7.03717 -3.05422,-10.65716 -1.07529,-5.05196 -1.42644,-7.40479 -2.3246,-12.60402 -1.94571,-11.94121 -3.81979,-23.9004 -5.22029,-35.91991 -0.20428,-1.75324 -0.38004,-3.50969 -0.57006,-5.264529 -0.30685,-3.181871 -0.64551,-6.362681 -0.86559,-9.552352 -0.0815,-1.18201 -0.12335,-2.329461 -0.0353,-3.508695 0.0781,-0.786419 0.45642,-1.47932 0.66839,-2.2285281 0.0735,-0.380735 0.0414,-0.19182 0.097,-0.56665 0,0 -3.32391,1.6261371 -3.32391,1.6261371 v 0 c -0.0629,0.3482 -0.0256,0.173443 -0.11281,0.524116 -0.22468,0.74145 -0.53148,1.457799 -0.49615,2.253335 0.0551,1.138941 0.23003,2.233736 0.43323,3.357562 0.55093,3.047042 1.15424,6.08488 1.64623,9.142544 2.23513,13.63147 4.38314,27.27773 6.20157,40.97212 0.84424,5.94786 1.68976,11.8938 2.61201,17.83012 0.18991,1.2224 0.36465,2.44732 0.57451,3.66645 0.10391,0.60362 0.2444,1.20037 0.3666,1.80055 0.0502,0.296 0.10038,0.592 0.15057,0.888 0,0 3.25287,-1.75909 3.25287,-1.75909 z"
       id="path100"
       style="fill:none;stroke-width:0.264583" />
    <path
       d="m 170.18103,17.379391 c 0.29617,5.022241 0.35302,10.061578 0.7447,15.078308 0.22664,2.90281 0.56359,5.79595 0.84672,8.6938 1.26232,12.91988 0.55567,5.47461 1.72128,18.01768 0.81664,9.34607 0.42835,4.96913 1.16073,13.13119 0,0 1.89568,-0.99782 1.89568,-0.99782 v 0 c -1.40625,-7.83696 -0.7234,-3.60814 -1.97542,-12.69805 -0.32046,-2.89209 -0.68151,-5.77997 -0.96137,-8.67627 -1.09271,-11.30876 -1.69739,-22.73935 -0.42856,-34.061374 0,0 -3.00376,1.512536 -3.00376,1.512536 z"
       id="path102"
       style="fill:none;stroke-width:0.264583" />
    <path
       d="m 174.07765,17.377123 c 0.20234,0.5906 0.42839,1.173605 0.60702,1.771806 1.06485,3.566065 1.68478,6.239957 2.44217,10.06038 1.24325,6.27129 2.16864,12.12349 3.01263,18.48266 0.44048,3.31888 0.78595,6.64969 1.17893,9.97453 1.05246,11.23598 0.61379,5.92406 1.35278,15.93267 0,0 1.54875,-0.81084 1.54875,-0.81084 v 0 c -1.45135,-9.68319 -0.72115,-4.51351 -2.15326,-15.5143 -1.25834,-10.55639 -1.14754,-9.44464 -2.32423,-20.05074 -0.20794,-1.87419 -1.3896,-12.829175 -1.70626,-15.533857 -0.24851,-2.122588 -0.50302,-3.96594 -0.78157,-6.026475 0,0 -3.17696,1.714166 -3.17696,1.714166 z"
       id="path104"
       style="fill:none;stroke-width:0.264583" />
    <path
       d="m 168.04395,1.2895859 c 0.19694,0.410385 0.44841,0.798812 0.59083,1.231154 1.6205,4.919443 2.24021,8.1577371 3.23182,13.5782631 0.66567,3.638815 1.2575,7.291292 1.81018,10.948976 1.60067,10.59349 1.80709,13.28901 3.0001,23.84328 0.30732,3.35893 0.61463,6.71786 0.92195,10.07679 0,0 0.75336,-0.39484 0.75336,-0.39484 v 0 c -0.4596,-3.27916 -0.91919,-6.55832 -1.37879,-9.83748 -0.48418,-3.89101 -0.98849,-7.77956 -1.45255,-11.67302 -0.83254,-6.98498 -1.87751,-16.453977 -2.601,-23.520249 -0.30685,-2.997052 -0.59875,-5.9956881 -0.87279,-8.9959201 -0.17203,-1.883434 -0.251,-3.77562 -0.46539,-5.65470195 -0.0557,-0.488312 -0.22892,-0.955931 -0.34338,-1.433896 0,0 -3.19434,1.83164395 -3.19434,1.83164395 z"
       id="path106"
       style="fill:none;stroke-width:0.264583" />
    <path
       d="m 169.24718,12.70691 c 0.9071,2.637091 1.08191,3.017263 1.90772,6.516955 0.99529,4.217929 2.14465,10.503814 2.88127,14.668294 1.26368,7.14429 1.41869,8.40347 2.4939,15.39715 0,0 1.42613,-0.75681 1.42613,-0.75681 v 0 c -0.44148,-2.41852 -0.90296,-4.83347 -1.32445,-7.25555 -0.98776,-5.67625 -1.73345,-10.37638 -2.52313,-16.081857 -1.45944,-10.544407 -0.42531,-3.413527 -1.4183,-12.186716 -0.0771,-0.680902 -0.19799,-1.356124 -0.29699,-2.034188 0,0 -3.14615,1.732722 -3.14615,1.732722 z"
       id="path108"
       style="fill:none;stroke-width:0.264583" />
    <path
       sodipodi:nodetypes="scscsscssscsscsccscsccsscssccscsscssscsscsscccs"
       d="m 171.2569,11.652508 c 2.44448,-1.318249 4.95655,-2.4993411 7.49169,-3.6310171 2.73309,-1.07913 5.60088,-1.908855 8.56549,-1.863746 1.79195,0.02726 2.13963,0.18978 3.84629,0.563348 0.59186,0.285118 1.21711,0.509363 1.77556,0.855353 2.38522,1.477772 4.3834,4.1395831 5.4455,6.7084811 0.32291,0.781037 0.52683,1.606119 0.79024,2.409177 0.17055,0.864941 0.40149,1.720141 0.51165,2.594827 0.24607,1.953686 0.23064,4.098486 0.087,6.055767 -0.12165,1.657471 -0.49356,4.429821 -0.91801,6.047701 -0.28222,1.07573 -0.6966,2.11237 -1.04489,3.16855 -0.47463,1.06447 -0.90597,2.14932 -1.42388,3.19342 -2.07275,4.17864 -4.92153,8.18449 -8.10185,11.59281 -1.00577,1.07787 -2.08312,2.08667 -3.12469,3.13001 -6.80712,6.4564 -14.48692,11.89186 -22.49529,16.74603 -0.98245,0.5955 -1.9936,1.14229 -2.99041,1.71343 -13.42185,7.55241 -27.68698,13.41002 -41.81228,19.48173 -15.30069,6.72324 -30.64172,13.392401 -46.383504,19.033041 -12.880176,4.61526 -16.972711,5.70622 -30.024544,9.71106 -12.719391,3.51401 -14.488339,4.15542 -26.93676,7.03319 -3.654404,0.84481 -7.3323964,1.58412 -10.998595,2.37618 l -1.7941137,1.364 v 0 c 3.7333936,-0.84102 7.3733843,-0.72707 11.3988067,-1.76596 12.552849,-3.23966 14.385781,-3.98443 27.260562,-7.5822 11.924254,-3.65633 17.973741,-5.16546 29.725538,-9.33122 4.469895,-1.58448 8.945652,-3.08912 13.36581,-4.80747 10.950919,-4.25721 22.41061,-9.027611 33.1762,-13.729491 14.03527,-5.99286 27.61108,-11.91267 40.94749,-19.38582 2.67392,-1.5415 5.47296,-3.34578 8.12382,-4.92661 8.10918,-4.83588 15.46932,-10.70006 22.37396,-17.14589 1.07222,-1.06533 2.18418,-2.09209 3.21665,-3.19598 0.83532,-0.8931 1.61755,-1.83561 2.38207,-2.79002 2.94769,-3.67979 5.38689,-7.74217 7.12657,-12.12974 0.35499,-1.07591 0.78043,-2.13109 1.06496,-3.22775 0.41118,-1.58479 0.77372,-4.469813 0.88763,-6.089939 0.13214,-1.879296 0.15845,-4.271542 -0.0702,-6.151322 -0.10814,-0.889232 -0.34609,-1.757825 -0.51913,-2.636739 -0.26245,-0.825003 -0.46101,-1.673125 -0.78735,-2.475005 -1.06154,-2.6084431 -3.14958,-5.3732271 -5.52641,-6.9182141 -0.56965,-0.370284 -1.2079,-0.622443 -1.81185,-0.933664 -1.77655,-0.406824 -2.06058,-0.560213 -3.92761,-0.615995 -0.72706,-0.02172 -1.4576,-0.01294 -2.18135,0.05973 -2.21875,0.222747 -4.36889,0.930309 -6.45062,1.687409 -2.47319,1.086464 -4.93204,2.20789 -7.31964,3.473821 l -2.92053,2.3347251 z"
       id="path194"
       style="fill:#000000;stroke-width:0.264583" />
    <path
       d="m 172.51587,11.950707 c 0.23585,3.456548 0.76177,6.883268 1.25801,10.30919 1.05753,7.301032 0.6702,4.695062 1.94643,12.530562 1.85651,11.53625 3.81703,23.05485 5.85592,34.56014 0.87831,4.78559 1.68699,9.5894 2.8284,14.3214 0.3936,1.69841 0.95936,3.34994 1.3991,5.03579 0.1535,0.64591 0.35903,1.26966 0.66006,1.8614 0.16508,0.3227 0.37432,0.60211 0.62422,0.86203 0,0 3.20615,-1.95822 3.20615,-1.95822 v 0 c -0.22728,-0.23184 -0.43433,-0.46185 -0.57537,-0.76121 -0.29116,-0.56511 -0.49341,-1.16173 -0.65914,-1.77518 -0.48534,-1.66169 -1.0767,-3.2923 -1.49939,-4.97254 -1.24218,-4.6614 -2.20731,-9.39058 -3.16313,-14.11741 -2.26865,-11.42312 -4.35718,-22.8836 -6.15196,-34.39133 -1.10093,-7.695621 -2.29721,-15.417486 -2.42592,-23.206382 0,0 -3.30338,1.70176 -3.30338,1.70176 z"
       id="path222"
       style="fill:#000000;stroke-width:0.264583" />
    <path
       d="m 47.432242,97.685609 c 2.338662,-7.8537 6.285632,-15.06209 10.173808,-22.22753 1.129337,-1.9964 2.245532,-4.0003 3.388011,-5.98921 1.175224,-2.04591 2.386319,-4.07105 3.564951,-6.115 1.525077,-2.64474 6.085467,-10.6657 7.58713,-13.35224 2.904369,-5.19603 3.621009,-6.57124 6.359639,-11.65585 3.309448,-6.15521 6.307643,-12.468223 9.411322,-18.72741 0.905841,-1.850628 1.825082,-3.690014 2.981465,-5.397238 0.64969,-0.8358 1.227796,-1.743435 1.972225,-2.500027 0.599779,-0.58552 1.342515,-0.998916 2.036316,-1.461876 1.997412,-1.1527871 -2.012752,1.161193 -3.800441,2.208292 -0.107294,0.06285 0.220694,-0.114636 0.330647,-0.172704 0.304586,-0.160853 0.604351,-0.330158 0.90742,-0.493813 0.330772,-0.144248 0.822415,-0.582144 1.22056,-0.397166 0.09515,0.04421 0.168775,0.124701 0.253162,0.18705 0.0965,0.122843 0.207436,0.235601 0.289486,0.368525 0.696872,1.128972 0.920689,3.096508 1.093565,4.320087 0.137284,0.97169 0.247203,1.947053 0.370805,2.92058 1.366348,12.08806 2.026428,24.24013 2.649368,36.3845 0.59264,11.7224 1.27931,23.43986 1.873699,35.16214 0,0 4.3032,-2.229 4.3032,-2.229 v 0 c -0.97367,-11.6333 -1.7781,-23.27943 -2.28136,-34.94362 -0.64637,-12.2262 -1.22881,-24.45845 -2.162149,-36.667008 -0.0897,-0.99649 -0.1708,-1.993781 -0.269,-2.989466 -0.17182,-1.742231 -0.28036,-3.656222 -1.36925,-5.1129381 -0.65104,-0.673473 -1.00922,-0.773732 -1.84964,-0.335928 -2.140825,1.267044 -4.431143,2.2909761 -6.480574,3.7146601 -0.710948,0.469693 -1.441788,0.932291 -1.996193,1.591101 -0.66901,0.820803 -1.29539,1.676243 -1.893949,2.549522 -1.104783,1.707142 -1.945121,3.554481 -2.804202,5.394423 -2.907289,6.188444 -5.741326,12.413934 -8.904851,18.478074 -2.576544,4.9046 -3.424351,6.58066 -6.187802,11.56666 -4.75873,8.58601 -9.850951,16.97889 -14.679417,25.52493 -2.278547,4.11715 -3.740274,6.64139 -5.801143,10.79135 -1.299816,2.61743 -2.386962,5.06339 -3.477694,7.75352 -0.332417,0.81985 -0.627615,1.65432 -0.945957,2.47975 -0.202845,0.52595 -0.411726,1.04956 -0.617587,1.57434 0,0 4.75443,-2.20148 4.75443,-2.20148 z"
       id="path264"
       style="fill:#000000;stroke-width:0.264583" />
    <path
       sodipodi:nodetypes="ccscscccscscsscccssccccsscsssccccccsccccssccccccssccccscsccccscssccc"
       d="m 123.1116,83.435139 c 0.0923,-0.25194 0.19624,-0.49992 0.27688,-0.75583 0.61722,-1.95856 0.90457,-3.74543 1.42063,-5.73175 1.02848,-3.95862 0.81528,-2.91301 1.68475,-5.82452 1.56342,-4.36373 2.86125,-7.85837 4.30243,-12.10723 0.56774,-1.67379 1.7848,-4.78522 2.40139,-6.45829 1.6561,-4.73144 3.23169,-9.4926 4.75947,-14.26708 1.07464,-3.35414 2.26483,-6.66961 3.35401,-10.01883 0.46686,-1.51715 0.91398,-3.040189 1.37126,-4.560157 0.25869,-0.859851 0.47965,-1.732526 0.92066,-2.517434 -1.60667,1.01563 -3.3677,1.820654 -4.82003,3.046892 -0.23765,0.200657 0.0886,0.616092 0.11458,0.926044 0.0402,0.480311 0.0592,0.962184 0.0838,1.443545 0.0384,0.751 0.15112,3.44695 0.19317,4.08076 0.0636,0.95894 0.15329,1.91597 0.22993,2.87395 0.5967,5.58262 1.10488,11.17518 1.73132,16.75456 0.18211,1.60092 0.31491,3.21153 0.78654,4.75788 1.15426,2.61037 4.02793,-1.18654 5.66686,-2.43778 0.18892,-0.14424 0.10475,-0.46376 0.14995,-0.69711 0.0658,-0.3396 0.12193,-0.68099 0.18289,-1.02149 0.78248,-3.49918 1.48183,-7.01627 2.19002,-10.53105 0.77485,-4.28185 1.94919,-8.46767 3.37727,-12.57356 0.92244,-2.567507 2.18576,-4.993371 3.42591,-7.417571 0.5392,-0.956162 1.04966,-1.929839 1.59752,-2.881093 0.17902,-0.310827 0.49545,-0.89857 0.81948,-1.140401 0.0982,-0.0733 0.23304,-0.07597 0.34956,-0.113962 -1.56998,0.913284 -3.22835,1.689214 -4.70993,2.739851 -0.13317,0.09443 0.19667,0.262612 0.27089,0.408011 0.14024,0.274696 0.25625,0.561377 0.37028,0.847942 0.53555,1.345877 0.91021,2.740178 1.30442,4.131728 1.34574,4.900155 2.53708,9.841525 3.7634,14.772625 1.18806,4.71817 2.26506,9.46387 3.28043,14.22196 0.62638,2.77231 1.25461,5.54705 1.69777,8.35561 0.11858,0.89207 0.069,0.46889 0.1526,1.26906 l 4.98214,-2.61707 v 0 c -0.11702,-0.80473 -0.0503,-0.38011 -0.20364,-1.2733 -0.53735,-2.78428 -1.20077,-5.54234 -1.84463,-8.30338 -1.06522,-4.74209 -2.18949,-9.47065 -3.38291,-14.18221 -1.20248,-4.95601 -2.41791,-9.90888 -3.62981,-14.862601 -0.46515,-1.727999 -0.86374,-3.552733 -1.63004,-5.181926 -0.10956,-0.232955 -0.13965,-0.743762 -0.38597,-0.668941 -1.85676,0.564007 -3.53663,1.598401 -5.30495,2.397602 -1.088,1.20225 -1.68111,3.000092 -2.55038,4.362765 -1.22729,2.426477 -2.45154,4.866961 -3.31283,7.453031 -1.35756,4.13248 -2.50731,8.32832 -3.29875,12.60904 -0.75727,3.53849 -1.46809,7.08809 -2.33781,10.60138 -0.0808,0.33515 -0.14673,0.67422 -0.24236,1.00543 -0.0616,0.21318 -0.43206,0.71344 -0.22845,0.62525 1.62596,-0.70424 3.06972,-1.77751 4.66576,-2.54715 0.0875,-0.0422 0.0613,0.20691 0.0129,0.29106 -0.0723,0.12548 -0.31867,-0.57196 -0.2435,-0.3598 -0.48557,-1.48583 -0.66613,-3.04184 -0.90462,-4.58149 -0.78816,-5.53056 -1.42425,-11.08616 -1.84649,-16.65687 -0.11664,-2.34591 -0.18855,-4.68478 -0.24921,-7.032195 -0.013,-0.503293 -0.0136,-1.007324 -0.0477,-1.509628 -0.0246,-0.363005 0.22981,-1.147908 -0.12837,-1.083947 -1.83972,0.328533 -3.48159,1.359643 -5.22238,2.039466 -0.83103,2.316504 -1.30504,4.751534 -2.13002,7.071654 -1.09181,3.33777 -2.25128,6.65304 -3.30819,10.0023 -1.48665,4.73663 -2.9825,9.47249 -4.6005,14.16596 -1.11212,3.03802 -1.50275,3.3073 -2.41379,6.4493 -1.20617,4.15984 -2.81541,7.99929 -3.89024,12.1843 -0.14046,0.52077 -1.78784,5.04452 -1.95044,5.63228 -0.55681,2.01281 -1.11764,4.03533 -1.87531,5.98452 -0.0999,0.25695 -0.22442,0.50361 -0.33663,0.75541 l 5.13906,-2.34552 z"
       id="path314"
       style="fill:#000000;stroke-width:0.264583" />
    <path
       sodipodi:nodetypes="sscsscscscsccssscscsscscscscscssssccscsscscscscccsccscscsscsccscscscscscsscscsccscscscsscsccs"
       d="m 98.029231,56.450559 c -4.829719,0.28359 -9.682813,-0.11831 -14.44744,-0.9213 -1.301848,-0.2194 -2.593345,-0.49633 -3.890018,-0.7445 -1.240501,-0.30749 -2.497195,-0.55578 -3.721505,-0.92247 -4.025058,-1.20556 -8.160572,-2.98917 -11.302446,-5.85206 -0.546394,-0.49787 -1.009055,-1.08051 -1.513584,-1.62077 -0.945152,-1.43715 -1.235818,-1.69518 -1.826564,-3.29756 -0.90619,-2.458 -1.001048,-5.11576 -1.128842,-7.70017 -0.09262,-2.69683 -0.03102,-5.42832 0.530823,-8.07883 0.342492,-1.615712 0.604126,-2.194859 1.152972,-3.750344 0.998789,-2.528681 2.435757,-4.836922 4.202385,-6.899225 1.08109,-1.262028 1.749216,-1.859518 2.933261,-3.009945 2.636705,-2.509782 5.635357,-4.5730001 8.774263,-6.3952091 -0.954064,0.578522 -2.041443,0.979726 -2.862194,1.735569 -0.540599,0.497848 1.32198,-0.64344 1.995527,-0.93744 2.13877,-0.933564 4.346726,-1.71958 6.61125,-2.286878 0.822965,-0.206164 1.657675,-0.362239 2.486514,-0.543357 4.352645,-0.718889 8.821508,-0.708443 13.103148,0.43542 0.78989,0.211021 1.557879,0.496821 2.336809,0.74523 0.7465,0.311026 1.52336,0.557374 2.23949,0.933072 3.0561,1.603282 6.17723,4.5684571 7.94458,7.5334101 0.52188,0.875514 0.89615,1.830972 1.34422,2.746459 1.15528,3.045548 1.94994,6.242042 2.28749,9.486208 0.41177,3.9575 0.19779,7.93085 0.0139,11.89172 -0.41173,5.48186 -0.93487,10.97073 -1.98126,16.3734 -0.68808,3.55271 -1.00217,4.53118 -1.91096,8.01516 -1.3385,4.84036 -3.19621,9.53243 -5.72314,13.87958 -1.57255,2.70531 -2.15269,3.36915 -3.97972,5.8803 -3.303789,4.1842 -7.22399,7.87489 -11.620865,10.89542 -0.798171,0.54832 -1.633884,1.03988 -2.450824,1.55982 0.676425,-0.42652 9.30008,-5.89655 8.588643,-5.5314 -0.983297,0.50469 -8.244622,5.03472 -9.10697,5.3793 -0.833681,0.33313 -1.681969,0.6305 -2.536986,0.90426 -1.823186,0.58375 -3.390588,0.96351 -5.286423,1.27366 -0.937138,0.1533 -1.884079,0.23911 -2.826118,0.35867 -0.920281,0.0604 -1.838605,0.17477 -2.760845,0.18115 -3.764102,0.0261 -7.626508,-0.73298 -11.041726,-2.34189 -0.760587,-0.35832 -1.469541,-0.8173 -2.20431,-1.22595 -0.660731,-0.52382 -1.37078,-0.99083 -1.98219,-1.57146 -3.034299,-2.88154 -5.117057,-7.13995 -6.645865,-10.96818 -0.474334,-1.18777 -0.86924,-2.40573 -1.303864,-3.6086 -1.681757,-5.62306 -3.080705,-11.50826 -2.56573,-17.42601 0.106407,-1.22276 0.352546,-2.42931 0.52882,-3.64397 0.968817,-4.9966 2.699618,-9.79033 5.024387,-14.31076 1.250355,-2.43127 1.967346,-3.52433 3.368397,-5.83276 2.150838,-3.42058 4.54047,-6.69006 7.202731,-9.73104 1.376233,-1.572006 1.742226,-1.898248 3.159606,-3.323874 0.424964,-0.389609 0.849924,-0.779219 1.274887,-1.168828 l -5.064831,2.079241 v 0 c -0.405551,0.390118 -0.811099,0.780238 -1.216647,1.170351 -3.837847,4.00257 -7.285519,8.36562 -10.171747,13.10889 -1.382736,2.33548 -2.064099,3.39557 -3.294171,5.85529 -2.288612,4.57642 -3.98699,9.41959 -4.953773,14.44948 -0.17957,1.24048 -0.435252,2.4723 -0.538712,3.72143 -0.494663,5.97222 1.007633,11.90143 2.709179,17.56549 0.43497,1.21558 0.832758,2.44512 1.304907,3.64675 1.5362,3.90965 3.59048,8.28971 6.643719,11.26701 0.623538,0.60804 1.352201,1.09798 2.028301,1.64697 0.752213,0.42554 1.47705,0.9036 2.256639,1.27663 3.390607,1.622371 7.437379,2.496231 11.188322,2.526071 0.93069,0.007 1.858295,-0.1082 2.787443,-0.1623 2.334266,-0.26669 3.314764,-0.31379 5.602645,-0.83108 5.449165,-1.232061 10.023927,-3.684561 14.784363,-6.661681 0.809795,-0.53003 1.637766,-1.03328 2.429383,-1.59009 4.361306,-3.06768 8.237285,-6.79568 11.491805,-11.01639 1.79983,-2.52806 2.38743,-3.21998 3.93532,-5.93871 2.49442,-4.38119 4.30929,-9.10271 5.61734,-13.96468 0.92686,-3.63158 1.16625,-4.34523 1.87859,-8.04649 1.04385,-5.42375 1.56013,-10.92882 1.95783,-16.43263 0.18999,-3.9993 0.4372,-8.03859 0.0359,-12.036512 -0.33094,-3.296841 -1.18374,-6.539098 -2.3344,-9.636948 -0.45265,-0.949052 -0.82536,-1.940554 -1.35797,-2.847157 -1.70809,-2.9075061 -5.10007,-6.1849371 -8.05728,-7.8065471 -0.72093,-0.395327 -1.51222,-0.646002 -2.26833,-0.969005 -2.15243,-0.710665 -2.60717,-0.943446 -4.85685,-1.350476 -3.556759,-0.643514 -7.18754,-0.565515 -10.75484,-0.05231 -1.931159,0.397309 -3.019978,0.574501 -4.902657,1.145432 -4.526611,1.372714 -8.678347,3.628861 -12.699881,6.091433 -3.114882,1.8620181 -6.090375,3.9559631 -8.689131,6.5055561 -1.191276,1.192956 -1.814214,1.762538 -2.898558,3.071929 -1.757085,2.121758 -3.175429,4.488932 -4.146066,7.070577 -0.557871,1.661038 -0.770348,2.114058 -1.108517,3.834698 -0.528516,2.68915 -0.576699,5.44835 -0.475956,8.17732 0.140248,2.65193 0.248129,5.37998 1.206587,7.89348 0.637397,1.67153 0.947137,1.93455 1.960917,3.42451 1.552218,1.61352 1.764753,1.99512 3.717063,3.30343 2.82593,1.89376 6.199412,3.31979 9.441378,4.30582 1.232355,0.37481 2.499537,0.62375 3.749307,0.93562 1.296982,0.25686 2.589191,0.53913 3.890949,0.77058 4.67305,0.83087 9.419781,1.30894 14.169107,1.24838 l 4.519659,-3.31239 z"
       id="path320"
       style="fill:#000000;stroke-width:0.264583" />
  </g>
</svg>
