<?xml version="1.0" encoding="UTF-8" standalone="no"?>
<svg
   xmlns:dc="http://purl.org/dc/elements/1.1/"
   xmlns:cc="http://creativecommons.org/ns#"
   xmlns:rdf="http://www.w3.org/1999/02/22-rdf-syntax-ns#"
   xmlns:svg="http://www.w3.org/2000/svg"
   xmlns="http://www.w3.org/2000/svg"
   xmlns:sodipodi="http://sodipodi.sourceforge.net/DTD/sodipodi-0.dtd"
   xmlns:inkscape="http://www.inkscape.org/namespaces/inkscape"
   sodipodi:docname="gamer.svg"
   inkscape:version="1.0 (4035a4fb49, 2020-05-01)"
   id="svg8"
   version="1.1"
   viewBox="0 0 300 200"
   height="200mm"
   width="300mm"
   inkscape:export-filename="S:\Dev\Websites\andrewpodratcom-angular\RAW\design.png"
   inkscape:export-xdpi="21.674667"
   inkscape:export-ydpi="21.674667">
  <defs
     id="defs2" />
  <sodipodi:namedview
     inkscape:window-maximized="1"
     inkscape:window-y="-8"
     inkscape:window-x="1912"
     inkscape:window-height="1017"
     inkscape:window-width="2560"
     inkscape:snap-global="false"
     showgrid="false"
     inkscape:document-rotation="0"
     inkscape:current-layer="layer2"
     inkscape:document-units="mm"
     inkscape:cy="326.58097"
     inkscape:cx="527.32359"
     inkscape:zoom="1"
     inkscape:pageshadow="2"
     inkscape:pageopacity="0.0"
     borderopacity="1.0"
     bordercolor="#666666"
     pagecolor="#ffffff"
     id="base" />
  <metadata
     id="metadata5">
    <rdf:RDF>
      <cc:Work
         rdf:about="">
        <dc:format>image/svg+xml</dc:format>
        <dc:type
           rdf:resource="http://purl.org/dc/dcmitype/StillImage" />
        <dc:title />
      </cc:Work>
    </rdf:RDF>
  </metadata>
  <g
     id="layer1"
     inkscape:groupmode="layer"
     inkscape:label="Layer 1">
    <path
       sodipodi:nodetypes="csssssscc"
       id="path885"
       d="m 140.20398,134.40974 c 0,0 77.25856,0.6208 81.71947,4.56668 9.97867,8.82661 16.11023,24.9516 23.05247,36.32208 6.40387,10.48868 12.92774,19.40595 24.73548,16.55793 12.36195,-2.98168 17.20603,-16.91386 19.44962,-29.43082 7.74904,-43.23184 -23.98417,-125.867775 -28.96291,-135.304177 -3.70489,-7.02202 -45.42317,-23.1352007 -68.5175,-18.1478857 -5.91791,1.2779957 -8.37047,8.9246737 -14.07386,10.9559717 -7.51202,0.387298 -37.40686,0.539667 -37.40686,0.539667"
       style="fill:#3a4750;fill-opacity:1;stroke:none;stroke-width:0.370364px;stroke-linecap:butt;stroke-linejoin:miter;stroke-opacity:1" />
    <path
       style="fill:#171717;fill-opacity:1;stroke:none;stroke-width:0.370364px;stroke-linecap:butt;stroke-linejoin:miter;stroke-opacity:1"
       d="m 221.92345,138.97642 c 9.97867,8.82661 16.11023,24.9516 23.05247,36.32208 6.40387,10.48868 12.92774,19.40595 24.73548,16.55793 12.36195,-2.98168 17.20603,-16.91386 19.44962,-29.43082 C 296.91006,119.19377 265.17685,36.557835 260.19811,27.121433 256.49322,20.099413 214.77494,3.9862323 191.68061,8.9735473 185.7627,10.251543 183.31014,17.898221 177.60675,19.929519"
       id="path868"
       sodipodi:nodetypes="csssssc" />
    <path
       sodipodi:nodetypes="ccssc"
       id="path895"
       d="m 180.08997,26.464631 c 29.12027,-17.4157387 82.90303,4.46021 82.33526,5.564222 0,0 -1.72974,-3.964722 -2.22712,-4.90742 -3.70488,-7.022034 -45.42317,-23.1352007 -68.5175,-18.1478857 -5.91791,1.2779957 -8.37047,8.9246737 -14.07386,10.9559717"
       style="fill:#030303;fill-opacity:1;stroke:none;stroke-width:0.370364px;stroke-linecap:butt;stroke-linejoin:miter;stroke-opacity:1" />
    <ellipse
       style="font-variation-settings:normal;opacity:1;vector-effect:none;fill:#171717;fill-opacity:1;fill-rule:evenodd;stroke-width:0.301418;stroke-linecap:butt;stroke-linejoin:miter;stroke-miterlimit:4;stroke-dasharray:none;stroke-dashoffset:0;stroke-opacity:1;stop-color:#000000;stop-opacity:1"
       id="path897"
       cx="151.22385"
       cy="31.01269"
       rx="5.7615247"
       ry="3.8160753" />
    <ellipse
       cy="50.093082"
       cx="151.22385"
       id="circle901"
       style="font-variation-settings:normal;opacity:1;vector-effect:none;fill:#171717;fill-opacity:1;fill-rule:evenodd;stroke-width:0.301418;stroke-linecap:butt;stroke-linejoin:miter;stroke-miterlimit:4;stroke-dasharray:none;stroke-dashoffset:0;stroke-opacity:1;stop-color:#000000;stop-opacity:1"
       rx="5.7615247"
       ry="3.8160753" />
    <circle
       cy="104.06062"
       cx="187.75716"
       id="circle907"
       style="font-variation-settings:normal;opacity:1;vector-effect:none;fill:#1c1c1c;fill-opacity:1;fill-rule:evenodd;stroke-width:0.283929;stroke-linecap:butt;stroke-linejoin:miter;stroke-miterlimit:4;stroke-dasharray:none;stroke-dashoffset:0;stroke-opacity:1;stop-color:#000000;stop-opacity:1"
       r="22.987946" />
    <circle
       style="font-variation-settings:normal;opacity:1;vector-effect:none;fill:#00adb5;fill-opacity:1;fill-rule:evenodd;stroke-width:0.28985;stroke-linecap:butt;stroke-linejoin:miter;stroke-miterlimit:4;stroke-dasharray:none;stroke-dashoffset:0;stroke-opacity:1;stop-color:#000000;stop-opacity:1"
       id="path887"
       cx="224.64308"
       cy="43.243732"
       r="6.6665678" />
    <circle
       cy="70.650703"
       cx="224.64308"
       id="circle889"
       style="font-variation-settings:normal;opacity:1;vector-effect:none;fill:#00adb5;fill-opacity:1;fill-rule:evenodd;stroke-width:0.28985;stroke-linecap:butt;stroke-linejoin:miter;stroke-miterlimit:4;stroke-dasharray:none;stroke-dashoffset:0;stroke-opacity:1;stop-color:#000000;stop-opacity:1"
       r="6.6665678" />
    <circle
       cy="210.93959"
       cx="-56.947216"
       id="circle891"
       style="font-variation-settings:normal;opacity:1;vector-effect:none;fill:#00adb5;fill-opacity:1;fill-rule:evenodd;stroke-width:0.28985;stroke-linecap:butt;stroke-linejoin:miter;stroke-miterlimit:4;stroke-dasharray:none;stroke-dashoffset:0;stroke-opacity:1;stop-color:#000000;stop-opacity:1"
       transform="rotate(-90)"
       r="6.6665678" />
    <circle
       style="font-variation-settings:normal;opacity:1;vector-effect:none;fill:#00adb5;fill-opacity:1;fill-rule:evenodd;stroke-width:0.28985;stroke-linecap:butt;stroke-linejoin:miter;stroke-miterlimit:4;stroke-dasharray:none;stroke-dashoffset:0;stroke-opacity:1;stop-color:#000000;stop-opacity:1"
       id="circle893"
       cx="-56.947216"
       cy="238.34657"
       transform="rotate(-90)"
       r="6.6665678" />
  </g>
  <g
     inkscape:groupmode="layer"
     id="layer2"
     inkscape:label="Layer 2">
    <path
       style="fill:#e8e8e8;fill-opacity:1;stroke:none;stroke-width:0.370364px;stroke-linecap:butt;stroke-linejoin:miter;stroke-opacity:1"
       d="m 140.19809,20.466288 c 0,0 -51.316625,0.514134 -53.881052,-0.677197 C 80.025009,10.428666 77.711949,8.2821873 72.168612,7.6744593 56.505514,6.4439233 44.490606,7.4331913 40.559824,14.170084 24.318716,42.005413 13.601066,107.98717 12.477899,158.75037 c -0.840649,37.99426 36.421832,44.69201 51.224276,7.53437 1.326597,-3.33008 6.020281,-18.1485 7.844401,-32.19862 l 68.659334,0.32159"
       id="path871"
       sodipodi:nodetypes="cccssscc" />
    <path
       sodipodi:nodetypes="ccsssc"
       id="path921"
       d="M 86.317038,19.789091 C 80.025009,10.428666 77.711949,8.2821873 72.168612,7.6744593 56.505514,6.4439233 44.490606,7.4331913 40.559824,14.170084 24.318716,42.005413 13.601066,107.98717 12.477899,158.75037 c -0.840649,37.99426 36.421832,44.69201 51.224276,7.53437 1.326597,-3.33008 6.020281,-18.1485 7.844401,-32.19862"
       style="fill:#c7c7c7;fill-opacity:1;stroke:none;stroke-width:0.370364px;stroke-linecap:butt;stroke-linejoin:miter;stroke-opacity:1" />
    <circle
       style="font-variation-settings:normal;opacity:1;vector-effect:none;fill:#1c1c1c;fill-opacity:1;fill-rule:evenodd;stroke-width:0.310072;stroke-linecap:butt;stroke-linejoin:miter;stroke-miterlimit:4;stroke-dasharray:none;stroke-dashoffset:0;stroke-opacity:1;stop-color:#000000;stop-opacity:1"
       id="circle911"
       cx="95.16275"
       cy="104.06062"
       r="25.104612" />
    <path
       sodipodi:nodetypes="cccczc"
       id="path919"
       d="M 86.317038,19.789091 C 80.025009,10.428666 77.711949,8.2821873 72.168612,7.6744593 56.505514,6.4439233 44.490606,7.4331913 40.559824,14.170084 c -0.952203,1.652076 -1.511546,2.5526 -2.960549,5.622044 11.548917,-5.672048 13.050675,-7.246818 25.630379,-7.261207 12.579703,-0.01439 16.861973,7.261095 23.087384,7.25817 z"
       style="fill:#b0b0b0;fill-opacity:1;stroke:none;stroke-width:0.370364px;stroke-linecap:butt;stroke-linejoin:miter;stroke-opacity:1" />
    <ellipse
       ry="3.8160753"
       rx="5.7615247"
       style="font-variation-settings:normal;opacity:1;vector-effect:none;fill:#171717;fill-opacity:1;fill-rule:evenodd;stroke-width:0.301418;stroke-linecap:butt;stroke-linejoin:miter;stroke-miterlimit:4;stroke-dasharray:none;stroke-dashoffset:0;stroke-opacity:1;stop-color:#000000;stop-opacity:1"
       id="ellipse925"
       cx="-69.09864"
       cy="132.21829"
       transform="rotate(-90)" />
    <path
       style="font-variation-settings:normal;opacity:1;vector-effect:none;fill:#3a4750;fill-opacity:1;fill-rule:evenodd;stroke-width:0.620868;stroke-linecap:butt;stroke-linejoin:miter;stroke-miterlimit:4;stroke-dasharray:none;stroke-dashoffset:0;stroke-opacity:1;stop-color:#000000;stop-opacity:1"
       id="path929"
       sodipodi:type="arc"
       sodipodi:cx="41.534985"
       sodipodi:cy="-140.42101"
       sodipodi:rx="17.939293"
       sodipodi:ry="50.413345"
       sodipodi:start="0"
       sodipodi:end="3.1415927"
       sodipodi:arc-type="slice"
       d="m 59.474277,-140.42101 a 17.939293,50.413345 0 0 1 -8.969646,43.659243 17.939293,50.413345 0 0 1 -17.939293,-10e-7 17.939293,50.413345 0 0 1 -8.969646,-43.659242 h 17.939293 z"
       transform="rotate(90)" />
    <circle
       style="font-variation-settings:normal;opacity:1;vector-effect:none;fill:#3a4750;fill-opacity:1;fill-rule:evenodd;stroke-width:0.562686;stroke-linecap:butt;stroke-linejoin:miter;stroke-miterlimit:4;stroke-dasharray:none;stroke-dashoffset:0;stroke-opacity:1;stop-color:#000000;stop-opacity:1"
       id="path938"
       cx="52.819614"
       cy="58.557644"
       r="19.39662" />
    <rect
       style="fill:#00adb5;fill-opacity:1;stroke:none;stroke-width:7.28565;stroke-linecap:square;stroke-linejoin:round"
       id="rect940"
       width="5.9218211"
       height="10.858945"
       x="49.874527"
       y="41.477665"
       ry="1.9390975" />
    <rect
       ry="1.9390975"
       y="64.551468"
       x="49.874527"
       height="10.858945"
       width="5.9218211"
       id="rect948"
       style="fill:#00adb5;fill-opacity:1;stroke:none;stroke-width:7.28565;stroke-linecap:square;stroke-linejoin:round" />
    <rect
       ry="1.9390975"
       y="35.869064"
       x="-61.404972"
       height="10.858945"
       width="5.9218211"
       id="rect950"
       style="fill:#00adb5;fill-opacity:1;stroke:none;stroke-width:7.28565;stroke-linecap:square;stroke-linejoin:round"
       transform="rotate(-90)" />
    <rect
       style="fill:#00adb5;fill-opacity:1;stroke:none;stroke-width:7.28565;stroke-linecap:square;stroke-linejoin:round"
       id="rect952"
       width="5.9218211"
       height="10.858945"
       x="-61.404972"
       y="58.942871"
       ry="1.9390975"
       transform="rotate(-90)" />
  </g>
</svg>
