<?xml version="1.0" encoding="UTF-8" standalone="no"?>
<svg
   xmlns:dc="http://purl.org/dc/elements/1.1/"
   xmlns:cc="http://creativecommons.org/ns#"
   xmlns:rdf="http://www.w3.org/1999/02/22-rdf-syntax-ns#"
   xmlns:svg="http://www.w3.org/2000/svg"
   xmlns="http://www.w3.org/2000/svg"
   xmlns:sodipodi="http://sodipodi.sourceforge.net/DTD/sodipodi-0.dtd"
   xmlns:inkscape="http://www.inkscape.org/namespaces/inkscape"
   sodipodi:docname="mac_icon.svg"
   inkscape:version="1.0 (4035a4fb49, 2020-05-01)"
   id="svg839"
   version="1.1"
   viewBox="0 0 300 300"
   height="300mm"
   width="300mm">
  <defs
     id="defs833" />
  <sodipodi:namedview
     inkscape:snap-global="false"
     inkscape:window-maximized="0"
     inkscape:window-y="0"
     inkscape:window-x="1913"
     inkscape:window-height="1008"
     inkscape:window-width="1278"
     inkscape:guide-bbox="true"
     showguides="true"
     showgrid="false"
     inkscape:document-rotation="0"
     inkscape:current-layer="layer1"
     inkscape:document-units="mm"
     inkscape:cy="414.90313"
     inkscape:cx="683.19135"
     inkscape:zoom="0.35355339"
     inkscape:pageshadow="2"
     inkscape:pageopacity="0.0"
     borderopacity="1.0"
     bordercolor="#666666"
     pagecolor="#ffffff"
     id="base">
    <sodipodi:guide
       inkscape:color="rgb(0,0,255)"
       inkscape:locked="false"
       inkscape:label=""
       id="guide1402"
       orientation="-1,0"
       position="150,150" />
    <sodipodi:guide
       inkscape:color="rgb(0,0,255)"
       inkscape:locked="false"
       inkscape:label=""
       id="guide1404"
       orientation="0,1"
       position="150,150" />
  </sodipodi:namedview>
  <metadata
     id="metadata836">
    <rdf:RDF>
      <cc:Work
         rdf:about="">
        <dc:format>image/svg+xml</dc:format>
        <dc:type
           rdf:resource="http://purl.org/dc/dcmitype/StillImage" />
        <dc:title></dc:title>
      </cc:Work>
    </rdf:RDF>
  </metadata>
  <g
     id="layer1"
     inkscape:groupmode="layer"
     inkscape:label="Layer 1">
    <g
       transform="translate(-14.816667,-10.848063)"
       inkscape:transform-center-y="-46.704741"
       inkscape:transform-center-x="59.503632"
       style="display:inline"
       id="g1485">
      <path
         transform="scale(0.26458333)"
         sodipodi:nodetypes="csccsccccccc"
         id="path1406"
         style="font-variation-settings:normal;opacity:1;vector-effect:none;fill:#ef2812;fill-opacity:1;fill-rule:evenodd;stroke-width:1.00157;stroke-linecap:butt;stroke-linejoin:miter;stroke-miterlimit:4;stroke-dasharray:none;stroke-dashoffset:0;stroke-opacity:1;stop-color:#000000;stop-opacity:1"
         d="m 566.62695,117.14258 c -119.23857,0.08 -233.56605,47.50353 -317.85208,131.84633 -84.28603,84.3428 -131.63255,198.70219 -131.63229,317.94078 h 133.60937 c 4.8e-4,53.42796 43.31228,96.73976 96.74024,96.74023 53.42872,6.1e-4 96.74171,-43.31151 96.74219,-96.74023 h 122.69531 l -5.4e-4,-120.55691 c -53.12338,-0.42627 -95.96394,-43.61123 -95.96485,-96.73633 -1.7e-4,-53.12585 42.84071,-96.312 95.96485,-96.73828 l 5.4e-4,-135.75559 z" />
      <path
         d="m 150,30.993824 h -0.0801 C 84.225836,31.037915 30.993686,84.305921 30.993831,150"
         style="font-variation-settings:normal;opacity:1;vector-effect:none;fill:none;fill-opacity:1;fill-rule:evenodd;stroke:#b62312;stroke-width:20;stroke-linecap:butt;stroke-linejoin:miter;stroke-miterlimit:4;stroke-dasharray:none;stroke-dashoffset:0;stroke-opacity:1;stop-color:#000000;stop-opacity:1"
         id="path1406-5"
         sodipodi:nodetypes="ccc" />
    </g>
    <g
       transform="rotate(-90,150.14004,163.89739)"
       id="g1526"
       style="display:inline"
       inkscape:transform-center-x="46.704739"
       inkscape:transform-center-y="59.50363">
      <path
         transform="scale(0.26458333)"
         d="m 566.62695,117.14258 c -119.23857,0.08 -233.56605,47.50353 -317.85208,131.84633 -84.28603,84.3428 -131.63255,198.70219 -131.63229,317.94078 h 133.60937 c 4.8e-4,53.42796 43.31228,96.73976 96.74024,96.74023 53.42872,6.1e-4 96.74171,-43.31151 96.74219,-96.74023 h 122.69531 l -5.4e-4,-122.55691 c -53.12338,-0.42627 -95.96394,-43.61123 -95.96485,-96.73633 -1.7e-4,-53.12585 42.84071,-96.312 95.96485,-96.73828 l 5.4e-4,-133.75559 z"
         style="font-variation-settings:normal;opacity:1;vector-effect:none;fill:#f1bf13;fill-opacity:1;fill-rule:evenodd;stroke-width:1.00157;stroke-linecap:butt;stroke-linejoin:miter;stroke-miterlimit:4;stroke-dasharray:none;stroke-dashoffset:0;stroke-opacity:1;stop-color:#000000;stop-opacity:1"
         id="path1522"
         sodipodi:nodetypes="csccsccccccc" />
      <path
         sodipodi:nodetypes="ccc"
         id="path1524"
         style="font-variation-settings:normal;opacity:1;vector-effect:none;fill:none;fill-opacity:1;fill-rule:evenodd;stroke:#ca9f15;stroke-width:20;stroke-linecap:butt;stroke-linejoin:miter;stroke-miterlimit:4;stroke-dasharray:none;stroke-dashoffset:0;stroke-opacity:1;stop-color:#000000;stop-opacity:1"
         d="m 150,30.993824 h -0.0801 C 84.225836,31.037915 30.993686,84.305921 30.993831,150" />
    </g>
    <g
       id="g1546"
       style="display:inline"
       inkscape:transform-center-x="-59.503638"
       inkscape:transform-center-y="46.704741"
       transform="rotate(180,155.82146,157.01104)">
      <path
         d="m 566.62695,117.14258 c -119.23857,0.08 -233.56605,47.50353 -317.85208,131.84633 -84.28603,84.3428 -131.63255,198.70219 -131.63229,317.94078 h 133.60937 c 4.8e-4,53.42796 43.31228,96.73976 96.74024,96.74023 53.42872,6.1e-4 96.74171,-43.31151 96.74219,-96.74023 h 122.69531 l -5.4e-4,-120.55691 c -53.12338,-0.42627 -95.96394,-43.61123 -95.96485,-96.73633 -1.7e-4,-53.12585 42.84071,-96.312 95.96485,-96.73828 l 5.4e-4,-135.75559 z"
         style="font-variation-settings:normal;opacity:1;vector-effect:none;fill:#079df3;fill-opacity:1;fill-rule:evenodd;stroke-width:1.00157;stroke-linecap:butt;stroke-linejoin:miter;stroke-miterlimit:4;stroke-dasharray:none;stroke-dashoffset:0;stroke-opacity:1;stop-color:#000000;stop-opacity:1"
         id="path1542"
         sodipodi:nodetypes="csccsccccccc"
         transform="scale(0.26458333)" />
      <path
         sodipodi:nodetypes="ccc"
         id="path1544"
         style="font-variation-settings:normal;opacity:1;vector-effect:none;fill:none;fill-opacity:1;fill-rule:evenodd;stroke:#0a83c7;stroke-width:20;stroke-linecap:butt;stroke-linejoin:miter;stroke-miterlimit:4;stroke-dasharray:none;stroke-dashoffset:0;stroke-opacity:1;stop-color:#000000;stop-opacity:1"
         d="m 150,30.993824 h -0.0801 C 84.225836,31.037915 30.993686,84.305921 30.993831,150" />
    </g>
    <g
       inkscape:transform-center-y="-59.503627"
       inkscape:transform-center-x="-46.704732"
       style="display:inline"
       id="g1552"
       transform="rotate(90,161.78183,150.91842)">
      <path
         sodipodi:nodetypes="csccsccccccc"
         id="path1548"
         style="font-variation-settings:normal;opacity:1;vector-effect:none;fill:#00fd18;fill-opacity:1;fill-rule:evenodd;stroke-width:1.00157;stroke-linecap:butt;stroke-linejoin:miter;stroke-miterlimit:4;stroke-dasharray:none;stroke-dashoffset:0;stroke-opacity:1;stop-color:#000000;stop-opacity:1"
         d="m 566.62695,117.14258 c -119.23857,0.08 -233.56605,47.50353 -317.85208,131.84633 -84.28603,84.3428 -131.63255,198.70219 -131.63229,317.94078 h 133.60937 c 4.8e-4,53.42796 43.31228,96.73976 96.74024,96.74023 53.42872,6.1e-4 96.74171,-43.31151 96.74219,-96.74023 h 122.69531 l -5.4e-4,-122.55691 c -53.12338,-0.42627 -95.96394,-43.61123 -95.96485,-96.73633 -1.7e-4,-53.12585 42.84071,-96.312 95.96485,-96.73828 l 5.4e-4,-133.75559 z"
         transform="scale(0.26458333)" />
      <path
         d="m 150,30.993824 h -0.0801 C 84.225836,31.037915 30.993686,84.305921 30.993831,150"
         style="font-variation-settings:normal;opacity:1;vector-effect:none;fill:none;fill-opacity:1;fill-rule:evenodd;stroke:#0ec91f;stroke-width:20;stroke-linecap:butt;stroke-linejoin:miter;stroke-miterlimit:4;stroke-dasharray:none;stroke-dashoffset:0;stroke-opacity:1;stop-color:#000000;stop-opacity:1"
         id="path1550"
         sodipodi:nodetypes="ccc" />
    </g>
    <rect
       transform="scale(-1)"
       y="-150.92657"
       x="-154.59079"
       height="123.62024"
       width="9.1138144"
       id="rect1554"
       style="fill:#c5c5c5;fill-opacity:1;stroke:none;stroke-width:21.4867;stroke-linecap:square;stroke-miterlimit:4;stroke-dasharray:none;stroke-opacity:1" />
    <rect
       style="fill:none;fill-opacity:1;stroke:#c5c5c5;stroke-width:8.227;stroke-linecap:square;stroke-miterlimit:4;stroke-dasharray:none;stroke-opacity:1"
       id="rect1557"
       width="78.795166"
       height="2.0961771"
       x="-228.40199"
       y="-150.55566"
       transform="scale(-1)" />
  </g>
</svg>
